<?xml version="1.0" encoding="UTF-8" standalone="no"?>
<svg
   xmlns:dc="http://purl.org/dc/elements/1.1/"
   xmlns:cc="http://creativecommons.org/ns#"
   xmlns:rdf="http://www.w3.org/1999/02/22-rdf-syntax-ns#"
   xmlns:svg="http://www.w3.org/2000/svg"
   xmlns="http://www.w3.org/2000/svg"
   viewBox="0 0 897.6203 409.73599"
   height="409.73599"
   width="897.6203"
   xml:space="preserve"
   id="svg2"
   version="1.1"><metadata
     id="metadata8"><rdf:RDF><cc:Work
         rdf:about=""><dc:format>image/svg+xml</dc:format><dc:type
           rdf:resource="http://purl.org/dc/dcmitype/StillImage" /></cc:Work></rdf:RDF></metadata><defs
     id="defs6"><clipPath
       id="clipPath14"
       clipPathUnits="userSpaceOnUse"><path
         id="path12"
         d="M 0,0 H 1024 V 768 H 0 Z" /></clipPath><clipPath
       id="clipPath24"
       clipPathUnits="userSpaceOnUse"><path
         id="path22"
         d="M 0,0 H 1024 V 768 H 0 Z" /></clipPath><clipPath
       id="clipPath48"
       clipPathUnits="userSpaceOnUse"><path
         id="path46"
         d="m 69.4563,353.7291 h 147.5506 v 33.10109 H 69.4563 Z" /></clipPath><clipPath
       id="clipPath62"
       clipPathUnits="userSpaceOnUse"><path
         id="path60"
         d="M 0,0 H 1024 V 768 H 0 Z" /></clipPath><clipPath
       id="clipPath76"
       clipPathUnits="userSpaceOnUse"><path
         id="path74"
         d="m 69.4563,313.4495 h 147.5506 v 33.10109 H 69.4563 Z" /></clipPath><clipPath
       id="clipPath90"
       clipPathUnits="userSpaceOnUse"><path
         id="path88"
         d="M 0,0 H 1024 V 768 H 0 Z" /></clipPath><clipPath
       id="clipPath104"
       clipPathUnits="userSpaceOnUse"><path
         id="path102"
         d="m 69.4563,273.1698 h 147.5506 v 33.10109 H 69.4563 Z" /></clipPath><clipPath
       id="clipPath118"
       clipPathUnits="userSpaceOnUse"><path
         id="path116"
         d="M 0,0 H 1024 V 768 H 0 Z" /></clipPath><clipPath
       id="clipPath172"
       clipPathUnits="userSpaceOnUse"><path
         id="path170"
         d="m 248.0788,353.1807 h 147.5506 v 33.10109 H 248.0788 Z" /></clipPath><clipPath
       id="clipPath186"
       clipPathUnits="userSpaceOnUse"><path
         id="path184"
         d="M 0,0 H 1024 V 768 H 0 Z" /></clipPath><clipPath
       id="clipPath200"
       clipPathUnits="userSpaceOnUse"><path
         id="path198"
         d="m 248.0788,312.9011 h 147.5506 v 33.10109 H 248.0788 Z" /></clipPath><clipPath
       id="clipPath214"
       clipPathUnits="userSpaceOnUse"><path
         id="path212"
         d="M 0,0 H 1024 V 768 H 0 Z" /></clipPath><clipPath
       id="clipPath228"
       clipPathUnits="userSpaceOnUse"><path
         id="path226"
         d="m 248.0788,272.6215 h 147.5506 v 33.10109 H 248.0788 Z" /></clipPath><clipPath
       id="clipPath242"
       clipPathUnits="userSpaceOnUse"><path
         id="path240"
         d="M 0,0 H 1024 V 768 H 0 Z" /></clipPath><clipPath
       id="clipPath314"
       clipPathUnits="userSpaceOnUse"><path
         id="path312"
         d="m 516.588,352.282 h 147.5506 v 33.10109 H 516.588 Z" /></clipPath><clipPath
       id="clipPath328"
       clipPathUnits="userSpaceOnUse"><path
         id="path326"
         d="M 0,0 H 1024 V 768 H 0 Z" /></clipPath><clipPath
       id="clipPath342"
       clipPathUnits="userSpaceOnUse"><path
         id="path340"
         d="m 516.588,312.0024 h 147.5506 v 33.10109 H 516.588 Z" /></clipPath><clipPath
       id="clipPath356"
       clipPathUnits="userSpaceOnUse"><path
         id="path354"
         d="M 0,0 H 1024 V 768 H 0 Z" /></clipPath><clipPath
       id="clipPath370"
       clipPathUnits="userSpaceOnUse"><path
         id="path368"
         d="m 516.588,271.7228 h 147.5506 v 33.10109 H 516.588 Z" /></clipPath><clipPath
       id="clipPath384"
       clipPathUnits="userSpaceOnUse"><path
         id="path382"
         d="M 0,0 H 1024 V 768 H 0 Z" /></clipPath></defs><g
     clip-path="url(#clipPath14)"
     transform="matrix(1.3333333,0,0,-1.3333333,-40.47064,696.04733)"
     id="g10"><g
       id="g16" /><g
       id="g18"><g
         clip-path="url(#clipPath24)"
         id="g20"><path
           id="path26"
           style="fill:#ffffff;fill-opacity:1;fill-rule:nonzero;stroke:none"
           d="M 0,0 H 1024 V 768 H 0 Z" /><path
           id="path28"
           style="fill:#f4f4f4;fill-opacity:1;fill-rule:nonzero;stroke:none"
           d="M 27.07983,574.9298 H 913.2126 V 193.0702 H 27.07983 Z" /><path
           id="path30"
           style="fill:#ffffff;fill-opacity:1;fill-rule:nonzero;stroke:none"
           d="M 58.2893,492.2298 H 228.1564 V 250.1267 H 58.2893 Z" /><g
           transform="matrix(1,0,0,-1,58.2893,492.2298)"
           id="g32"><path
             id="path34"
             style="fill:none;stroke:#000000;stroke-width:1;stroke-linecap:butt;stroke-linejoin:miter;stroke-miterlimit:4;stroke-dasharray:none;stroke-opacity:1"
             d="M 0,0 H 169.8671 V 242.1031 H 0 Z" /></g><path
           id="path36"
           style="fill:#ffffff;fill-opacity:1;fill-rule:nonzero;stroke:none"
           d="M 81.42998,386.8301 H 205.0157 c 3.0745,0 4.6355,0 6.2937,-0.5255 1.8146,-0.6604 3.244,-2.0898 3.9045,-3.9044 0.5255,-1.6582 0.5255,-3.2193 0.5255,-6.3414 v -11.6061 c 0,-3.0744 0,-4.6355 -0.5255,-6.2937 -0.6605,-1.8146 -2.0899,-3.244 -3.9045,-3.9044 -1.6582,-0.5255 -3.2192,-0.5255 -6.3413,-0.5255 H 81.42998 c -3.07445,0 -4.63552,0 -6.29371,0.5255 -1.81458,0.6604 -3.244,2.0898 -3.90445,3.9044 -0.52551,1.6582 -0.52551,3.2193 -0.52551,6.3414 v 11.6061 c 0,3.0744 0,4.6355 0.52551,6.2937 0.66045,1.8146 2.08987,3.244 3.90445,3.9044 1.65819,0.5255 3.21926,0.5255 6.34139,0.5255 z" /><g
           transform="matrix(1,0,0,-1,70.70631,386.8301)"
           id="g38"><path
             id="path40"
             style="fill:none;stroke:#000000;stroke-width:1.10000002;stroke-linecap:butt;stroke-linejoin:miter;stroke-miterlimit:4;stroke-dasharray:none;stroke-opacity:1"
             d="M 10.72367,0 H 134.3094 c 3.0745,0 4.6355,0 6.2937,0.5255076 1.8146,0.6604544 3.244,2.0898724 3.9045,3.9044574 0.5255,1.658189 0.5255,3.219254 0.5255,6.341385 v 11.60606 c 0,3.07446 0,4.63552 -0.5255,6.29371 -0.6605,1.81459 -2.0899,3.244 -3.9045,3.90446 -1.6582,0.52551 -3.2192,0.52551 -6.3414,0.52551 H 10.72367 c -3.074451,0 -4.635516,0 -6.293705,-0.52551 C 2.61538,31.91512 1.185962,30.48571 0.5255076,28.67112 0,27.01293 0,25.45187 0,22.32974 V 10.72367 C 0,7.649219 0,6.088154 0.5255076,4.429965 1.185962,2.61538 2.61538,1.185962 4.429965,0.5255076 6.088154,0 7.649219,0 10.77135,0 Z" /></g></g></g><g
       id="g42"><g
         clip-path="url(#clipPath48)"
         id="g44"><g
           transform="translate(93,369)"
           id="g50"><text
             id="text54"
             style="font-variant:normal;font-size:8px;font-family:HiraKakuProN;-inkscape-font-specification:HiraKakuProN-W3;writing-mode:lr-tb;fill:#000000;fill-opacity:1;fill-rule:nonzero;stroke:none"
             transform="scale(1,-1)"><tspan
               id="tspan52"
               y="0"
               x="0 3.1359999 7.4239998 9.3280001 14.496 16.416 19.08 24.336 29.591999 34.848 40.104 43.439999 48.695999 53.863998 59.032001 64.288002 69.543999 74.800003 80.056 85.311996 90.568001 95.856003">txid: 3103f7bd20965841</tspan></text>
</g></g></g><g
       id="g56"><g
         clip-path="url(#clipPath62)"
         id="g58"><path
           id="path64"
           style="fill:#ffffff;fill-opacity:1;fill-rule:nonzero;stroke:none"
           d="M 81.42998,346.5505 H 205.0157 c 3.0745,0 4.6355,0 6.2937,-0.5255 1.8146,-0.6604 3.244,-2.0898 3.9045,-3.9044 0.5255,-1.6582 0.5255,-3.2193 0.5255,-6.3414 v -11.6061 c 0,-3.0744 0,-4.6355 -0.5255,-6.2937 -0.6605,-1.8146 -2.0899,-3.244 -3.9045,-3.9044 -1.6582,-0.5255 -3.2192,-0.5255 -6.3413,-0.5255 H 81.42998 c -3.07445,0 -4.63552,0 -6.29371,0.5255 -1.81458,0.6604 -3.244,2.0898 -3.90445,3.9044 -0.52551,1.6582 -0.52551,3.2193 -0.52551,6.3414 v 11.6061 c 0,3.0744 0,4.6355 0.52551,6.2937 0.66045,1.8146 2.08987,3.244 3.90445,3.9044 1.65819,0.5255 3.21926,0.5255 6.34139,0.5255 z" /><g
           transform="matrix(1,0,0,-1,70.70631,346.5505)"
           id="g66"><path
             id="path68"
             style="fill:none;stroke:#000000;stroke-width:1.10000002;stroke-linecap:butt;stroke-linejoin:miter;stroke-miterlimit:4;stroke-dasharray:none;stroke-opacity:1"
             d="M 10.72367,0 H 134.3094 c 3.0745,0 4.6355,0 6.2937,0.5255076 1.8146,0.6604544 3.244,2.0898724 3.9045,3.9044574 0.5255,1.658189 0.5255,3.219254 0.5255,6.341385 v 11.60606 c 0,3.07446 0,4.63552 -0.5255,6.29371 -0.6605,1.81459 -2.0899,3.244 -3.9045,3.90446 -1.6582,0.52551 -3.2192,0.52551 -6.3414,0.52551 H 10.72367 c -3.074451,0 -4.635516,0 -6.293705,-0.52551 C 2.61538,31.91512 1.185962,30.48571 0.5255076,28.67112 0,27.01293 0,25.45187 0,22.32974 V 10.72367 C 0,7.649219 0,6.088154 0.5255076,4.429965 1.185962,2.61538 2.61538,1.185962 4.429965,0.5255076 6.088154,0 7.649219,0 10.77135,0 Z" /></g></g></g><g
       id="g70"><g
         clip-path="url(#clipPath76)"
         id="g72"><g
           transform="translate(92,329)"
           id="g78"><text
             id="text82"
             style="font-variant:normal;font-size:8px;font-family:HiraKakuProN;-inkscape-font-specification:HiraKakuProN-W3;writing-mode:lr-tb;fill:#000000;fill-opacity:1;fill-rule:nonzero;stroke:none"
             transform="scale(1,-1)"><tspan
               id="tspan80"
               y="0"
               x="0 3.1359999 7.4239998 9.3280001 14.496 16.416 19.08 24.336 29.624001 34.248001 39.504002 44.759998 50.015999 55.183998 60.439999 65.695999 70.952003 75.552002 80.720001 85.975998 91.264 96.519997">txid: 64c383b352ab3421</tspan></text>
</g></g></g><g
       id="g84"><g
         clip-path="url(#clipPath90)"
         id="g86"><path
           id="path92"
           style="fill:#ffffff;fill-opacity:1;fill-rule:nonzero;stroke:none"
           d="M 81.42998,306.2709 H 205.0157 c 3.0745,0 4.6355,0 6.2937,-0.5255 1.8146,-0.6604 3.244,-2.0898 3.9045,-3.9044 0.5255,-1.6582 0.5255,-3.2193 0.5255,-6.3414 v -11.6061 c 0,-3.0744 0,-4.6355 -0.5255,-6.2937 -0.6605,-1.8146 -2.0899,-3.244 -3.9045,-3.9044 -1.6582,-0.5256 -3.2192,-0.5256 -6.3413,-0.5256 H 81.42998 c -3.07445,0 -4.63552,0 -6.29371,0.5256 -1.81458,0.6604 -3.244,2.0898 -3.90445,3.9044 -0.52551,1.6582 -0.52551,3.2193 -0.52551,6.3414 v 11.6061 c 0,3.0744 0,4.6355 0.52551,6.2937 0.66045,1.8146 2.08987,3.244 3.90445,3.9044 1.65819,0.5255 3.21926,0.5255 6.34139,0.5255 z" /><g
           transform="matrix(1,0,0,-1,70.70631,306.2709)"
           id="g94"><path
             id="path96"
             style="fill:none;stroke:#000000;stroke-width:1.10000002;stroke-linecap:butt;stroke-linejoin:miter;stroke-miterlimit:4;stroke-dasharray:none;stroke-opacity:1"
             d="M 10.72367,0 H 134.3094 c 3.0745,0 4.6355,0 6.2937,0.5255076 1.8146,0.6604544 3.244,2.0898724 3.9045,3.9044574 0.5255,1.658189 0.5255,3.219254 0.5255,6.341385 v 11.60606 c 0,3.07446 0,4.63552 -0.5255,6.29371 -0.6605,1.81459 -2.0899,3.244 -3.9045,3.90446 -1.6582,0.52551 -3.2192,0.52551 -6.3414,0.52551 H 10.72367 c -3.074451,0 -4.635516,0 -6.293705,-0.52551 C 2.61538,31.91512 1.185962,30.48571 0.5255076,28.67112 0,27.01293 0,25.45187 0,22.32974 V 10.72367 C 0,7.649219 0,6.088154 0.5255076,4.429965 1.185962,2.61538 2.61538,1.185962 4.429965,0.5255076 6.088154,0 7.649219,0 10.77135,0 Z" /></g></g></g><g
       id="g98"><g
         clip-path="url(#clipPath104)"
         id="g100"><g
           transform="translate(94,288)"
           id="g106"><text
             id="text110"
             style="font-variant:normal;font-size:8px;font-family:HiraKakuProN;-inkscape-font-specification:HiraKakuProN-W3;writing-mode:lr-tb;fill:#000000;fill-opacity:1;fill-rule:nonzero;stroke:none"
             transform="scale(1,-1)"><tspan
               id="tspan108"
               y="0"
               x="0 3.1359999 7.4239998 9.3280001 14.496 16.416 19.08 23.68 28.384001 33.639999 38.896 44.152 48.855999 54.112 57.448002 62.703999 67.959999 73.216003 78.472 83.639999 88.807999 94.064003">txid: ae219e0f7703dd62</tspan></text>
</g></g></g><g
       id="g112"><g
         clip-path="url(#clipPath118)"
         id="g114"><g
           transform="matrix(1,0,0,-1,60.90229,452.2883)"
           id="g120"><path
             id="path122"
             style="fill:none;stroke:#000000;stroke-width:1;stroke-linecap:butt;stroke-linejoin:miter;stroke-miterlimit:4;stroke-dasharray:none;stroke-opacity:1"
             d="M 0,0 H 164.6411" /></g><g
           transform="translate(130,478)"
           id="g124"><text
             id="text128"
             style="font-variant:normal;font-size:9px;font-family:HiraKakuProN;-inkscape-font-specification:HiraKakuProN-W6;writing-mode:lr-tb;fill:#000000;fill-opacity:1;fill-rule:nonzero;stroke:none"
             transform="scale(1,-1)"><tspan
               id="tspan126"
               y="0"
               x="0 6.0570002 11.763 17.1 23.157 25.587 28.584">hash:  </tspan></text>
</g><g
           transform="translate(84,464)"
           id="g130"><text
             id="text134"
             style="font-variant:normal;font-size:9px;font-family:HiraKakuProN;-inkscape-font-specification:HiraKakuProN-W6;writing-mode:lr-tb;fill:#ee220c;fill-opacity:1;fill-rule:nonzero;stroke:none"
             transform="scale(1,-1)"><tspan
               id="tspan132"
               y="0"
               x="0 6.408 12.816 19.224001 25.632 31.365 35.658001 41.390999 45.683998 52.091999 58.5 64.907997 71.271004 75.564003 81.972 88.379997 94.788002 101.196 107.604 113.337">0528efef063df25375ee</tspan></text>
</g><g
           transform="translate(107,438)"
           id="g136"><text
             id="text140"
             style="font-variant:normal;font-size:9px;font-family:HiraKakuProN;-inkscape-font-specification:HiraKakuProN-W6;writing-mode:lr-tb;fill:#000000;fill-opacity:1;fill-rule:nonzero;stroke:none"
             transform="scale(1,-1)"><tspan
               id="tspan138"
               y="0"
               x="0 6.3720002 10.8 16.533001 22.122 24.561001 30.591 36.647999 41.985001 46.521 52.577999 58.284 63.620998 69.678001 72.108002 75.105003">previous̲hash:  </tspan></text>
</g><g
           transform="translate(81,424)"
           id="g142"><text
             id="text146"
             style="font-variant:normal;font-size:9px;font-family:HiraKakuProN;-inkscape-font-specification:HiraKakuProN-W6;writing-mode:lr-tb;fill:#000000;fill-opacity:1;fill-rule:nonzero;stroke:none"
             transform="scale(1,-1)"><tspan
               id="tspan144"
               y="0"
               x="0 6.408 12.816 19.224001 25.632 32.040001 38.448002 44.855999 51.264 57.672001 64.080002 70.487999 76.112999 82.521004 88.226997 94.635002 101.043 105.336 111.744 117.369">00000000009c1a39f0c3</tspan></text>
</g><g
           transform="translate(123,404)"
           id="g148"><text
             id="text152"
             style="font-variant:normal;font-size:9px;font-family:HiraKakuProN;-inkscape-font-specification:HiraKakuProN-W6;writing-mode:lr-tb;fill:#ee220c;fill-opacity:1;fill-rule:nonzero;stroke:none"
             transform="scale(1,-1)"><tspan
               id="tspan150"
               y="0"
               x="0 6.0570002 12.087 18.143999 23.768999 29.502001 31.931999 34.929001">nonce: 1</tspan></text>
</g><path
           id="path154"
           style="fill:#ffffff;fill-opacity:1;fill-rule:nonzero;stroke:none"
           d="M 236.9118,491.6814 H 406.7789 V 249.5783 H 236.9118 Z" /><g
           transform="matrix(1,0,0,-1,236.9118,491.6814)"
           id="g156"><path
             id="path158"
             style="fill:none;stroke:#000000;stroke-width:1;stroke-linecap:butt;stroke-linejoin:miter;stroke-miterlimit:4;stroke-dasharray:none;stroke-opacity:1"
             d="M 0,0 H 169.8671 V 242.1031 H 0 Z" /></g><path
           id="path160"
           style="fill:#ffffff;fill-opacity:1;fill-rule:nonzero;stroke:none"
           d="m 260.0525,386.2818 h 123.5857 c 3.0745,0 4.6356,0 6.2937,-0.5256 1.8146,-0.6604 3.244,-2.0898 3.9045,-3.9044 0.5255,-1.6582 0.5255,-3.2193 0.5255,-6.3414 v -11.6061 c 0,-3.0744 0,-4.6355 -0.5255,-6.2937 -0.6605,-1.8146 -2.0899,-3.244 -3.9045,-3.9044 -1.6581,-0.5255 -3.2192,-0.5255 -6.3413,-0.5255 H 260.0525 c -3.0745,0 -4.6355,0 -6.2937,0.5255 -1.8146,0.6604 -3.244,2.0898 -3.9045,3.9044 -0.5255,1.6582 -0.5255,3.2193 -0.5255,6.3414 v 11.6061 c 0,3.0744 0,4.6355 0.5255,6.2937 0.6605,1.8146 2.0899,3.244 3.9045,3.9044 1.6582,0.5256 3.2192,0.5256 6.3414,0.5256 z" /><g
           transform="matrix(1,0,0,-1,249.3288,386.2818)"
           id="g162"><path
             id="path164"
             style="fill:none;stroke:#000000;stroke-width:1.10000002;stroke-linecap:butt;stroke-linejoin:miter;stroke-miterlimit:4;stroke-dasharray:none;stroke-opacity:1"
             d="M 10.72367,0 H 134.3094 c 3.0745,0 4.6355,0 6.2937,0.5255076 1.8146,0.6604544 3.244,2.0898724 3.9045,3.9044574 0.5255,1.658189 0.5255,3.219254 0.5255,6.341385 v 11.60606 c 0,3.07446 0,4.63552 -0.5255,6.29371 -0.6605,1.81459 -2.0899,3.244 -3.9045,3.90446 -1.6582,0.52551 -3.2192,0.52551 -6.3414,0.52551 H 10.72367 c -3.074451,0 -4.635516,0 -6.293705,-0.52551 C 2.61538,31.91512 1.185962,30.48571 0.5255076,28.67112 0,27.01293 0,25.45187 0,22.32974 V 10.72367 C 0,7.649219 0,6.088154 0.5255076,4.429965 1.185962,2.61538 2.61538,1.185962 4.429965,0.5255076 6.088154,0 7.649219,0 10.77135,0 Z" /></g></g></g><g
       id="g166"><g
         clip-path="url(#clipPath172)"
         id="g168"><g
           transform="translate(271,368)"
           id="g174"><text
             id="text178"
             style="font-variant:normal;font-size:8px;font-family:HiraKakuProN;-inkscape-font-specification:HiraKakuProN-W3;writing-mode:lr-tb;fill:#000000;fill-opacity:1;fill-rule:nonzero;stroke:none"
             transform="scale(1,-1)"><tspan
               id="tspan176"
               y="0"
               x="0 3.1359999 7.4239998 9.3280001 14.496 16.416 19.08 24.336 29.591999 34.848 40.104 43.439999 48.695999 53.863998 59.032001 64.288002 69.543999 74.800003 80.056 85.311996 90.568001 95.856003">txid: 3103f7bd20965841</tspan></text>
</g></g></g><g
       id="g180"><g
         clip-path="url(#clipPath186)"
         id="g182"><path
           id="path188"
           style="fill:#ffffff;fill-opacity:1;fill-rule:nonzero;stroke:none"
           d="m 260.0525,346.0022 h 123.5857 c 3.0745,0 4.6356,0 6.2937,-0.5256 1.8146,-0.6604 3.244,-2.0898 3.9045,-3.9044 0.5255,-1.6582 0.5255,-3.2193 0.5255,-6.3414 v -11.6061 c 0,-3.0744 0,-4.6355 -0.5255,-6.2937 -0.6605,-1.8146 -2.0899,-3.244 -3.9045,-3.9044 -1.6581,-0.5255 -3.2192,-0.5255 -6.3413,-0.5255 H 260.0525 c -3.0745,0 -4.6355,0 -6.2937,0.5255 -1.8146,0.6604 -3.244,2.0898 -3.9045,3.9044 -0.5255,1.6582 -0.5255,3.2193 -0.5255,6.3414 v 11.6061 c 0,3.0744 0,4.6355 0.5255,6.2937 0.6605,1.8146 2.0899,3.244 3.9045,3.9044 1.6582,0.5256 3.2192,0.5256 6.3414,0.5256 z" /><g
           transform="matrix(1,0,0,-1,249.3288,346.0022)"
           id="g190"><path
             id="path192"
             style="fill:none;stroke:#000000;stroke-width:1.10000002;stroke-linecap:butt;stroke-linejoin:miter;stroke-miterlimit:4;stroke-dasharray:none;stroke-opacity:1"
             d="M 10.72367,0 H 134.3094 c 3.0745,0 4.6355,0 6.2937,0.5255076 1.8146,0.6604544 3.244,2.0898724 3.9045,3.9044574 0.5255,1.658189 0.5255,3.219254 0.5255,6.341385 v 11.60606 c 0,3.07446 0,4.63552 -0.5255,6.29371 -0.6605,1.81459 -2.0899,3.244 -3.9045,3.90446 -1.6582,0.52551 -3.2192,0.52551 -6.3414,0.52551 H 10.72367 c -3.074451,0 -4.635516,0 -6.293705,-0.52551 C 2.61538,31.91512 1.185962,30.48571 0.5255076,28.67112 0,27.01293 0,25.45187 0,22.32974 V 10.72367 C 0,7.649219 0,6.088154 0.5255076,4.429965 1.185962,2.61538 2.61538,1.185962 4.429965,0.5255076 6.088154,0 7.649219,0 10.77135,0 Z" /></g></g></g><g
       id="g194"><g
         clip-path="url(#clipPath200)"
         id="g196"><g
           transform="translate(271,328)"
           id="g202"><text
             id="text206"
             style="font-variant:normal;font-size:8px;font-family:HiraKakuProN;-inkscape-font-specification:HiraKakuProN-W3;writing-mode:lr-tb;fill:#000000;fill-opacity:1;fill-rule:nonzero;stroke:none"
             transform="scale(1,-1)"><tspan
               id="tspan204"
               y="0"
               x="0 3.1359999 7.4239998 9.3280001 14.496 16.416 19.08 24.336 29.624001 34.248001 39.504002 44.759998 50.015999 55.183998 60.439999 65.695999 70.952003 75.552002 80.720001 85.975998 91.264 96.519997">txid: 64c383b352ab3421</tspan></text>
</g></g></g><g
       id="g208"><g
         clip-path="url(#clipPath214)"
         id="g210"><path
           id="path216"
           style="fill:#ffffff;fill-opacity:1;fill-rule:nonzero;stroke:none"
           d="m 260.0525,305.7225 h 123.5857 c 3.0745,0 4.6356,0 6.2937,-0.5255 1.8146,-0.6604 3.244,-2.0898 3.9045,-3.9044 0.5255,-1.6582 0.5255,-3.2193 0.5255,-6.3414 v -11.6061 c 0,-3.0744 0,-4.6355 -0.5255,-6.2937 -0.6605,-1.8146 -2.0899,-3.244 -3.9045,-3.9044 -1.6581,-0.5255 -3.2192,-0.5255 -6.3413,-0.5255 H 260.0525 c -3.0745,0 -4.6355,0 -6.2937,0.5255 -1.8146,0.6604 -3.244,2.0898 -3.9045,3.9044 -0.5255,1.6582 -0.5255,3.2193 -0.5255,6.3414 v 11.6061 c 0,3.0744 0,4.6355 0.5255,6.2937 0.6605,1.8146 2.0899,3.244 3.9045,3.9044 1.6582,0.5255 3.2192,0.5255 6.3414,0.5255 z" /><g
           transform="matrix(1,0,0,-1,249.3288,305.7225)"
           id="g218"><path
             id="path220"
             style="fill:none;stroke:#000000;stroke-width:1.10000002;stroke-linecap:butt;stroke-linejoin:miter;stroke-miterlimit:4;stroke-dasharray:none;stroke-opacity:1"
             d="M 10.72367,0 H 134.3094 c 3.0745,0 4.6355,0 6.2937,0.5255076 1.8146,0.6604544 3.244,2.0898724 3.9045,3.9044574 0.5255,1.658189 0.5255,3.219254 0.5255,6.341385 v 11.60606 c 0,3.07446 0,4.63552 -0.5255,6.29371 -0.6605,1.81459 -2.0899,3.244 -3.9045,3.90446 -1.6582,0.52551 -3.2192,0.52551 -6.3414,0.52551 H 10.72367 c -3.074451,0 -4.635516,0 -6.293705,-0.52551 C 2.61538,31.91512 1.185962,30.48571 0.5255076,28.67112 0,27.01293 0,25.45187 0,22.32974 V 10.72367 C 0,7.649219 0,6.088154 0.5255076,4.429965 1.185962,2.61538 2.61538,1.185962 4.429965,0.5255076 6.088154,0 7.649219,0 10.77135,0 Z" /></g></g></g><g
       id="g222"><g
         clip-path="url(#clipPath228)"
         id="g224"><g
           transform="translate(272,288)"
           id="g230"><text
             id="text234"
             style="font-variant:normal;font-size:8px;font-family:HiraKakuProN;-inkscape-font-specification:HiraKakuProN-W3;writing-mode:lr-tb;fill:#000000;fill-opacity:1;fill-rule:nonzero;stroke:none"
             transform="scale(1,-1)"><tspan
               id="tspan232"
               y="0"
               x="0 3.1359999 7.4239998 9.3280001 14.496 16.416 19.08 23.68 28.384001 33.639999 38.896 44.152 48.855999 54.112 57.448002 62.703999 67.959999 73.216003 78.472 83.639999 88.807999 94.064003">txid: ae219e0f7703dd62</tspan></text>
</g></g></g><g
       id="g236"><g
         clip-path="url(#clipPath242)"
         id="g238"><g
           transform="matrix(1,0,0,-1,239.5248,451.7399)"
           id="g244"><path
             id="path246"
             style="fill:none;stroke:#000000;stroke-width:1;stroke-linecap:butt;stroke-linejoin:miter;stroke-miterlimit:4;stroke-dasharray:none;stroke-opacity:1"
             d="M 0,0 H 164.6411" /></g><g
           transform="translate(309,478)"
           id="g248"><text
             id="text252"
             style="font-variant:normal;font-size:9px;font-family:HiraKakuProN;-inkscape-font-specification:HiraKakuProN-W6;writing-mode:lr-tb;fill:#000000;fill-opacity:1;fill-rule:nonzero;stroke:none"
             transform="scale(1,-1)"><tspan
               id="tspan250"
               y="0"
               x="0 6.0570002 11.763 17.1 23.157 25.587 28.584">hash:  </tspan></text>
</g><g
           transform="translate(258,464)"
           id="g254"><text
             id="text258"
             style="font-variant:normal;font-size:9px;font-family:HiraKakuProN;-inkscape-font-specification:HiraKakuProN-W6;writing-mode:lr-tb;fill:#ee220c;fill-opacity:1;fill-rule:nonzero;stroke:none"
             transform="scale(1,-1)"><tspan
               id="tspan256"
               y="0"
               x="0 6.408 12.771 19.179001 25.542 31.950001 38.358002 44.765999 51.174 57.582001 63.945 70.352997 76.761002 83.168999 89.577003 95.985001 102.393 108.801 115.209 121.563">3d5d78071d83272041b6</tspan></text>
</g><g
           transform="translate(286,437)"
           id="g260"><text
             id="text264"
             style="font-variant:normal;font-size:9px;font-family:HiraKakuProN;-inkscape-font-specification:HiraKakuProN-W6;writing-mode:lr-tb;fill:#000000;fill-opacity:1;fill-rule:nonzero;stroke:none"
             transform="scale(1,-1)"><tspan
               id="tspan262"
               y="0"
               x="0 6.3720002 10.8 16.533001 22.122 24.561001 30.591 36.647999 41.985001 46.521 52.577999 58.284 63.620998 69.678001 72.108002 75.105003">previous̲hash:  </tspan></text>
</g><g
           transform="translate(260,423)"
           id="g266"><text
             id="text270"
             style="font-variant:normal;font-size:9px;font-family:HiraKakuProN;-inkscape-font-specification:HiraKakuProN-W6;writing-mode:lr-tb;fill:#000000;fill-opacity:1;fill-rule:nonzero;stroke:none"
             transform="scale(1,-1)"><tspan
               id="tspan268"
               y="0"
               x="0 6.408 12.816 19.224001 25.632 32.040001 38.448002 44.855999 51.264 57.672001 64.080002 70.487999 76.112999 82.521004 88.226997 94.635002 101.043 105.336 111.744 117.369">00000000009c1a39f0c3</tspan></text>
</g><g
           transform="translate(301,403)"
           id="g272"><text
             id="text276"
             style="font-variant:normal;font-size:9px;font-family:HiraKakuProN;-inkscape-font-specification:HiraKakuProN-W6;writing-mode:lr-tb;fill:#ee220c;fill-opacity:1;fill-rule:nonzero;stroke:none"
             transform="scale(1,-1)"><tspan
               id="tspan274"
               y="0"
               x="0 6.0570002 12.087 18.143999 23.768999 29.502001 31.931999 34.929001">nonce: 2</tspan></text>
</g><g
           transform="matrix(1,0,0,-1,176.718,406.8908)"
           id="g278"><path
             id="path280"
             style="fill:none;stroke:#000000;stroke-width:2;stroke-linecap:butt;stroke-linejoin:miter;stroke-miterlimit:4;stroke-dasharray:none;stroke-opacity:1"
             d="m 0,0 h 105.3785 1" /></g><path
           id="path282"
           style="fill:#000000;fill-opacity:1;fill-rule:nonzero;stroke:none"
           d="m 282.0965,402.0908 9.6,4.8 -9.6,4.8 z" /><g
           transform="translate(62,481)"
           id="g284"><text
             id="text288"
             style="font-variant:normal;font-size:10px;font-family:HiraKakuProN;-inkscape-font-specification:HiraKakuProN-W6;writing-mode:lr-tb;fill:#ee220c;fill-opacity:1;fill-rule:nonzero;stroke:none"
             transform="scale(1,-1)"><tspan
               id="tspan286"
               y="0"
               x="0 8.21">NG</tspan></text>
</g><g
           transform="translate(240,480)"
           id="g290"><text
             id="text294"
             style="font-variant:normal;font-size:10px;font-family:HiraKakuProN;-inkscape-font-specification:HiraKakuProN-W6;writing-mode:lr-tb;fill:#ee220c;fill-opacity:1;fill-rule:nonzero;stroke:none"
             transform="scale(1,-1)"><tspan
               id="tspan292"
               y="0"
               x="0 8.21">NG</tspan></text>
</g><path
           id="path296"
           style="fill:#ffffff;fill-opacity:1;fill-rule:nonzero;stroke:none"
           d="M 505.421,490.7827 H 675.2882 V 248.6797 H 505.421 Z" /><g
           transform="matrix(1,0,0,-1,505.421,490.7827)"
           id="g298"><path
             id="path300"
             style="fill:none;stroke:#000000;stroke-width:1;stroke-linecap:butt;stroke-linejoin:miter;stroke-miterlimit:4;stroke-dasharray:none;stroke-opacity:1"
             d="M 0,0 H 169.8671 V 242.1031 H 0 Z" /></g><path
           id="path302"
           style="fill:#ffffff;fill-opacity:1;fill-rule:nonzero;stroke:none"
           d="m 528.5617,385.3831 h 123.5858 c 3.0744,0 4.6355,0 6.2937,-0.5255 1.8146,-0.6604 3.244,-2.0899 3.9044,-3.9044 0.5255,-1.6582 0.5255,-3.2193 0.5255,-6.3414 v -11.6061 c 0,-3.0744 0,-4.6355 -0.5255,-6.2937 -0.6604,-1.8146 -2.0898,-3.244 -3.9044,-3.9045 -1.6582,-0.5255 -3.2193,-0.5255 -6.3414,-0.5255 H 528.5617 c -3.0744,0 -4.6355,0 -6.2937,0.5255 -1.8146,0.6605 -3.244,2.0899 -3.9045,3.9045 -0.5255,1.6582 -0.5255,3.2193 -0.5255,6.3414 v 11.6061 c 0,3.0744 0,4.6355 0.5255,6.2937 0.6605,1.8145 2.0899,3.244 3.9045,3.9044 1.6582,0.5255 3.2193,0.5255 6.3414,0.5255 z" /><g
           transform="matrix(1,0,0,-1,517.838,385.3831)"
           id="g304"><path
             id="path306"
             style="fill:none;stroke:#000000;stroke-width:1.10000002;stroke-linecap:butt;stroke-linejoin:miter;stroke-miterlimit:4;stroke-dasharray:none;stroke-opacity:1"
             d="M 10.72367,0 H 134.3094 c 3.0745,0 4.6355,0 6.2937,0.5255076 1.8146,0.6604544 3.244,2.0898724 3.9045,3.9044574 0.5255,1.658189 0.5255,3.219254 0.5255,6.341385 v 11.60606 c 0,3.07446 0,4.63552 -0.5255,6.29371 -0.6605,1.81459 -2.0899,3.244 -3.9045,3.90446 -1.6582,0.52551 -3.2192,0.52551 -6.3414,0.52551 H 10.72367 c -3.074451,0 -4.635516,0 -6.293705,-0.52551 C 2.61538,31.91512 1.185962,30.48571 0.5255076,28.67112 0,27.01293 0,25.45187 0,22.32974 V 10.72367 C 0,7.649219 0,6.088154 0.5255076,4.429965 1.185962,2.61538 2.61538,1.185962 4.429965,0.5255076 6.088154,0 7.649219,0 10.77135,0 Z" /></g></g></g><g
       id="g308"><g
         clip-path="url(#clipPath314)"
         id="g310"><g
           transform="translate(540,367)"
           id="g316"><text
             id="text320"
             style="font-variant:normal;font-size:8px;font-family:HiraKakuProN;-inkscape-font-specification:HiraKakuProN-W3;writing-mode:lr-tb;fill:#000000;fill-opacity:1;fill-rule:nonzero;stroke:none"
             transform="scale(1,-1)"><tspan
               id="tspan318"
               y="0"
               x="0 3.1359999 7.4239998 9.3280001 14.496 16.416 19.08 24.336 29.591999 34.848 40.104 43.439999 48.695999 53.863998 59.032001 64.288002 69.543999 74.800003 80.056 85.311996 90.568001 95.856003">txid: 3103f7bd20965841</tspan></text>
</g></g></g><g
       id="g322"><g
         clip-path="url(#clipPath328)"
         id="g324"><path
           id="path330"
           style="fill:#ffffff;fill-opacity:1;fill-rule:nonzero;stroke:none"
           d="m 528.5617,345.1035 h 123.5858 c 3.0744,0 4.6355,0 6.2937,-0.5255 1.8146,-0.6604 3.244,-2.0899 3.9044,-3.9044 0.5255,-1.6582 0.5255,-3.2193 0.5255,-6.3414 v -11.6061 c 0,-3.0744 0,-4.6355 -0.5255,-6.2937 -0.6604,-1.8146 -2.0898,-3.244 -3.9044,-3.9045 -1.6582,-0.5255 -3.2193,-0.5255 -6.3414,-0.5255 H 528.5617 c -3.0744,0 -4.6355,0 -6.2937,0.5255 -1.8146,0.6605 -3.244,2.0899 -3.9045,3.9045 -0.5255,1.6582 -0.5255,3.2193 -0.5255,6.3414 v 11.606 c 0,3.0745 0,4.6356 0.5255,6.2938 0.6605,1.8145 2.0899,3.244 3.9045,3.9044 1.6582,0.5255 3.2193,0.5255 6.3414,0.5255 z" /><g
           transform="matrix(1,0,0,-1,517.838,345.1035)"
           id="g332"><path
             id="path334"
             style="fill:none;stroke:#000000;stroke-width:1.10000002;stroke-linecap:butt;stroke-linejoin:miter;stroke-miterlimit:4;stroke-dasharray:none;stroke-opacity:1"
             d="M 10.72367,0 H 134.3094 c 3.0745,0 4.6355,0 6.2937,0.5255076 1.8146,0.6604544 3.244,2.0898724 3.9045,3.9044574 0.5255,1.658189 0.5255,3.219254 0.5255,6.341385 v 11.60606 c 0,3.07446 0,4.63552 -0.5255,6.29371 -0.6605,1.81459 -2.0899,3.244 -3.9045,3.90446 -1.6582,0.52551 -3.2192,0.52551 -6.3414,0.52551 H 10.72367 c -3.074451,0 -4.635516,0 -6.293705,-0.52551 C 2.61538,31.91512 1.185962,30.48571 0.5255076,28.67112 0,27.01293 0,25.45187 0,22.32974 V 10.72367 C 0,7.649219 0,6.088154 0.5255076,4.429965 1.185962,2.61538 2.61538,1.185962 4.429965,0.5255076 6.088154,0 7.649219,0 10.77135,0 Z" /></g></g></g><g
       id="g336"><g
         clip-path="url(#clipPath342)"
         id="g338"><g
           transform="translate(539,327)"
           id="g344"><text
             id="text348"
             style="font-variant:normal;font-size:8px;font-family:HiraKakuProN;-inkscape-font-specification:HiraKakuProN-W3;writing-mode:lr-tb;fill:#000000;fill-opacity:1;fill-rule:nonzero;stroke:none"
             transform="scale(1,-1)"><tspan
               id="tspan346"
               y="0"
               x="0 3.1359999 7.4239998 9.3280001 14.496 16.416 19.08 24.336 29.624001 34.248001 39.504002 44.759998 50.015999 55.183998 60.439999 65.695999 70.952003 75.552002 80.720001 85.975998 91.264 96.519997">txid: 64c383b352ab3421</tspan></text>
</g></g></g><g
       id="g350"><g
         clip-path="url(#clipPath356)"
         id="g352"><path
           id="path358"
           style="fill:#ffffff;fill-opacity:1;fill-rule:nonzero;stroke:none"
           d="m 528.5617,304.8239 h 123.5858 c 3.0744,0 4.6355,0 6.2937,-0.5255 1.8146,-0.6604 3.244,-2.0899 3.9044,-3.9044 0.5255,-1.6582 0.5255,-3.2193 0.5255,-6.3414 v -11.6061 c 0,-3.0744 0,-4.6355 -0.5255,-6.2937 -0.6604,-1.8146 -2.0898,-3.244 -3.9044,-3.9045 -1.6582,-0.5255 -3.2193,-0.5255 -6.3414,-0.5255 H 528.5617 c -3.0744,0 -4.6355,0 -6.2937,0.5255 -1.8146,0.6605 -3.244,2.0899 -3.9045,3.9045 -0.5255,1.6582 -0.5255,3.2193 -0.5255,6.3414 v 11.606 c 0,3.0745 0,4.6356 0.5255,6.2938 0.6605,1.8145 2.0899,3.244 3.9045,3.9044 1.6582,0.5255 3.2193,0.5255 6.3414,0.5255 z" /><g
           transform="matrix(1,0,0,-1,517.838,304.8239)"
           id="g360"><path
             id="path362"
             style="fill:none;stroke:#000000;stroke-width:1.10000002;stroke-linecap:butt;stroke-linejoin:miter;stroke-miterlimit:4;stroke-dasharray:none;stroke-opacity:1"
             d="M 10.72367,0 H 134.3094 c 3.0745,0 4.6355,0 6.2937,0.5255076 1.8146,0.6604544 3.244,2.0898724 3.9045,3.9044574 0.5255,1.658189 0.5255,3.219254 0.5255,6.341385 v 11.60606 c 0,3.07446 0,4.63552 -0.5255,6.29371 -0.6605,1.81459 -2.0899,3.244 -3.9045,3.90446 -1.6582,0.52551 -3.2192,0.52551 -6.3414,0.52551 H 10.72367 c -3.074451,0 -4.635516,0 -6.293705,-0.52551 C 2.61538,31.91512 1.185962,30.48571 0.5255076,28.67112 0,27.01293 0,25.45187 0,22.32974 V 10.72367 C 0,7.649219 0,6.088154 0.5255076,4.429965 1.185962,2.61538 2.61538,1.185962 4.429965,0.5255076 6.088154,0 7.649219,0 10.77135,0 Z" /></g></g></g><g
       id="g364"><g
         clip-path="url(#clipPath370)"
         id="g366"><g
           transform="translate(541,287)"
           id="g372"><text
             id="text376"
             style="font-variant:normal;font-size:8px;font-family:HiraKakuProN;-inkscape-font-specification:HiraKakuProN-W3;writing-mode:lr-tb;fill:#000000;fill-opacity:1;fill-rule:nonzero;stroke:none"
             transform="scale(1,-1)"><tspan
               id="tspan374"
               y="0"
               x="0 3.1359999 7.4239998 9.3280001 14.496 16.416 19.08 23.68 28.384001 33.639999 38.896 44.152 48.855999 54.112 57.448002 62.703999 67.959999 73.216003 78.472 83.639999 88.807999 94.064003">txid: ae219e0f7703dd62</tspan></text>
</g></g></g><g
       id="g378"><g
         clip-path="url(#clipPath384)"
         id="g380"><g
           transform="matrix(1,0,0,-1,508.034,450.8413)"
           id="g386"><path
             id="path388"
             style="fill:none;stroke:#000000;stroke-width:1;stroke-linecap:butt;stroke-linejoin:miter;stroke-miterlimit:4;stroke-dasharray:none;stroke-opacity:1"
             d="M 0,0 H 164.6411" /></g><g
           transform="translate(578,477)"
           id="g390"><text
             id="text394"
             style="font-variant:normal;font-size:9px;font-family:HiraKakuProN;-inkscape-font-specification:HiraKakuProN-W6;writing-mode:lr-tb;fill:#000000;fill-opacity:1;fill-rule:nonzero;stroke:none"
             transform="scale(1,-1)"><tspan
               id="tspan392"
               y="0"
               x="0 6.0570002 11.763 17.1 23.157 25.587 28.584">hash:  </tspan></text>
</g><g
           transform="translate(527,463)"
           id="g396"><text
             id="text400"
             style="font-variant:normal;font-size:9px;font-family:HiraKakuProN;-inkscape-font-specification:HiraKakuProN-W6;writing-mode:lr-tb;fill:#017100;fill-opacity:1;fill-rule:nonzero;stroke:none"
             transform="scale(1,-1)"><tspan
               id="tspan398"
               y="0"
               x="0 6.408 12.816 19.224001 25.632 32.040001 38.448002 44.855999 51.264 57.672001 64.080002 70.487999 76.896004 81.189003 87.597 94.004997 100.359 106.767 113.175 119.583">000000000061f92b9782</tspan></text>
</g><g
           transform="translate(554,437)"
           id="g402"><text
             id="text406"
             style="font-variant:normal;font-size:9px;font-family:HiraKakuProN;-inkscape-font-specification:HiraKakuProN-W6;writing-mode:lr-tb;fill:#000000;fill-opacity:1;fill-rule:nonzero;stroke:none"
             transform="scale(1,-1)"><tspan
               id="tspan404"
               y="0"
               x="0 6.3720002 10.8 16.533001 22.122 24.561001 30.591 36.647999 41.985001 46.521 52.577999 58.284 63.620998 69.678001 72.108002 75.105003">previous̲hash:  </tspan></text>
</g><g
           transform="translate(528,423)"
           id="g408"><text
             id="text412"
             style="font-variant:normal;font-size:9px;font-family:HiraKakuProN;-inkscape-font-specification:HiraKakuProN-W6;writing-mode:lr-tb;fill:#000000;fill-opacity:1;fill-rule:nonzero;stroke:none"
             transform="scale(1,-1)"><tspan
               id="tspan410"
               y="0"
               x="0 6.408 12.816 19.224001 25.632 32.040001 38.448002 44.855999 51.264 57.672001 64.080002 70.487999 76.112999 82.521004 88.226997 94.635002 101.043 105.336 111.744 117.369">00000000009c1a39f0c3</tspan></text>
</g><g
           transform="translate(557,402)"
           id="g414"><text
             id="text418"
             style="font-variant:normal;font-size:9px;font-family:HiraKakuProN;-inkscape-font-specification:HiraKakuProN-W6;writing-mode:lr-tb;fill:#017100;fill-opacity:1;fill-rule:nonzero;stroke:none"
             transform="scale(1,-1)"><tspan
               id="tspan416"
               y="0"
               x="0 6.0570002 12.087 18.143999 23.768999 29.502001 31.931999 34.929001 41.337002 47.744999 54.153 60.561001">nonce: 18882</tspan></text>
</g><g
           transform="translate(510,480)"
           id="g420"><text
             id="text424"
             style="font-variant:normal;font-size:10px;font-family:HiraKakuProN;-inkscape-font-specification:HiraKakuProN-W6;writing-mode:lr-tb;fill:#017100;fill-opacity:1;fill-rule:nonzero;stroke:none"
             transform="scale(1,-1)"><tspan
               id="tspan422"
               y="0"
               x="0 8.3800001">OK</tspan></text>
</g><g
           transform="matrix(1,0,0,-1,366.4354,405.9922)"
           id="g426"><path
             id="path428"
             style="fill:none;stroke:#000000;stroke-width:2;stroke-linecap:butt;stroke-linejoin:miter;stroke-miterlimit:4;stroke-dasharray:none;stroke-opacity:1"
             d="m 0,0 h 155.0411 1" /></g><path
           id="path430"
           style="fill:#000000;fill-opacity:1;fill-rule:nonzero;stroke:none"
           d="m 521.4765,401.1922 9.6,4.8 -9.6,4.8 z" /><g
           transform="translate(413,415)"
           id="g432"><text
             id="text436"
             style="font-variant:normal;font-size:9px;font-family:HiraKakuProN;-inkscape-font-specification:HiraKakuProN-W6;writing-mode:lr-tb;fill:#ee220c;fill-opacity:1;fill-rule:nonzero;stroke:none"
             transform="scale(1,-1)"><tspan
               id="tspan434"
               y="0"
               x="0 6.0570002 12.087 18.143999 23.768999 29.502001 31.931999 34.929001 41.337002 43.766998 50.174999 52.605 59.013 62.009998">nonce: 3,4,5 …</tspan></text>
</g></g></g></g></svg>