<?xml version="1.0" encoding="UTF-8" standalone="no"?>
<svg
   xmlns:dc="http://purl.org/dc/elements/1.1/"
   xmlns:cc="http://creativecommons.org/ns#"
   xmlns:rdf="http://www.w3.org/1999/02/22-rdf-syntax-ns#"
   xmlns:svg="http://www.w3.org/2000/svg"
   xmlns="http://www.w3.org/2000/svg"
   viewBox="0 0 1026.875 331.41599"
   height="331.41599"
   width="1026.875"
   xml:space="preserve"
   id="svg2"
   version="1.1"><metadata
     id="metadata8"><rdf:RDF><cc:Work
         rdf:about=""><dc:format>image/svg+xml</dc:format><dc:type
           rdf:resource="http://purl.org/dc/dcmitype/StillImage" /></cc:Work></rdf:RDF></metadata><defs
     id="defs6"><clipPath
       id="clipPath14"
       clipPathUnits="userSpaceOnUse"><path
         id="path12"
         d="M 0,0 H 1024 V 768 H 0 Z" /></clipPath><clipPath
       id="clipPath24"
       clipPathUnits="userSpaceOnUse"><path
         id="path22"
         d="M 0,0 H 1024 V 768 H 0 Z" /></clipPath><clipPath
       id="clipPath64"
       clipPathUnits="userSpaceOnUse"><path
         id="path62"
         d="m 237.1002,430.6593 h 69.51367 v 45.38867 H 237.1002 Z" /></clipPath><clipPath
       id="clipPath90"
       clipPathUnits="userSpaceOnUse"><path
         id="path88"
         d="M 0,0 H 1024 V 768 H 0 Z" /></clipPath><clipPath
       id="clipPath116"
       clipPathUnits="userSpaceOnUse"><path
         id="path114"
         d="m 120.4509,430.6593 h 69.51367 v 45.38867 H 120.4509 Z" /></clipPath><clipPath
       id="clipPath142"
       clipPathUnits="userSpaceOnUse"><path
         id="path140"
         d="M 0,0 H 1024 V 768 H 0 Z" /></clipPath><clipPath
       id="clipPath196"
       clipPathUnits="userSpaceOnUse"><path
         id="path194"
         d="m 476.1662,428.3028 h 69.51367 v 45.38867 H 476.1662 Z" /></clipPath><clipPath
       id="clipPath222"
       clipPathUnits="userSpaceOnUse"><path
         id="path220"
         d="M 0,0 H 1024 V 768 H 0 Z" /></clipPath><clipPath
       id="clipPath248"
       clipPathUnits="userSpaceOnUse"><path
         id="path246"
         d="m 359.5169,428.3028 h 69.51367 v 45.38867 H 359.5169 Z" /></clipPath><clipPath
       id="clipPath274"
       clipPathUnits="userSpaceOnUse"><path
         id="path272"
         d="M 0,0 H 1024 V 768 H 0 Z" /></clipPath><clipPath
       id="clipPath328"
       clipPathUnits="userSpaceOnUse"><path
         id="path326"
         d="m 720.9996,430.6593 h 70.67184 v 45.38867 H 720.9996 Z" /></clipPath><clipPath
       id="clipPath354"
       clipPathUnits="userSpaceOnUse"><path
         id="path352"
         d="M 0,0 H 1024 V 768 H 0 Z" /></clipPath><clipPath
       id="clipPath380"
       clipPathUnits="userSpaceOnUse"><path
         id="path378"
         d="m 604.3503,430.6593 h 69.51367 v 45.38867 H 604.3503 Z" /></clipPath><clipPath
       id="clipPath406"
       clipPathUnits="userSpaceOnUse"><path
         id="path404"
         d="M 0,0 H 1024 V 768 H 0 Z" /></clipPath></defs><g
     clip-path="url(#clipPath14)"
     transform="matrix(1.3333333,0,0,-1.3333333,-86.690587,774.28013)"
     id="g10"><g
       id="g16" /><g
       id="g18"><g
         clip-path="url(#clipPath24)"
         id="g20"><path
           id="path26"
           style="fill:#ffffff;fill-opacity:1;fill-rule:nonzero;stroke:none"
           d="M 0,0 H 1024 V 768 H 0 Z" /><path
           id="path28"
           style="fill:#f4f4f4;fill-opacity:1;fill-rule:nonzero;stroke:none"
           d="M 58.1198,587.2632 H 842.5784 V 314.731 H 58.1198 Z" /><path
           id="path30"
           style="fill:#ffffff;fill-opacity:1;fill-rule:nonzero;stroke:none"
           d="m 140.2198,541.4616 h 147.1488 c 7.6079,0 11.4708,0 15.5741,-1.3004 4.4903,-1.6343 8.0275,-5.1715 9.6618,-9.6618 1.3004,-4.1033 1.3004,-7.9662 1.3004,-15.6921 V 403.141 c 0,-7.6079 0,-11.4708 -1.3004,-15.5741 -1.6343,-4.4903 -5.1715,-8.0274 -9.6618,-9.6618 -4.1033,-1.3004 -7.9662,-1.3004 -15.6921,-1.3004 H 140.2198 c -7.6079,0 -11.4708,0 -15.5741,1.3004 -4.4903,1.6344 -8.0274,5.1715 -9.6618,9.6618 -1.3004,4.1033 -1.3004,7.9662 -1.3004,15.6921 v 111.6663 c 0,7.6079 0,11.4708 1.3004,15.5741 1.6344,4.4903 5.1715,8.0275 9.6618,9.6618 4.1033,1.3004 7.9662,1.3004 15.6921,1.3004 z" /><g
           transform="matrix(1,0,0,-1,113.6835,541.4616)"
           id="g32"><path
             id="path34"
             style="fill:none;stroke:#000000;stroke-width:1.10000002;stroke-linecap:butt;stroke-linejoin:miter;stroke-miterlimit:4;stroke-dasharray:none;stroke-opacity:1"
             d="M 26.53629,0 H 173.685 c 7.6079,0 11.4709,0 15.5741,1.300396 4.4903,1.63433 8.0275,5.171499 9.6618,9.661784 1.3004,4.10328 1.3004,7.96621 1.3004,15.69209 V 138.3206 c 0,7.6079 0,11.4708 -1.3004,15.5741 -1.6343,4.4903 -5.1715,8.0274 -9.6618,9.6618 -4.1032,1.3004 -7.9662,1.3004 -15.692,1.3004 H 26.53629 c -7.6079,0 -11.47083,0 -15.57411,-1.3004 C 6.471895,161.9221 2.934726,158.385 1.300396,153.8947 0,149.7914 0,145.9285 0,138.2026 V 26.53629 C 0,18.92839 0,15.06546 1.300396,10.96218 2.934726,6.471895 6.471895,2.934726 10.96218,1.300396 15.06546,0 18.92839,0 26.65427,0 Z" /></g><g
           transform="matrix(1,0,0,-1,114.6171,507.5561)"
           id="g36"><path
             id="path38"
             style="fill:none;stroke:#000000;stroke-width:1;stroke-linecap:butt;stroke-linejoin:miter;stroke-miterlimit:4;stroke-dasharray:none;stroke-opacity:1"
             d="M 0,0 H 198.3542" /></g><g
           transform="translate(147,520)"
           id="g40"><text
             id="text44"
             style="font-variant:normal;font-size:10px;font-family:HiraKakuProN;-inkscape-font-specification:HiraKakuProN-W3;writing-mode:lr-tb;fill:#000000;fill-opacity:1;fill-rule:nonzero;stroke:none"
             transform="scale(1,-1)"><tspan
               id="tspan42"
               y="0"
               x="0 3.9200001 9.2799997 11.66 18.120001 20.52">txid: </tspan></text>
</g><g
           transform="translate(147,520)"
           id="g46"><text
             id="text50"
             style="font-variant:normal;font-size:10px;font-family:HiraKakuProN;-inkscape-font-specification:HiraKakuProN-W6;writing-mode:lr-tb;fill:#000000;fill-opacity:1;fill-rule:nonzero;stroke:none"
             transform="matrix(1,0,0,-1,23.85,0)"><tspan
               id="tspan48"
               y="0"
               x="0 7.1199999 14.24 21.360001 28.48 34.849998 41.970001 49.09 55.34 61.59 67.93 75.050003 82.169998 89.290001 96.410004 103.53">2775e37cca287977</tspan></text>
</g><path
           id="path52"
           style="fill:#ffffff;fill-opacity:1;fill-rule:nonzero;stroke:none"
           d="m 236.1002,477.048 h 71.5137 v -47.3887 h -71.5137 z" /><g
           transform="matrix(1,0,0,-1,236.1002,477.048)"
           id="g54"><path
             id="path56"
             style="fill:none;stroke:#000000;stroke-width:1;stroke-linecap:butt;stroke-linejoin:miter;stroke-miterlimit:4;stroke-dasharray:none;stroke-opacity:1"
             d="M 0,0 H 71.51367 V 47.38867 H 0 Z" /></g></g></g><g
       id="g58"><g
         clip-path="url(#clipPath64)"
         id="g60"><g
           transform="translate(260,457)"
           id="g66"><text
             id="text70"
             style="font-variant:normal;font-size:10px;font-family:HiraKakuProN;-inkscape-font-specification:HiraKakuProN-W3;writing-mode:lr-tb;fill:#ee220c;fill-opacity:1;fill-rule:nonzero;stroke:none"
             transform="scale(1,-1)"><tspan
               id="tspan68"
               y="0"
               x="0 7.5 9.8199997 12.2 17.98 23.860001">Alice </tspan></text>
</g><g
           transform="translate(241,442)"
           id="g72"><text
             id="text76"
             style="font-variant:normal;font-size:10px;font-family:HiraKakuProN;-inkscape-font-specification:HiraKakuProN-W6;writing-mode:lr-tb;fill:#000000;fill-opacity:1;fill-rule:nonzero;stroke:none"
             transform="scale(1,-1)"><tspan
               id="tspan74"
               y="0"
               x="0 7.1199999 9.8199997 16.940001 24.059999 31.18">0.095 </tspan></text>
</g><g
           transform="translate(241,442)"
           id="g78"><text
             id="text82"
             style="font-variant:normal;font-size:8px;font-family:HiraKakuProN;-inkscape-font-specification:HiraKakuProN-W3;writing-mode:lr-tb;fill:#000000;fill-opacity:1;fill-rule:nonzero;stroke:none"
             transform="matrix(1,0,0,-1,34.51,0)"><tspan
               id="tspan80"
               y="0"
               x="0 5.1680002 7.072 10.208 14.832 19.832001 21.736">bitcoin</tspan></text>
</g></g></g><g
       id="g84"><g
         clip-path="url(#clipPath90)"
         id="g86"><g
           transform="translate(255,486)"
           id="g92"><text
             id="text96"
             style="font-variant:normal;font-size:10px;font-family:HiraKakuProN;-inkscape-font-specification:HiraKakuProN-W3;writing-mode:lr-tb;fill:#000000;fill-opacity:1;fill-rule:nonzero;stroke:none"
             transform="scale(1,-1)"><tspan
               id="tspan94"
               y="0"
               x="0 7.9499998 14.13 18.049999 24.52 30.700001">Output</tspan></text>
</g><g
           transform="matrix(1,0,0,-1,196.6742,453.3537)"
           id="g98"><path
             id="path100"
             style="fill:none;stroke:#000000;stroke-width:2;stroke-linecap:butt;stroke-linejoin:miter;stroke-miterlimit:4;stroke-dasharray:none;stroke-opacity:1"
             d="m 0,0 h 24.64 1" /></g><path
           id="path102"
           style="fill:#000000;fill-opacity:1;fill-rule:nonzero;stroke:none"
           d="m 221.3142,448.5537 9.6,4.8 -9.6,4.8 z" /><path
           id="path104"
           style="fill:#ffffff;fill-opacity:1;fill-rule:nonzero;stroke:none"
           d="m 119.4509,477.048 h 71.5137 v -47.3887 h -71.5137 z" /><g
           transform="matrix(1,0,0,-1,119.4509,477.048)"
           id="g106"><path
             id="path108"
             style="fill:none;stroke:#000000;stroke-width:1;stroke-linecap:butt;stroke-linejoin:miter;stroke-miterlimit:4;stroke-dasharray:none;stroke-opacity:1"
             d="M 0,0 H 71.51367 V 47.38867 H 0 Z" /></g></g></g><g
       id="g110"><g
         clip-path="url(#clipPath116)"
         id="g112"><g
           transform="translate(143,457)"
           id="g118"><text
             id="text122"
             style="font-variant:normal;font-size:10px;font-family:HiraKakuProN;-inkscape-font-specification:HiraKakuProN-W3;writing-mode:lr-tb;fill:#000000;fill-opacity:1;fill-rule:nonzero;stroke:none"
             transform="scale(1,-1)"><tspan
               id="tspan120"
               y="0"
               x="0 6.6900001 12.44 18.219999 23.969999">Zack </tspan></text>
</g><g
           transform="translate(132,442)"
           id="g124"><text
             id="text128"
             style="font-variant:normal;font-size:10px;font-family:HiraKakuProN;-inkscape-font-specification:HiraKakuProN-W6;writing-mode:lr-tb;fill:#000000;fill-opacity:1;fill-rule:nonzero;stroke:none"
             transform="scale(1,-1)"><tspan
               id="tspan126"
               y="0"
               x="0 7.1199999 9.8199997 16.940001">0.1 </tspan></text>
</g><g
           transform="translate(132,442)"
           id="g130"><text
             id="text134"
             style="font-variant:normal;font-size:8px;font-family:HiraKakuProN;-inkscape-font-specification:HiraKakuProN-W3;writing-mode:lr-tb;fill:#000000;fill-opacity:1;fill-rule:nonzero;stroke:none"
             transform="matrix(1,0,0,-1,20.27,0)"><tspan
               id="tspan132"
               y="0"
               x="0 5.1680002 7.072 10.208 14.832 19.832001 21.736">bitcoin</tspan></text>
</g></g></g><g
       id="g136"><g
         clip-path="url(#clipPath142)"
         id="g138"><g
           transform="translate(143,486)"
           id="g144"><text
             id="text148"
             style="font-variant:normal;font-size:10px;font-family:HiraKakuProN;-inkscape-font-specification:HiraKakuProN-W3;writing-mode:lr-tb;fill:#000000;fill-opacity:1;fill-rule:nonzero;stroke:none"
             transform="scale(1,-1)"><tspan
               id="tspan146"
               y="0"
               x="0 2.49 8.6700001 15.14 21.32">Input</tspan></text>
</g><g
           transform="translate(138,418)"
           id="g150"><text
             id="text154"
             style="font-variant:normal;font-size:7px;font-family:HiraKakuProN;-inkscape-font-specification:HiraKakuProN-W3;writing-mode:lr-tb;fill:#000000;fill-opacity:1;fill-rule:nonzero;stroke:none"
             transform="scale(1,-1)"><tspan
               id="tspan152"
               y="0"
               x="0 4.6339998 7.6440001 11.76 15.568 17.233999 21.608999 25.934999 29.694 32.025002 34.769001 38.521 40.187 44.709 46.389 48.720001">Previous txid:  </tspan></text>
</g><g
           transform="translate(126,407)"
           id="g156"><text
             id="text160"
             style="font-variant:normal;font-size:7px;font-family:HiraKakuProN;-inkscape-font-specification:HiraKakuProN-W3;writing-mode:lr-tb;fill:#000000;fill-opacity:1;fill-rule:nonzero;stroke:none"
             transform="scale(1,-1)"><tspan
               id="tspan158"
               y="0"
               x="0 4.5219998 9.1210003 13.72 18.242001 22.841 27.440001 31.465 35.490002 40.089001 44.134998 48.657001 53.256001 57.280998 61.880001 66.507004">d53d10aa9cb7a748</tspan></text>
</g><path
           id="path162"
           style="fill:#ffffff;fill-opacity:1;fill-rule:nonzero;stroke:none"
           d="m 379.2858,539.105 h 147.1488 c 7.6079,0 11.4708,0 15.5741,-1.3004 4.4903,-1.6343 8.0275,-5.1715 9.6618,-9.6617 1.3004,-4.1033 1.3004,-7.9663 1.3004,-15.6921 V 400.7845 c 0,-7.6079 0,-11.4709 -1.3004,-15.5741 -1.6343,-4.4903 -5.1715,-8.0275 -9.6618,-9.6618 -4.1033,-1.3004 -7.9662,-1.3004 -15.6921,-1.3004 H 379.2858 c -7.6078,0 -11.4708,0 -15.5741,1.3004 -4.4902,1.6343 -8.0274,5.1715 -9.6617,9.6618 -1.3004,4.1032 -1.3004,7.9662 -1.3004,15.692 v 111.6663 c 0,7.6079 0,11.4709 1.3004,15.5742 1.6343,4.4902 5.1715,8.0274 9.6617,9.6617 4.1033,1.3004 7.9663,1.3004 15.6921,1.3004 z" /><g
           transform="matrix(1,0,0,-1,352.7496,539.105)"
           id="g164"><path
             id="path166"
             style="fill:none;stroke:#000000;stroke-width:1.10000002;stroke-linecap:butt;stroke-linejoin:miter;stroke-miterlimit:4;stroke-dasharray:none;stroke-opacity:1"
             d="M 26.53629,0 H 173.685 c 7.6079,0 11.4709,0 15.5741,1.300396 4.4903,1.63433 8.0275,5.171499 9.6618,9.661784 1.3004,4.10328 1.3004,7.96621 1.3004,15.69209 V 138.3206 c 0,7.6079 0,11.4708 -1.3004,15.5741 -1.6343,4.4903 -5.1715,8.0274 -9.6618,9.6618 -4.1032,1.3004 -7.9662,1.3004 -15.692,1.3004 H 26.53629 c -7.6079,0 -11.47083,0 -15.57411,-1.3004 C 6.471895,161.9221 2.934726,158.385 1.300396,153.8947 0,149.7914 0,145.9285 0,138.2026 V 26.53629 C 0,18.92839 0,15.06546 1.300396,10.96218 2.934726,6.471895 6.471895,2.934726 10.96218,1.300396 15.06546,0 18.92839,0 26.65427,0 Z" /></g><g
           transform="matrix(1,0,0,-1,353.6831,505.1996)"
           id="g168"><path
             id="path170"
             style="fill:none;stroke:#000000;stroke-width:1;stroke-linecap:butt;stroke-linejoin:miter;stroke-miterlimit:4;stroke-dasharray:none;stroke-opacity:1"
             d="M 0,0 H 198.3542" /></g><g
           transform="translate(384,516)"
           id="g172"><text
             id="text176"
             style="font-variant:normal;font-size:10px;font-family:HiraKakuProN;-inkscape-font-specification:HiraKakuProN-W3;writing-mode:lr-tb;fill:#000000;fill-opacity:1;fill-rule:nonzero;stroke:none"
             transform="scale(1,-1)"><tspan
               id="tspan174"
               y="0"
               x="0 3.9200001 9.2799997 11.66 18.120001 20.52">txid: </tspan></text>
</g><g
           transform="translate(384,516)"
           id="g178"><text
             id="text182"
             style="font-variant:normal;font-size:10px;font-family:HiraKakuProN;-inkscape-font-specification:HiraKakuProN-W6;writing-mode:lr-tb;fill:#000000;fill-opacity:1;fill-rule:nonzero;stroke:none"
             transform="matrix(1,0,0,-1,23.85,0)"><tspan
               id="tspan180"
               y="0"
               x="0 6.25 13.31 18.08 24.450001 30.82 37.939999 45.060001 52.119999 59.18 66.300003 73.419998 80.540001 87.660004 94.779999 101.9">cbfee76bb9199070</tspan></text>
</g><path
           id="path184"
           style="fill:#ffffff;fill-opacity:1;fill-rule:nonzero;stroke:none"
           d="m 475.1662,474.6914 h 71.5137 v -47.3886 h -71.5137 z" /><g
           transform="matrix(1,0,0,-1,475.1662,474.6914)"
           id="g186"><path
             id="path188"
             style="fill:none;stroke:#000000;stroke-width:1;stroke-linecap:butt;stroke-linejoin:miter;stroke-miterlimit:4;stroke-dasharray:none;stroke-opacity:1"
             d="M 0,0 H 71.51367 V 47.38867 H 0 Z" /></g></g></g><g
       id="g190"><g
         clip-path="url(#clipPath196)"
         id="g192"><g
           transform="translate(501,455)"
           id="g198"><text
             id="text202"
             style="font-variant:normal;font-size:10px;font-family:HiraKakuProN;-inkscape-font-specification:HiraKakuProN-W3;writing-mode:lr-tb;fill:#017100;fill-opacity:1;fill-rule:nonzero;stroke:none"
             transform="scale(1,-1)"><tspan
               id="tspan200"
               y="0"
               x="0 7.1199999 13.37 19.83">Bob </tspan></text>
</g><g
           transform="translate(480,440)"
           id="g204"><text
             id="text208"
             style="font-variant:normal;font-size:10px;font-family:HiraKakuProN;-inkscape-font-specification:HiraKakuProN-W6;writing-mode:lr-tb;fill:#000000;fill-opacity:1;fill-rule:nonzero;stroke:none"
             transform="scale(1,-1)"><tspan
               id="tspan206"
               y="0"
               x="0 7.1199999 9.8199997 16.940001 24.059999 31.18">0.090 </tspan></text>
</g><g
           transform="translate(480,440)"
           id="g210"><text
             id="text214"
             style="font-variant:normal;font-size:8px;font-family:HiraKakuProN;-inkscape-font-specification:HiraKakuProN-W3;writing-mode:lr-tb;fill:#000000;fill-opacity:1;fill-rule:nonzero;stroke:none"
             transform="matrix(1,0,0,-1,34.51,0)"><tspan
               id="tspan212"
               y="0"
               x="0 5.1680002 7.072 10.208 14.832 19.832001 21.736">bitcoin</tspan></text>
</g></g></g><g
       id="g216"><g
         clip-path="url(#clipPath222)"
         id="g218"><g
           transform="translate(494,484)"
           id="g224"><text
             id="text228"
             style="font-variant:normal;font-size:10px;font-family:HiraKakuProN;-inkscape-font-specification:HiraKakuProN-W3;writing-mode:lr-tb;fill:#000000;fill-opacity:1;fill-rule:nonzero;stroke:none"
             transform="scale(1,-1)"><tspan
               id="tspan226"
               y="0"
               x="0 7.9499998 14.13 18.049999 24.52 30.700001">Output</tspan></text>
</g><g
           transform="matrix(1,0,0,-1,435.7402,450.9971)"
           id="g230"><path
             id="path232"
             style="fill:none;stroke:#000000;stroke-width:2;stroke-linecap:butt;stroke-linejoin:miter;stroke-miterlimit:4;stroke-dasharray:none;stroke-opacity:1"
             d="m 0,0 h 24.64 1" /></g><path
           id="path234"
           style="fill:#000000;fill-opacity:1;fill-rule:nonzero;stroke:none"
           d="m 460.3802,446.1971 9.6,4.8 -9.6,4.8 z" /><path
           id="path236"
           style="fill:#ffffff;fill-opacity:1;fill-rule:nonzero;stroke:none"
           d="m 358.5169,474.6914 h 71.5137 v -47.3886 h -71.5137 z" /><g
           transform="matrix(1,0,0,-1,358.5169,474.6914)"
           id="g238"><path
             id="path240"
             style="fill:none;stroke:#000000;stroke-width:1;stroke-linecap:butt;stroke-linejoin:miter;stroke-miterlimit:4;stroke-dasharray:none;stroke-opacity:1"
             d="M 0,0 H 71.51367 V 47.38867 H 0 Z" /></g></g></g><g
       id="g242"><g
         clip-path="url(#clipPath248)"
         id="g244"><g
           transform="translate(382,455)"
           id="g250"><text
             id="text254"
             style="font-variant:normal;font-size:10px;font-family:HiraKakuProN;-inkscape-font-specification:HiraKakuProN-W3;writing-mode:lr-tb;fill:#ee220c;fill-opacity:1;fill-rule:nonzero;stroke:none"
             transform="scale(1,-1)"><tspan
               id="tspan252"
               y="0"
               x="0 7.5 9.8199997 12.2 17.98 23.860001">Alice </tspan></text>
</g><g
           transform="translate(364,440)"
           id="g256"><text
             id="text260"
             style="font-variant:normal;font-size:10px;font-family:HiraKakuProN;-inkscape-font-specification:HiraKakuProN-W6;writing-mode:lr-tb;fill:#000000;fill-opacity:1;fill-rule:nonzero;stroke:none"
             transform="scale(1,-1)"><tspan
               id="tspan258"
               y="0"
               x="0 7.1199999 9.8199997 16.940001 24.059999 31.18">0.095 </tspan></text>
</g><g
           transform="translate(364,440)"
           id="g262"><text
             id="text266"
             style="font-variant:normal;font-size:8px;font-family:HiraKakuProN;-inkscape-font-specification:HiraKakuProN-W3;writing-mode:lr-tb;fill:#000000;fill-opacity:1;fill-rule:nonzero;stroke:none"
             transform="matrix(1,0,0,-1,34.51,0)"><tspan
               id="tspan264"
               y="0"
               x="0 5.1680002 7.072 10.208 14.832 19.832001 21.736">bitcoin</tspan></text>
</g></g></g><g
       id="g268"><g
         clip-path="url(#clipPath274)"
         id="g270"><g
           transform="translate(382,484)"
           id="g276"><text
             id="text280"
             style="font-variant:normal;font-size:10px;font-family:HiraKakuProN;-inkscape-font-specification:HiraKakuProN-W3;writing-mode:lr-tb;fill:#000000;fill-opacity:1;fill-rule:nonzero;stroke:none"
             transform="scale(1,-1)"><tspan
               id="tspan278"
               y="0"
               x="0 2.49 8.6700001 15.14 21.32">Input</tspan></text>
</g><g
           transform="translate(377,416)"
           id="g282"><text
             id="text286"
             style="font-variant:normal;font-size:7px;font-family:HiraKakuProN;-inkscape-font-specification:HiraKakuProN-W3;writing-mode:lr-tb;fill:#000000;fill-opacity:1;fill-rule:nonzero;stroke:none"
             transform="scale(1,-1)"><tspan
               id="tspan284"
               y="0"
               x="0 4.6339998 7.6440001 11.76 15.568 17.233999 21.608999 25.934999 29.694 32.025002 34.769001 38.521 40.187 44.709 46.389 48.720001">Previous txid:  </tspan></text>
</g><g
           transform="translate(362,405)"
           id="g288"><text
             id="text292"
             style="font-variant:normal;font-size:7px;font-family:HiraKakuProN;-inkscape-font-specification:HiraKakuProN-W6;writing-mode:lr-tb;fill:#000000;fill-opacity:1;fill-rule:nonzero;stroke:none"
             transform="scale(1,-1)"><tspan
               id="tspan290"
               y="0"
               x="0 4.9840002 9.9680004 14.952 19.936001 24.395 29.379 34.362999 38.737999 43.112999 47.550999 52.535 57.519001 62.502998 67.487 72.471001">2775e37cca287977</tspan></text>
</g><path
           id="path294"
           style="fill:#ffffff;fill-opacity:1;fill-rule:nonzero;stroke:none"
           d="M 624.1192,541.4616 H 771.268 c 7.6079,0 11.4708,0 15.5741,-1.3004 4.4903,-1.6343 8.0274,-5.1715 9.6618,-9.6618 1.3004,-4.1033 1.3004,-7.9662 1.3004,-15.6921 V 403.141 c 0,-7.6079 0,-11.4708 -1.3004,-15.5741 -1.6344,-4.4903 -5.1715,-8.0274 -9.6618,-9.6618 -4.1033,-1.3004 -7.9662,-1.3004 -15.6921,-1.3004 H 624.1192 c -7.6079,0 -11.4708,0 -15.5741,1.3004 -4.4903,1.6344 -8.0274,5.1715 -9.6618,9.6618 -1.3004,4.1033 -1.3004,7.9662 -1.3004,15.6921 v 111.6663 c 0,7.6079 0,11.4708 1.3004,15.5741 1.6344,4.4903 5.1715,8.0275 9.6618,9.6618 4.1033,1.3004 7.9662,1.3004 15.6921,1.3004 z" /><g
           transform="matrix(1,0,0,-1,597.5829,541.4616)"
           id="g296"><path
             id="path298"
             style="fill:none;stroke:#000000;stroke-width:1.10000002;stroke-linecap:butt;stroke-linejoin:miter;stroke-miterlimit:4;stroke-dasharray:none;stroke-opacity:1"
             d="M 26.53629,0 H 173.685 c 7.6079,0 11.4709,0 15.5741,1.300396 4.4903,1.63433 8.0275,5.171499 9.6618,9.661784 1.3004,4.10328 1.3004,7.96621 1.3004,15.69209 V 138.3206 c 0,7.6079 0,11.4708 -1.3004,15.5741 -1.6343,4.4903 -5.1715,8.0274 -9.6618,9.6618 -4.1032,1.3004 -7.9662,1.3004 -15.692,1.3004 H 26.53629 c -7.6079,0 -11.47083,0 -15.57411,-1.3004 C 6.471895,161.9221 2.934726,158.385 1.300396,153.8947 0,149.7914 0,145.9285 0,138.2026 V 26.53629 C 0,18.92839 0,15.06546 1.300396,10.96218 2.934726,6.471895 6.471895,2.934726 10.96218,1.300396 15.06546,0 18.92839,0 26.65427,0 Z" /></g><g
           transform="matrix(1,0,0,-1,598.5165,507.5561)"
           id="g300"><path
             id="path302"
             style="fill:none;stroke:#000000;stroke-width:1;stroke-linecap:butt;stroke-linejoin:miter;stroke-miterlimit:4;stroke-dasharray:none;stroke-opacity:1"
             d="M 0,0 H 198.3542" /></g><g
           transform="translate(631,520)"
           id="g304"><text
             id="text308"
             style="font-variant:normal;font-size:10px;font-family:HiraKakuProN;-inkscape-font-specification:HiraKakuProN-W3;writing-mode:lr-tb;fill:#000000;fill-opacity:1;fill-rule:nonzero;stroke:none"
             transform="scale(1,-1)"><tspan
               id="tspan306"
               y="0"
               x="0 3.9200001 9.2799997 11.66 18.120001 20.52">txid: </tspan></text>
</g><g
           transform="translate(631,520)"
           id="g310"><text
             id="text314"
             style="font-variant:normal;font-size:10px;font-family:HiraKakuProN;-inkscape-font-specification:HiraKakuProN-W6;writing-mode:lr-tb;fill:#000000;fill-opacity:1;fill-rule:nonzero;stroke:none"
             transform="matrix(1,0,0,-1,23.85,0)"><tspan
               id="tspan312"
               y="0"
               x="0 7.1199999 14.19 21.309999 28.43 33.200001 39.57 46.689999 53.810001 60.869999 67.989998 74.239998 81.360001 88.480003 95.599998 102.67">8d19fe37b4c521d3</tspan></text>
</g><path
           id="path316"
           style="fill:#ffffff;fill-opacity:1;fill-rule:nonzero;stroke:none"
           d="m 719.9996,477.048 h 71.5137 v -47.3887 h -71.5137 z" /><g
           transform="matrix(1,0,0,-1,719.9996,477.048)"
           id="g318"><path
             id="path320"
             style="fill:none;stroke:#000000;stroke-width:1;stroke-linecap:butt;stroke-linejoin:miter;stroke-miterlimit:4;stroke-dasharray:none;stroke-opacity:1"
             d="M 0,0 H 71.51367 V 47.38867 H 0 Z" /></g></g></g><g
       id="g322"><g
         clip-path="url(#clipPath328)"
         id="g324"><g
           transform="translate(730,457)"
           id="g330"><text
             id="text334"
             style="font-variant:normal;font-size:10px;font-family:HiraKakuProN;-inkscape-font-specification:HiraKakuProN-W3;writing-mode:lr-tb;fill:#99195e;fill-opacity:1;fill-rule:nonzero;stroke:none"
             transform="scale(1,-1)"><tspan
               id="tspan332"
               y="0"
               x="0 7.5599999 13.31 18.68 24.049999 29.799999 35.98 42.439999 46.740002 52.490002">Cassandra </tspan></text>
</g><g
           transform="translate(725,442)"
           id="g336"><text
             id="text340"
             style="font-variant:normal;font-size:10px;font-family:HiraKakuProN;-inkscape-font-specification:HiraKakuProN-W6;writing-mode:lr-tb;fill:#000000;fill-opacity:1;fill-rule:nonzero;stroke:none"
             transform="scale(1,-1)"><tspan
               id="tspan338"
               y="0"
               x="0 7.1199999 9.8199997 16.940001 24.059999 31.18">0.085 </tspan></text>
</g><g
           transform="translate(725,442)"
           id="g342"><text
             id="text346"
             style="font-variant:normal;font-size:8px;font-family:HiraKakuProN;-inkscape-font-specification:HiraKakuProN-W3;writing-mode:lr-tb;fill:#000000;fill-opacity:1;fill-rule:nonzero;stroke:none"
             transform="matrix(1,0,0,-1,34.51,0)"><tspan
               id="tspan344"
               y="0"
               x="0 5.1680002 7.072 10.208 14.832 19.832001 21.736">bitcoin</tspan></text>
</g></g></g><g
       id="g348"><g
         clip-path="url(#clipPath354)"
         id="g350"><g
           transform="translate(738,486)"
           id="g356"><text
             id="text360"
             style="font-variant:normal;font-size:10px;font-family:HiraKakuProN;-inkscape-font-specification:HiraKakuProN-W3;writing-mode:lr-tb;fill:#000000;fill-opacity:1;fill-rule:nonzero;stroke:none"
             transform="scale(1,-1)"><tspan
               id="tspan358"
               y="0"
               x="0 7.9499998 14.13 18.049999 24.52 30.700001">Output</tspan></text>
</g><g
           transform="matrix(1,0,0,-1,680.5736,453.3537)"
           id="g362"><path
             id="path364"
             style="fill:none;stroke:#000000;stroke-width:2;stroke-linecap:butt;stroke-linejoin:miter;stroke-miterlimit:4;stroke-dasharray:none;stroke-opacity:1"
             d="m 0,0 h 24.64 1" /></g><path
           id="path366"
           style="fill:#000000;fill-opacity:1;fill-rule:nonzero;stroke:none"
           d="m 705.2136,448.5537 9.6,4.8 -9.6,4.8 z" /><path
           id="path368"
           style="fill:#ffffff;fill-opacity:1;fill-rule:nonzero;stroke:none"
           d="M 603.3503,477.048 H 674.864 V 429.6593 H 603.3503 Z" /><g
           transform="matrix(1,0,0,-1,603.3503,477.048)"
           id="g370"><path
             id="path372"
             style="fill:none;stroke:#000000;stroke-width:1;stroke-linecap:butt;stroke-linejoin:miter;stroke-miterlimit:4;stroke-dasharray:none;stroke-opacity:1"
             d="M 0,0 H 71.51367 V 47.38867 H 0 Z" /></g></g></g><g
       id="g374"><g
         clip-path="url(#clipPath380)"
         id="g376"><g
           transform="translate(629,457)"
           id="g382"><text
             id="text386"
             style="font-variant:normal;font-size:10px;font-family:HiraKakuProN;-inkscape-font-specification:HiraKakuProN-W3;writing-mode:lr-tb;fill:#017100;fill-opacity:1;fill-rule:nonzero;stroke:none"
             transform="scale(1,-1)"><tspan
               id="tspan384"
               y="0"
               x="0 7.1199999 13.37 19.83">Bob </tspan></text>
</g><g
           transform="translate(609,442)"
           id="g388"><text
             id="text392"
             style="font-variant:normal;font-size:10px;font-family:HiraKakuProN;-inkscape-font-specification:HiraKakuProN-W6;writing-mode:lr-tb;fill:#000000;fill-opacity:1;fill-rule:nonzero;stroke:none"
             transform="scale(1,-1)"><tspan
               id="tspan390"
               y="0"
               x="0 7.1199999 9.8199997 16.940001 24.059999 31.18">0.090 </tspan></text>
</g><g
           transform="translate(609,442)"
           id="g394"><text
             id="text398"
             style="font-variant:normal;font-size:8px;font-family:HiraKakuProN;-inkscape-font-specification:HiraKakuProN-W3;writing-mode:lr-tb;fill:#000000;fill-opacity:1;fill-rule:nonzero;stroke:none"
             transform="matrix(1,0,0,-1,34.51,0)"><tspan
               id="tspan396"
               y="0"
               x="0 5.1680002 7.072 10.208 14.832 19.832001 21.736">bitcoin</tspan></text>
</g></g></g><g
       id="g400"><g
         clip-path="url(#clipPath406)"
         id="g402"><g
           transform="translate(626,486)"
           id="g408"><text
             id="text412"
             style="font-variant:normal;font-size:10px;font-family:HiraKakuProN;-inkscape-font-specification:HiraKakuProN-W3;writing-mode:lr-tb;fill:#000000;fill-opacity:1;fill-rule:nonzero;stroke:none"
             transform="scale(1,-1)"><tspan
               id="tspan410"
               y="0"
               x="0 2.49 8.6700001 15.14 21.32">Input</tspan></text>
</g><g
           transform="translate(622,418)"
           id="g414"><text
             id="text418"
             style="font-variant:normal;font-size:7px;font-family:HiraKakuProN;-inkscape-font-specification:HiraKakuProN-W3;writing-mode:lr-tb;fill:#000000;fill-opacity:1;fill-rule:nonzero;stroke:none"
             transform="scale(1,-1)"><tspan
               id="tspan416"
               y="0"
               x="0 4.6339998 7.6440001 11.76 15.568 17.233999 21.608999 25.934999 29.694 32.025002 34.769001 38.521 40.187 44.709 46.389 48.720001">Previous txid:  </tspan></text>
</g><g
           transform="translate(607,407)"
           id="g420"><text
             id="text424"
             style="font-variant:normal;font-size:7px;font-family:HiraKakuProN;-inkscape-font-specification:HiraKakuProN-W6;writing-mode:lr-tb;fill:#000000;fill-opacity:1;fill-rule:nonzero;stroke:none"
             transform="scale(1,-1)"><tspan
               id="tspan422"
               y="0"
               x="0 4.375 9.3170004 12.656 17.115 21.573999 26.558001 31.542 36.484001 41.425999 46.41 51.394001 56.377998 61.362 66.346001 71.330002">cbfee76bb9199070</tspan></text>
</g><path
           id="path426"
           style="fill:#929292;fill-opacity:1;fill-rule:nonzero;stroke:none"
           d="m 287.5582,522.2709 c -0.9063,0 -2.1164,0.1519 -2.2734,1.4886 -0.1519,1.3418 0.8304,2.3848 2.1924,2.3848 1.3671,0 0.9722,-0.7342 4.162,-0.7342 1.1798,0 1.2456,-2.4455 0.0507,-2.4455 -2.8405,0 -2.4507,-0.6937 -4.1317,-0.6937 0,0 0,0 0,0 z m 41.7266,3.8734 c 0.3046,0 0.5756,-0.0213 0.8152,-0.0644 l 1.8799,-1.8799 c -0.1894,-1.0546 -0.7993,-1.5012 -1.8596,-1.5342 -1.0804,-0.0323 -1.6952,0.5497 -1.8985,1.5342 l 1.8782,-1.8782 c -0.2474,-0.0511 -0.5203,-0.0762 -0.8152,-0.0762 -1.4633,0 -1.3975,0.7341 -3.8532,0.7139 -1.3164,-0.0152 -1.0886,2.4456 -0.0151,2.4456 2.6025,0 2.2227,0.7392 3.8683,0.7392 0,0 0,0 0,0 z m -37.52,-3.1848 c -0.7013,0 -0.7166,2.4608 0.1037,2.4608 0.8691,0 2.7629,-0.4406 3.2599,-0.3899 0.4971,0.0506 1.8694,0.5164 2.3055,0.5164 0.433,0 2.531,-0.719 3.4337,-0.5164 0.8965,0.2076 1.1527,0.0962 1.7748,0.0962 0.619,0 1.604,-0.1469 2.1926,-0.2025 0.5916,-0.0507 1.1191,0.5974 1.8907,0.4253 0.7715,-0.1772 1.1893,0.0709 1.7199,0.0709 0.8538,0 0.805,-2.4406 0.009,-2.4406 -0.7685,0 -1.293,-0.162 -1.9456,-0.1113 -0.6495,0.0506 -1.2106,0.3088 -1.8297,0.0506 -0.619,-0.2532 -1.8175,0.0202 -2.5615,0.1772 -0.7441,0.157 -1.5675,0.0861 -2.153,-0.0203 -1.1771,-0.1974 -3.9979,0.2583 -4.4004,0.0507 -0.4056,-0.2025 -1.6925,-0.005 -2.1529,-0.005 -0.4544,0 -0.7014,-0.162 -1.6468,-0.162 0,0 0,0 0,0 z m 33.4042,2.4608 c 0.7746,0 0.9148,-2.4456 0,-2.4456 -0.9149,0 -2.6012,0.2278 -3.0952,0.1772 -0.4971,-0.0557 -2.5616,-0.2025 -2.9946,-0.2025 -0.4331,0 -1.9853,0.3595 -2.8849,0.1519 -0.8996,-0.2026 -1.7778,0.2025 -2.3938,0.0911 -0.7685,-0.1367 -1.1802,0 -1.7687,0.0506 -0.5886,0.0507 -1.4943,-0.4405 -1.9913,-0.2379 -0.4971,0.2076 -0.7777,-0.0304 -1.473,-0.0304 -0.6983,0 -0.6952,2.4354 -0.0396,2.4354 0.6587,0 1.2198,-0.0354 1.8693,-0.0911 0.6526,-0.0506 1.4455,-0.0912 2.1499,-0.0912 0.6404,0 1.598,0.2988 2.342,0.1418 0.7441,-0.1519 1.8236,-0.2177 2.2567,-0.243 0.5428,-0.0304 1.6985,0.0405 2.1956,-0.0962 0.6343,-0.1722 1.7352,0.081 2.1377,0.2886 0.4056,0.2076 0.6831,-0.081 1.5613,-0.0304 0.5215,0.0304 1.351,0.1317 2.1286,0.1317 0,0 0,0 0,0 z m 3.0019,-1.8785 c 0,0.9063 0.1519,2.1164 1.4886,2.2734 1.3418,0.1519 2.3848,-0.8304 2.3848,-2.1924 0,-1.3671 -0.7342,-0.9722 -0.7342,-4.162 0,-1.1798 -2.4455,-1.2456 -2.4455,-0.0507 0,2.8405 -0.6937,2.4507 -0.6937,4.1317 0,0 0,0 0,0 z m 3.8734,-109.2266 c 0,-0.3046 -0.0213,-0.5756 -0.0644,-0.8152 l -1.8799,1.8799 c 1.0546,-0.1894 1.5012,-0.7993 1.5342,-1.8596 0.0323,-1.0804 -0.5497,-1.6952 -1.5342,-1.8985 l -1.8782,1.8782 c -0.0511,0.2474 -0.0762,0.5203 -0.0762,0.8152 0,1.4633 0.7341,1.3975 0.7139,3.8532 -0.0152,1.3164 2.4456,1.0886 2.4456,0.0151 0,-2.6025 0.7392,-2.2227 0.7392,-3.8683 0,0 0,0 0,0 z m -0.724,104.8169 c 0,-1.3529 -0.3292,-3.559 -0.3292,-4.0984 0,-0.5394 0.1874,-2.3476 0.1367,-3.2053 -0.0556,-0.8533 -0.2481,-1.1407 -0.2987,-2.582 -0.0658,-1.7994 0.1772,-2.9798 0.2076,-3.0638 0.0861,-0.2564 0.3291,-1.1274 0.2532,-2.3388 -0.1013,-1.6181 0.1316,-2.1044 0.0304,-2.8251 -0.2937,-1.2379 -0.0254,-1.3573 -0.0709,-2.299 -0.0507,-0.9505 0.0557,-1.5385 -0.076,-2.2945 -0.1519,-0.8268 0.1671,-1.428 0.1469,-2.1885 0,-1.2069 -2.4557,-1.092 -2.4557,0.0398 0,0.6853 0.2632,1.2998 0.2632,2.016 0,0.7207 -0.0506,1.3485 -0.1519,2.0691 -0.1063,0.7207 0.0507,2.1885 0,3.3557 -0.0556,1.1716 -0.1974,3.1124 -0.1417,4.4609 0.0455,1.3529 0.6228,2.1884 0.243,4.9516 -0.1215,0.8887 -0.0152,2.6616 -0.0152,3.3822 0,1.2645 -0.1823,3.7005 -0.1823,4.7527 0,1.2556 2.4406,1.2203 2.4406,-0.1326 0,0 0,0 0,0 z m 0,-50.1431 c 0,-1.1673 -2.4456,-1.3787 -2.4456,0 0,1.3787 0.2278,3.9201 0.1772,4.6647 -0.0557,0.7491 -0.2025,3.8604 -0.2025,4.513 0,0.6525 0.3595,2.9918 0.1519,4.3475 -0.2026,1.3557 0.2025,2.6793 0.0911,3.6076 -0.1367,1.1582 0,1.7786 0.0506,2.6656 0.0507,0.8869 -0.4405,2.2519 -0.2379,3.001 0.2076,0.7491 -0.0304,1.1719 -0.0304,2.2197 0,1.0524 2.4354,1.0478 2.4354,0.0597 0,-0.9926 -0.0354,-1.8382 -0.0911,-2.8171 -0.0506,-0.9835 -0.0912,-2.1784 -0.0912,-3.24 0,-0.9651 0.2988,-2.4082 0.1418,-3.5295 -0.1519,-1.1214 -0.2177,-2.7483 -0.243,-3.4009 -0.0304,-0.818 0.0405,-2.5598 -0.0962,-3.3089 -0.1722,-0.9559 0.081,-2.6149 0.2886,-3.2216 0.2076,-0.6112 -0.081,-1.0294 -0.0304,-2.353 0.0304,-0.7859 0.1317,-2.0359 0.1317,-3.2078 0,0 0,0 0,0 z m 0,-0.3639 c 0,-1.3528 -0.3292,-3.559 -0.3292,-4.0984 0,-0.5393 0.1874,-2.3476 0.1367,-3.2053 -0.0556,-0.8533 -0.2481,-1.1406 -0.2987,-2.5819 -0.0658,-1.7994 0.1772,-2.9799 0.2076,-3.0639 0.0861,-0.2564 0.3291,-1.1273 0.2532,-2.3387 -0.1013,-1.6182 0.1316,-2.1045 0.0304,-2.8251 -0.2937,-1.2379 -0.0254,-1.3573 -0.0709,-2.299 -0.0507,-0.9506 0.0557,-1.5386 -0.076,-2.2946 -0.1519,-0.8267 0.1671,-1.428 0.1469,-2.1884 0,-1.207 -2.4557,-1.0921 -2.4557,0.0397 0,0.6853 0.2632,1.2999 0.2632,2.0161 0,0.7206 -0.0506,1.3484 -0.1519,2.0691 -0.1063,0.7206 0.0507,2.1884 0,3.3556 -0.0556,1.1716 -0.1974,3.1125 -0.1417,4.4609 0.0455,1.3529 0.6228,2.1885 0.243,4.9517 -0.1215,0.8886 -0.0152,2.6615 -0.0152,3.3821 0,1.2645 -0.1823,3.7005 -0.1823,4.7528 0,1.2556 2.4406,1.2202 2.4406,-0.1327 0,0 0,0 0,0 z m 0,-50.1431 c 0,-1.1673 -2.4456,-1.3787 -2.4456,0 0,1.3788 0.2278,3.9202 0.1772,4.6647 -0.0557,0.7491 -0.2025,3.8604 -0.2025,4.513 0,0.6526 0.3595,2.9918 0.1519,4.3475 -0.2026,1.3558 0.2025,2.6793 0.0911,3.6077 -0.1367,1.1581 0,1.7785 0.0506,2.6655 0.0507,0.887 -0.4405,2.2519 -0.2379,3.001 0.2076,0.7491 -0.0304,1.1719 -0.0304,2.2197 0,1.0525 2.4354,1.0479 2.4354,0.0598 0,-0.9927 -0.0354,-1.8383 -0.0911,-2.8172 -0.0506,-0.9835 -0.0912,-2.1784 -0.0912,-3.24 0,-0.9651 0.2988,-2.4081 0.1418,-3.5295 -0.1519,-1.1213 -0.2177,-2.7482 -0.243,-3.4008 -0.0304,-0.8181 0.0405,-2.5598 -0.0962,-3.3089 -0.1722,-0.956 0.081,-2.615 0.2886,-3.2216 0.2076,-0.6113 -0.081,-1.0295 -0.0304,-2.353 0.0304,-0.7859 0.1317,-2.036 0.1317,-3.2079 0,0 0,0 0,0 z m -0.5621,-6.9111 c -0.9063,0 -2.1164,0.1519 -2.2734,1.4886 -0.1519,1.3418 0.8304,2.3848 2.1924,2.3848 1.3671,0 0.9722,-0.7342 4.162,-0.7342 1.1798,0 1.2456,-2.4455 0.0507,-2.4455 -2.8405,0 -2.4507,-0.6937 -4.1317,-0.6937 0,0 0,0 0,0 z m 25.7266,3.8734 c 1.6456,0 2.3089,-0.6228 2.3494,-1.924 0.0405,-1.3519 -0.881,-1.9747 -2.3494,-1.9747 -1.4633,0 -1.3975,0.7341 -3.8532,0.7139 -1.3164,-0.0152 -1.0886,2.4456 -0.0151,2.4456 2.6025,0 2.2227,0.7392 3.8683,0.7392 0,0 0,0 0,0 z m -21.5195,-3.1848 c -0.7331,0 -0.749,2.4608 0.1083,2.4608 0.9084,0 2.8877,-0.4406 3.4072,-0.3899 0.5195,0.0506 1.9538,0.5164 2.4096,0.5164 0.4525,0 2.6454,-0.719 3.5888,-0.5164 0.937,0.2076 1.2048,0.0962 1.855,0.0962 0.647,0 1.6765,-0.1469 2.2916,-0.2025 0.6183,-0.0507 1.1697,0.5974 1.9761,0.4253 0.8064,-0.1772 1.243,0.0709 1.7976,0.0709 0.8924,0 0.8414,-2.4406 0.01,-2.4406 -0.8032,0 -1.3514,-0.162 -2.0335,-0.1113 -0.6789,0.0506 -1.2653,0.3088 -1.9123,0.0506 -0.6471,-0.2532 -1.8996,0.0202 -2.6773,0.1772 -0.7777,0.157 -1.6383,0.0861 -2.2502,-0.0203 -1.2303,-0.1974 -4.1785,0.2583 -4.5992,0.0507 -0.4239,-0.2025 -1.769,-0.005 -2.2502,-0.005 -0.4749,0 -0.7331,-0.162 -1.7211,-0.162 0,0 0,0 0,0 z" /><path
           id="path428"
           style="fill:#929292;fill-opacity:1;fill-rule:nonzero;stroke:none"
           d="m 42.45823,520.9709 c -0.90633,0 -2.11646,0.1519 -2.27342,1.4886 -0.1519,1.3418 0.83038,2.3848 2.19241,2.3848 1.36708,0 0.97215,-0.7342 4.16202,-0.7342 1.17975,0 1.24557,-2.4455 0.05063,-2.4455 -2.8405,0 -2.45063,-0.6937 -4.13164,-0.6937 0,0 0,0 0,0 z m 45.72658,3.8734 c 0.30463,0 0.5756,-0.0213 0.81519,-0.0644 L 90.87992,522.9 c -0.18945,-1.0546 -0.7993,-1.5012 -1.85967,-1.5342 -1.08038,-0.0323 -1.6951,0.5497 -1.89845,1.5342 L 89,521.0218 c -0.24743,-0.0511 -0.52028,-0.0762 -0.81519,-0.0762 -1.46329,0 -1.39747,0.7341 -3.85316,0.7139 -1.31646,-0.0152 -1.08861,2.4456 -0.01519,2.4456 2.60253,0 2.22278,0.7392 3.86835,0.7392 0,0 0,0 0,0 z m -41.51887,-3.1848 c -0.7851,0 -0.80217,2.4608 0.11605,2.4608 0.97284,0 3.0926,-0.4406 3.64899,-0.3899 0.5564,0.0506 2.09245,0.5164 2.58058,0.5164 0.48471,0 2.83317,-0.719 3.84355,-0.5164 1.00356,0.2076 1.29029,0.0962 1.98664,0.0962 0.69293,0 1.79548,-0.1469 2.45428,-0.2025 0.66221,-0.0507 1.25274,0.5974 2.11634,0.4253 0.86361,-0.1772 1.33125,0.0709 1.92519,0.0709 0.95577,0 0.90116,-2.4406 0.01024,-2.4406 -0.86019,0 -1.4473,-0.162 -2.17778,-0.1113 -0.72707,0.0506 -1.35515,0.3088 -2.04808,0.0506 -0.69293,-0.2532 -2.03442,0.0202 -2.86731,0.1772 -0.83288,0.157 -1.75452,0.0861 -2.4099,-0.0203 -1.3176,-0.1974 -4.47505,0.2583 -4.92562,0.0507 -0.45399,-0.2025 -1.89447,-0.005 -2.40991,-0.005 -0.5086,0 -0.78509,-0.162 -1.84326,-0.162 0,0 0,0 0,0 z m 37.39104,2.4608 c 0.86701,0 1.02403,-2.4456 0,-2.4456 -1.02404,0 -2.91169,0.2278 -3.46467,0.1772 -0.55639,-0.0557 -2.8673,-0.2025 -3.35201,-0.2025 -0.48471,0 -2.22217,0.3595 -3.22914,0.1519 -1.00697,-0.2026 -1.99004,0.2025 -2.67956,0.0911 -0.86019,-0.1367 -1.32101,0 -1.97981,0.0506 -0.6588,0.0507 -1.67259,-0.4405 -2.22899,-0.2379 -0.55639,0.2076 -0.87043,-0.0304 -1.6487,-0.0304 -0.78168,0 -0.77827,2.4354 -0.04437,2.4354 0.7373,0 1.36538,-0.0354 2.09245,-0.0911 0.73048,-0.0506 1.61798,-0.0912 2.40649,-0.0912 0.71682,0 1.78865,0.2988 2.62153,0.1418 0.83289,-0.1519 2.04125,-0.2177 2.52596,-0.243 0.6076,-0.0304 1.9013,0.0405 2.45769,-0.0962 0.71,-0.1722 1.94226,0.081 2.39284,0.2886 0.45399,0.2076 0.76461,-0.081 1.74769,-0.0304 0.5837,0.0304 1.51216,0.1317 2.3826,0.1317 0,0 0,0 0,0 z m 3.01391,-1.8785 c 0,0.9063 0.15189,2.1164 1.4886,2.2734 1.34178,0.1519 2.38481,-0.8304 2.38481,-2.1924 0,-1.3671 -0.73417,-0.9722 -0.73417,-4.162 0,-1.1798 -2.44557,-1.2456 -2.44557,-0.0507 0,2.8405 -0.69367,2.4507 -0.69367,4.1317 0,0 0,0 0,0 z M 90.9443,416.7152 c 0,-0.3046 -0.02134,-0.5756 -0.06438,-0.8152 L 89,417.7799 c 1.05462,-0.1894 1.50117,-0.7993 1.53418,-1.8596 C 90.56655,414.8399 89.98452,414.2251 89,414.0218 L 87.1218,415.9 c -0.05111,0.2474 -0.07623,0.5203 -0.07623,0.8152 0,1.4633 0.73418,1.3975 0.71392,3.8532 -0.01519,1.3164 2.44557,1.0886 2.44557,0.0151 0,-2.6025 0.73924,-2.2227 0.73924,-3.8683 0,0 0,0 0,0 z m -0.72405,101.1247 c 0,-1.3033 -0.32911,-3.4287 -0.32911,-3.9483 0,-0.5196 0.18734,-2.2616 0.13671,-3.0879 -0.0557,-0.822 -0.2481,-1.0989 -0.29874,-2.4874 -0.06582,-1.7335 0.17722,-2.8707 0.2076,-2.9516 0.08607,-0.247 0.32911,-1.0861 0.25316,-2.2531 -0.10126,-1.5589 0.13165,-2.0274 0.03038,-2.7216 -0.29367,-1.1926 -0.02531,-1.3076 -0.07088,-2.2148 -0.05064,-0.9157 0.05569,-1.4822 -0.07595,-2.2105 -0.1519,-0.7965 0.16709,-1.3757 0.14683,-2.1083 0,-1.1628 -2.45569,-1.052 -2.45569,0.0383 0,0.6602 0.26329,1.2522 0.26329,1.9422 0,0.6942 -0.05063,1.2991 -0.1519,1.9933 -0.10633,0.6942 0.05063,2.1083 0,3.2327 -0.0557,1.1287 -0.19747,2.9985 -0.14177,4.2975 0.04557,1.3034 0.62278,2.1083 0.24304,4.7703 -0.12152,0.8561 -0.01519,2.5641 -0.01519,3.2583 0,1.2181 -0.18228,3.565 -0.18228,4.5786 0,1.2096 2.4405,1.1756 2.4405,-0.1277 0,0 0,0 0,0 z m 0,-48.3065 c 0,-1.1245 -2.44557,-1.3282 -2.44557,0 0,1.3283 0.22785,3.7766 0.17722,4.4938 -0.0557,0.7217 -0.20253,3.719 -0.20253,4.3477 0,0.6287 0.35949,2.8823 0.1519,4.1883 -0.20254,1.3061 0.20253,2.5812 0.09114,3.4755 -0.13671,1.1157 0,1.7134 0.05063,2.5679 0.05063,0.8545 -0.44051,2.1694 -0.23798,2.8911 0.2076,0.7217 -0.03038,1.129 -0.03038,2.1384 0,1.0139 2.43545,1.0095 2.43545,0.0576 0,-0.9563 -0.03545,-1.771 -0.09114,-2.714 -0.05064,-0.9475 -0.09114,-2.0986 -0.09114,-3.1213 0,-0.9298 0.29873,-2.32 0.14177,-3.4002 -0.1519,-1.0803 -0.21772,-2.6476 -0.24304,-3.2763 -0.03038,-0.7881 0.04051,-2.4661 -0.0962,-3.1877 -0.17215,-0.9209 0.08101,-2.5192 0.28861,-3.1036 0.20759,-0.5889 -0.08102,-0.9918 -0.03038,-2.2668 0.03038,-0.7571 0.13164,-1.9614 0.13164,-3.0904 0,0 0,0 0,0 z m 0,-0.3505 c 0,-1.3033 -0.32911,-3.4286 -0.32911,-3.9483 0,-0.5196 0.18734,-2.2616 0.13671,-3.0879 -0.0557,-0.822 -0.2481,-1.0988 -0.29874,-2.4873 -0.06582,-1.7335 0.17722,-2.8707 0.2076,-2.9517 0.08607,-0.247 0.32911,-1.0861 0.25316,-2.2531 -0.10126,-1.5588 0.13165,-2.0273 0.03038,-2.7216 -0.29367,-1.1926 -0.02531,-1.3076 -0.07088,-2.2148 -0.05064,-0.9157 0.05569,-1.4822 -0.07595,-2.2105 -0.1519,-0.7965 0.16709,-1.3757 0.14683,-2.1083 0,-1.1627 -2.45569,-1.052 -2.45569,0.0383 0,0.6602 0.26329,1.2522 0.26329,1.9422 0,0.6943 -0.05063,1.2991 -0.1519,1.9933 -0.10633,0.6943 0.05063,2.1083 0,3.2328 -0.0557,1.1286 -0.19747,2.9984 -0.14177,4.2975 0.04557,1.3033 0.62278,2.1083 0.24304,4.7703 -0.12152,0.8561 -0.01519,2.564 -0.01519,3.2582 0,1.2182 -0.18228,3.565 -0.18228,4.5787 0,1.2096 2.4405,1.1755 2.4405,-0.1278 0,0 0,0 0,0 z m 0,-48.3064 c 0,-1.1246 -2.44557,-1.3282 -2.44557,0 0,1.3282 0.22785,3.7765 0.17722,4.4938 -0.0557,0.7216 -0.20253,3.719 -0.20253,4.3477 0,0.6287 0.35949,2.8822 0.1519,4.1883 -0.20254,1.3061 0.20253,2.5811 0.09114,3.4755 -0.13671,1.1157 0,1.7134 0.05063,2.5679 0.05063,0.8544 -0.44051,2.1694 -0.23798,2.891 0.2076,0.7217 -0.03038,1.129 -0.03038,2.1385 0,1.0138 2.43545,1.0094 2.43545,0.0575 0,-0.9563 -0.03545,-1.7709 -0.09114,-2.714 -0.05064,-0.9474 -0.09114,-2.0985 -0.09114,-3.1213 0,-0.9297 0.29873,-2.3199 0.14177,-3.4002 -0.1519,-1.0803 -0.21772,-2.6476 -0.24304,-3.2763 -0.03038,-0.788 0.04051,-2.466 -0.0962,-3.1877 -0.17215,-0.9209 0.08101,-2.5192 0.28861,-3.1036 0.20759,-0.5888 -0.08102,-0.9917 -0.03038,-2.2668 0.03038,-0.7571 0.13164,-1.9613 0.13164,-3.0903 0,0 0,0 0,0 z m -0.56202,-6.9056 c -0.90633,0 -2.11646,0.1519 -2.27342,1.4886 -0.1519,1.3418 0.83038,2.3848 2.19241,2.3848 1.36708,0 0.97215,-0.7342 4.16202,-0.7342 1.17975,0 1.24557,-2.4455 0.05063,-2.4455 -2.8405,0 -2.45063,-0.6937 -4.13164,-0.6937 0,0 0,0 0,0 z m 30.92657,3.8734 c 1.6456,0 2.3089,-0.6228 2.3494,-1.924 0.0405,-1.3519 -0.881,-1.9747 -2.3494,-1.9747 -1.4633,0 -1.3975,0.7341 -3.8532,0.7139 -1.3164,-0.0152 -1.0886,2.4456 -0.0151,2.4456 2.6025,0 2.2227,0.7392 3.8683,0.7392 0,0 0,0 0,0 z m -26.7167,-3.1848 c -0.95072,0 -0.97139,2.4608 0.14054,2.4608 1.17806,0 3.74501,-0.4406 4.41878,-0.3899 0.67377,0.0506 2.53388,0.5164 3.12498,0.5164 0.587,0 3.4308,-0.719 4.6544,-0.5164 1.2152,0.2076 1.5625,0.0962 2.4057,0.0962 0.8391,0 2.1743,-0.1469 2.972,-0.2025 0.802,-0.0507 1.5171,0.5974 2.5629,0.4253 1.0457,-0.1772 1.612,0.0709 2.3313,0.0709 1.1574,0 1.0912,-2.4406 0.0124,-2.4406 -1.0417,0 -1.7526,-0.162 -2.6372,-0.1113 -0.8805,0.0506 -1.6411,0.3088 -2.4802,0.0506 -0.8391,-0.2532 -2.4636,0.0202 -3.4722,0.1772 -1.0085,0.157 -2.1246,0.0861 -2.9183,-0.0203 -1.5955,-0.1974 -5.41905,0.2583 -5.96468,0.0507 -0.54977,-0.2025 -2.29413,-0.005 -2.9183,-0.005 -0.6159,0 -0.95072,-0.162 -2.23212,-0.162 0,0 0,0 0,0 z" /><path
           id="path430"
           style="fill:#929292;fill-opacity:1;fill-rule:nonzero;stroke:none"
           d="m 524.1582,517.5709 c -0.9063,0 -2.1164,0.1519 -2.2734,1.4886 -0.1519,1.3418 0.8304,2.3848 2.1924,2.3848 1.3671,0 0.9722,-0.7342 4.162,-0.7342 1.1798,0 1.2456,-2.4455 0.0507,-2.4455 -2.8405,0 -2.4507,-0.6937 -4.1317,-0.6937 0,0 0,0 0,0 z m 51.0266,3.8734 c 0.3046,0 0.5756,-0.0213 0.8152,-0.0644 l 1.8799,-1.8799 c -0.1894,-1.0546 -0.7993,-1.5012 -1.8596,-1.5342 -1.0804,-0.0323 -1.6952,0.5497 -1.8985,1.5342 L 576,517.6218 c -0.2474,-0.0511 -0.5203,-0.0762 -0.8152,-0.0762 -1.4633,0 -1.3975,0.7341 -3.8532,0.7139 -1.3164,-0.0152 -1.0886,2.4456 -0.0151,2.4456 2.6025,0 2.2227,0.7392 3.8683,0.7392 0,0 0,0 0,0 z m -46.8174,-3.1848 c -0.896,0 -0.9155,2.4608 0.1324,2.4608 1.1103,0 3.5296,-0.4406 4.1646,-0.3899 0.635,0.0506 2.388,0.5164 2.9451,0.5164 0.5532,0 3.2335,-0.719 4.3866,-0.5164 1.1453,0.2076 1.4726,0.0962 2.2673,0.0962 0.7908,0 2.0492,-0.1469 2.801,-0.2025 0.7558,-0.0507 1.4298,0.5974 2.4154,0.4253 0.9856,-0.1772 1.5193,0.0709 2.1972,0.0709 1.0908,0 1.0284,-2.4406 0.0116,-2.4406 -0.9817,0 -1.6517,-0.162 -2.4854,-0.1113 -0.8298,0.0506 -1.5466,0.3088 -2.3375,0.0506 -0.7908,-0.2532 -2.3218,0.0202 -3.2724,0.1772 -0.9505,0.157 -2.0024,0.0861 -2.7503,-0.0203 -1.5038,-0.1974 -5.1073,0.2583 -5.6216,0.0507 -0.5181,-0.2025 -2.1621,-0.005 -2.7503,-0.005 -0.5805,0 -0.896,-0.162 -2.1037,-0.162 0,0 0,0 0,0 z m 42.6737,2.4608 c 0.9895,0 1.1687,-2.4456 0,-2.4456 -1.1688,0 -3.3231,0.2278 -3.9542,0.1772 -0.635,-0.0557 -3.2724,-0.2025 -3.8256,-0.2025 -0.5532,0 -2.5361,0.3595 -3.6853,0.1519 -1.1493,-0.2026 -2.2712,0.2025 -3.0582,0.0911 -0.9817,-0.1367 -1.5076,0 -2.2595,0.0506 -0.7519,0.0507 -1.9089,-0.4405 -2.5439,-0.2379 -0.635,0.2076 -0.9934,-0.0304 -1.8816,-0.0304 -0.8921,0 -0.8882,2.4354 -0.0507,2.4354 0.8415,0 1.5583,-0.0354 2.3881,-0.0911 0.8337,-0.0506 1.8466,-0.0912 2.7465,-0.0912 0.8181,0 2.0413,0.2988 2.9919,0.1418 0.9506,-0.1519 2.3296,-0.2177 2.8828,-0.243 0.6935,-0.0304 2.1699,0.0405 2.8049,-0.0962 0.8104,-0.1722 2.2167,0.081 2.7309,0.2886 0.5182,0.2076 0.8727,-0.081 1.9947,-0.0304 0.6661,0.0304 1.7258,0.1317 2.7192,0.1317 0,0 0,0 0,0 z m 3.0298,-1.8785 c 0,0.9063 0.1519,2.1164 1.4886,2.2734 1.3418,0.1519 2.3848,-0.8304 2.3848,-2.1924 0,-1.3671 -0.7342,-0.9722 -0.7342,-4.162 0,-1.1798 -2.4455,-1.2456 -2.4455,-0.0507 0,2.8405 -0.6937,2.4507 -0.6937,4.1317 0,0 0,0 0,0 z m 3.8734,-102.1266 c 0,-0.3046 -0.0213,-0.5756 -0.0644,-0.8152 L 576,417.7799 c 1.0546,-0.1894 1.5012,-0.7993 1.5342,-1.8596 0.0323,-1.0804 -0.5497,-1.6952 -1.5342,-1.8985 l -1.8782,1.8782 c -0.0511,0.2474 -0.0762,0.5203 -0.0762,0.8152 0,1.4633 0.7341,1.3975 0.7139,3.8532 -0.0152,1.3164 2.4456,1.0886 2.4456,0.0151 0,-2.6025 0.7392,-2.2227 0.7392,-3.8683 0,0 0,0 0,0 z m -0.724,97.7318 c 0,-1.2578 -0.3292,-3.3088 -0.3292,-3.8103 0,-0.5015 0.1874,-2.1826 0.1367,-2.98 -0.0556,-0.7933 -0.2481,-1.0605 -0.2987,-2.4005 -0.0658,-1.6729 0.1772,-2.7704 0.2076,-2.8485 0.0861,-0.2384 0.3291,-1.0481 0.2532,-2.1744 -0.1013,-1.5044 0.1316,-1.9565 0.0304,-2.6265 -0.2937,-1.1509 -0.0254,-1.2619 -0.0709,-2.1374 -0.0507,-0.8837 0.0557,-1.4304 -0.076,-2.1333 -0.1519,-0.7686 0.1671,-1.3276 0.1469,-2.0346 0,-1.1222 -2.4557,-1.0153 -2.4557,0.037 0,0.6371 0.2632,1.2084 0.2632,1.8743 0,0.67 -0.0506,1.2537 -0.1519,1.9236 -0.1063,0.67 0.0507,2.0347 0,3.1198 -0.0556,1.0893 -0.1974,2.8937 -0.1417,4.1474 0.0455,1.2578 0.6228,2.0346 0.243,4.6036 -0.1215,0.8262 -0.0152,2.4745 -0.0152,3.1445 0,1.1755 -0.1823,3.4403 -0.1823,4.4186 0,1.1674 2.4406,1.1345 2.4406,-0.1233 0,0 0,0 0,0 z m 0,-46.6187 c 0,-1.0852 -2.4456,-1.2818 -2.4456,0 0,1.2819 0.2278,3.6447 0.1772,4.3368 -0.0557,0.6965 -0.2025,3.5891 -0.2025,4.1958 0,0.6067 0.3595,2.7815 0.1519,4.042 -0.2026,1.2604 0.2025,2.491 0.0911,3.3541 -0.1367,1.0767 0,1.6535 0.0506,2.4781 0.0507,0.8247 -0.4405,2.0937 -0.2379,2.7901 0.2076,0.6965 -0.0304,1.0895 -0.0304,2.0637 0,0.9785 2.4354,0.9742 2.4354,0.0556 0,-0.9229 -0.0354,-1.7091 -0.0911,-2.6192 -0.0506,-0.9144 -0.0912,-2.0253 -0.0912,-3.0123 0,-0.8972 0.2988,-2.2389 0.1418,-3.2814 -0.1519,-1.0425 -0.2177,-2.5551 -0.243,-3.1618 -0.0304,-0.7605 0.0405,-2.3799 -0.0962,-3.0763 -0.1722,-0.8888 0.081,-2.4312 0.2886,-2.9952 0.2076,-0.5683 -0.081,-0.9571 -0.0304,-2.1876 0.0304,-0.7306 0.1317,-1.8928 0.1317,-2.9824 0,0 0,0 0,0 z m 0,-0.3383 c 0,-1.2577 -0.3292,-3.3088 -0.3292,-3.8103 0,-0.5014 0.1874,-2.1826 0.1367,-2.98 -0.0556,-0.7933 -0.2481,-1.0605 -0.2987,-2.4005 -0.0658,-1.6729 0.1772,-2.7704 0.2076,-2.8485 0.0861,-0.2384 0.3291,-1.0481 0.2532,-2.1743 -0.1013,-1.5044 0.1316,-1.9566 0.0304,-2.6266 -0.2937,-1.1509 -0.0254,-1.2619 -0.0709,-2.1374 -0.0507,-0.8837 0.0557,-1.4304 -0.076,-2.1333 -0.1519,-0.7686 0.1671,-1.3276 0.1469,-2.0346 0,-1.1221 -2.4557,-1.0153 -2.4557,0.037 0,0.6371 0.2632,1.2084 0.2632,1.8743 0,0.67 -0.0506,1.2537 -0.1519,1.9237 -0.1063,0.67 0.0507,2.0346 0,3.1198 -0.0556,1.0892 -0.1974,2.8937 -0.1417,4.1473 0.0455,1.2578 0.6228,2.0347 0.243,4.6037 -0.1215,0.8261 -0.0152,2.4744 -0.0152,3.1444 0,1.1756 -0.1823,3.4404 -0.1823,4.4187 0,1.1673 2.4406,1.1344 2.4406,-0.1234 0,0 0,0 0,0 z m 0,-46.6186 c 0,-1.0853 -2.4456,-1.2818 -2.4456,0 0,1.2818 0.2278,3.6446 0.1772,4.3368 -0.0557,0.6964 -0.2025,3.589 -0.2025,4.1958 0,0.6067 0.3595,2.7815 0.1519,4.0419 -0.2026,1.2605 0.2025,2.491 0.0911,3.3541 -0.1367,1.0767 0,1.6535 0.0506,2.4782 0.0507,0.8246 -0.4405,2.0936 -0.2379,2.79 0.2076,0.6965 -0.0304,1.0896 -0.0304,2.0638 0,0.9784 2.4354,0.9741 2.4354,0.0555 0,-0.9229 -0.0354,-1.7091 -0.0911,-2.6192 -0.0506,-0.9143 -0.0912,-2.0252 -0.0912,-3.0122 0,-0.8973 0.2988,-2.2389 0.1418,-3.2815 -0.1519,-1.0425 -0.2177,-2.555 -0.243,-3.1618 -0.0304,-0.7605 0.0405,-2.3798 -0.0962,-3.0763 -0.1722,-0.8887 0.081,-2.4312 0.2886,-2.9952 0.2076,-0.5682 -0.081,-0.957 -0.0304,-2.1876 0.0304,-0.7306 0.1317,-1.8928 0.1317,-2.9823 0,0 0,0 0,0 z m -0.5621,-6.9005 c -0.9063,0 -2.1164,0.1519 -2.2734,1.4886 -0.1519,1.3418 0.8304,2.3848 2.1924,2.3848 1.3671,0 0.9722,-0.7342 4.162,-0.7342 1.1798,0 1.2456,-2.4455 0.0507,-2.4455 -2.8405,0 -2.4507,-0.6937 -4.1317,-0.6937 0,0 0,0 0,0 z m 25.2266,3.8734 c 1.6456,0 2.3089,-0.6228 2.3494,-1.924 0.0405,-1.3519 -0.881,-1.9747 -2.3494,-1.9747 -1.4633,0 -1.3975,0.7341 -3.8532,0.7139 -1.3164,-0.0152 -1.0886,2.4456 -0.0151,2.4456 2.6025,0 2.2227,0.7392 3.8683,0.7392 0,0 0,0 0,0 z m -21.0198,-3.1848 c -0.7122,0 -0.7276,2.4608 0.1053,2.4608 0.8824,0 2.8052,-0.4406 3.3099,-0.3899 0.5046,0.0506 1.898,0.5164 2.3407,0.5164 0.4397,0 2.5699,-0.719 3.4864,-0.5164 0.9103,0.2076 1.1704,0.0962 1.802,0.0962 0.6286,0 1.6287,-0.1469 2.2262,-0.2025 0.6007,-0.0507 1.1364,0.5974 1.9197,0.4253 0.7834,-0.1772 1.2076,0.0709 1.7463,0.0709 0.867,0 0.8174,-2.4406 0.009,-2.4406 -0.7803,0 -1.3128,-0.162 -1.9754,-0.1113 -0.6595,0.0506 -1.2292,0.3088 -1.8578,0.0506 -0.6285,-0.2532 -1.8453,0.0202 -2.6008,0.1772 -0.7555,0.157 -1.5915,0.0861 -2.186,-0.0203 -1.1951,-0.1974 -4.0592,0.2583 -4.4679,0.0507 -0.4118,-0.2025 -1.7184,-0.005 -2.1859,-0.005 -0.4614,0 -0.7122,-0.162 -1.672,-0.162 0,0 0,0 0,0 z" /></g></g></g></svg>