<?xml version="1.0" encoding="UTF-8" standalone="no"?>
<!DOCTYPE svg PUBLIC "-//W3C//DTD SVG 1.1//EN"
"http://www.w3.org/Graphics/SVG/1.1/DTD/svg11.dtd">


<!-- Page 1 -->
<svg x="0" y="0" width="1386" height="589" viewBox="0 0 1386 589" version="1.1" xmlns="http://www.w3.org/2000/svg" xmlns:xlink="http://www.w3.org/1999/xlink"
style="display: block;margin-left: auto;margin-right: auto;">
<defs>

<style type="text/css"><![CDATA[

.g0_1{
fill: #FFFFFF;
}
.g1_1{
fill: #F4F4F4;
}
.g2_1{
fill: none;
stroke: #000000;
stroke-width: 1.6805556;
stroke-linecap: butt;
stroke-linejoin: miter;
stroke-miterlimit: 4;
}
.g3_1{
fill: none;
stroke: #000000;
stroke-width: 1.5277778;
stroke-linecap: butt;
stroke-linejoin: miter;
stroke-miterlimit: 4;
}
.g4_1{
fill: none;
stroke: #000000;
stroke-width: 3.0555556;
stroke-linecap: butt;
stroke-linejoin: miter;
stroke-miterlimit: 4;
}
.g5_1{
}
.g6_1{
fill: none;
stroke: #000000;
stroke-width: 1.5277778;
stroke-linecap: butt;
stroke-linejoin: miter;
stroke-miterlimit: 4;
stroke-dasharray: 2,2;
}

.s1_1{
font-size: 15.28px;
font-family: HiraKakuProN-W3_n;
fill: #000000;
}
.s2_1{
font-size: 15.28px;
font-family: HiraKakuProN-W3_n;
fill: #EE220C;
}
.s3_1{
font-size: 15.28px;
font-family: HiraKakuProN-W6_i;
fill: #000000;
}
.s4_1{
font-size: 12.22px;
font-family: HiraKakuProN-W3_n;
fill: #000000;
}
.s5_1{
font-size: 10.69px;
font-family: HiraKakuProN-W3_n;
fill: #000000;
}
.s6_1{
font-size: 15.28px;
font-family: Zapfino_a;
fill: #000000;
}
.s7_1{
font-size: 15.28px;
font-family: HiraKakuProN-W3_n;
fill: #017100;
}
.s8_1{
font-size: 25.97px;
font-family: Apple-Chancery_b;
fill: #EE220C;
}
.s9_1{
font-size: 15.28px;
font-family: HiraKakuProN-W3_n;
fill: #99195E;
}
.s10_1{
font-size: 32.08px;
font-family: MLingWaiMedium-SC_s;
fill: #017100;
}

]]></style>

</defs>
<path d="M0,0
L0,589
L1386,589
L1386,0 Z " 
fill="#FFFFFF" stroke="none" />
<path d="M-88.5,896.8H1475.9V-276.4H-88.5V896.8Z" class="g0_1" />
<path d="M.2,-.3H1387.1V588.6H.2Z" class="g1_1" />
<text x="513" y="461" class="s1_1">sign</text>
<path d="M125.6,69.6H350.4c11.7,0,17.6,0,23.8,1.9c6.9,2.5,12.3,7.9,14.8,14.8c2,6.3,2,12.2,2,24V403.2c0,11.6,0,17.5,-2,23.8c-2.5,6.9,-7.9,12.3,-14.8,14.8c-6.2,1.9,-12.1,1.9,-23.9,1.9H125.6c-11.6,0,-17.5,0,-23.8,-1.9C95,439.3,89.6,433.9,87.1,427c-2,-6.3,-2,-12.2,-2,-24V110.1c0,-11.6,0,-17.5,2,-23.8C89.6,79.4,95,74,101.8,71.5c6.3,-1.9,12.2,-1.9,24,-1.9Z" class="g0_1" />
<path d="M125.6,69.6H350.4c11.7,0,17.6,0,23.8,1.9c6.9,2.5,12.3,7.9,14.8,14.8c2,6.3,2,12.2,2,24V403.2c0,11.6,0,17.5,-2,23.8c-2.5,6.9,-7.9,12.3,-14.8,14.8c-6.2,1.9,-12.1,1.9,-23.9,1.9H125.6c-11.6,0,-17.5,0,-23.8,-1.9C95,439.3,89.6,433.9,87.1,427c-2,-6.3,-2,-12.2,-2,-24V110.1c0,-11.6,0,-17.5,2,-23.8C89.6,79.4,95,74,101.8,71.5c6.3,-1.9,12.2,-1.9,24,-1.9Z" class="g2_1" />
<path d="M86.5,121.4H389.6" class="g3_1" />
<text x="142" y="102" class="s1_1">txid;!3886e48cca398:88</text>
<path d="M272.1,245.9H381.4v72.4H272.1Z" class="g0_1" />
<path d="M272.1,245.9H381.4v72.4H272.1Z" class="g3_1" />
<text x="308" y="276" class="s2_1">Alice!</text>
<text x="279" y="299" class="s3_1">1/1:6!</text>
<text x="332" y="299" class="s4_1">bitcoin</text>
<path d="M197.2,182.8c0,-10.8,8.7,-19.5,19.5,-19.5c7.4,0,13.8,4.1,17.1,10.1h5.8v3h43.2l5,6.4l-5,3.9l-3,2.5l-2.6,-2.5h-2.1l-3.6,2.5L268,186.8h-2.3l-3.6,2.4l-3.5,-2.5h-2.4l-3.6,2.5l-3.5,-2.5H247l-.5,.1l-4.6,2.7h-2.3v2.6h-5.8c-3.3,6,-9.7,10.1,-17.1,10.1c-10.8,0,-19.5,-8.7,-19.5,-19.4Zm5,0c0,2.4,1.9,4.4,4.4,4.4c2.5,0,4.4,-2,4.4,-4.4c0,-2.5,-1.9,-4.5,-4.4,-4.5c-2.5,0,-4.4,2,-4.4,4.5Z" class="g0_1" />
<path d="M197.2,182.8c0,-10.8,8.7,-19.5,19.5,-19.5c7.4,0,13.8,4.1,17.1,10.1h5.8v3h43.2l5,6.4l-5,3.9l-3,2.5l-2.6,-2.5h-2.1l-3.6,2.5L268,186.8h-2.3l-3.6,2.4l-3.5,-2.5h-2.4l-3.6,2.5l-3.5,-2.5H247l-.5,.1l-4.6,2.7h-2.3v2.6h-5.8c-3.3,6,-9.7,10.1,-17.1,10.1c-10.8,0,-19.5,-8.7,-19.5,-19.4Zm5,0c0,2.4,1.9,4.4,4.4,4.4c2.5,0,4.4,-2,4.4,-4.4c0,-2.5,-1.9,-4.5,-4.4,-4.5c-2.5,0,-4.4,2,-4.4,4.5Z" class="g3_1" />
<text x="177" y="152" class="s2_1">Alice(s!public!key</text>
<text x="300" y="232" class="s1_1">Output</text>
<path d="M211.9,282.1h39.2" class="g4_1" />
<path d="M249.5,289.4l14.7,-7.3l-14.7,-7.4Z" class="g5_1" />
<path d="M93.9,245.9H203.2v72.4H93.9Z" class="g0_1" />
<path d="M93.9,245.9H203.2v72.4H93.9Z" class="g3_1" />
<text x="129" y="276" class="s1_1">Zack!</text>
<text x="113" y="299" class="s3_1">1/2!</text>
<text x="144" y="299" class="s4_1">bitcoin</text>
<text x="129" y="232" class="s1_1">Input</text>
<text x="113" y="334" class="s5_1">Previous!txid;!!</text>
<text x="94" y="351" class="s5_1">d64d21aa:cb8a859</text>
<text x="180" y="394" class="s1_1">Zack’s!signature</text>
<text x="220" y="423" dx="0,-1.6,0,0" class="s6_1">Zack</text>
<text x="174" y="482" class="s2_1">Alice(s!private!key</text>
<path d="M206.1,503.5c0,-.9,.8,-1.7,1.8,-1.7h5v-5.5c0,-1.3,1,-2.4,2.3,-2.4h23.6c1.3,0,2.4,1.1,2.4,2.4v5.5h4.6V506h5.8v2.6H298v.1l5.3,6.8l-5.3,4.3l-3.2,2.6L292,519.8h-2.3l-3.8,2.7l-3.8,-2.7h-2.5l-3.9,2.7L272,519.8h-2.5l-3.9,2.7l-3.8,-2.7h-2.7l-5,3h-2.5v2.6h-5.8v3.9h-4.6v5.5c0,1.3,-1.1,2.4,-2.4,2.4H215.2c-1.3,0,-2.3,-1.1,-2.3,-2.4v-5.5h-5c-1,0,-1.8,-.8,-1.8,-1.8v-24Zm3.8,7.6V520h3v-8.9h-3Z" class="g0_1" />
<path d="M206.1,503.5c0,-.9,.8,-1.7,1.8,-1.7h5v-5.5c0,-1.3,1,-2.4,2.3,-2.4h23.6c1.3,0,2.4,1.1,2.4,2.4v5.5h4.6V506h5.8v2.6H298v.1l5.3,6.8l-5.3,4.3l-3.2,2.6L292,519.8h-2.3l-3.8,2.7l-3.8,-2.7h-2.5l-3.9,2.7L272,519.8h-2.5l-3.9,2.7l-3.8,-2.7h-2.7l-5,3h-2.5v2.6h-5.8v3.9h-4.6v5.5c0,1.3,-1.1,2.4,-2.4,2.4H215.2c-1.3,0,-2.3,-1.1,-2.3,-2.4v-5.5h-5c-1,0,-1.8,-.8,-1.8,-1.8v-24Zm3.8,7.6V520h3v-8.9h-3Z" class="g3_1" />
<path d="M389.1,49.4c-12.8,0,-23.3,10.5,-23.3,23.3V91.9c-4.6,5.4,-7.4,12.4,-7.4,20c0,17,13.7,30.7,30.7,30.7c16.9,0,30.7,-13.7,30.7,-30.7c0,-7.6,-2.8,-14.6,-7.5,-20V72.7c0,-12.8,-10.4,-23.3,-23.2,-23.3Zm0,11.7c6.4,0,11.6,5.2,11.6,11.6V83.5C397.1,82,393.2,81.2,389.1,81.2c-4.1,0,-8.1,.8,-11.6,2.3V72.7c0,-6.4,5.2,-11.6,11.6,-11.6Zm0,34.5c9,0,16.3,7.3,16.3,16.3c0,9,-7.3,16.3,-16.3,16.3c-9,0,-16.3,-7.3,-16.3,-16.3c0,-9,7.3,-16.3,16.3,-16.3Zm0,2.7c-3.5,0,-7,1.4,-9.6,4c-5.3,5.3,-5.3,13.9,0,19.2c5.3,5.3,13.9,5.3,19.2,0c5.3,-5.3,5.3,-13.9,0,-19.2c-2.7,-2.6,-6.1,-4,-9.6,-4Z" class="g0_1" />
<path d="M389.1,49.4c-12.8,0,-23.3,10.5,-23.3,23.3V91.9c-4.6,5.4,-7.4,12.4,-7.4,20c0,17,13.7,30.7,30.7,30.7c16.9,0,30.7,-13.7,30.7,-30.7c0,-7.6,-2.8,-14.6,-7.5,-20V72.7c0,-12.8,-10.4,-23.3,-23.2,-23.3Zm0,11.7c6.4,0,11.6,5.2,11.6,11.6V83.5C397.1,82,393.2,81.2,389.1,81.2c-4.1,0,-8.1,.8,-11.6,2.3V72.7c0,-6.4,5.2,-11.6,11.6,-11.6Zm0,34.5c9,0,16.3,7.3,16.3,16.3c0,9,-7.3,16.3,-16.3,16.3c-9,0,-16.3,-7.3,-16.3,-16.3c0,-9,7.3,-16.3,16.3,-16.3Zm0,2.7c-3.5,0,-7,1.4,-9.6,4c-5.3,5.3,-5.3,13.9,0,19.2c5.3,5.3,13.9,5.3,19.2,0c5.3,-5.3,5.3,-13.9,0,-19.2c-2.7,-2.6,-6.1,-4,-9.6,-4Z" class="g4_1" />
<path d="M360.9,141.1l-.6,.6C342,159,316.8,171,284.7,177.5" class="g6_1" />
<path d="M363.6,144.9l3.1,-9.8l-9.7,3.4Z" class="g5_1" />
<text x="333" y="181" class="s1_1">lock</text>
<path d="M292.9,507.9C410.4,474.1,446.9,355.2,402.5,151l-.2,-.7" class="g6_1" />
<path d="M406.9,150l-6.4,-7.9L398,152Z" class="g5_1" />
<text x="415" y="181" class="s1_1">unlock</text>
<path d="M580.9,68.1H805.7c11.6,0,17.5,0,23.8,2c6.9,2.5,12.3,7.9,14.8,14.7c2,6.3,2,12.2,2,24V401.7c0,11.7,0,17.6,-2,23.8c-2.5,6.9,-7.9,12.3,-14.8,14.8c-6.3,2,-12.2,2,-24,2H580.9c-11.6,0,-17.5,0,-23.8,-2c-6.8,-2.5,-12.2,-7.9,-14.7,-14.8c-2,-6.2,-2,-12.1,-2,-23.9v-293c0,-11.6,0,-17.5,2,-23.8c2.5,-6.8,7.9,-12.2,14.7,-14.7c6.3,-2,12.2,-2,24,-2Z" class="g0_1" />
<path d="M580.9,68.1H805.7c11.6,0,17.5,0,23.8,2c6.9,2.5,12.3,7.9,14.8,14.7c2,6.3,2,12.2,2,24V401.7c0,11.7,0,17.6,-2,23.8c-2.5,6.9,-7.9,12.3,-14.8,14.8c-6.3,2,-12.2,2,-24,2H580.9c-11.6,0,-17.5,0,-23.8,-2c-6.8,-2.5,-12.2,-7.9,-14.7,-14.8c-2,-6.2,-2,-12.1,-2,-23.9v-293c0,-11.6,0,-17.5,2,-23.8c2.5,-6.8,7.9,-12.2,14.7,-14.7c6.3,-2,12.2,-2,24,-2Z" class="g2_1" />
<path d="M541.8,119.9h303" class="g3_1" />
<text x="598" y="100" class="s1_1">txid;!cbfee87bb:2::181</text>
<path d="M727.4,244.4H836.7v72.4H727.4Z" class="g0_1" />
<path d="M727.4,244.4H836.7v72.4H727.4Z" class="g3_1" />
<text x="766" y="274" class="s7_1">Bob!</text>
<text x="734" y="297" class="s3_1">1/1:1!</text>
<text x="787" y="297" class="s4_1">bitcoin</text>
<path d="M652.5,181.3c0,-10.8,8.7,-19.5,19.4,-19.5c7.4,0,13.8,4.1,17.2,10.2h5.8v2.9h43.2l4.9,6.4l-4.9,4l-3,2.4l-2.6,-2.4h-2.1l-3.6,2.5l-3.5,-2.5h-2.4l-3.6,2.5l-3.5,-2.5h-2.3l-3.6,2.5l-3.5,-2.5h-2.1l-.5,.1l-4.6,2.7h-2.3v2.5h-5.8c-3.4,6.1,-9.8,10.2,-17.2,10.2c-10.7,0,-19.4,-8.7,-19.4,-19.5Zm4.9,0c0,2.5,2,4.4,4.5,4.4c2.4,0,4.4,-1.9,4.4,-4.4c0,-2.5,-2,-4.4,-4.4,-4.4c-2.5,0,-4.5,1.9,-4.5,4.4Z" class="g0_1" />
<path d="M652.5,181.3c0,-10.8,8.7,-19.5,19.4,-19.5c7.4,0,13.8,4.1,17.2,10.2h5.8v2.9h43.2l4.9,6.4l-4.9,4l-3,2.4l-2.6,-2.4h-2.1l-3.6,2.5l-3.5,-2.5h-2.4l-3.6,2.5l-3.5,-2.5h-2.3l-3.6,2.5l-3.5,-2.5h-2.1l-.5,.1l-4.6,2.7h-2.3v2.5h-5.8c-3.4,6.1,-9.8,10.2,-17.2,10.2c-10.7,0,-19.4,-8.7,-19.4,-19.5Zm4.9,0c0,2.5,2,4.4,4.5,4.4c2.4,0,4.4,-1.9,4.4,-4.4c0,-2.5,-2,-4.4,-4.4,-4.4c-2.5,0,-4.5,1.9,-4.5,4.4Z" class="g3_1" />
<text x="637" y="151" class="s7_1">Bob(s!public!key</text>
<text x="756" y="230" class="s1_1">Output</text>
<path d="M667.2,280.6h39.1" class="g4_1" />
<path d="M704.8,288l14.7,-7.4l-14.7,-7.3Z" class="g5_1" />
<path d="M549.2,244.4H658.4v72.4H549.2Z" class="g0_1" />
<path d="M549.2,244.4H658.4v72.4H549.2Z" class="g3_1" />
<text x="585" y="274" class="s2_1">Alice!</text>
<text x="557" y="297" class="s3_1">1/1:6!</text>
<text x="610" y="297" class="s4_1">bitcoin</text>
<text x="585" y="230" class="s1_1">Input</text>
<text x="568" y="333" class="s5_1">Previous!txid;!!</text>
<text x="548" y="349" class="s5_1">3886e48cca398:88</text>
<text x="635" y="392" class="s1_1">Alice’s!signature</text>
<text x="632" y="481" class="s7_1">Bob(s!private!key</text>
<path d="M661.4,502.1c0,-1,.8,-1.8,1.7,-1.8h5v-5.5c0,-1.3,1.1,-2.4,2.4,-2.4h23.6c1.3,0,2.4,1.1,2.4,2.4v5.5H701v4.2h5.9v2.7h46.4l5.3,6.9l-5.3,4.2l-3.2,2.6l-2.8,-2.6H745l-3.9,2.7l-3.7,-2.6h-2.5L731,521l-3.8,-2.7h-2.5l-3.8,2.7l-3.8,-2.7h-2.7l-5,3h-2.5v2.6H701v3.9h-4.5v5.5c0,1.3,-1.1,2.4,-2.4,2.4H670.5c-1.3,0,-2.4,-1.1,-2.4,-2.4v-5.5h-5c-.9,0,-1.7,-.8,-1.7,-1.7v-24Zm3.8,7.5v8.9h2.9v-8.9h-2.9Z" class="g0_1" />
<path d="M661.4,502.1c0,-1,.8,-1.8,1.7,-1.8h5v-5.5c0,-1.3,1.1,-2.4,2.4,-2.4h23.6c1.3,0,2.4,1.1,2.4,2.4v5.5H701v4.2h5.9v2.7h46.4l5.3,6.9l-5.3,4.2l-3.2,2.6l-2.8,-2.6H745l-3.9,2.7l-3.7,-2.6h-2.5L731,521l-3.8,-2.7h-2.5l-3.8,2.7l-3.8,-2.7h-2.7l-5,3h-2.5v2.6H701v3.9h-4.5v5.5c0,1.3,-1.1,2.4,-2.4,2.4H670.5c-1.3,0,-2.4,-1.1,-2.4,-2.4v-5.5h-5c-.9,0,-1.7,-.8,-1.7,-1.7v-24Zm3.8,7.5v8.9h2.9v-8.9h-2.9Z" class="g3_1" />
<path d="M844.4,48c-12.9,0,-23.3,10.4,-23.3,23.2V90.4c-4.6,5.4,-7.4,12.4,-7.4,20.1c0,16.9,13.7,30.7,30.7,30.7c16.9,0,30.7,-13.8,30.7,-30.7c0,-7.7,-2.9,-14.7,-7.5,-20.1V71.2C867.6,58.4,857.2,48,844.4,48Zm0,11.6c6.3,0,11.6,5.2,11.6,11.6V82.1c-3.6,-1.5,-7.5,-2.3,-11.6,-2.3c-4.2,0,-8.1,.8,-11.7,2.3V71.2c0,-6.4,5.3,-11.6,11.7,-11.6Zm0,34.6c9,0,16.2,7.3,16.2,16.3c0,9,-7.2,16.3,-16.2,16.3c-9,0,-16.3,-7.3,-16.3,-16.3c0,-9,7.3,-16.3,16.3,-16.3Zm0,2.7c-3.5,0,-7,1.3,-9.6,4c-5.4,5.3,-5.4,13.9,0,19.2c5.3,5.3,13.8,5.3,19.2,0c5.3,-5.3,5.3,-13.9,0,-19.2c-2.7,-2.7,-6.2,-4,-9.6,-4Z" class="g0_1" />
<path d="M844.4,48c-12.9,0,-23.3,10.4,-23.3,23.2V90.4c-4.6,5.4,-7.4,12.4,-7.4,20.1c0,16.9,13.7,30.7,30.7,30.7c16.9,0,30.7,-13.8,30.7,-30.7c0,-7.7,-2.9,-14.7,-7.5,-20.1V71.2C867.6,58.4,857.2,48,844.4,48Zm0,11.6c6.3,0,11.6,5.2,11.6,11.6V82.1c-3.6,-1.5,-7.5,-2.3,-11.6,-2.3c-4.2,0,-8.1,.8,-11.7,2.3V71.2c0,-6.4,5.3,-11.6,11.7,-11.6Zm0,34.6c9,0,16.2,7.3,16.2,16.3c0,9,-7.2,16.3,-16.2,16.3c-9,0,-16.3,-7.3,-16.3,-16.3c0,-9,7.3,-16.3,16.3,-16.3Zm0,2.7c-3.5,0,-7,1.3,-9.6,4c-5.4,5.3,-5.4,13.9,0,19.2c5.3,5.3,13.8,5.3,19.2,0c5.3,-5.3,5.3,-13.9,0,-19.2c-2.7,-2.7,-6.2,-4,-9.6,-4Z" class="g4_1" />
<path d="M816.1,139.7l-.5,.5C797.3,157.6,772.1,169.5,740,176" class="g6_1" />
<path d="M818.9,143.4l3.1,-9.8l-9.7,3.4Z" class="g5_1" />
<text x="788" y="180" class="s1_1">lock</text>
<path d="M748.1,506.4C865.7,472.6,902.2,353.7,857.7,149.6l-.1,-.8" class="g6_1" />
<path d="M862.2,148.6l-6.4,-8l-2.5,10Z" class="g5_1" />
<text x="870" y="180" class="s1_1">unlock</text>
<text x="672" y="426" class="s8_1">Alice</text>
<path d="M300.6,518.7c68.5,-3.5,186.9,-32.8,355.3,-87.8l.7,-.2" class="g6_1" />
<path d="M657.3,435.3l7.3,-7.2l-10.1,-1.5Z" class="g5_1" />
<path d="M1020.9,71.2h224.8c11.6,0,17.5,0,23.8,1.9c6.9,2.5,12.3,7.9,14.8,14.8c2,6.3,2,12.2,2,24V404.8c0,11.6,0,17.5,-2,23.8c-2.5,6.9,-7.9,12.3,-14.8,14.8c-6.3,1.9,-12.2,1.9,-24,1.9H1020.9c-11.6,0,-17.5,0,-23.8,-1.9c-6.8,-2.5,-12.2,-7.9,-14.7,-14.8c-2,-6.3,-2,-12.2,-2,-24V111.7c0,-11.6,0,-17.5,2,-23.8c2.5,-6.9,7.9,-12.3,14.7,-14.8c6.3,-1.9,12.2,-1.9,24,-1.9Z" class="g0_1" />
<path d="M1020.9,71.2h224.8c11.6,0,17.5,0,23.8,1.9c6.9,2.5,12.3,7.9,14.8,14.8c2,6.3,2,12.2,2,24V404.8c0,11.6,0,17.5,-2,23.8c-2.5,6.9,-7.9,12.3,-14.8,14.8c-6.3,1.9,-12.2,1.9,-24,1.9H1020.9c-11.6,0,-17.5,0,-23.8,-1.9c-6.8,-2.5,-12.2,-7.9,-14.7,-14.8c-2,-6.3,-2,-12.2,-2,-24V111.7c0,-11.6,0,-17.5,2,-23.8c2.5,-6.9,7.9,-12.3,14.7,-14.8c6.3,-1.9,12.2,-1.9,24,-1.9Z" class="g2_1" />
<path d="M755.4,517.6c67.3,-3.1,183.5,-31.8,348.7,-86.3l.7,-.2" class="g6_1" />
<path d="M1105.6,435.7l7.2,-7.2L1102.7,427Z" class="g5_1" />
<path d="M981.8,123h303" class="g3_1" />
<text x="1037" y="103" class="s1_1">txid;!9d2:fe48b5c632d4</text>
<path d="M1167.4,247.5h109.3v72.4H1167.4Z" class="g0_1" />
<path d="M1167.4,247.5h109.3v72.4H1167.4Z" class="g3_1" />
<text x="1182" y="278" class="s9_1">Cassandra!</text>
<text x="1174" y="300" class="s3_1">1/196!</text>
<text x="1227" y="300" class="s4_1">bitcoin</text>
<path d="M1092.5,184.4c0,-10.8,8.7,-19.5,19.4,-19.5c7.4,0,13.8,4.1,17.2,10.1h5.8v2.9h43.2l4.9,6.5l-4.9,3.9l-3,2.5l-2.6,-2.5h-2.1l-3.6,2.5l-3.5,-2.5h-2.4l-3.6,2.5l-3.5,-2.5h-2.3l-3.6,2.5l-3.5,-2.5h-2.1l-.5,.1l-4.6,2.7h-2.3v2.6h-5.8c-3.4,6,-9.8,10.1,-17.2,10.1c-10.7,0,-19.4,-8.7,-19.4,-19.4Zm4.9,0c0,2.4,2,4.4,4.5,4.4c2.4,0,4.4,-2,4.4,-4.4c0,-2.5,-2,-4.5,-4.4,-4.5c-2.5,0,-4.5,2,-4.5,4.5Z" class="g0_1" />
<path d="M1092.5,184.4c0,-10.8,8.7,-19.5,19.4,-19.5c7.4,0,13.8,4.1,17.2,10.1h5.8v2.9h43.2l4.9,6.5l-4.9,3.9l-3,2.5l-2.6,-2.5h-2.1l-3.6,2.5l-3.5,-2.5h-2.4l-3.6,2.5l-3.5,-2.5h-2.3l-3.6,2.5l-3.5,-2.5h-2.1l-.5,.1l-4.6,2.7h-2.3v2.6h-5.8c-3.4,6,-9.8,10.1,-17.2,10.1c-10.7,0,-19.4,-8.7,-19.4,-19.4Zm4.9,0c0,2.4,2,4.4,4.5,4.4c2.4,0,4.4,-2,4.4,-4.4c0,-2.5,-2,-4.5,-4.4,-4.5c-2.5,0,-4.5,2,-4.5,4.5Z" class="g3_1" />
<text x="1051" y="154" class="s9_1">Cassandra(s!public!key</text>
<text x="1196" y="233" class="s1_1">Output</text>
<path d="M1107.2,283.7h39.1" class="g4_1" />
<path d="M1144.8,291l14.7,-7.3l-14.7,-7.4Z" class="g5_1" />
<path d="M989.2,247.5h109.2v72.4H989.2Z" class="g0_1" />
<path d="M989.2,247.5h109.2v72.4H989.2Z" class="g3_1" />
<text x="1028" y="278" class="s7_1">Bob!</text>
<text x="997" y="300" class="s3_1">1/1:1!</text>
<text x="1050" y="300" class="s4_1">bitcoin</text>
<text x="1025" y="233" class="s1_1">Input</text>
<text x="1008" y="336" class="s5_1">Previous!txid;!!</text>
<text x="990" y="352" class="s5_1">cbfee87bb:2::181</text>
<text x="1078" y="395" class="s1_1">Bob’s!signature</text>
<text x="1048" y="484" class="s9_1">Cassandra(s!private!key</text>
<path d="M1099.9,503.5c0,-.9,.8,-1.7,1.7,-1.7h5v-5.5c0,-1.3,1.1,-2.4,2.4,-2.4h23.6c1.3,0,2.3,1.1,2.3,2.4v5.5h4.6V506h5.9v2.6h46.3v.1l5.3,6.8l-5.3,4.3l-3.2,2.6l-2.7,-2.6h-2.3l-3.9,2.7l-3.8,-2.7h-2.5l-3.8,2.7l-3.8,-2.7h-2.5l-3.9,2.7l-3.7,-2.7h-2.7l-5.1,3h-2.4v2.6h-5.9v3.9h-4.6v5.5c0,1.3,-1,2.4,-2.3,2.4H1109c-1.3,0,-2.4,-1.1,-2.4,-2.4v-5.5h-5c-.9,0,-1.7,-.8,-1.7,-1.8v-24Zm3.7,7.6V520h3v-8.9h-3Z" class="g0_1" />
<path d="M1099.9,503.5c0,-.9,.8,-1.7,1.7,-1.7h5v-5.5c0,-1.3,1.1,-2.4,2.4,-2.4h23.6c1.3,0,2.3,1.1,2.3,2.4v5.5h4.6V506h5.9v2.6h46.3v.1l5.3,6.8l-5.3,4.3l-3.2,2.6l-2.7,-2.6h-2.3l-3.9,2.7l-3.8,-2.7h-2.5l-3.8,2.7l-3.8,-2.7h-2.5l-3.9,2.7l-3.7,-2.7h-2.7l-5.1,3h-2.4v2.6h-5.9v3.9h-4.6v5.5c0,1.3,-1,2.4,-2.3,2.4H1109c-1.3,0,-2.4,-1.1,-2.4,-2.4v-5.5h-5c-.9,0,-1.7,-.8,-1.7,-1.8v-24Zm3.7,7.6V520h3v-8.9h-3Z" class="g3_1" />
<path d="M1284.4,51c-12.9,0,-23.3,10.4,-23.3,23.3V93.5c-4.6,5.3,-7.4,12.4,-7.4,20c0,17,13.7,30.7,30.7,30.7c16.9,0,30.7,-13.7,30.7,-30.7c0,-7.6,-2.9,-14.7,-7.5,-20V74.3C1307.6,61.4,1297.2,51,1284.4,51Zm0,11.7c6.3,0,11.6,5.2,11.6,11.6V85.1c-3.6,-1.5,-7.5,-2.3,-11.6,-2.3c-4.2,0,-8.1,.8,-11.7,2.3V74.3c0,-6.4,5.3,-11.6,11.7,-11.6Zm0,34.5c9,0,16.2,7.3,16.2,16.3c0,9,-7.2,16.3,-16.2,16.3c-9,0,-16.3,-7.3,-16.3,-16.3c0,-9,7.3,-16.3,16.3,-16.3Zm0,2.7c-3.5,0,-7,1.4,-9.6,4c-5.4,5.3,-5.4,13.9,0,19.2c5.3,5.3,13.8,5.3,19.2,0c5.3,-5.3,5.3,-13.9,0,-19.2c-2.7,-2.6,-6.2,-4,-9.6,-4Z" class="g0_1" />
<path d="M1284.4,51c-12.9,0,-23.3,10.4,-23.3,23.3V93.5c-4.6,5.3,-7.4,12.4,-7.4,20c0,17,13.7,30.7,30.7,30.7c16.9,0,30.7,-13.7,30.7,-30.7c0,-7.6,-2.9,-14.7,-7.5,-20V74.3C1307.6,61.4,1297.2,51,1284.4,51Zm0,11.7c6.3,0,11.6,5.2,11.6,11.6V85.1c-3.6,-1.5,-7.5,-2.3,-11.6,-2.3c-4.2,0,-8.1,.8,-11.7,2.3V74.3c0,-6.4,5.3,-11.6,11.7,-11.6Zm0,34.5c9,0,16.2,7.3,16.2,16.3c0,9,-7.2,16.3,-16.2,16.3c-9,0,-16.3,-7.3,-16.3,-16.3c0,-9,7.3,-16.3,16.3,-16.3Zm0,2.7c-3.5,0,-7,1.4,-9.6,4c-5.4,5.3,-5.4,13.9,0,19.2c5.3,5.3,13.8,5.3,19.2,0c5.3,-5.3,5.3,-13.9,0,-19.2c-2.7,-2.6,-6.2,-4,-9.6,-4Z" class="g4_1" />
<path d="M1256.1,142.7l-.5,.6c-18.3,17.3,-43.5,29.3,-75.6,35.8" class="g6_1" />
<path d="M1258.9,146.5l3.1,-9.8l-9.7,3.4Z" class="g5_1" />
<text x="1228" y="183" class="s1_1">lock</text>
<path d="M1187.4,507.9c117,-33.4,153.7,-151.8,110.2,-355.2l-.2,-.8" class="g6_1" />
<path d="M1302,151.7l-6.4,-8l-2.5,10Z" class="g5_1" />
<text x="1310" y="183" class="s1_1">unlock</text>
<text x="1119" y="430" class="s10_1">Bob</text>
<path d="M-1.9,510.9L204.9,434.4l.7,-.3" class="g6_1" />
<path d="M206.5,438.7l7,-7.5l-10.2,-1.1Z" class="g5_1" />
<text x="964" y="461" class="s1_1">sign</text>
<text x="61" y="461" class="s1_1">sign</text>


<!-- Any embedded fonts defined here -->
<style type="text/css" ><![CDATA[

@font-face {
	font-family: MLingWaiMedium-SC_s;
	src: url("fonts/MLingWaiMedium-SC_s.woff") format("woff");
}

@font-face {
	font-family: HiraKakuProN-W6_i;
	src: url("fonts/HiraKakuProN-W6_i.woff") format("woff");
}

@font-face {
	font-family: Zapfino_a;
	src: url("fonts/Zapfino_a.woff") format("woff");
}

@font-face {
	font-family: Apple-Chancery_b;
	src: url("fonts/Apple-Chancery_b.woff") format("woff");
}

@font-face {
	font-family: HiraKakuProN-W3_n;
	src: url("fonts/HiraKakuProN-W3_n.woff") format("woff");
}

]]></style>

</svg>
