<?xml version="1.0" encoding="UTF-8" standalone="no"?>
<svg
   xmlns:dc="http://purl.org/dc/elements/1.1/"
   xmlns:cc="http://creativecommons.org/ns#"
   xmlns:rdf="http://www.w3.org/1999/02/22-rdf-syntax-ns#"
   xmlns:svg="http://www.w3.org/2000/svg"
   xmlns="http://www.w3.org/2000/svg"
   viewBox="0 0 998.6109 412.61612"
   height="412.61612"
   width="998.6109"
   xml:space="preserve"
   id="svg2"
   version="1.1"><metadata
     id="metadata8"><rdf:RDF><cc:Work
         rdf:about=""><dc:format>image/svg+xml</dc:format><dc:type
           rdf:resource="http://purl.org/dc/dcmitype/StillImage" /></cc:Work></rdf:RDF></metadata><defs
     id="defs6"><clipPath
       id="clipPath14"
       clipPathUnits="userSpaceOnUse"><path
         id="path12"
         d="M 0,0 H 1024 V 768 H 0 Z" /></clipPath><clipPath
       id="clipPath24"
       clipPathUnits="userSpaceOnUse"><path
         id="path22"
         d="M 0,0 H 1024 V 768 H 0 Z" /></clipPath><clipPath
       id="clipPath48"
       clipPathUnits="userSpaceOnUse"><path
         id="path46"
         d="M 129.8584,353.7291 H 277.409 v 33.10109 H 129.8584 Z" /></clipPath><clipPath
       id="clipPath62"
       clipPathUnits="userSpaceOnUse"><path
         id="path60"
         d="M 0,0 H 1024 V 768 H 0 Z" /></clipPath><clipPath
       id="clipPath76"
       clipPathUnits="userSpaceOnUse"><path
         id="path74"
         d="M 129.8584,313.4495 H 277.409 v 33.10109 H 129.8584 Z" /></clipPath><clipPath
       id="clipPath90"
       clipPathUnits="userSpaceOnUse"><path
         id="path88"
         d="M 0,0 H 1024 V 768 H 0 Z" /></clipPath><clipPath
       id="clipPath104"
       clipPathUnits="userSpaceOnUse"><path
         id="path102"
         d="M 129.8584,273.1698 H 277.409 v 33.10109 H 129.8584 Z" /></clipPath><clipPath
       id="clipPath118"
       clipPathUnits="userSpaceOnUse"><path
         id="path116"
         d="M 0,0 H 1024 V 768 H 0 Z" /></clipPath><clipPath
       id="clipPath166"
       clipPathUnits="userSpaceOnUse"><path
         id="path164"
         d="M 374.7554,353.7291 H 522.306 v 33.10109 H 374.7554 Z" /></clipPath><clipPath
       id="clipPath180"
       clipPathUnits="userSpaceOnUse"><path
         id="path178"
         d="M 0,0 H 1024 V 768 H 0 Z" /></clipPath><clipPath
       id="clipPath194"
       clipPathUnits="userSpaceOnUse"><path
         id="path192"
         d="M 374.7554,313.4495 H 522.306 v 33.10109 H 374.7554 Z" /></clipPath><clipPath
       id="clipPath208"
       clipPathUnits="userSpaceOnUse"><path
         id="path206"
         d="M 0,0 H 1024 V 768 H 0 Z" /></clipPath><clipPath
       id="clipPath222"
       clipPathUnits="userSpaceOnUse"><path
         id="path220"
         d="M 374.7554,273.1698 H 522.306 v 33.10109 H 374.7554 Z" /></clipPath><clipPath
       id="clipPath236"
       clipPathUnits="userSpaceOnUse"><path
         id="path234"
         d="M 0,0 H 1024 V 768 H 0 Z" /></clipPath><clipPath
       id="clipPath284"
       clipPathUnits="userSpaceOnUse"><path
         id="path282"
         d="m 632.0695,353.7291 h 147.5506 v 33.10109 H 632.0695 Z" /></clipPath><clipPath
       id="clipPath298"
       clipPathUnits="userSpaceOnUse"><path
         id="path296"
         d="M 0,0 H 1024 V 768 H 0 Z" /></clipPath><clipPath
       id="clipPath312"
       clipPathUnits="userSpaceOnUse"><path
         id="path310"
         d="m 632.0695,313.4495 h 147.5506 v 33.10109 H 632.0695 Z" /></clipPath><clipPath
       id="clipPath326"
       clipPathUnits="userSpaceOnUse"><path
         id="path324"
         d="M 0,0 H 1024 V 768 H 0 Z" /></clipPath><clipPath
       id="clipPath340"
       clipPathUnits="userSpaceOnUse"><path
         id="path338"
         d="m 632.0695,273.1698 h 147.5506 v 33.10109 H 632.0695 Z" /></clipPath><clipPath
       id="clipPath354"
       clipPathUnits="userSpaceOnUse"><path
         id="path352"
         d="M 0,0 H 1024 V 768 H 0 Z" /></clipPath></defs><g
     clip-path="url(#clipPath14)"
     transform="matrix(1.3333333,0,0,-1.3333333,-96.748813,699.74587)"
     id="g10"><g
       id="g16" /><g
       id="g18"><g
         clip-path="url(#clipPath24)"
         id="g20"><path
           id="path26"
           style="fill:#ffffff;fill-opacity:1;fill-rule:nonzero;stroke:none"
           d="M 0,0 H 1024 V 768 H 0 Z" /><path
           id="path28"
           style="fill:#f4f4f4;fill-opacity:1;fill-rule:nonzero;stroke:none"
           d="m 58.1198,566.285 h 810.767 V 184.4254 H 58.1198 Z" /><path
           id="path30"
           style="fill:#ffffff;fill-opacity:1;fill-rule:nonzero;stroke:none"
           d="M 118.6914,492.2298 H 288.5585 V 250.1267 H 118.6914 Z" /><g
           transform="matrix(1,0,0,-1,118.6914,492.2298)"
           id="g32"><path
             id="path34"
             style="fill:none;stroke:#000000;stroke-width:1;stroke-linecap:butt;stroke-linejoin:miter;stroke-miterlimit:4;stroke-dasharray:none;stroke-opacity:1"
             d="M 0,0 H 169.8671 V 242.1031 H 0 Z" /></g><path
           id="path36"
           style="fill:#ffffff;fill-opacity:1;fill-rule:nonzero;stroke:none"
           d="m 141.8321,386.8301 h 123.5857 c 3.0745,0 4.6355,0 6.2937,-0.5255 1.8146,-0.6604 3.244,-2.0898 3.9045,-3.9044 0.5255,-1.6582 0.5255,-3.2193 0.5255,-6.3414 v -11.6061 c 0,-3.0744 0,-4.6355 -0.5255,-6.2937 -0.6605,-1.8146 -2.0899,-3.244 -3.9045,-3.9044 -1.6582,-0.5255 -3.2192,-0.5255 -6.3414,-0.5255 h -123.538 c -3.0745,0 -4.6355,0 -6.2937,0.5255 -1.8146,0.6604 -3.244,2.0898 -3.9045,3.9044 -0.5255,1.6582 -0.5255,3.2193 -0.5255,6.3414 v 11.6061 c 0,3.0744 0,4.6355 0.5255,6.2937 0.6605,1.8146 2.0899,3.244 3.9045,3.9044 1.6582,0.5255 3.2192,0.5255 6.3413,0.5255 z" /><g
           transform="matrix(1,0,0,-1,131.1084,386.8301)"
           id="g38"><path
             id="path40"
             style="fill:none;stroke:#000000;stroke-width:1.10000002;stroke-linecap:butt;stroke-linejoin:miter;stroke-miterlimit:4;stroke-dasharray:none;stroke-opacity:1"
             d="M 10.72367,0 H 134.3094 c 3.0745,0 4.6355,0 6.2937,0.5255076 1.8146,0.6604544 3.244,2.0898724 3.9045,3.9044574 0.5255,1.658189 0.5255,3.219254 0.5255,6.341385 v 11.60606 c 0,3.07446 0,4.63552 -0.5255,6.29371 -0.6605,1.81459 -2.0899,3.244 -3.9045,3.90446 -1.6582,0.52551 -3.2192,0.52551 -6.3414,0.52551 H 10.72367 c -3.074451,0 -4.635516,0 -6.293705,-0.52551 C 2.61538,31.91512 1.185962,30.48571 0.5255076,28.67112 0,27.01293 0,25.45187 0,22.32974 V 10.72367 C 0,7.649219 0,6.088154 0.5255076,4.429965 1.185962,2.61538 2.61538,1.185962 4.429965,0.5255076 6.088154,0 7.649219,0 10.77135,0 Z" /></g></g></g><g
       id="g42"><g
         clip-path="url(#clipPath48)"
         id="g44"><g
           transform="translate(153,369)"
           id="g50"><text
             id="text54"
             style="font-variant:normal;font-size:8px;font-family:HiraKakuProN;-inkscape-font-specification:HiraKakuProN-W3;writing-mode:lr-tb;fill:#000000;fill-opacity:1;fill-rule:nonzero;stroke:none"
             transform="scale(1,-1)"><tspan
               id="tspan52"
               y="0"
               x="0 3.1359999 7.4239998 9.3280001 14.496 16.416 19.08 24.336 29.591999 34.848 40.104 43.439999 48.695999 53.863998 59.032001 64.288002 69.543999 74.800003 80.056 85.311996 90.568001 95.856003">txid: 3103f7bd20965841</tspan></text>
</g></g></g><g
       id="g56"><g
         clip-path="url(#clipPath62)"
         id="g58"><path
           id="path64"
           style="fill:#ffffff;fill-opacity:1;fill-rule:nonzero;stroke:none"
           d="m 141.8321,346.5505 h 123.5857 c 3.0745,0 4.6355,0 6.2937,-0.5255 1.8146,-0.6604 3.244,-2.0898 3.9045,-3.9044 0.5255,-1.6582 0.5255,-3.2193 0.5255,-6.3414 v -11.6061 c 0,-3.0744 0,-4.6355 -0.5255,-6.2937 -0.6605,-1.8146 -2.0899,-3.244 -3.9045,-3.9044 -1.6582,-0.5255 -3.2192,-0.5255 -6.3414,-0.5255 h -123.538 c -3.0745,0 -4.6355,0 -6.2937,0.5255 -1.8146,0.6604 -3.244,2.0898 -3.9045,3.9044 -0.5255,1.6582 -0.5255,3.2193 -0.5255,6.3414 v 11.6061 c 0,3.0744 0,4.6355 0.5255,6.2937 0.6605,1.8146 2.0899,3.244 3.9045,3.9044 1.6582,0.5255 3.2192,0.5255 6.3413,0.5255 z" /><g
           transform="matrix(1,0,0,-1,131.1084,346.5505)"
           id="g66"><path
             id="path68"
             style="fill:none;stroke:#000000;stroke-width:1.10000002;stroke-linecap:butt;stroke-linejoin:miter;stroke-miterlimit:4;stroke-dasharray:none;stroke-opacity:1"
             d="M 10.72367,0 H 134.3094 c 3.0745,0 4.6355,0 6.2937,0.5255076 1.8146,0.6604544 3.244,2.0898724 3.9045,3.9044574 0.5255,1.658189 0.5255,3.219254 0.5255,6.341385 v 11.60606 c 0,3.07446 0,4.63552 -0.5255,6.29371 -0.6605,1.81459 -2.0899,3.244 -3.9045,3.90446 -1.6582,0.52551 -3.2192,0.52551 -6.3414,0.52551 H 10.72367 c -3.074451,0 -4.635516,0 -6.293705,-0.52551 C 2.61538,31.91512 1.185962,30.48571 0.5255076,28.67112 0,27.01293 0,25.45187 0,22.32974 V 10.72367 C 0,7.649219 0,6.088154 0.5255076,4.429965 1.185962,2.61538 2.61538,1.185962 4.429965,0.5255076 6.088154,0 7.649219,0 10.77135,0 Z" /></g></g></g><g
       id="g70"><g
         clip-path="url(#clipPath76)"
         id="g72"><g
           transform="translate(153,329)"
           id="g78"><text
             id="text82"
             style="font-variant:normal;font-size:8px;font-family:HiraKakuProN;-inkscape-font-specification:HiraKakuProN-W3;writing-mode:lr-tb;fill:#000000;fill-opacity:1;fill-rule:nonzero;stroke:none"
             transform="scale(1,-1)"><tspan
               id="tspan80"
               y="0"
               x="0 3.1359999 7.4239998 9.3280001 14.496 16.416 19.08 24.336 29.624001 34.248001 39.504002 44.759998 50.015999 55.183998 60.439999 65.695999 70.952003 75.552002 80.720001 85.975998 91.264 96.519997">txid: 64c383b352ab3421</tspan></text>
</g></g></g><g
       id="g84"><g
         clip-path="url(#clipPath90)"
         id="g86"><path
           id="path92"
           style="fill:#ffffff;fill-opacity:1;fill-rule:nonzero;stroke:none"
           d="m 141.8321,306.2709 h 123.5857 c 3.0745,0 4.6355,0 6.2937,-0.5255 1.8146,-0.6604 3.244,-2.0898 3.9045,-3.9044 0.5255,-1.6582 0.5255,-3.2193 0.5255,-6.3414 v -11.6061 c 0,-3.0744 0,-4.6355 -0.5255,-6.2937 -0.6605,-1.8146 -2.0899,-3.244 -3.9045,-3.9044 -1.6582,-0.5256 -3.2192,-0.5256 -6.3414,-0.5256 h -123.538 c -3.0745,0 -4.6355,0 -6.2937,0.5256 -1.8146,0.6604 -3.244,2.0898 -3.9045,3.9044 -0.5255,1.6582 -0.5255,3.2193 -0.5255,6.3414 v 11.6061 c 0,3.0744 0,4.6355 0.5255,6.2937 0.6605,1.8146 2.0899,3.244 3.9045,3.9044 1.6582,0.5255 3.2192,0.5255 6.3413,0.5255 z" /><g
           transform="matrix(1,0,0,-1,131.1084,306.2709)"
           id="g94"><path
             id="path96"
             style="fill:none;stroke:#000000;stroke-width:1.10000002;stroke-linecap:butt;stroke-linejoin:miter;stroke-miterlimit:4;stroke-dasharray:none;stroke-opacity:1"
             d="M 10.72367,0 H 134.3094 c 3.0745,0 4.6355,0 6.2937,0.5255076 1.8146,0.6604544 3.244,2.0898724 3.9045,3.9044574 0.5255,1.658189 0.5255,3.219254 0.5255,6.341385 v 11.60606 c 0,3.07446 0,4.63552 -0.5255,6.29371 -0.6605,1.81459 -2.0899,3.244 -3.9045,3.90446 -1.6582,0.52551 -3.2192,0.52551 -6.3414,0.52551 H 10.72367 c -3.074451,0 -4.635516,0 -6.293705,-0.52551 C 2.61538,31.91512 1.185962,30.48571 0.5255076,28.67112 0,27.01293 0,25.45187 0,22.32974 V 10.72367 C 0,7.649219 0,6.088154 0.5255076,4.429965 1.185962,2.61538 2.61538,1.185962 4.429965,0.5255076 6.088154,0 7.649219,0 10.77135,0 Z" /></g></g></g><g
       id="g98"><g
         clip-path="url(#clipPath104)"
         id="g100"><g
           transform="translate(154,288)"
           id="g106"><text
             id="text110"
             style="font-variant:normal;font-size:8px;font-family:HiraKakuProN;-inkscape-font-specification:HiraKakuProN-W3;writing-mode:lr-tb;fill:#000000;fill-opacity:1;fill-rule:nonzero;stroke:none"
             transform="scale(1,-1)"><tspan
               id="tspan108"
               y="0"
               x="0 3.1359999 7.4239998 9.3280001 14.496 16.416 19.08 23.68 28.384001 33.639999 38.896 44.152 48.855999 54.112 57.448002 62.703999 67.959999 73.216003 78.472 83.639999 88.807999 94.064003">txid: ae219e0f7703dd62</tspan></text>
</g></g></g><g
       id="g112"><g
         clip-path="url(#clipPath118)"
         id="g114"><g
           transform="matrix(1,0,0,-1,121.3044,452.2883)"
           id="g120"><path
             id="path122"
             style="fill:none;stroke:#000000;stroke-width:1;stroke-linecap:butt;stroke-linejoin:miter;stroke-miterlimit:4;stroke-dasharray:none;stroke-opacity:1"
             d="M 0,0 H 164.6411" /></g><g
           transform="translate(191,478)"
           id="g124"><text
             id="text128"
             style="font-variant:normal;font-size:9px;font-family:HiraKakuProN;-inkscape-font-specification:HiraKakuProN-W6;writing-mode:lr-tb;fill:#000000;fill-opacity:1;fill-rule:nonzero;stroke:none"
             transform="scale(1,-1)"><tspan
               id="tspan126"
               y="0"
               x="0 6.0570002 11.763 17.1 23.157 25.587 28.584">hash:  </tspan></text>
</g><g
           transform="translate(141,464)"
           id="g130"><text
             id="text134"
             style="font-variant:normal;font-size:9px;font-family:HiraKakuProN;-inkscape-font-specification:HiraKakuProN-W6;writing-mode:lr-tb;fill:#000000;fill-opacity:1;fill-rule:nonzero;stroke:none"
             transform="scale(1,-1)"><tspan
               id="tspan132"
               y="0"
               x="0 6.408 12.816 19.224001 25.632 32.040001 38.448002 44.855999 51.264 57.672001 64.080002 70.487999 76.896004 81.189003 87.597 94.004997 100.359 106.767 113.175 119.583">000000000061f92b9782</tspan></text>
</g><g
           transform="translate(168,438)"
           id="g136"><text
             id="text140"
             style="font-variant:normal;font-size:9px;font-family:HiraKakuProN;-inkscape-font-specification:HiraKakuProN-W6;writing-mode:lr-tb;fill:#000000;fill-opacity:1;fill-rule:nonzero;stroke:none"
             transform="scale(1,-1)"><tspan
               id="tspan138"
               y="0"
               x="0 6.3720002 10.8 16.533001 22.122 24.561001 30.591 36.647999 41.985001 46.521 52.577999 58.284 63.620998 69.678001 72.108002 75.105003">previous̲hash:  </tspan></text>
</g><g
           transform="translate(142,424)"
           id="g142"><text
             id="text146"
             style="font-variant:normal;font-size:9px;font-family:HiraKakuProN;-inkscape-font-specification:HiraKakuProN-W6;writing-mode:lr-tb;fill:#000000;fill-opacity:1;fill-rule:nonzero;stroke:none"
             transform="scale(1,-1)"><tspan
               id="tspan144"
               y="0"
               x="0 6.408 12.816 19.224001 25.632 32.040001 38.448002 44.855999 51.264 57.672001 64.080002 70.487999 76.112999 82.521004 88.226997 94.635002 101.043 105.336 111.744 117.369">00000000009c1a39f0c3</tspan></text>
</g><path
           id="path148"
           style="fill:#ffffff;fill-opacity:1;fill-rule:nonzero;stroke:none"
           d="M 363.5884,492.2298 H 533.4555 V 250.1267 H 363.5884 Z" /><g
           transform="matrix(1,0,0,-1,363.5884,492.2298)"
           id="g150"><path
             id="path152"
             style="fill:none;stroke:#000000;stroke-width:1;stroke-linecap:butt;stroke-linejoin:miter;stroke-miterlimit:4;stroke-dasharray:none;stroke-opacity:1"
             d="M 0,0 H 169.8671 V 242.1031 H 0 Z" /></g><path
           id="path154"
           style="fill:#ffffff;fill-opacity:1;fill-rule:nonzero;stroke:none"
           d="m 386.7291,386.8301 h 123.5857 c 3.0745,0 4.6356,0 6.2938,-0.5255 1.8145,-0.6604 3.244,-2.0898 3.9044,-3.9044 0.5255,-1.6582 0.5255,-3.2193 0.5255,-6.3414 v -11.6061 c 0,-3.0744 0,-4.6355 -0.5255,-6.2937 -0.6604,-1.8146 -2.0899,-3.244 -3.9044,-3.9044 -1.6582,-0.5255 -3.2193,-0.5255 -6.3414,-0.5255 H 386.7291 c -3.0745,0 -4.6355,0 -6.2937,0.5255 -1.8146,0.6604 -3.244,2.0898 -3.9045,3.9044 -0.5255,1.6582 -0.5255,3.2193 -0.5255,6.3414 v 11.6061 c 0,3.0744 0,4.6355 0.5255,6.2937 0.6605,1.8146 2.0899,3.244 3.9045,3.9044 1.6582,0.5255 3.2192,0.5255 6.3414,0.5255 z" /><g
           transform="matrix(1,0,0,-1,376.0054,386.8301)"
           id="g156"><path
             id="path158"
             style="fill:none;stroke:#000000;stroke-width:1.10000002;stroke-linecap:butt;stroke-linejoin:miter;stroke-miterlimit:4;stroke-dasharray:none;stroke-opacity:1"
             d="M 10.72367,0 H 134.3094 c 3.0745,0 4.6355,0 6.2937,0.5255076 1.8146,0.6604544 3.244,2.0898724 3.9045,3.9044574 0.5255,1.658189 0.5255,3.219254 0.5255,6.341385 v 11.60606 c 0,3.07446 0,4.63552 -0.5255,6.29371 -0.6605,1.81459 -2.0899,3.244 -3.9045,3.90446 -1.6582,0.52551 -3.2192,0.52551 -6.3414,0.52551 H 10.72367 c -3.074451,0 -4.635516,0 -6.293705,-0.52551 C 2.61538,31.91512 1.185962,30.48571 0.5255076,28.67112 0,27.01293 0,25.45187 0,22.32974 V 10.72367 C 0,7.649219 0,6.088154 0.5255076,4.429965 1.185962,2.61538 2.61538,1.185962 4.429965,0.5255076 6.088154,0 7.649219,0 10.77135,0 Z" /></g></g></g><g
       id="g160"><g
         clip-path="url(#clipPath166)"
         id="g162"><g
           transform="translate(398,369)"
           id="g168"><text
             id="text172"
             style="font-variant:normal;font-size:8px;font-family:HiraKakuProN;-inkscape-font-specification:HiraKakuProN-W3;writing-mode:lr-tb;fill:#000000;fill-opacity:1;fill-rule:nonzero;stroke:none"
             transform="scale(1,-1)"><tspan
               id="tspan170"
               y="0"
               x="0 3.1359999 7.4239998 9.3280001 14.496 16.416 19.08 24.336 29.591999 34.848 40.104 45.360001 50.647999 55.903999 59.240002 64.407997 69.664001 74.919998 79.543999 84.800003 89.968002 95.223999">txid: 1818140fd68c5b84</tspan></text>
</g></g></g><g
       id="g174"><g
         clip-path="url(#clipPath180)"
         id="g176"><path
           id="path182"
           style="fill:#ffffff;fill-opacity:1;fill-rule:nonzero;stroke:none"
           d="m 386.7291,346.5505 h 123.5857 c 3.0745,0 4.6356,0 6.2938,-0.5255 1.8145,-0.6604 3.244,-2.0898 3.9044,-3.9044 0.5255,-1.6582 0.5255,-3.2193 0.5255,-6.3414 v -11.6061 c 0,-3.0744 0,-4.6355 -0.5255,-6.2937 -0.6604,-1.8146 -2.0899,-3.244 -3.9044,-3.9044 -1.6582,-0.5255 -3.2193,-0.5255 -6.3414,-0.5255 H 386.7291 c -3.0745,0 -4.6355,0 -6.2937,0.5255 -1.8146,0.6604 -3.244,2.0898 -3.9045,3.9044 -0.5255,1.6582 -0.5255,3.2193 -0.5255,6.3414 v 11.6061 c 0,3.0744 0,4.6355 0.5255,6.2937 0.6605,1.8146 2.0899,3.244 3.9045,3.9044 1.6582,0.5255 3.2192,0.5255 6.3414,0.5255 z" /><g
           transform="matrix(1,0,0,-1,376.0054,346.5505)"
           id="g184"><path
             id="path186"
             style="fill:none;stroke:#000000;stroke-width:1.10000002;stroke-linecap:butt;stroke-linejoin:miter;stroke-miterlimit:4;stroke-dasharray:none;stroke-opacity:1"
             d="M 10.72367,0 H 134.3094 c 3.0745,0 4.6355,0 6.2937,0.5255076 1.8146,0.6604544 3.244,2.0898724 3.9045,3.9044574 0.5255,1.658189 0.5255,3.219254 0.5255,6.341385 v 11.60606 c 0,3.07446 0,4.63552 -0.5255,6.29371 -0.6605,1.81459 -2.0899,3.244 -3.9045,3.90446 -1.6582,0.52551 -3.2192,0.52551 -6.3414,0.52551 H 10.72367 c -3.074451,0 -4.635516,0 -6.293705,-0.52551 C 2.61538,31.91512 1.185962,30.48571 0.5255076,28.67112 0,27.01293 0,25.45187 0,22.32974 V 10.72367 C 0,7.649219 0,6.088154 0.5255076,4.429965 1.185962,2.61538 2.61538,1.185962 4.429965,0.5255076 6.088154,0 7.649219,0 10.77135,0 Z" /></g></g></g><g
       id="g188"><g
         clip-path="url(#clipPath194)"
         id="g190"><g
           transform="translate(398,329)"
           id="g196"><text
             id="text200"
             style="font-variant:normal;font-size:8px;font-family:HiraKakuProN;-inkscape-font-specification:HiraKakuProN-W3;writing-mode:lr-tb;fill:#000000;fill-opacity:1;fill-rule:nonzero;stroke:none"
             transform="scale(1,-1)"><tspan
               id="tspan198"
               y="0"
               x="0 3.1359999 7.4239998 9.3280001 14.496 16.416 19.08 24.368 29.624001 34.223999 39.48 44.647999 49.903999 55.16 59.784 64.487999 69.655998 74.255997 79.543999 84.800003 90.056 95.223999">txid: 41a0d62ceda460bd</tspan></text>
</g></g></g><g
       id="g202"><g
         clip-path="url(#clipPath208)"
         id="g204"><path
           id="path210"
           style="fill:#ffffff;fill-opacity:1;fill-rule:nonzero;stroke:none"
           d="m 386.7291,306.2709 h 123.5857 c 3.0745,0 4.6356,0 6.2938,-0.5255 1.8145,-0.6604 3.244,-2.0898 3.9044,-3.9044 0.5255,-1.6582 0.5255,-3.2193 0.5255,-6.3414 v -11.6061 c 0,-3.0744 0,-4.6355 -0.5255,-6.2937 -0.6604,-1.8146 -2.0899,-3.244 -3.9044,-3.9044 -1.6582,-0.5256 -3.2193,-0.5256 -6.3414,-0.5256 H 386.7291 c -3.0745,0 -4.6355,0 -6.2937,0.5256 -1.8146,0.6604 -3.244,2.0898 -3.9045,3.9044 -0.5255,1.6582 -0.5255,3.2193 -0.5255,6.3414 v 11.6061 c 0,3.0744 0,4.6355 0.5255,6.2937 0.6605,1.8146 2.0899,3.244 3.9045,3.9044 1.6582,0.5255 3.2192,0.5255 6.3414,0.5255 z" /><g
           transform="matrix(1,0,0,-1,376.0054,306.2709)"
           id="g212"><path
             id="path214"
             style="fill:none;stroke:#000000;stroke-width:1.10000002;stroke-linecap:butt;stroke-linejoin:miter;stroke-miterlimit:4;stroke-dasharray:none;stroke-opacity:1"
             d="M 10.72367,0 H 134.3094 c 3.0745,0 4.6355,0 6.2937,0.5255076 1.8146,0.6604544 3.244,2.0898724 3.9045,3.9044574 0.5255,1.658189 0.5255,3.219254 0.5255,6.341385 v 11.60606 c 0,3.07446 0,4.63552 -0.5255,6.29371 -0.6605,1.81459 -2.0899,3.244 -3.9045,3.90446 -1.6582,0.52551 -3.2192,0.52551 -6.3414,0.52551 H 10.72367 c -3.074451,0 -4.635516,0 -6.293705,-0.52551 C 2.61538,31.91512 1.185962,30.48571 0.5255076,28.67112 0,27.01293 0,25.45187 0,22.32974 V 10.72367 C 0,7.649219 0,6.088154 0.5255076,4.429965 1.185962,2.61538 2.61538,1.185962 4.429965,0.5255076 6.088154,0 7.649219,0 10.77135,0 Z" /></g></g></g><g
       id="g216"><g
         clip-path="url(#clipPath222)"
         id="g218"><g
           transform="translate(398,288)"
           id="g224"><text
             id="text228"
             style="font-variant:normal;font-size:8px;font-family:HiraKakuProN;-inkscape-font-specification:HiraKakuProN-W3;writing-mode:lr-tb;fill:#000000;fill-opacity:1;fill-rule:nonzero;stroke:none"
             transform="scale(1,-1)"><tspan
               id="tspan226"
               y="0"
               x="0 3.1359999 7.4239998 9.3280001 14.496 16.416 19.08 23.784 29.040001 34.296001 38.919998 44.175999 49.431999 54.688 59.944 64.543999 69.800003 75.056 80.223999 85.480003 90.103996 95.360001">txid: e37c1895a85d5c11</tspan></text>
</g></g></g><g
       id="g230"><g
         clip-path="url(#clipPath236)"
         id="g232"><g
           transform="matrix(1,0,0,-1,366.2014,452.2883)"
           id="g238"><path
             id="path240"
             style="fill:none;stroke:#000000;stroke-width:1;stroke-linecap:butt;stroke-linejoin:miter;stroke-miterlimit:4;stroke-dasharray:none;stroke-opacity:1"
             d="M 0,0 H 164.6411" /></g><g
           transform="translate(436,478)"
           id="g242"><text
             id="text246"
             style="font-variant:normal;font-size:9px;font-family:HiraKakuProN;-inkscape-font-specification:HiraKakuProN-W6;writing-mode:lr-tb;fill:#000000;fill-opacity:1;fill-rule:nonzero;stroke:none"
             transform="scale(1,-1)"><tspan
               id="tspan244"
               y="0"
               x="0 6.0570002 11.763 17.1 23.157 25.587 28.584">hash:  </tspan></text>
</g><g
           transform="translate(386,464)"
           id="g248"><text
             id="text252"
             style="font-variant:normal;font-size:9px;font-family:HiraKakuProN;-inkscape-font-specification:HiraKakuProN-W6;writing-mode:lr-tb;fill:#000000;fill-opacity:1;fill-rule:nonzero;stroke:none"
             transform="scale(1,-1)"><tspan
               id="tspan250"
               y="0"
               x="0 6.408 12.816 19.224001 25.632 32.040001 38.448002 44.855999 51.264 57.672001 64.080002 70.487999 76.896004 82.521004 88.875 95.237999 99.530998 105.939 112.293 118.701">000000000095cbdf7b60</tspan></text>
</g><g
           transform="translate(412,438)"
           id="g254"><text
             id="text258"
             style="font-variant:normal;font-size:9px;font-family:HiraKakuProN;-inkscape-font-specification:HiraKakuProN-W6;writing-mode:lr-tb;fill:#000000;fill-opacity:1;fill-rule:nonzero;stroke:none"
             transform="scale(1,-1)"><tspan
               id="tspan256"
               y="0"
               x="0 6.3720002 10.8 16.533001 22.122 24.561001 30.591 36.647999 41.985001 46.521 52.577999 58.284 63.620998 69.678001 72.108002 75.105003">previous̲hash:  </tspan></text>
</g><g
           transform="translate(386,424)"
           id="g260"><text
             id="text264"
             style="font-variant:normal;font-size:9px;font-family:HiraKakuProN;-inkscape-font-specification:HiraKakuProN-W6;writing-mode:lr-tb;fill:#000000;fill-opacity:1;fill-rule:nonzero;stroke:none"
             transform="scale(1,-1)"><tspan
               id="tspan262"
               y="0"
               x="0 6.408 12.816 19.224001 25.632 32.040001 38.448002 44.855999 51.264 57.672001 64.080002 70.487999 76.896004 81.189003 87.597 94.004997 100.359 106.767 113.175 119.583">000000000061f92b9782</tspan></text>
</g><path
           id="path266"
           style="fill:#ffffff;fill-opacity:1;fill-rule:nonzero;stroke:none"
           d="M 620.9024,492.2298 H 790.7696 V 250.1267 H 620.9024 Z" /><g
           transform="matrix(1,0,0,-1,620.9024,492.2298)"
           id="g268"><path
             id="path270"
             style="fill:none;stroke:#000000;stroke-width:1;stroke-linecap:butt;stroke-linejoin:miter;stroke-miterlimit:4;stroke-dasharray:none;stroke-opacity:1"
             d="M 0,0 H 169.8671 V 242.1031 H 0 Z" /></g><path
           id="path272"
           style="fill:#ffffff;fill-opacity:1;fill-rule:nonzero;stroke:none"
           d="m 644.0431,386.8301 h 123.5858 c 3.0744,0 4.6355,0 6.2937,-0.5255 1.8146,-0.6604 3.244,-2.0898 3.9045,-3.9044 0.5255,-1.6582 0.5255,-3.2193 0.5255,-6.3414 v -11.6061 c 0,-3.0744 0,-4.6355 -0.5255,-6.2937 -0.6605,-1.8146 -2.0899,-3.244 -3.9045,-3.9044 -1.6582,-0.5255 -3.2193,-0.5255 -6.3414,-0.5255 H 644.0431 c -3.0744,0 -4.6355,0 -6.2937,0.5255 -1.8146,0.6604 -3.244,2.0898 -3.9044,3.9044 -0.5255,1.6582 -0.5255,3.2193 -0.5255,6.3414 v 11.6061 c 0,3.0744 0,4.6355 0.5255,6.2937 0.6604,1.8146 2.0898,3.244 3.9044,3.9044 1.6582,0.5255 3.2193,0.5255 6.3414,0.5255 z" /><g
           transform="matrix(1,0,0,-1,633.3195,386.8301)"
           id="g274"><path
             id="path276"
             style="fill:none;stroke:#000000;stroke-width:1.10000002;stroke-linecap:butt;stroke-linejoin:miter;stroke-miterlimit:4;stroke-dasharray:none;stroke-opacity:1"
             d="M 10.72367,0 H 134.3094 c 3.0745,0 4.6355,0 6.2937,0.5255076 1.8146,0.6604544 3.244,2.0898724 3.9045,3.9044574 0.5255,1.658189 0.5255,3.219254 0.5255,6.341385 v 11.60606 c 0,3.07446 0,4.63552 -0.5255,6.29371 -0.6605,1.81459 -2.0899,3.244 -3.9045,3.90446 -1.6582,0.52551 -3.2192,0.52551 -6.3414,0.52551 H 10.72367 c -3.074451,0 -4.635516,0 -6.293705,-0.52551 C 2.61538,31.91512 1.185962,30.48571 0.5255076,28.67112 0,27.01293 0,25.45187 0,22.32974 V 10.72367 C 0,7.649219 0,6.088154 0.5255076,4.429965 1.185962,2.61538 2.61538,1.185962 4.429965,0.5255076 6.088154,0 7.649219,0 10.77135,0 Z" /></g></g></g><g
       id="g278"><g
         clip-path="url(#clipPath284)"
         id="g280"><g
           transform="translate(656,369)"
           id="g286"><text
             id="text290"
             style="font-variant:normal;font-size:8px;font-family:HiraKakuProN;-inkscape-font-specification:HiraKakuProN-W3;writing-mode:lr-tb;fill:#000000;fill-opacity:1;fill-rule:nonzero;stroke:none"
             transform="scale(1,-1)"><tspan
               id="tspan288"
               y="0"
               x="0 3.1359999 7.4239998 9.3280001 14.496 16.416 19.08 24.336 28.936001 34.192001 39.448002 44.048 49.304001 54.560001 59.816002 64.440002 69.695999 74.32 79.575996 84.279999 89.447998 94.736">txid: 8a08a155c6c3eb49</tspan></text>
</g></g></g><g
       id="g292"><g
         clip-path="url(#clipPath298)"
         id="g294"><path
           id="path300"
           style="fill:#ffffff;fill-opacity:1;fill-rule:nonzero;stroke:none"
           d="m 644.0431,346.5505 h 123.5858 c 3.0744,0 4.6355,0 6.2937,-0.5255 1.8146,-0.6604 3.244,-2.0898 3.9045,-3.9044 0.5255,-1.6582 0.5255,-3.2193 0.5255,-6.3414 v -11.6061 c 0,-3.0744 0,-4.6355 -0.5255,-6.2937 -0.6605,-1.8146 -2.0899,-3.244 -3.9045,-3.9044 -1.6582,-0.5255 -3.2193,-0.5255 -6.3414,-0.5255 H 644.0431 c -3.0744,0 -4.6355,0 -6.2937,0.5255 -1.8146,0.6604 -3.244,2.0898 -3.9044,3.9044 -0.5255,1.6582 -0.5255,3.2193 -0.5255,6.3414 v 11.6061 c 0,3.0744 0,4.6355 0.5255,6.2937 0.6604,1.8146 2.0898,3.244 3.9044,3.9044 1.6582,0.5255 3.2193,0.5255 6.3414,0.5255 z" /><g
           transform="matrix(1,0,0,-1,633.3195,346.5505)"
           id="g302"><path
             id="path304"
             style="fill:none;stroke:#000000;stroke-width:1.10000002;stroke-linecap:butt;stroke-linejoin:miter;stroke-miterlimit:4;stroke-dasharray:none;stroke-opacity:1"
             d="M 10.72367,0 H 134.3094 c 3.0745,0 4.6355,0 6.2937,0.5255076 1.8146,0.6604544 3.244,2.0898724 3.9045,3.9044574 0.5255,1.658189 0.5255,3.219254 0.5255,6.341385 v 11.60606 c 0,3.07446 0,4.63552 -0.5255,6.29371 -0.6605,1.81459 -2.0899,3.244 -3.9045,3.90446 -1.6582,0.52551 -3.2192,0.52551 -6.3414,0.52551 H 10.72367 c -3.074451,0 -4.635516,0 -6.293705,-0.52551 C 2.61538,31.91512 1.185962,30.48571 0.5255076,28.67112 0,27.01293 0,25.45187 0,22.32974 V 10.72367 C 0,7.649219 0,6.088154 0.5255076,4.429965 1.185962,2.61538 2.61538,1.185962 4.429965,0.5255076 6.088154,0 7.649219,0 10.77135,0 Z" /></g></g></g><g
       id="g306"><g
         clip-path="url(#clipPath312)"
         id="g308"><g
           transform="translate(657,329)"
           id="g314"><text
             id="text318"
             style="font-variant:normal;font-size:8px;font-family:HiraKakuProN;-inkscape-font-specification:HiraKakuProN-W3;writing-mode:lr-tb;fill:#000000;fill-opacity:1;fill-rule:nonzero;stroke:none"
             transform="scale(1,-1)"><tspan
               id="tspan316"
               y="0"
               x="0 3.1359999 7.4239998 9.3280001 14.496 16.416 19.08 23.784 28.952 33.576 38.832001 42.167999 47.424 52.68 57.304001 62.560001 67.183998 72.440002 77.695999 82.952003 87.552002 92.807999">txid: ebc8f52c9c730a83</tspan></text>
</g></g></g><g
       id="g320"><g
         clip-path="url(#clipPath326)"
         id="g322"><path
           id="path328"
           style="fill:#ffffff;fill-opacity:1;fill-rule:nonzero;stroke:none"
           d="m 644.0431,306.2709 h 123.5858 c 3.0744,0 4.6355,0 6.2937,-0.5255 1.8146,-0.6604 3.244,-2.0898 3.9045,-3.9044 0.5255,-1.6582 0.5255,-3.2193 0.5255,-6.3414 v -11.6061 c 0,-3.0744 0,-4.6355 -0.5255,-6.2937 -0.6605,-1.8146 -2.0899,-3.244 -3.9045,-3.9044 -1.6582,-0.5256 -3.2193,-0.5256 -6.3414,-0.5256 H 644.0431 c -3.0744,0 -4.6355,0 -6.2937,0.5256 -1.8146,0.6604 -3.244,2.0898 -3.9044,3.9044 -0.5255,1.6582 -0.5255,3.2193 -0.5255,6.3414 v 11.6061 c 0,3.0744 0,4.6355 0.5255,6.2937 0.6604,1.8146 2.0898,3.244 3.9044,3.9044 1.6582,0.5255 3.2193,0.5255 6.3414,0.5255 z" /><g
           transform="matrix(1,0,0,-1,633.3195,306.2709)"
           id="g330"><path
             id="path332"
             style="fill:none;stroke:#000000;stroke-width:1.10000002;stroke-linecap:butt;stroke-linejoin:miter;stroke-miterlimit:4;stroke-dasharray:none;stroke-opacity:1"
             d="M 10.72367,0 H 134.3094 c 3.0745,0 4.6355,0 6.2937,0.5255076 1.8146,0.6604544 3.244,2.0898724 3.9045,3.9044574 0.5255,1.658189 0.5255,3.219254 0.5255,6.341385 v 11.60606 c 0,3.07446 0,4.63552 -0.5255,6.29371 -0.6605,1.81459 -2.0899,3.244 -3.9045,3.90446 -1.6582,0.52551 -3.2192,0.52551 -6.3414,0.52551 H 10.72367 c -3.074451,0 -4.635516,0 -6.293705,-0.52551 C 2.61538,31.91512 1.185962,30.48571 0.5255076,28.67112 0,27.01293 0,25.45187 0,22.32974 V 10.72367 C 0,7.649219 0,6.088154 0.5255076,4.429965 1.185962,2.61538 2.61538,1.185962 4.429965,0.5255076 6.088154,0 7.649219,0 10.77135,0 Z" /></g></g></g><g
       id="g334"><g
         clip-path="url(#clipPath340)"
         id="g336"><g
           transform="translate(657,288)"
           id="g342"><text
             id="text346"
             style="font-variant:normal;font-size:8px;font-family:HiraKakuProN;-inkscape-font-specification:HiraKakuProN-W3;writing-mode:lr-tb;fill:#000000;fill-opacity:1;fill-rule:nonzero;stroke:none"
             transform="scale(1,-1)"><tspan
               id="tspan344"
               y="0"
               x="0 3.1359999 7.4239998 9.3280001 14.496 16.416 19.08 24.336 29.591999 34.848 39.448002 44.703999 49.959999 55.216 58.551998 63.807999 69.064003 74.32 78.919998 83.543999 88.800003 94.056">txid: 583a002f701ac39f</tspan></text>
</g></g></g><g
       id="g348"><g
         clip-path="url(#clipPath354)"
         id="g350"><g
           transform="matrix(1,0,0,-1,623.5154,452.2883)"
           id="g356"><path
             id="path358"
             style="fill:none;stroke:#000000;stroke-width:1;stroke-linecap:butt;stroke-linejoin:miter;stroke-miterlimit:4;stroke-dasharray:none;stroke-opacity:1"
             d="M 0,0 H 164.6411" /></g><g
           transform="translate(693,478)"
           id="g360"><text
             id="text364"
             style="font-variant:normal;font-size:9px;font-family:HiraKakuProN;-inkscape-font-specification:HiraKakuProN-W6;writing-mode:lr-tb;fill:#000000;fill-opacity:1;fill-rule:nonzero;stroke:none"
             transform="scale(1,-1)"><tspan
               id="tspan362"
               y="0"
               x="0 6.0570002 11.763 17.1 23.157 25.587 28.584">hash:  </tspan></text>
</g><g
           transform="translate(645,464)"
           id="g366"><text
             id="text370"
             style="font-variant:normal;font-size:9px;font-family:HiraKakuProN;-inkscape-font-specification:HiraKakuProN-W6;writing-mode:lr-tb;fill:#000000;fill-opacity:1;fill-rule:nonzero;stroke:none"
             transform="scale(1,-1)"><tspan
               id="tspan368"
               y="0"
               x="0 6.408 12.816 19.224001 25.632 32.040001 38.448002 44.855999 51.264 57.672001 64.080002 68.373001 73.998001 80.405998 86.814003 93.167999 99.575996 103.869 109.494 115.902">0000000000fc97b3fc8a</tspan></text>
</g><g
           transform="translate(670,438)"
           id="g372"><text
             id="text376"
             style="font-variant:normal;font-size:9px;font-family:HiraKakuProN;-inkscape-font-specification:HiraKakuProN-W6;writing-mode:lr-tb;fill:#000000;fill-opacity:1;fill-rule:nonzero;stroke:none"
             transform="scale(1,-1)"><tspan
               id="tspan374"
               y="0"
               x="0 6.3720002 10.8 16.533001 22.122 24.561001 30.591 36.647999 41.985001 46.521 52.577999 58.284 63.620998 69.678001 72.108002 75.105003">previous̲hash:  </tspan></text>
</g><g
           transform="translate(643,424)"
           id="g378"><text
             id="text382"
             style="font-variant:normal;font-size:9px;font-family:HiraKakuProN;-inkscape-font-specification:HiraKakuProN-W6;writing-mode:lr-tb;fill:#000000;fill-opacity:1;fill-rule:nonzero;stroke:none"
             transform="scale(1,-1)"><tspan
               id="tspan380"
               y="0"
               x="0 6.408 12.816 19.224001 25.632 32.040001 38.448002 44.855999 51.264 57.672001 64.080002 70.487999 76.896004 82.521004 88.875 95.237999 99.530998 105.939 112.293 118.701">000000000095cbdf7b60</tspan></text>
</g><path
           id="path384"
           style="fill:#929292;fill-opacity:1;fill-rule:nonzero;stroke:none"
           d="m 23.55823,459.4709 c -0.90633,0 -2.11646,0.1519 -2.27342,1.4886 -0.1519,1.3418 0.83038,2.3848 2.19241,2.3848 1.36708,0 0.97215,-0.7342 4.16202,-0.7342 1.17975,0 1.24557,-2.4455 0.05063,-2.4455 -2.8405,0 -2.45063,-0.6937 -4.13164,-0.6937 0,0 0,0 0,0 z m 60.72658,3.8734 c 0.30463,0 0.5756,-0.0213 0.81519,-0.0644 L 86.97992,461.4 c -0.18945,-1.0546 -0.7993,-1.5012 -1.85967,-1.5342 -1.08038,-0.0323 -1.6951,0.5497 -1.89845,1.5342 L 85.1,459.5218 c -0.24743,-0.0511 -0.52028,-0.0762 -0.81519,-0.0762 -1.46329,0 -1.39747,0.7341 -3.85316,0.7139 -1.31646,-0.0152 -1.08861,2.4456 -0.01519,2.4456 2.60253,0 2.22278,0.7392 3.86835,0.7392 0,0 0,0 0,0 z m -56.51478,-3.1848 c -1.09902,0 -1.12291,2.4608 0.16246,2.4608 1.36183,0 4.32918,-0.4406 5.10805,-0.3899 0.77887,0.0506 2.92912,0.5164 3.61242,0.5164 0.67852,0 3.96602,-0.719 5.38041,-0.5164 1.40483,0.2076 1.80621,0.0962 2.78099,0.0962 0.97,0 2.5134,-0.1469 3.43562,-0.2025 0.927,-0.0507 1.75365,0.5974 2.96257,0.4253 1.20892,-0.1772 1.86355,0.0709 2.69498,0.0709 1.33794,0 1.26149,-2.4406 0.01434,-2.4406 -1.20414,0 -2.02602,-0.162 -3.04858,-0.1113 -1.01778,0.0506 -1.897,0.3088 -2.867,0.0506 -0.97,-0.2532 -2.84789,0.0202 -4.0138,0.1772 -1.16592,0.157 -2.45607,0.0861 -3.37351,-0.0203 -1.84444,-0.1974 -6.2644,0.2583 -6.89514,0.0507 -0.63552,-0.2025 -2.65198,-0.005 -3.37351,-0.005 -0.71197,0 -1.09901,-0.162 -2.5803,-0.162 0,0 0,0 0,0 z m 52.34191,2.4608 c 1.21369,0 1.4335,-2.4456 0,-2.4456 -1.43351,0 -4.07593,0.2278 -4.85002,0.1772 -0.77887,-0.0557 -4.0138,-0.2025 -4.69232,-0.2025 -0.67853,0 -3.1107,0.3595 -4.52031,0.1519 -1.40961,-0.2026 -2.78577,0.2025 -3.751,0.0911 -1.20414,-0.1367 -1.84921,0 -2.77143,0.0506 -0.92222,0.0507 -2.34139,-0.4405 -3.12025,-0.2379 -0.77887,0.2076 -1.21848,-0.0304 -2.30794,-0.0304 -1.09424,0 -1.08946,2.4354 -0.06212,2.4354 1.03212,0 1.91133,-0.0354 2.92912,-0.0911 1.02256,-0.0506 2.26493,-0.0912 3.36873,-0.0912 1.00345,0 2.50385,0.2988 3.66976,0.1418 1.16592,-0.1519 2.85745,-0.2177 3.53597,-0.243 0.85054,-0.0304 2.66153,0.0405 3.4404,-0.0962 0.9939,-0.1722 2.71888,0.081 3.34962,0.2886 0.63552,0.2076 1.07034,-0.081 2.44651,-0.0304 0.81709,0.0304 2.1168,0.1317 3.33528,0.1317 0,0 0,0 0,0 z m 3.05895,-1.8785 c 0,0.9063 0.15189,2.1164 1.4886,2.2734 1.34178,0.1519 2.38481,-0.8304 2.38481,-2.1924 0,-1.3671 -0.73417,-0.9722 -0.73417,-4.162 0,-1.1798 -2.44557,-1.2456 -2.44557,-0.0507 0,2.8405 -0.69367,2.4507 -0.69367,4.1317 0,0 0,0 0,0 z m 3.87341,-25.2266 c 0,-0.3046 -0.02134,-0.5756 -0.06438,-0.8152 L 85.1,436.5799 c 1.05462,-0.1894 1.50117,-0.7993 1.53418,-1.8596 0.03237,-1.0804 -0.54966,-1.6952 -1.53418,-1.8985 L 83.2218,434.7 c -0.05111,0.2474 -0.07623,0.5203 -0.07623,0.8152 0,1.4633 0.73418,1.3975 0.71392,3.8532 -0.01519,1.3164 2.44557,1.0886 2.44557,0.0151 0,-2.6025 0.73924,-2.2227 0.73924,-3.8683 0,0 0,0 0,0 z m -0.72405,20.8861 c 0,-0.9114 -0.32911,-2.3978 -0.32911,-2.7612 0,-0.3634 0.18734,-1.5816 0.13671,-2.1595 -0.0557,-0.5748 -0.2481,-0.7685 -0.29874,-1.7395 -0.06582,-1.2123 0.17722,-2.0076 0.2076,-2.0642 0.08607,-0.1727 0.32911,-0.7595 0.25316,-1.5757 -0.10126,-1.0901 0.13165,-1.4178 0.03038,-1.9033 -0.29367,-0.834 -0.02531,-0.9144 -0.07088,-1.5489 -0.05064,-0.6404 0.05569,-1.0366 -0.07595,-1.5459 -0.1519,-0.557 0.16709,-0.9621 0.14683,-1.4744 0,-0.8132 -2.45569,-0.7357 -2.45569,0.0268 0,0.4617 0.26329,0.8757 0.26329,1.3582 0,0.4856 -0.05063,0.9085 -0.1519,1.394 -0.10633,0.4856 0.05063,1.4745 0,2.2608 -0.0557,0.7893 -0.19747,2.097 -0.14177,3.0054 0.04557,0.9115 0.62278,1.4745 0.24304,3.3361 -0.12152,0.5987 -0.01519,1.7931 -0.01519,2.2787 0,0.8519 -0.18228,2.4931 -0.18228,3.202 0,0.8459 2.4405,0.8221 2.4405,-0.0894 0,0 0,0 0,0 z m -0.56202,-23.6304 c -0.90633,0 -2.11646,0.1519 -2.27342,1.4886 -0.1519,1.3418 0.83038,2.3848 2.19241,2.3848 1.36708,0 0.97215,-0.7342 4.16202,-0.7342 1.17975,0 1.24557,-2.4455 0.05063,-2.4455 -2.8405,0 -2.45063,-0.6937 -4.13164,-0.6937 0,0 0,0 0,0 z m 50.62657,3.8734 c 1.6456,0 2.3089,-0.6228 2.3494,-1.924 0.0405,-1.3519 -0.881,-1.9747 -2.3494,-1.9747 -1.4633,0 -1.3975,0.7341 -3.8532,0.7139 -1.3164,-0.0152 -1.0886,2.4456 -0.0151,2.4456 2.6025,0 2.2227,0.7392 3.8683,0.7392 0,0 0,0 0,0 z m -25.3495,-0.724 c 0.9803,0 1.1578,-2.4456 0,-2.4456 -1.1578,0 -3.292,0.2278 -3.9172,0.1772 -0.6291,-0.0557 -3.2418,-0.2025 -3.7899,-0.2025 -0.548,0 -2.5124,0.3595 -3.65088,0.1519 -1.1385,-0.2026 -2.24998,0.2025 -3.02956,0.0911 -0.97255,-0.1367 -1.49356,0 -2.23841,0.0506 -0.74485,0.0507 -1.89107,-0.4405 -2.52013,-0.2379 -0.62907,0.2076 -0.98413,-0.0304 -1.86406,-0.0304 -0.88378,0 -0.87992,2.4354 -0.05017,2.4354 0.83362,0 1.54373,-0.0354 2.36577,-0.0911 0.82589,-0.0506 1.82931,-0.0912 2.72082,-0.0912 0.81045,0 2.02228,0.2988 2.96395,0.1418 0.94168,-0.1519 2.30787,-0.2177 2.85587,-0.243 0.687,-0.0304 2.1497,0.0405 2.7787,-0.0962 0.8028,-0.1722 2.196,0.081 2.7054,0.2886 0.5133,0.2076 0.8645,-0.081 1.976,-0.0304 0.6599,0.0304 1.7097,0.1317 2.6938,0.1317 0,0 0,0 0,0 z m 0.3056,0 c 1.1361,0 2.9887,-0.3292 3.4416,-0.3292 0.453,0 1.9715,0.1874 2.6918,0.1367 0.7165,-0.0556 0.9578,-0.2481 2.1682,-0.2987 1.511,-0.0658 2.5023,0.1772 2.5729,0.2076 0.2153,0.0861 0.9467,0.3291 1.964,0.2532 1.3588,-0.1013 1.7672,0.1316 2.3724,0.0304 1.0396,-0.2937 1.1398,-0.0254 1.9306,-0.0709 0.7983,-0.0507 1.292,0.0557 1.9269,-0.076 0.6943,-0.1519 1.1992,0.1671 1.8378,0.1469 1.0136,0 0.917,-2.4557 -0.0334,-2.4557 -0.5755,0 -1.0915,0.2632 -1.693,0.2632 -0.6052,0 -1.1324,-0.0506 -1.7376,-0.1519 -0.6051,-0.1063 -1.8377,0.0507 -2.8179,0 -0.9839,-0.0556 -2.6137,-0.1974 -3.7461,-0.1417 -1.1361,0.0455 -1.8378,0.6228 -4.1582,0.243 -0.7463,-0.1215 -2.2351,-0.0152 -2.8403,-0.0152 -1.0618,0 -3.1075,-0.1823 -3.9911,-0.1823 -1.0544,0 -1.0247,2.4406 0.1114,2.4406 0,0 0,0 0,0 z" /><path
           id="path386"
           style="fill:#929292;fill-opacity:1;fill-rule:nonzero;stroke:none"
           d="m 271.7582,472.8709 c -0.9063,0 -2.1164,0.1519 -2.2734,1.4886 -0.1519,1.3418 0.8304,2.3848 2.1924,2.3848 1.3671,0 0.9722,-0.7342 4.162,-0.7342 1.1798,0 1.2456,-2.4455 0.0507,-2.4455 -2.8405,0 -2.4507,-0.6937 -4.1317,-0.6937 0,0 0,0 0,0 z m 59.5266,3.8734 c 0.3046,0 0.5756,-0.0213 0.8152,-0.0644 l 1.8799,-1.8799 c -0.1894,-1.0546 -0.7993,-1.5012 -1.8596,-1.5342 -1.0804,-0.0323 -1.6952,0.5497 -1.8985,1.5342 l 1.8782,-1.8782 c -0.2474,-0.0511 -0.5203,-0.0762 -0.8152,-0.0762 -1.4633,0 -1.3975,0.7341 -3.8532,0.7139 -1.3164,-0.0152 -1.0886,2.4456 -0.0151,2.4456 2.6025,0 2.2227,0.7392 3.8683,0.7392 0,0 0,0 0,0 z m -55.3151,-3.1848 c -1.0739,0 -1.0972,2.4608 0.1588,2.4608 1.3307,0 4.2302,-0.4406 4.9913,-0.3899 0.761,0.0506 2.8622,0.5164 3.5298,0.5164 0.6631,0 3.8754,-0.719 5.2575,-0.5164 1.3727,0.2076 1.7649,0.0962 2.7175,0.0962 0.9478,0 2.4559,-0.1469 3.3571,-0.2025 0.9058,-0.0507 1.7135,0.5974 2.8948,0.4253 1.1813,-0.1772 1.821,0.0709 2.6334,0.0709 1.3074,0 1.2327,-2.4406 0.014,-2.4406 -1.1766,0 -1.9797,-0.162 -2.9789,-0.1113 -0.9945,0.0506 -1.8536,0.3088 -2.8015,0.0506 -0.9478,-0.2532 -2.7828,0.0202 -3.922,0.1772 -1.1393,0.157 -2.4,0.0861 -3.2965,-0.0203 -1.8023,-0.1974 -6.1212,0.2583 -6.7375,0.0507 -0.621,-0.2025 -2.5914,-0.005 -3.2965,-0.005 -0.6957,0 -1.0739,-0.162 -2.5213,-0.162 0,0 0,0 0,0 z m 51.1458,2.4608 c 1.186,0 1.4008,-2.4456 0,-2.4456 -1.4007,0 -3.9827,0.2278 -4.7391,0.1772 -0.7611,-0.0557 -3.9221,-0.2025 -4.5851,-0.2025 -0.6631,0 -3.0397,0.3595 -4.4171,0.1519 -1.3774,-0.2026 -2.7221,0.2025 -3.6652,0.0911 -1.1767,-0.1367 -1.807,0 -2.7081,0.0506 -0.9012,0.0507 -2.2879,-0.4405 -3.049,-0.2379 -0.7611,0.2076 -1.1906,-0.0304 -2.2552,-0.0304 -1.0692,0 -1.0646,2.4354 -0.0607,2.4354 1.0085,0 1.8677,-0.0354 2.8622,-0.0911 0.9992,-0.0506 2.2132,-0.0912 3.2917,-0.0912 0.9806,0 2.4467,0.2988 3.5859,0.1418 1.1393,-0.1519 2.7922,-0.2177 3.4552,-0.243 0.8311,-0.0304 2.6007,0.0405 3.3618,-0.0962 0.9712,-0.1722 2.6567,0.081 3.2731,0.2886 0.621,0.2076 1.0459,-0.081 2.3906,-0.0304 0.7984,0.0304 2.0684,0.1317 3.259,0.1317 0,0 0,0 0,0 z m 3.0554,-1.8785 c 0,0.9063 0.1519,2.1164 1.4886,2.2734 1.3418,0.1519 2.3848,-0.8304 2.3848,-2.1924 0,-1.3671 -0.7342,-0.9722 -0.7342,-4.162 0,-1.1798 -2.4455,-1.2456 -2.4455,-0.0507 0,2.8405 -0.6937,2.4507 -0.6937,4.1317 0,0 0,0 0,0 z m 3.8734,-38.6266 c 0,-0.3046 -0.0213,-0.5756 -0.0644,-0.8152 l -1.8799,1.8799 c 1.0546,-0.1894 1.5012,-0.7993 1.5342,-1.8596 0.0323,-1.0804 -0.5497,-1.6952 -1.5342,-1.8985 l -1.8782,1.8782 c -0.0511,0.2474 -0.0762,0.5203 -0.0762,0.8152 0,1.4633 0.7341,1.3975 0.7139,3.8532 -0.0152,1.3164 2.4456,1.0886 2.4456,0.0151 0,-2.6025 0.7392,-2.2227 0.7392,-3.8683 0,0 0,0 0,0 z m -0.724,34.3013 c 0,-0.8146 -0.3292,-2.1431 -0.3292,-2.4679 0,-0.3248 0.1874,-1.4137 0.1367,-1.9302 -0.0556,-0.5138 -0.2481,-0.6868 -0.2987,-1.5548 -0.0658,-1.0835 0.1772,-1.7943 0.2076,-1.8449 0.0861,-0.1544 0.3291,-0.6789 0.2532,-1.4084 -0.1013,-0.9744 0.1316,-1.2672 0.0304,-1.7012 -0.2937,-0.7454 -0.0254,-0.8173 -0.0709,-1.3843 -0.0507,-0.5724 0.0557,-0.9265 -0.076,-1.3818 -0.1519,-0.4978 0.1671,-0.8599 0.1469,-1.3178 0,-0.7268 -2.4557,-0.6576 -2.4557,0.024 0,0.4126 0.2632,0.7827 0.2632,1.214 0,0.4339 -0.0506,0.812 -0.1519,1.2459 -0.1063,0.434 0.0507,1.3178 0,2.0207 -0.0556,0.7055 -0.1974,1.8742 -0.1417,2.6862 0.0455,0.8147 0.6228,1.3179 0.243,2.9818 -0.1215,0.5351 -0.0152,1.6027 -0.0152,2.0366 0,0.7614 -0.1823,2.2284 -0.1823,2.862 0,0.7561 2.4406,0.7348 2.4406,-0.0799 0,0 0,0 0,0 z m 0,-30.1948 c 0,-0.7029 -2.4456,-0.8302 -2.4456,0 0,0.8302 0.2278,2.3606 0.1772,2.8089 -0.0557,0.4511 -0.2025,2.3247 -0.2025,2.7176 0,0.393 0.3595,1.8016 0.1519,2.618 -0.2026,0.8164 0.2025,1.6134 0.0911,2.1724 -0.1367,0.6974 0,1.071 0.0506,1.6051 0.0507,0.5342 -0.4405,1.3561 -0.2379,1.8072 0.2076,0.4511 -0.0304,0.7057 -0.0304,1.3366 0,0.6338 2.4354,0.631 2.4354,0.036 0,-0.5978 -0.0354,-1.107 -0.0911,-1.6964 -0.0506,-0.5923 -0.0912,-1.3118 -0.0912,-1.9511 0,-0.5811 0.2988,-1.4501 0.1418,-2.1253 -0.1519,-0.6753 -0.2177,-1.6549 -0.243,-2.0479 -0.0304,-0.4926 0.0405,-1.5415 -0.0962,-1.9926 -0.1722,-0.5756 0.081,-1.5746 0.2886,-1.9399 0.2076,-0.3681 -0.081,-0.6199 -0.0304,-1.4169 0.0304,-0.4733 0.1317,-1.226 0.1317,-1.9317 0,0 0,0 0,0 z m -0.5621,-6.8508 c -0.9063,0 -2.1164,0.1519 -2.2734,1.4886 -0.1519,1.3418 0.8304,2.3848 2.1924,2.3848 1.3671,0 0.9722,-0.7342 4.162,-0.7342 1.1798,0 1.2456,-2.4455 0.0507,-2.4455 -2.8405,0 -2.4507,-0.6937 -4.1317,-0.6937 0,0 0,0 0,0 z m 47.4266,3.8734 c 1.6456,0 2.3089,-0.6228 2.3494,-1.924 0.0405,-1.3519 -0.881,-1.9747 -2.3494,-1.9747 -1.4633,0 -1.3975,0.7341 -3.8532,0.7139 -1.3164,-0.0152 -1.0886,2.4456 -0.0151,2.4456 2.6025,0 2.2227,0.7392 3.8683,0.7392 0,0 0,0 0,0 z m -43.0643,-0.724 c 1.0503,0 2.7632,-0.3292 3.182,-0.3292 0.4187,0 1.8227,0.1874 2.4886,0.1367 0.6625,-0.0556 0.8856,-0.2481 2.0046,-0.2987 1.3971,-0.0658 2.3136,0.1772 2.3788,0.2076 0.1991,0.0861 0.8753,0.3291 1.8159,0.2532 1.2563,-0.1013 1.6339,0.1316 2.1934,0.0304 0.9611,-0.2937 1.0538,-0.0254 1.7849,-0.0709 0.738,-0.0507 1.1946,0.0557 1.7815,-0.076 0.6419,-0.1519 1.1088,0.1671 1.6992,0.1469 0.9371,0 0.8478,-2.4557 -0.0309,-2.4557 -0.5321,0 -1.0092,0.2632 -1.5653,0.2632 -0.5595,0 -1.0469,-0.0506 -1.6064,-0.1519 -0.5595,-0.1063 -1.6992,0.0507 -2.6054,0 -0.9096,-0.0556 -2.4165,-0.1974 -3.4634,-0.1417 -1.0504,0.0455 -1.6992,0.6228 -3.8445,0.243 -0.69,-0.1215 -2.0665,-0.0152 -2.626,-0.0152 -0.9817,0 -2.8731,-0.1823 -3.69,-0.1823 -0.9749,0 -0.9474,2.4406 0.103,2.4406 0,0 0,0 0,0 z m 38.9314,0 c 0.9063,0 1.0704,-2.4456 0,-2.4456 -1.0705,0 -3.0437,0.2278 -3.6217,0.1772 -0.5816,-0.0557 -2.9972,-0.2025 -3.5039,-0.2025 -0.5067,0 -2.3229,0.3595 -3.3755,0.1519 -1.0526,-0.2026 -2.0802,0.2025 -2.801,0.0911 -0.8991,-0.1367 -1.3808,0 -2.0695,0.0506 -0.6887,0.0507 -1.7484,-0.4405 -2.33,-0.2379 -0.5816,0.2076 -0.9099,-0.0304 -1.7234,-0.0304 -0.8171,0 -0.8136,2.4354 -0.0464,2.4354 0.7707,0 1.4273,-0.0354 2.1873,-0.0911 0.7636,-0.0506 1.6913,-0.0912 2.5155,-0.0912 0.7493,0 1.8697,0.2988 2.7404,0.1418 0.8706,-0.1519 2.1337,-0.2177 2.6404,-0.243 0.6351,-0.0304 1.9874,0.0405 2.569,-0.0962 0.7422,-0.1722 2.0303,0.081 2.5013,0.2886 0.4746,0.2076 0.7993,-0.081 1.8269,-0.0304 0.6102,0.0304 1.5807,0.1317 2.4906,0.1317 0,0 0,0 0,0 z" /><path
           id="path388"
           style="fill:#929292;fill-opacity:1;fill-rule:nonzero;stroke:none"
           d="m 516.1582,472.8709 c -0.9063,0 -2.1164,0.1519 -2.2734,1.4886 -0.1519,1.3418 0.8304,2.3848 2.1924,2.3848 1.3671,0 0.9722,-0.7342 4.162,-0.7342 1.1798,0 1.2456,-2.4455 0.0507,-2.4455 -2.8405,0 -2.4507,-0.6937 -4.1317,-0.6937 0,0 0,0 0,0 z m 63.9266,3.8734 c 0.3046,0 0.5756,-0.0213 0.8152,-0.0644 l 1.8799,-1.8799 c -0.1894,-1.0546 -0.7993,-1.5012 -1.8596,-1.5342 -1.0804,-0.0323 -1.6952,0.5497 -1.8985,1.5342 l 1.8782,-1.8782 c -0.2474,-0.0511 -0.5203,-0.0762 -0.8152,-0.0762 -1.4633,0 -1.3975,0.7341 -3.8532,0.7139 -1.3164,-0.0152 -1.0886,2.4456 -0.0151,2.4456 2.6025,0 2.2227,0.7392 3.8683,0.7392 0,0 0,0 0,0 z m -59.7139,-3.1848 c -1.166,0 -1.1913,2.4608 0.1724,2.4608 1.4448,0 4.5929,-0.4406 5.4193,-0.3899 0.8263,0.0506 3.1076,0.5164 3.8325,0.5164 0.7199,0 4.2077,-0.719 5.7083,-0.5164 1.4904,0.2076 1.9163,0.0962 2.9504,0.0962 1.0292,0 2.6666,-0.1469 3.645,-0.2025 0.9835,-0.0507 1.8605,0.5974 3.1431,0.4253 1.2826,-0.1772 1.9771,0.0709 2.8592,0.0709 1.4195,0 1.3384,-2.4406 0.0152,-2.4406 -1.2775,0 -2.1494,-0.162 -3.2343,-0.1113 -1.0798,0.0506 -2.0126,0.3088 -3.0417,0.0506 -1.0291,-0.2532 -3.0214,0.0202 -4.2584,0.1772 -1.237,0.157 -2.6057,0.0861 -3.5791,-0.0203 -1.9568,-0.1974 -6.6461,0.2583 -7.3153,0.0507 -0.6742,-0.2025 -2.8136,-0.005 -3.5791,-0.005 -0.7553,0 -1.1659,-0.162 -2.7375,-0.162 0,0 0,0 0,0 z m 55.5314,2.4608 c 1.2877,0 1.5209,-2.4456 0,-2.4456 -1.5208,0 -4.3243,0.2278 -5.1455,0.1772 -0.8264,-0.0557 -4.2584,-0.2025 -4.9783,-0.2025 -0.7199,0 -3.3002,0.3595 -4.7957,0.1519 -1.4955,-0.2026 -2.9556,0.2025 -3.9796,0.0911 -1.2775,-0.1367 -1.9619,0 -2.9403,0.0506 -0.9784,0.0507 -2.4841,-0.4405 -3.3104,-0.2379 -0.8263,0.2076 -1.2927,-0.0304 -2.4486,-0.0304 -1.1609,0 -1.1558,2.4354 -0.0659,2.4354 1.095,0 2.0278,-0.0354 3.1076,-0.0911 1.0849,-0.0506 2.403,-0.0912 3.574,-0.0912 1.0646,0 2.6564,0.2988 3.8934,0.1418 1.237,-0.1519 3.0316,-0.2177 3.7514,-0.243 0.9024,-0.0304 2.8238,0.0405 3.6501,-0.0962 1.0544,-0.1722 2.8845,0.081 3.5537,0.2886 0.6743,0.2076 1.1356,-0.081 2.5956,-0.0304 0.8669,0.0304 2.2458,0.1317 3.5385,0.1317 0,0 0,0 0,0 z m 3.0686,-1.8785 c 0,0.9063 0.1519,2.1164 1.4886,2.2734 1.3418,0.1519 2.3848,-0.8304 2.3848,-2.1924 0,-1.3671 -0.7342,-0.9722 -0.7342,-4.162 0,-1.1798 -2.4455,-1.2456 -2.4455,-0.0507 0,2.8405 -0.6937,2.4507 -0.6937,4.1317 0,0 0,0 0,0 z m 3.8734,-38.6266 c 0,-0.3046 -0.0213,-0.5756 -0.0644,-0.8152 l -1.8799,1.8799 c 1.0546,-0.1894 1.5012,-0.7993 1.5342,-1.8596 0.0323,-1.0804 -0.5497,-1.6952 -1.5342,-1.8985 l -1.8782,1.8782 c -0.0511,0.2474 -0.0762,0.5203 -0.0762,0.8152 0,1.4633 0.7341,1.3975 0.7139,3.8532 -0.0152,1.3164 2.4456,1.0886 2.4456,0.0151 0,-2.6025 0.7392,-2.2227 0.7392,-3.8683 0,0 0,0 0,0 z m -0.724,34.3013 c 0,-0.8146 -0.3292,-2.1431 -0.3292,-2.4679 0,-0.3248 0.1874,-1.4137 0.1367,-1.9302 -0.0556,-0.5138 -0.2481,-0.6868 -0.2987,-1.5548 -0.0658,-1.0835 0.1772,-1.7943 0.2076,-1.8449 0.0861,-0.1544 0.3291,-0.6789 0.2532,-1.4084 -0.1013,-0.9744 0.1316,-1.2672 0.0304,-1.7012 -0.2937,-0.7454 -0.0254,-0.8173 -0.0709,-1.3843 -0.0507,-0.5724 0.0557,-0.9265 -0.076,-1.3818 -0.1519,-0.4978 0.1671,-0.8599 0.1469,-1.3178 0,-0.7268 -2.4557,-0.6576 -2.4557,0.024 0,0.4126 0.2632,0.7827 0.2632,1.214 0,0.4339 -0.0506,0.812 -0.1519,1.2459 -0.1063,0.434 0.0507,1.3178 0,2.0207 -0.0556,0.7055 -0.1974,1.8742 -0.1417,2.6862 0.0455,0.8147 0.6228,1.3179 0.243,2.9818 -0.1215,0.5351 -0.0152,1.6027 -0.0152,2.0366 0,0.7614 -0.1823,2.2284 -0.1823,2.862 0,0.7561 2.4406,0.7348 2.4406,-0.0799 0,0 0,0 0,0 z m 0,-30.1948 c 0,-0.7029 -2.4456,-0.8302 -2.4456,0 0,0.8302 0.2278,2.3606 0.1772,2.8089 -0.0557,0.4511 -0.2025,2.3247 -0.2025,2.7176 0,0.393 0.3595,1.8016 0.1519,2.618 -0.2026,0.8164 0.2025,1.6134 0.0911,2.1724 -0.1367,0.6974 0,1.071 0.0506,1.6051 0.0507,0.5342 -0.4405,1.3561 -0.2379,1.8072 0.2076,0.4511 -0.0304,0.7057 -0.0304,1.3366 0,0.6338 2.4354,0.631 2.4354,0.036 0,-0.5978 -0.0354,-1.107 -0.0911,-1.6964 -0.0506,-0.5923 -0.0912,-1.3118 -0.0912,-1.9511 0,-0.5811 0.2988,-1.4501 0.1418,-2.1253 -0.1519,-0.6753 -0.2177,-1.6549 -0.243,-2.0479 -0.0304,-0.4926 0.0405,-1.5415 -0.0962,-1.9926 -0.1722,-0.5756 0.081,-1.5746 0.2886,-1.9399 0.2076,-0.3681 -0.081,-0.6199 -0.0304,-1.4169 0.0304,-0.4733 0.1317,-1.226 0.1317,-1.9317 0,0 0,0 0,0 z m -0.5621,-6.8508 c -0.9063,0 -2.1164,0.1519 -2.2734,1.4886 -0.1519,1.3418 0.8304,2.3848 2.1924,2.3848 1.3671,0 0.9722,-0.7342 4.162,-0.7342 1.1798,0 1.2456,-2.4455 0.0507,-2.4455 -2.8405,0 -2.4507,-0.6937 -4.1317,-0.6937 0,0 0,0 0,0 z m 56.3266,3.8734 c 1.6456,0 2.3089,-0.6228 2.3494,-1.924 0.0405,-1.3519 -0.881,-1.9747 -2.3494,-1.9747 -1.4633,0 -1.3975,0.7341 -3.8532,0.7139 -1.3164,-0.0152 -1.0886,2.4456 -0.0151,2.4456 2.6025,0 2.2227,0.7392 3.8683,0.7392 0,0 0,0 0,0 z m -51.9269,-0.724 c 1.2887,0 3.3903,-0.3292 3.9042,-0.3292 0.5138,0 2.2363,0.1874 3.0534,0.1367 0.8129,-0.0556 1.0866,-0.2481 2.4596,-0.2987 1.7142,-0.0658 2.8387,0.1772 2.9187,0.2076 0.2443,0.0861 1.074,0.3291 2.228,0.2532 1.5414,-0.1013 2.0047,0.1316 2.6912,0.0304 1.1793,-0.2937 1.293,-0.0254 2.1901,-0.0709 0.9055,-0.0507 1.4656,0.0557 2.1858,-0.076 0.7876,-0.1519 1.3604,0.1671 2.0848,0.1469 1.1498,0 1.0403,-2.4557 -0.0379,-2.4557 -0.6528,0 -1.2383,0.2632 -1.9205,0.2632 -0.6865,0 -1.2846,-0.0506 -1.9711,-0.1519 -0.6865,-0.1063 -2.0848,0.0507 -3.1966,0 -1.1161,-0.0556 -2.965,-0.1974 -4.2496,-0.1417 -1.2888,0.0455 -2.0848,0.6228 -4.7171,0.243 -0.8465,-0.1215 -2.5354,-0.0152 -3.2219,-0.0152 -1.2045,0 -3.5251,-0.1823 -4.5275,-0.1823 -1.1961,0 -1.1624,2.4406 0.1264,2.4406 0,0 0,0 0,0 z m 47.7672,0 c 1.1121,0 1.3134,-2.4456 0,-2.4456 -1.3133,0 -3.7344,0.2278 -4.4436,0.1772 -0.7136,-0.0557 -3.6775,-0.2025 -4.2992,-0.2025 -0.6216,0 -2.85,0.3595 -4.1415,0.1519 -1.2915,-0.2026 -2.5524,0.2025 -3.4367,0.0911 -1.1033,-0.1367 -1.6943,0 -2.5393,0.0506 -0.8449,0.0507 -2.1452,-0.4405 -2.8588,-0.2379 -0.7136,0.2076 -1.1164,-0.0304 -2.1145,-0.0304 -1.0026,0 -0.9982,2.4354 -0.057,2.4354 0.9457,0 1.7512,-0.0354 2.6837,-0.0911 0.9369,-0.0506 2.0752,-0.0912 3.0865,-0.0912 0.9194,0 2.2941,0.2988 3.3623,0.1418 1.0682,-0.1519 2.618,-0.2177 3.2397,-0.243 0.7793,-0.0304 2.4385,0.0405 3.1521,-0.0962 0.9107,-0.1722 2.4911,0.081 3.069,0.2886 0.5823,0.2076 0.9807,-0.081 2.2415,-0.0304 0.7487,0.0304 1.9395,0.1317 3.0558,0.1317 0,0 0,0 0,0 z" /><g
           transform="translate(170,404)"
           id="g390"><text
             id="text394"
             style="font-variant:normal;font-size:9px;font-family:HiraKakuProN;-inkscape-font-specification:HiraKakuProN-W6;writing-mode:lr-tb;fill:#000000;fill-opacity:1;fill-rule:nonzero;stroke:none"
             transform="scale(1,-1)"><tspan
               id="tspan392"
               y="0"
               x="0 6.0570002 12.087 18.143999 23.768999 29.502001 31.931999 34.929001 41.337002 47.744999 54.153 60.561001">nonce: 18882</tspan></text>
</g><g
           transform="translate(414,404)"
           id="g396"><text
             id="text400"
             style="font-variant:normal;font-size:9px;font-family:HiraKakuProN;-inkscape-font-specification:HiraKakuProN-W6;writing-mode:lr-tb;fill:#000000;fill-opacity:1;fill-rule:nonzero;stroke:none"
             transform="scale(1,-1)"><tspan
               id="tspan398"
               y="0"
               x="0 6.0570002 12.087 18.143999 23.768999 29.502001 31.931999 34.929001 41.337002 47.744999 54.153 60.561001">nonce: 31308</tspan></text>
</g><g
           transform="translate(672,404)"
           id="g402"><text
             id="text406"
             style="font-variant:normal;font-size:9px;font-family:HiraKakuProN;-inkscape-font-specification:HiraKakuProN-W6;writing-mode:lr-tb;fill:#000000;fill-opacity:1;fill-rule:nonzero;stroke:none"
             transform="scale(1,-1)"><tspan
               id="tspan404"
               y="0"
               x="0 6.0570002 12.087 18.143999 23.768999 29.502001 31.931999 34.929001 41.337002 47.744999 54.153 60.561001">nonce: 10104</tspan></text>
</g></g></g></g></svg>