<?xml version="1.0" encoding="UTF-8" standalone="no"?>
<svg
   xmlns:dc="http://purl.org/dc/elements/1.1/"
   xmlns:cc="http://creativecommons.org/ns#"
   xmlns:rdf="http://www.w3.org/1999/02/22-rdf-syntax-ns#"
   xmlns:svg="http://www.w3.org/2000/svg"
   xmlns="http://www.w3.org/2000/svg"
   viewBox="0 0 1148.4991 491.61639"
   height="491.61639"
   width="1148.4991"
   xml:space="preserve"
   id="svg2"
   version="1.1"><metadata
     id="metadata8"><rdf:RDF><cc:Work
         rdf:about=""><dc:format>image/svg+xml</dc:format><dc:type
           rdf:resource="http://purl.org/dc/dcmitype/StillImage" /></cc:Work></rdf:RDF></metadata><defs
     id="defs6"><clipPath
       id="clipPath14"
       clipPathUnits="userSpaceOnUse"><path
         id="path12"
         d="M 0,0 H 1024 V 768 H 0 Z" /></clipPath><clipPath
       id="clipPath24"
       clipPathUnits="userSpaceOnUse"><path
         id="path22"
         d="M 0,0 H 1024 V 768 H 0 Z" /></clipPath><clipPath
       id="clipPath70"
       clipPathUnits="userSpaceOnUse"><path
         id="path68"
         d="m 237.1002,379.6593 h 69.51367 v 45.38867 H 237.1002 Z" /></clipPath><clipPath
       id="clipPath96"
       clipPathUnits="userSpaceOnUse"><path
         id="path94"
         d="M 0,0 H 1024 V 768 H 0 Z" /></clipPath><clipPath
       id="clipPath134"
       clipPathUnits="userSpaceOnUse"><path
         id="path132"
         d="m 120.4509,379.6593 h 69.51367 v 45.38867 H 120.4509 Z" /></clipPath><clipPath
       id="clipPath160"
       clipPathUnits="userSpaceOnUse"><path
         id="path158"
         d="M 0,0 H 1024 V 768 H 0 Z" /></clipPath><clipPath
       id="clipPath256"
       clipPathUnits="userSpaceOnUse"><path
         id="path254"
         d="m 535.1002,380.6146 h 69.51367 v 45.38867 H 535.1002 Z" /></clipPath><clipPath
       id="clipPath282"
       clipPathUnits="userSpaceOnUse"><path
         id="path280"
         d="M 0,0 H 1024 V 768 H 0 Z" /></clipPath><clipPath
       id="clipPath320"
       clipPathUnits="userSpaceOnUse"><path
         id="path318"
         d="m 418.4509,380.6146 h 69.51367 v 45.38867 H 418.4509 Z" /></clipPath><clipPath
       id="clipPath346"
       clipPathUnits="userSpaceOnUse"><path
         id="path344"
         d="M 0,0 H 1024 V 768 H 0 Z" /></clipPath><clipPath
       id="clipPath430"
       clipPathUnits="userSpaceOnUse"><path
         id="path428"
         d="m 823.1002,378.6146 h 70.67184 v 45.38867 H 823.1002 Z" /></clipPath><clipPath
       id="clipPath456"
       clipPathUnits="userSpaceOnUse"><path
         id="path454"
         d="M 0,0 H 1024 V 768 H 0 Z" /></clipPath><clipPath
       id="clipPath494"
       clipPathUnits="userSpaceOnUse"><path
         id="path492"
         d="m 706.4509,378.6146 h 69.51367 v 45.38867 H 706.4509 Z" /></clipPath><clipPath
       id="clipPath520"
       clipPathUnits="userSpaceOnUse"><path
         id="path518"
         d="M 0,0 H 1024 V 768 H 0 Z" /></clipPath></defs><g
     clip-path="url(#clipPath14)"
     transform="matrix(1.3333333,0,0,-1.3333333,-95.351853,770.90813)"
     id="g10"><g
       id="g16" /><g
       id="g18"><g
         clip-path="url(#clipPath24)"
         id="g20"><path
           id="path26"
           style="fill:#ffffff;fill-opacity:1;fill-rule:nonzero;stroke:none"
           d="M 0,0 H 1024 V 768 H 0 Z" /><path
           id="path28"
           style="fill:#f4f4f4;fill-opacity:1;fill-rule:nonzero;stroke:none"
           d="M 58.1198,587.2632 H 965.8802 V 201.715 H 58.1198 Z" /><g
           transform="translate(394,285)"
           id="g30"><text
             id="text34"
             style="font-variant:normal;font-size:10px;font-family:HiraKakuProN;-inkscape-font-specification:HiraKakuProN-W3;writing-mode:lr-tb;fill:#000000;fill-opacity:1;fill-rule:nonzero;stroke:none"
             transform="scale(1,-1)"><tspan
               id="tspan32"
               y="0"
               x="0 5.3699999 7.75 14.16">sign</tspan></text>
</g><path
           id="path36"
           style="fill:#ffffff;fill-opacity:1;fill-rule:nonzero;stroke:none"
           d="m 140.2198,541.4616 h 147.1488 c 7.6079,0 11.4708,0 15.5741,-1.3004 4.4903,-1.6343 8.0275,-5.1715 9.6618,-9.6618 1.3004,-4.1033 1.3004,-7.9662 1.3004,-15.6921 V 323.0747 c 0,-7.6079 0,-11.4708 -1.3004,-15.5741 -1.6343,-4.4903 -5.1715,-8.0275 -9.6618,-9.6618 -4.1033,-1.3004 -7.9662,-1.3004 -15.6921,-1.3004 H 140.2198 c -7.6079,0 -11.4708,0 -15.5741,1.3004 -4.4903,1.6343 -8.0274,5.1715 -9.6618,9.6618 -1.3004,4.1033 -1.3004,7.9662 -1.3004,15.6921 v 191.7326 c 0,7.6079 0,11.4708 1.3004,15.5741 1.6344,4.4903 5.1715,8.0275 9.6618,9.6618 4.1033,1.3004 7.9662,1.3004 15.6921,1.3004 z" /><g
           transform="matrix(1,0,0,-1,113.6835,541.4616)"
           id="g38"><path
             id="path40"
             style="fill:none;stroke:#000000;stroke-width:1.10000002;stroke-linecap:butt;stroke-linejoin:miter;stroke-miterlimit:4;stroke-dasharray:none;stroke-opacity:1"
             d="M 26.53629,0 H 173.685 c 7.6079,0 11.4709,0 15.5741,1.300396 4.4903,1.63433 8.0275,5.171499 9.6618,9.661784 1.3004,4.10328 1.3004,7.96621 1.3004,15.69209 V 218.3869 c 0,7.6079 0,11.4708 -1.3004,15.5741 -1.6343,4.4903 -5.1715,8.0275 -9.6618,9.6618 -4.1032,1.3004 -7.9662,1.3004 -15.692,1.3004 H 26.53629 c -7.6079,0 -11.47083,0 -15.57411,-1.3004 C 6.471895,241.9885 2.934726,238.4513 1.300396,233.961 0,229.8577 0,225.9948 0,218.2689 V 26.53629 C 0,18.92839 0,15.06546 1.300396,10.96218 2.934726,6.471895 6.471895,2.934726 10.96218,1.300396 15.06546,0 18.92839,0 26.65427,0 Z" /></g><g
           transform="matrix(1,0,0,-1,114.6171,507.5561)"
           id="g42"><path
             id="path44"
             style="fill:none;stroke:#000000;stroke-width:1;stroke-linecap:butt;stroke-linejoin:miter;stroke-miterlimit:4;stroke-dasharray:none;stroke-opacity:1"
             d="M 0,0 H 198.3542" /></g><g
           transform="translate(147,520)"
           id="g46"><text
             id="text50"
             style="font-variant:normal;font-size:10px;font-family:HiraKakuProN;-inkscape-font-specification:HiraKakuProN-W3;writing-mode:lr-tb;fill:#000000;fill-opacity:1;fill-rule:nonzero;stroke:none"
             transform="scale(1,-1)"><tspan
               id="tspan48"
               y="0"
               x="0 3.9200001 9.2799997 11.66 18.120001 20.52">txid: </tspan></text>
</g><g
           transform="translate(147,520)"
           id="g52"><text
             id="text56"
             style="font-variant:normal;font-size:10px;font-family:HiraKakuProN;-inkscape-font-specification:HiraKakuProN-W6;writing-mode:lr-tb;fill:#000000;fill-opacity:1;fill-rule:nonzero;stroke:none"
             transform="matrix(1,0,0,-1,23.85,0)"><tspan
               id="tspan54"
               y="0"
               x="0 7.1199999 14.24 21.360001 28.48 34.849998 41.970001 49.09 55.34 61.59 67.93 75.050003 82.169998 89.290001 96.410004 103.53">2775e37cca287977</tspan></text>
</g><path
           id="path58"
           style="fill:#ffffff;fill-opacity:1;fill-rule:nonzero;stroke:none"
           d="m 236.1002,426.048 h 71.5137 v -47.3887 h -71.5137 z" /><g
           transform="matrix(1,0,0,-1,236.1002,426.048)"
           id="g60"><path
             id="path62"
             style="fill:none;stroke:#000000;stroke-width:1;stroke-linecap:butt;stroke-linejoin:miter;stroke-miterlimit:4;stroke-dasharray:none;stroke-opacity:1"
             d="M 0,0 H 71.51367 V 47.38867 H 0 Z" /></g></g></g><g
       id="g64"><g
         clip-path="url(#clipPath70)"
         id="g66"><g
           transform="translate(260,406)"
           id="g72"><text
             id="text76"
             style="font-variant:normal;font-size:10px;font-family:HiraKakuProN;-inkscape-font-specification:HiraKakuProN-W3;writing-mode:lr-tb;fill:#ee220c;fill-opacity:1;fill-rule:nonzero;stroke:none"
             transform="scale(1,-1)"><tspan
               id="tspan74"
               y="0"
               x="0 7.5 9.8199997 12.2 17.98 23.860001">Alice </tspan></text>
</g><g
           transform="translate(241,391)"
           id="g78"><text
             id="text82"
             style="font-variant:normal;font-size:10px;font-family:HiraKakuProN;-inkscape-font-specification:HiraKakuProN-W6;writing-mode:lr-tb;fill:#000000;fill-opacity:1;fill-rule:nonzero;stroke:none"
             transform="scale(1,-1)"><tspan
               id="tspan80"
               y="0"
               x="0 7.1199999 9.8199997 16.940001 24.059999 31.18">0.095 </tspan></text>
</g><g
           transform="translate(241,391)"
           id="g84"><text
             id="text88"
             style="font-variant:normal;font-size:8px;font-family:HiraKakuProN;-inkscape-font-specification:HiraKakuProN-W3;writing-mode:lr-tb;fill:#000000;fill-opacity:1;fill-rule:nonzero;stroke:none"
             transform="matrix(1,0,0,-1,34.51,0)"><tspan
               id="tspan86"
               y="0"
               x="0 5.1680002 7.072 10.208 14.832 19.832001 21.736">bitcoin</tspan></text>
</g></g></g><g
       id="g90"><g
         clip-path="url(#clipPath96)"
         id="g92"><path
           id="path98"
           style="fill:#ffffff;fill-opacity:1;fill-rule:nonzero;stroke:none"
           d="m 188.2945,467.8102 c 0,7.0414 5.7087,12.75 12.75,12.75 4.8307,0 9.0308,-2.6853 11.1939,-6.6459 h 3.8069 v -1.9127 h 28.2927 l 3.2373,-4.196 -3.2373,-2.6028 -1.9451,-1.5978 -1.6997,1.5978 -1.3848,-0.005 -2.3666,-1.6349 -2.2925,1.6303 h -1.533 l -2.3573,-1.6303 -2.3017,1.6349 h -1.5145 l -2.3666,-1.6349 -2.3064,1.6395 h -1.357 l -0.3612,-0.0648 -2.9872,-1.7738 h -1.5191 v -1.658 h -3.8069 c -2.1631,-3.9603 -6.3634,-6.646 -11.1939,-6.646 -7.0413,3e-4 -12.75,5.7087 -12.75,12.75 z m 3.2466,0 c 0,-1.6069 1.3016,-2.9084 2.9084,-2.9084 1.607,0 2.9085,1.3016 2.9085,2.9084 0,1.6068 -1.3016,2.9085 -2.9085,2.9085 -1.6068,0 -2.9084,-1.3017 -2.9084,-2.9085 z" /><g
           transform="rotate(-90,334.42735,146.13285)"
           id="g100"><path
             id="path102"
             style="fill:none;stroke:#000000;stroke-width:1;stroke-linecap:butt;stroke-linejoin:miter;stroke-miterlimit:4;stroke-dasharray:none;stroke-opacity:1"
             d="M 12.75,0 C 5.708628,0 4.522764e-6,5.708629 0,12.74999 c 0,4.83065 2.685377,9.03073 6.64593,11.19388 v 3.80694 h 1.912731 v 28.29266 l 4.195969,3.23729 2.60279,-3.23729 1.59781,-1.94515 -1.59781,-1.69969 0.0046,-1.38476 1.63485,-2.3666 -1.63022,-2.2925 v -1.53296 l 1.63022,-2.35733 -1.63485,-2.30177 v -1.51443 l 1.63485,-2.3666 -1.63949,-2.30639 v -1.35698 l 0.06484,-0.36124 1.77379,-2.9872 v -1.51906 h 1.65801 V 23.94387 C 22.81431,21.78072 25.5,17.58049 25.49999,12.74999 25.4997,5.708627 19.79137,-4.522763e-6 12.75,0 Z m 0,3.246548 c 1.60695,0 2.90846,1.30166 2.90846,2.908462 0,1.606954 -1.30166,2.908462 -2.90846,2.908462 -1.60681,0 -2.908461,-1.301655 -2.908466,-2.908462 0,-1.606804 1.301656,-2.908464 2.908466,-2.908462 z" /></g><g
           transform="translate(174,487)"
           id="g104"><text
             id="text108"
             style="font-variant:normal;font-size:10px;font-family:HiraKakuProN;-inkscape-font-specification:HiraKakuProN-W3;writing-mode:lr-tb;fill:#ee220c;fill-opacity:1;fill-rule:nonzero;stroke:none"
             transform="scale(1,-1)"><tspan
               id="tspan106"
               y="0"
               x="0 7.5 9.8199997 12.2 17.98 23.860001 25.809999 31.18 34.509998 40.98 47.16 53.619999 55.939999 58.32 64.099998 67.43 73.18 79.059998">Alice's public key</tspan></text>
</g><g
           transform="translate(255,435)"
           id="g110"><text
             id="text114"
             style="font-variant:normal;font-size:10px;font-family:HiraKakuProN;-inkscape-font-specification:HiraKakuProN-W3;writing-mode:lr-tb;fill:#000000;fill-opacity:1;fill-rule:nonzero;stroke:none"
             transform="scale(1,-1)"><tspan
               id="tspan112"
               y="0"
               x="0 7.9499998 14.13 18.049999 24.52 30.700001">Output</tspan></text>
</g><g
           transform="matrix(1,0,0,-1,196.6742,402.3537)"
           id="g116"><path
             id="path118"
             style="fill:none;stroke:#000000;stroke-width:2;stroke-linecap:butt;stroke-linejoin:miter;stroke-miterlimit:4;stroke-dasharray:none;stroke-opacity:1"
             d="m 0,0 h 24.64 1" /></g><path
           id="path120"
           style="fill:#000000;fill-opacity:1;fill-rule:nonzero;stroke:none"
           d="m 221.3142,397.5537 9.6,4.8 -9.6,4.8 z" /><path
           id="path122"
           style="fill:#ffffff;fill-opacity:1;fill-rule:nonzero;stroke:none"
           d="m 119.4509,426.048 h 71.5137 v -47.3887 h -71.5137 z" /><g
           transform="matrix(1,0,0,-1,119.4509,426.048)"
           id="g124"><path
             id="path126"
             style="fill:none;stroke:#000000;stroke-width:1;stroke-linecap:butt;stroke-linejoin:miter;stroke-miterlimit:4;stroke-dasharray:none;stroke-opacity:1"
             d="M 0,0 H 71.51367 V 47.38867 H 0 Z" /></g></g></g><g
       id="g128"><g
         clip-path="url(#clipPath134)"
         id="g130"><g
           transform="translate(143,406)"
           id="g136"><text
             id="text140"
             style="font-variant:normal;font-size:10px;font-family:HiraKakuProN;-inkscape-font-specification:HiraKakuProN-W3;writing-mode:lr-tb;fill:#000000;fill-opacity:1;fill-rule:nonzero;stroke:none"
             transform="scale(1,-1)"><tspan
               id="tspan138"
               y="0"
               x="0 6.6900001 12.44 18.219999 23.969999">Zack </tspan></text>
</g><g
           transform="translate(132,391)"
           id="g142"><text
             id="text146"
             style="font-variant:normal;font-size:10px;font-family:HiraKakuProN;-inkscape-font-specification:HiraKakuProN-W6;writing-mode:lr-tb;fill:#000000;fill-opacity:1;fill-rule:nonzero;stroke:none"
             transform="scale(1,-1)"><tspan
               id="tspan144"
               y="0"
               x="0 7.1199999 9.8199997 16.940001">0.1 </tspan></text>
</g><g
           transform="translate(132,391)"
           id="g148"><text
             id="text152"
             style="font-variant:normal;font-size:8px;font-family:HiraKakuProN;-inkscape-font-specification:HiraKakuProN-W3;writing-mode:lr-tb;fill:#000000;fill-opacity:1;fill-rule:nonzero;stroke:none"
             transform="matrix(1,0,0,-1,20.27,0)"><tspan
               id="tspan150"
               y="0"
               x="0 5.1680002 7.072 10.208 14.832 19.832001 21.736">bitcoin</tspan></text>
</g></g></g><g
       id="g154"><g
         clip-path="url(#clipPath160)"
         id="g156"><g
           transform="translate(143,435)"
           id="g162"><text
             id="text166"
             style="font-variant:normal;font-size:10px;font-family:HiraKakuProN;-inkscape-font-specification:HiraKakuProN-W3;writing-mode:lr-tb;fill:#000000;fill-opacity:1;fill-rule:nonzero;stroke:none"
             transform="scale(1,-1)"><tspan
               id="tspan164"
               y="0"
               x="0 2.49 8.6700001 15.14 21.32">Input</tspan></text>
</g><g
           transform="translate(138,367)"
           id="g168"><text
             id="text172"
             style="font-variant:normal;font-size:7px;font-family:HiraKakuProN;-inkscape-font-specification:HiraKakuProN-W3;writing-mode:lr-tb;fill:#000000;fill-opacity:1;fill-rule:nonzero;stroke:none"
             transform="scale(1,-1)"><tspan
               id="tspan170"
               y="0"
               x="0 4.6339998 7.6440001 11.76 15.568 17.233999 21.608999 25.934999 29.694 32.025002 34.769001 38.521 40.187 44.709 46.389 48.720001">Previous txid:  </tspan></text>
</g><g
           transform="translate(126,356)"
           id="g174"><text
             id="text178"
             style="font-variant:normal;font-size:7px;font-family:HiraKakuProN;-inkscape-font-specification:HiraKakuProN-W3;writing-mode:lr-tb;fill:#000000;fill-opacity:1;fill-rule:nonzero;stroke:none"
             transform="scale(1,-1)"><tspan
               id="tspan176"
               y="0"
               x="0 4.5219998 9.1210003 13.72 18.242001 22.841 27.440001 31.465 35.490002 40.089001 44.134998 48.657001 53.256001 57.280998 61.880001 66.507004">d53d10aa9cb7a748</tspan></text>
</g><g
           transform="translate(176,329)"
           id="g180"><text
             id="text184"
             style="font-variant:normal;font-size:10px;font-family:HiraKakuProN;-inkscape-font-specification:HiraKakuProN-W3;writing-mode:lr-tb;fill:#000000;fill-opacity:1;fill-rule:nonzero;stroke:none"
             transform="scale(1,-1)"><tspan
               id="tspan182"
               y="0"
               x="0 6.6900001 12.44 18.219999 23.969999 26.370001 31.74 35.07 40.439999 42.82 49.23 55.41 61.16 65.080002 71.260002 75.559998">Zackʼs signature</tspan></text>
</g><g
           transform="translate(202,310)"
           id="g186"><text
             id="text190"
             style="font-style:italic;font-variant:normal;font-weight:normal;font-size:10px;font-family:Zapfino;-inkscape-font-specification:Zapfino;writing-mode:lr-tb;fill:#000000;fill-opacity:1;fill-rule:nonzero;stroke:none"
             transform="scale(1,-1)"><tspan
               id="tspan188"
               y="0"
               x="0 9.875 17 22.35">Zack</tspan></text>
</g><g
           transform="translate(174,271)"
           id="g192"><text
             id="text196"
             style="font-variant:normal;font-size:10px;font-family:HiraKakuProN;-inkscape-font-specification:HiraKakuProN-W3;writing-mode:lr-tb;fill:#ee220c;fill-opacity:1;fill-rule:nonzero;stroke:none"
             transform="scale(1,-1)"><tspan
               id="tspan194"
               y="0"
               x="0 7.5 9.8199997 12.2 17.98 23.860001 25.809999 31.18 34.509998 39.880001 45.759998 51.540001 55.84 61.720001 65.639999 68.970001 74.720001 80.599998">Alice's secret key</tspan></text>
</g><path
           id="path198"
           style="fill:#ffffff;fill-opacity:1;fill-rule:nonzero;stroke:none"
           d="m 192.8982,257.4081 c 0,0.6315 0.5112,1.1427 1.1427,1.1427 h 3.2643 v 3.6072 c 0,0.8558 0.6945,1.5501 1.5502,1.5502 h 15.4421 c 0.8559,0 1.5502,-0.6945 1.5502,-1.5502 v -3.6072 h 3.001 v -2.7426 h 3.8207 v -1.7489 h 30.3526 v -0.005 l 3.473,-4.5014 -3.473,-2.7923 -2.0867,-1.7092 -1.8235,1.7092 h -1.4855 l -2.539,-1.7589 -2.4594,1.7489 h -1.6445 l -2.529,-1.7489 -2.4644,1.7539 h -1.6346 l -2.534,-1.7539 -2.4693,1.7539 -1.744,0.005 -3.309,-1.9675 h -1.6297 v -1.6844 h -3.8207 v -2.5538 h -3.001 v -3.6071 c 0,-0.8559 -0.6945,-1.5502 -1.5502,-1.5502 h -15.4421 c -0.8559,0 -1.5502,0.6943 -1.5502,1.5502 v 3.6071 h -3.2643 c -0.6315,0 -1.1427,0.5113 -1.1427,1.1428 z m 2.4594,-4.9288 v -5.8529 h 1.9476 v 5.8529 z" /><g
           transform="rotate(-90,228.3032,35.405)"
           id="g200"><path
             id="path202"
             style="fill:none;stroke:#000000;stroke-width:1;stroke-linecap:butt;stroke-linejoin:miter;stroke-miterlimit:4;stroke-dasharray:none;stroke-opacity:1"
             d="M 6.300065,0 C 5.668551,0 5.157304,0.511243 5.157309,1.142756 V 4.407065 H 1.550174 C 0.6943196,4.407065 4.852056e-6,5.10154 0,5.957239 V 21.39936 c 0,0.85585 0.6944748,1.55017 1.550174,1.55017 h 3.607135 v 3.00098 h 2.742615 v 3.82078 h 1.748914 v 30.3526 h 0.00497 l 4.501463,3.47299 2.7923,-3.47299 1.70917,-2.08677 -1.70917,-1.82344 V 54.7281 l 1.75885,-2.53891 -1.74891,-2.45941 V 48.0852 l 1.74891,-2.52897 -1.75388,-2.46437 v -1.63464 l 1.75388,-2.53394 -1.75388,-2.46935 -0.005,-1.74395 1.96753,-3.30902 v -1.62967 h 1.68433 v -3.82078 h 2.55381 v -3.00098 h 3.60713 c 0.85586,0 1.55018,-0.69448 1.55018,-1.55017 V 5.957239 c 0,-0.855854 -0.69434,-1.550172 -1.55018,-1.550174 h -3.60713 V 1.142756 C 23.15324,0.5112394 22.642,-1.213014e-6 22.01048,0 Z m 4.928755,2.459411 h 5.8529 v 1.947654 h -5.8529 z" /></g><path
           id="path204"
           style="fill:#ffffff;fill-opacity:1;fill-rule:nonzero;stroke:none"
           d="m 240.2224,438.9307 c -4.0948,0 -7.4247,-3.3275 -7.4247,-7.4224 v -6.1311 c -1.4863,-1.7241 -2.3851,-3.962 -2.3851,-6.4144 0,-5.4177 4.3921,-9.8098 9.8098,-9.8098 5.4177,0 9.8098,4.3921 9.8098,9.8098 0,2.4524 -0.8988,4.6903 -2.3851,6.4144 v 6.1311 c 0,4.0949 -3.3299,7.4224 -7.4247,7.4224 z m 0,-3.7228 c 2.0437,0 3.7089,-1.6652 3.7089,-3.7089 v -3.4557 c -1.1445,0.4682 -2.3935,0.7292 -3.7089,0.7292 -1.3154,0 -2.5644,-0.261 -3.7089,-0.7292 v 3.4557 c 0,2.0437 1.6652,3.7089 3.7089,3.7089 z m 0,-11.043 c 2.876,0 5.2022,-2.3261 5.2022,-5.2021 0,-2.8761 -2.3262,-5.2022 -5.2022,-5.2022 -2.8761,0 -5.2022,2.3261 -5.2022,5.2022 0,2.876 2.3261,5.2021 5.2022,5.2021 z m 0,-0.8616 c -1.1107,0 -2.2204,-0.4252 -3.0679,-1.2727 -1.6949,-1.6949 -1.6949,-4.4408 0,-6.1357 1.6949,-1.6949 4.4409,-1.6949 6.1358,0 1.6949,1.6949 1.6949,4.4408 0,6.1357 -0.8475,0.8475 -1.9572,1.2727 -3.0679,1.2727 z" /><g
           transform="matrix(1,0,0,-1,230.4126,438.9307)"
           id="g206"><path
             id="path208"
             style="fill:none;stroke:#000000;stroke-width:2;stroke-linecap:butt;stroke-linejoin:miter;stroke-miterlimit:4;stroke-dasharray:none;stroke-opacity:1"
             d="M 9.809788,0 C 5.714944,0 2.3851,3.327527 2.385098,7.422369 V 13.55349 C 0.8987661,15.27763 2.267962e-6,17.51549 0,19.96794 c 0,5.41768 4.39211,9.80979 9.809788,9.80979 5.417682,0 9.809792,-4.39211 9.809792,-9.80979 0,-2.45245 -0.89877,-4.69031 -2.3851,-6.41445 V 7.422369 C 17.23448,3.327525 13.90463,1.700972e-6 9.809788,0 Z m 0,3.722796 c 2.043702,0 3.708862,1.665154 3.708862,3.708862 v 3.455722 c -1.14448,-0.4682 -2.39346,-0.72923 -3.708862,-0.72923 -1.315404,0 -2.56438,0.26104 -3.708862,0.72923 V 7.431658 c 0,-2.043706 1.665161,-3.708861 3.708862,-3.708862 z m 0,11.042984 c 2.876052,0 5.202152,2.32611 5.202162,5.20216 0,2.87605 -2.32611,5.20215 -5.202162,5.20216 -2.876052,0 -5.202156,-2.32611 -5.20216,-5.20216 0,-2.87606 2.32611,-5.20216 5.20216,-5.20216 z m 0,0.8616 c -1.110725,0 -2.220428,0.42522 -3.067881,1.27268 -1.694907,1.69491 -1.694914,4.44085 0,6.13576 1.694914,1.69491 4.440853,1.69491 6.135763,0 1.69491,-1.69492 1.69491,-4.44086 0,-6.13576 -0.84746,-0.84746 -1.95715,-1.27268 -3.067882,-1.27268 z" /></g><g
           transform="matrix(1,0,0,-1,219.8125,464.123)"
           id="g210"><path
             id="path212"
             style="fill:none;stroke:#000000;stroke-width:1;stroke-linecap:butt;stroke-linejoin:miter;stroke-miterlimit:4;stroke-dasharray:1, 1;stroke-dashoffset:0;stroke-opacity:1"
             d="M 11.39275,22.37296 11.16588,21.9274 0,0" /></g><path
           id="path214"
           style="fill:#000000;fill-opacity:1;fill-rule:nonzero;stroke:none"
           d="m 228.305,440.8343 5.3959,-3.9855 -0.0491,6.708 z" /><g
           transform="translate(206,441)"
           id="g216"><text
             id="text220"
             style="font-variant:normal;font-size:10px;font-family:HiraKakuProN;-inkscape-font-specification:HiraKakuProN-W3;writing-mode:lr-tb;fill:#000000;fill-opacity:1;fill-rule:nonzero;stroke:none"
             transform="scale(1,-1)"><tspan
               id="tspan218"
               y="0"
               x="0 2.3199999 8.5699997 14.35">lock</tspan></text>
</g><path
           id="path222"
           style="fill:#ffffff;fill-opacity:1;fill-rule:nonzero;stroke:none"
           d="m 438.2198,542.4169 h 147.1488 c 7.6079,0 11.4708,0 15.5741,-1.3004 4.4903,-1.6344 8.0274,-5.1715 9.6618,-9.6618 1.3004,-4.1033 1.3004,-7.9662 1.3004,-15.6921 V 324.03 c 0,-7.6079 0,-11.4709 -1.3004,-15.5741 -1.6344,-4.4903 -5.1715,-8.0275 -9.6618,-9.6618 -4.1033,-1.3004 -7.9662,-1.3004 -15.6921,-1.3004 H 438.2198 c -7.6079,0 -11.4708,0 -15.5741,1.3004 -4.4903,1.6343 -8.0274,5.1715 -9.6618,9.6618 -1.3004,4.1032 -1.3004,7.9662 -1.3004,15.6921 v 191.7326 c 0,7.6079 0,11.4708 1.3004,15.5741 1.6344,4.4903 5.1715,8.0274 9.6618,9.6618 4.1033,1.3004 7.9662,1.3004 15.6921,1.3004 z" /><g
           transform="matrix(1,0,0,-1,411.6835,542.4169)"
           id="g224"><path
             id="path226"
             style="fill:none;stroke:#000000;stroke-width:1.10000002;stroke-linecap:butt;stroke-linejoin:miter;stroke-miterlimit:4;stroke-dasharray:none;stroke-opacity:1"
             d="M 26.53629,0 H 173.685 c 7.6079,0 11.4709,0 15.5741,1.300396 4.4903,1.63433 8.0275,5.171499 9.6618,9.661784 1.3004,4.10328 1.3004,7.96621 1.3004,15.69209 V 218.3869 c 0,7.6079 0,11.4708 -1.3004,15.5741 -1.6343,4.4903 -5.1715,8.0275 -9.6618,9.6618 -4.1032,1.3004 -7.9662,1.3004 -15.692,1.3004 H 26.53629 c -7.6079,0 -11.47083,0 -15.57411,-1.3004 C 6.471895,241.9885 2.934726,238.4513 1.300396,233.961 0,229.8577 0,225.9948 0,218.2689 V 26.53629 C 0,18.92839 0,15.06546 1.300396,10.96218 2.934726,6.471895 6.471895,2.934726 10.96218,1.300396 15.06546,0 18.92839,0 26.65427,0 Z" /></g><g
           transform="matrix(1,0,0,-1,412.6171,508.5114)"
           id="g228"><path
             id="path230"
             style="fill:none;stroke:#000000;stroke-width:1;stroke-linecap:butt;stroke-linejoin:miter;stroke-miterlimit:4;stroke-dasharray:none;stroke-opacity:1"
             d="M 0,0 H 198.3542" /></g><g
           transform="translate(445,521)"
           id="g232"><text
             id="text236"
             style="font-variant:normal;font-size:10px;font-family:HiraKakuProN;-inkscape-font-specification:HiraKakuProN-W3;writing-mode:lr-tb;fill:#000000;fill-opacity:1;fill-rule:nonzero;stroke:none"
             transform="scale(1,-1)"><tspan
               id="tspan234"
               y="0"
               x="0 3.9200001 9.2799997 11.66 18.120001 20.52">txid: </tspan></text>
</g><g
           transform="translate(445,521)"
           id="g238"><text
             id="text242"
             style="font-variant:normal;font-size:10px;font-family:HiraKakuProN;-inkscape-font-specification:HiraKakuProN-W6;writing-mode:lr-tb;fill:#000000;fill-opacity:1;fill-rule:nonzero;stroke:none"
             transform="matrix(1,0,0,-1,23.85,0)"><tspan
               id="tspan240"
               y="0"
               x="0 6.25 13.31 18.08 24.450001 30.82 37.939999 45.060001 52.119999 59.18 66.300003 73.419998 80.540001 87.660004 94.779999 101.9">cbfee76bb9199070</tspan></text>
</g><path
           id="path244"
           style="fill:#ffffff;fill-opacity:1;fill-rule:nonzero;stroke:none"
           d="m 534.1002,427.0033 h 71.5137 v -47.3887 h -71.5137 z" /><g
           transform="matrix(1,0,0,-1,534.1002,427.0033)"
           id="g246"><path
             id="path248"
             style="fill:none;stroke:#000000;stroke-width:1;stroke-linecap:butt;stroke-linejoin:miter;stroke-miterlimit:4;stroke-dasharray:none;stroke-opacity:1"
             d="M 0,0 H 71.51367 V 47.38867 H 0 Z" /></g></g></g><g
       id="g250"><g
         clip-path="url(#clipPath256)"
         id="g252"><g
           transform="translate(560,407)"
           id="g258"><text
             id="text262"
             style="font-variant:normal;font-size:10px;font-family:HiraKakuProN;-inkscape-font-specification:HiraKakuProN-W3;writing-mode:lr-tb;fill:#017100;fill-opacity:1;fill-rule:nonzero;stroke:none"
             transform="scale(1,-1)"><tspan
               id="tspan260"
               y="0"
               x="0 7.1199999 13.37 19.83">Bob </tspan></text>
</g><g
           transform="translate(539,392)"
           id="g264"><text
             id="text268"
             style="font-variant:normal;font-size:10px;font-family:HiraKakuProN;-inkscape-font-specification:HiraKakuProN-W6;writing-mode:lr-tb;fill:#000000;fill-opacity:1;fill-rule:nonzero;stroke:none"
             transform="scale(1,-1)"><tspan
               id="tspan266"
               y="0"
               x="0 7.1199999 9.8199997 16.940001 24.059999 31.18">0.090 </tspan></text>
</g><g
           transform="translate(539,392)"
           id="g270"><text
             id="text274"
             style="font-variant:normal;font-size:8px;font-family:HiraKakuProN;-inkscape-font-specification:HiraKakuProN-W3;writing-mode:lr-tb;fill:#000000;fill-opacity:1;fill-rule:nonzero;stroke:none"
             transform="matrix(1,0,0,-1,34.51,0)"><tspan
               id="tspan272"
               y="0"
               x="0 5.1680002 7.072 10.208 14.832 19.832001 21.736">bitcoin</tspan></text>
</g></g></g><g
       id="g276"><g
         clip-path="url(#clipPath282)"
         id="g278"><path
           id="path284"
           style="fill:#ffffff;fill-opacity:1;fill-rule:nonzero;stroke:none"
           d="m 485.0562,468.3231 c 0,7.0414 5.7086,12.75 12.75,12.75 4.8306,0 9.0307,-2.6854 11.1939,-6.6459 h 3.8069 v -1.9128 h 28.2927 l 3.2373,-4.1959 -3.2373,-2.6028 -1.9452,-1.5978 -1.6997,1.5978 -1.3847,-0.005 -2.3666,-1.6348 -2.2925,1.6302 h -1.533 l -2.3573,-1.6302 -2.3018,1.6348 h -1.5144 l -2.3666,-1.6348 -2.3064,1.6395 h -1.357 l -0.3612,-0.0649 -2.9872,-1.7738 h -1.5191 v -1.658 h -3.8069 c -2.1632,-3.9602 -6.3634,-6.6459 -11.1939,-6.6459 -7.0414,3e-4 -12.75,5.7086 -12.75,12.75 z m 3.2466,0 c 0,-1.607 1.3016,-2.9085 2.9084,-2.9085 1.607,0 2.9085,1.3017 2.9085,2.9085 0,1.6068 -1.3017,2.9084 -2.9085,2.9085 -1.6068,0 -2.9084,-1.3017 -2.9084,-2.9085 z" /><g
           transform="rotate(-90,483.06465,-1.99155)"
           id="g286"><path
             id="path288"
             style="fill:none;stroke:#000000;stroke-width:1;stroke-linecap:butt;stroke-linejoin:miter;stroke-miterlimit:4;stroke-dasharray:none;stroke-opacity:1"
             d="M 12.75,0 C 5.708628,0 4.522764e-6,5.708629 0,12.74999 c 0,4.83065 2.685377,9.03073 6.64593,11.19388 v 3.80694 h 1.912731 v 28.29266 l 4.195969,3.23729 2.60279,-3.23729 1.59781,-1.94515 -1.59781,-1.69969 0.0046,-1.38476 1.63485,-2.3666 -1.63022,-2.2925 v -1.53296 l 1.63022,-2.35733 -1.63485,-2.30177 v -1.51443 l 1.63485,-2.3666 -1.63949,-2.30639 v -1.35698 l 0.06484,-0.36124 1.77379,-2.9872 v -1.51906 h 1.65801 V 23.94387 C 22.81431,21.78072 25.5,17.58049 25.49999,12.74999 25.4997,5.708627 19.79137,-4.522763e-6 12.75,0 Z m 0,3.246548 c 1.60695,0 2.90846,1.30166 2.90846,2.908462 0,1.606954 -1.30166,2.908462 -2.90846,2.908462 -1.60681,0 -2.908461,-1.301655 -2.908466,-2.908462 0,-1.606804 1.301656,-2.908464 2.908466,-2.908462 z" /></g><g
           transform="translate(475,488)"
           id="g290"><text
             id="text294"
             style="font-variant:normal;font-size:10px;font-family:HiraKakuProN;-inkscape-font-specification:HiraKakuProN-W3;writing-mode:lr-tb;fill:#017100;fill-opacity:1;fill-rule:nonzero;stroke:none"
             transform="scale(1,-1)"><tspan
               id="tspan292"
               y="0"
               x="0 7.1199999 13.37 19.83 21.780001 27.15 30.48 36.950001 43.130001 49.59 51.91 54.290001 60.07 63.400002 69.150002 75.029999">Bob's public key</tspan></text>
</g><g
           transform="translate(553,436)"
           id="g296"><text
             id="text300"
             style="font-variant:normal;font-size:10px;font-family:HiraKakuProN;-inkscape-font-specification:HiraKakuProN-W3;writing-mode:lr-tb;fill:#000000;fill-opacity:1;fill-rule:nonzero;stroke:none"
             transform="scale(1,-1)"><tspan
               id="tspan298"
               y="0"
               x="0 7.9499998 14.13 18.049999 24.52 30.700001">Output</tspan></text>
</g><g
           transform="matrix(1,0,0,-1,494.6742,403.309)"
           id="g302"><path
             id="path304"
             style="fill:none;stroke:#000000;stroke-width:2;stroke-linecap:butt;stroke-linejoin:miter;stroke-miterlimit:4;stroke-dasharray:none;stroke-opacity:1"
             d="m 0,0 h 24.64 1" /></g><path
           id="path306"
           style="fill:#000000;fill-opacity:1;fill-rule:nonzero;stroke:none"
           d="m 519.3142,398.509 9.6,4.8 -9.6,4.8 z" /><path
           id="path308"
           style="fill:#ffffff;fill-opacity:1;fill-rule:nonzero;stroke:none"
           d="m 417.4509,427.0033 h 71.5137 v -47.3887 h -71.5137 z" /><g
           transform="matrix(1,0,0,-1,417.4509,427.0033)"
           id="g310"><path
             id="path312"
             style="fill:none;stroke:#000000;stroke-width:1;stroke-linecap:butt;stroke-linejoin:miter;stroke-miterlimit:4;stroke-dasharray:none;stroke-opacity:1"
             d="M 0,0 H 71.51367 V 47.38867 H 0 Z" /></g></g></g><g
       id="g314"><g
         clip-path="url(#clipPath320)"
         id="g316"><g
           transform="translate(441,407)"
           id="g322"><text
             id="text326"
             style="font-variant:normal;font-size:10px;font-family:HiraKakuProN;-inkscape-font-specification:HiraKakuProN-W3;writing-mode:lr-tb;fill:#ee220c;fill-opacity:1;fill-rule:nonzero;stroke:none"
             transform="scale(1,-1)"><tspan
               id="tspan324"
               y="0"
               x="0 7.5 9.8199997 12.2 17.98 23.860001">Alice </tspan></text>
</g><g
           transform="translate(423,392)"
           id="g328"><text
             id="text332"
             style="font-variant:normal;font-size:10px;font-family:HiraKakuProN;-inkscape-font-specification:HiraKakuProN-W6;writing-mode:lr-tb;fill:#000000;fill-opacity:1;fill-rule:nonzero;stroke:none"
             transform="scale(1,-1)"><tspan
               id="tspan330"
               y="0"
               x="0 7.1199999 9.8199997 16.940001 24.059999 31.18">0.095 </tspan></text>
</g><g
           transform="translate(423,392)"
           id="g334"><text
             id="text338"
             style="font-variant:normal;font-size:8px;font-family:HiraKakuProN;-inkscape-font-specification:HiraKakuProN-W3;writing-mode:lr-tb;fill:#000000;fill-opacity:1;fill-rule:nonzero;stroke:none"
             transform="matrix(1,0,0,-1,34.51,0)"><tspan
               id="tspan336"
               y="0"
               x="0 5.1680002 7.072 10.208 14.832 19.832001 21.736">bitcoin</tspan></text>
</g></g></g><g
       id="g340"><g
         clip-path="url(#clipPath346)"
         id="g342"><g
           transform="translate(441,436)"
           id="g348"><text
             id="text352"
             style="font-variant:normal;font-size:10px;font-family:HiraKakuProN;-inkscape-font-specification:HiraKakuProN-W3;writing-mode:lr-tb;fill:#000000;fill-opacity:1;fill-rule:nonzero;stroke:none"
             transform="scale(1,-1)"><tspan
               id="tspan350"
               y="0"
               x="0 2.49 8.6700001 15.14 21.32">Input</tspan></text>
</g><g
           transform="translate(436,369)"
           id="g354"><text
             id="text358"
             style="font-variant:normal;font-size:7px;font-family:HiraKakuProN;-inkscape-font-specification:HiraKakuProN-W3;writing-mode:lr-tb;fill:#000000;fill-opacity:1;fill-rule:nonzero;stroke:none"
             transform="scale(1,-1)"><tspan
               id="tspan356"
               y="0"
               x="0 4.6339998 7.6440001 11.76 15.568 17.233999 21.608999 25.934999 29.694 32.025002 34.769001 38.521 40.187 44.709 46.389 48.720001">Previous txid:  </tspan></text>
</g><g
           transform="translate(420,358)"
           id="g360"><text
             id="text364"
             style="font-variant:normal;font-size:7px;font-family:HiraKakuProN;-inkscape-font-specification:HiraKakuProN-W6;writing-mode:lr-tb;fill:#000000;fill-opacity:1;fill-rule:nonzero;stroke:none"
             transform="scale(1,-1)"><tspan
               id="tspan362"
               y="0"
               x="0 4.9840002 9.9680004 14.952 19.936001 24.395 29.379 34.362999 38.737999 43.112999 47.550999 52.535 57.519001 62.502998 67.487 72.471001">2775e37cca287977</tspan></text>
</g><g
           transform="translate(474,330)"
           id="g366"><text
             id="text370"
             style="font-variant:normal;font-size:10px;font-family:HiraKakuProN;-inkscape-font-specification:HiraKakuProN-W3;writing-mode:lr-tb;fill:#000000;fill-opacity:1;fill-rule:nonzero;stroke:none"
             transform="scale(1,-1)"><tspan
               id="tspan368"
               y="0"
               x="0 7.5 9.8199997 12.2 17.98 23.860001 26.26 31.629999 34.959999 40.330002 42.709999 49.119999 55.299999 61.049999 64.970001 71.150002 75.449997">Aliceʼs signature</tspan></text>
</g><g
           transform="translate(470,273)"
           id="g372"><text
             id="text376"
             style="font-variant:normal;font-size:10px;font-family:HiraKakuProN;-inkscape-font-specification:HiraKakuProN-W3;writing-mode:lr-tb;fill:#017100;fill-opacity:1;fill-rule:nonzero;stroke:none"
             transform="scale(1,-1)"><tspan
               id="tspan374"
               y="0"
               x="0 7.1199999 13.37 19.83 21.780001 27.15 30.48 35.849998 41.73 47.509998 51.810001 57.689999 61.610001 64.940002 70.690002 76.57">Bob's secret key</tspan></text>
</g><path
           id="path378"
           style="fill:#ffffff;fill-opacity:1;fill-rule:nonzero;stroke:none"
           d="m 490.8982,258.3634 c 0,0.6315 0.5112,1.1427 1.1427,1.1427 h 3.2643 v 3.6072 c 0,0.8558 0.6945,1.5501 1.5502,1.5501 h 15.4421 c 0.8559,0 1.5502,-0.6944 1.5502,-1.5501 v -3.6072 h 3.001 v -2.7426 h 3.8207 v -1.7489 h 30.3526 v -0.005 l 3.473,-4.5014 -3.473,-2.7923 -2.0867,-1.7092 -1.8235,1.7092 h -1.4855 l -2.539,-1.7589 -2.4594,1.7489 h -1.6445 l -2.529,-1.7489 -2.4644,1.7539 h -1.6346 l -2.534,-1.7539 -2.4693,1.7539 -1.744,0.005 -3.309,-1.9676 h -1.6297 v -1.6843 h -3.8207 v -2.5538 h -3.001 v -3.6071 c 0,-0.8559 -0.6945,-1.5502 -1.5502,-1.5502 h -15.4421 c -0.8559,0 -1.5502,0.6943 -1.5502,1.5502 v 3.6071 h -3.2643 c -0.6315,0 -1.1427,0.5112 -1.1427,1.1428 z m 2.4594,-4.9288 v -5.8529 h 1.9476 v 5.8529 z" /><g
           transform="rotate(-90,377.7808,-113.1174)"
           id="g380"><path
             id="path382"
             style="fill:none;stroke:#000000;stroke-width:1;stroke-linecap:butt;stroke-linejoin:miter;stroke-miterlimit:4;stroke-dasharray:none;stroke-opacity:1"
             d="M 6.300065,0 C 5.668551,0 5.157304,0.511243 5.157309,1.142756 V 4.407065 H 1.550174 C 0.6943196,4.407065 4.852056e-6,5.10154 0,5.957239 V 21.39936 c 0,0.85585 0.6944748,1.55017 1.550174,1.55017 h 3.607135 v 3.00098 h 2.742615 v 3.82078 h 1.748914 v 30.3526 h 0.00497 l 4.501463,3.47299 2.7923,-3.47299 1.70917,-2.08677 -1.70917,-1.82344 V 54.7281 l 1.75885,-2.53891 -1.74891,-2.45941 V 48.0852 l 1.74891,-2.52897 -1.75388,-2.46437 v -1.63464 l 1.75388,-2.53394 -1.75388,-2.46935 -0.005,-1.74395 1.96753,-3.30902 v -1.62967 h 1.68433 v -3.82078 h 2.55381 v -3.00098 h 3.60713 c 0.85586,0 1.55018,-0.69448 1.55018,-1.55017 V 5.957239 c 0,-0.855854 -0.69434,-1.550172 -1.55018,-1.550174 h -3.60713 V 1.142756 C 23.15324,0.5112394 22.642,-1.213014e-6 22.01048,0 Z m 4.928755,2.459411 h 5.8529 v 1.947654 h -5.8529 z" /></g><g
           transform="translate(495,307)"
           id="g384"><text
             id="text388"
             style="font-style:italic;font-variant:normal;font-weight:normal;font-size:10px;font-family:Zapfino;-inkscape-font-specification:Zapfino;writing-mode:lr-tb;fill:#ee220c;fill-opacity:1;fill-rule:nonzero;stroke:none"
             transform="scale(1,-1)"><tspan
               id="tspan386"
               y="0"
               x="0 12.975 18.049999 22.575001 27.924999">Alice</tspan></text>
</g><g
           transform="matrix(1,0,0,-1,254.1367,302.6396)"
           id="g390"><path
             id="path392"
             style="fill:none;stroke:#000000;stroke-width:1;stroke-linecap:butt;stroke-linejoin:miter;stroke-miterlimit:4;stroke-dasharray:1, 1;stroke-dashoffset:0;stroke-opacity:1"
             d="M 0,55.6257 C 44.25615,54.08722 121.0146,36.14686 230.2753,1.804613 l 0.4781,-0.150758" /></g><path
           id="path394"
           style="fill:#000000;fill-opacity:1;fill-rule:nonzero;stroke:none"
           d="m 485.3154,297.9743 4.8202,4.6653 -6.6244,1.057 z" /><path
           id="path396"
           style="fill:#ffffff;fill-opacity:1;fill-rule:nonzero;stroke:none"
           d="m 726.2198,540.4169 h 147.1488 c 7.6079,0 11.4708,0 15.5741,-1.3004 4.4903,-1.6344 8.0274,-5.1715 9.6618,-9.6618 1.3004,-4.1033 1.3004,-7.9662 1.3004,-15.6921 V 322.03 c 0,-7.6079 0,-11.4709 -1.3004,-15.5741 -1.6344,-4.4903 -5.1715,-8.0275 -9.6618,-9.6618 -4.1033,-1.3004 -7.9662,-1.3004 -15.6921,-1.3004 H 726.2198 c -7.6079,0 -11.4708,0 -15.5741,1.3004 -4.4903,1.6343 -8.0274,5.1715 -9.6618,9.6618 -1.3004,4.1032 -1.3004,7.9662 -1.3004,15.6921 v 191.7326 c 0,7.6079 0,11.4708 1.3004,15.5741 1.6344,4.4903 5.1715,8.0274 9.6618,9.6618 4.1033,1.3004 7.9662,1.3004 15.6921,1.3004 z" /><g
           transform="matrix(1,0,0,-1,699.6835,540.4169)"
           id="g398"><path
             id="path400"
             style="fill:none;stroke:#000000;stroke-width:1.10000002;stroke-linecap:butt;stroke-linejoin:miter;stroke-miterlimit:4;stroke-dasharray:none;stroke-opacity:1"
             d="M 26.53629,0 H 173.685 c 7.6079,0 11.4709,0 15.5741,1.300396 4.4903,1.63433 8.0275,5.171499 9.6618,9.661784 1.3004,4.10328 1.3004,7.96621 1.3004,15.69209 V 218.3869 c 0,7.6079 0,11.4708 -1.3004,15.5741 -1.6343,4.4903 -5.1715,8.0275 -9.6618,9.6618 -4.1032,1.3004 -7.9662,1.3004 -15.692,1.3004 H 26.53629 c -7.6079,0 -11.47083,0 -15.57411,-1.3004 C 6.471895,241.9885 2.934726,238.4513 1.300396,233.961 0,229.8577 0,225.9948 0,218.2689 V 26.53629 C 0,18.92839 0,15.06546 1.300396,10.96218 2.934726,6.471895 6.471895,2.934726 10.96218,1.300396 15.06546,0 18.92839,0 26.65427,0 Z" /></g><g
           transform="matrix(1,0,0,-1,552.0649,303.8206)"
           id="g402"><path
             id="path404"
             style="fill:none;stroke:#000000;stroke-width:1;stroke-linecap:butt;stroke-linejoin:miter;stroke-miterlimit:4;stroke-dasharray:1, 1;stroke-dashoffset:0;stroke-opacity:1"
             d="M 0,55.90956 C 43.44655,54.29891 118.4861,36.27884 225.1187,1.849349 l 0.4771,-0.154544" /></g><path
           id="path406"
           style="fill:#000000;fill-opacity:1;fill-rule:nonzero;stroke:none"
           d="m 778.1095,299.1177 4.7836,4.7029 -6.6325,1.0051 z" /><g
           transform="matrix(1,0,0,-1,700.6171,506.5114)"
           id="g408"><path
             id="path410"
             style="fill:none;stroke:#000000;stroke-width:1;stroke-linecap:butt;stroke-linejoin:miter;stroke-miterlimit:4;stroke-dasharray:none;stroke-opacity:1"
             d="M 0,0 H 198.3542" /></g><g
           transform="translate(737,519)"
           id="g412"><text
             id="text416"
             style="font-variant:normal;font-size:10px;font-family:HiraKakuProN;-inkscape-font-specification:HiraKakuProN-W3;writing-mode:lr-tb;fill:#000000;fill-opacity:1;fill-rule:nonzero;stroke:none"
             transform="scale(1,-1)"><tspan
               id="tspan414"
               y="0"
               x="0 3.9200001 9.2799997 11.66 18.120001 20.52 23.85 30.42 36.880001 43.450001 50.02 54.189999 60.07 66.639999 73.209999 79.669998 86.279999 92.059998 98.629997 105.2 111.77 118.23">txid: 8d19fe37b4c521d3</tspan></text>
</g><path
           id="path418"
           style="fill:#ffffff;fill-opacity:1;fill-rule:nonzero;stroke:none"
           d="m 822.1002,425.0033 h 71.5137 v -47.3887 h -71.5137 z" /><g
           transform="matrix(1,0,0,-1,822.1002,425.0033)"
           id="g420"><path
             id="path422"
             style="fill:none;stroke:#000000;stroke-width:1;stroke-linecap:butt;stroke-linejoin:miter;stroke-miterlimit:4;stroke-dasharray:none;stroke-opacity:1"
             d="M 0,0 H 71.51367 V 47.38867 H 0 Z" /></g></g></g><g
       id="g424"><g
         clip-path="url(#clipPath430)"
         id="g426"><g
           transform="translate(832,405)"
           id="g432"><text
             id="text436"
             style="font-variant:normal;font-size:10px;font-family:HiraKakuProN;-inkscape-font-specification:HiraKakuProN-W3;writing-mode:lr-tb;fill:#99195e;fill-opacity:1;fill-rule:nonzero;stroke:none"
             transform="scale(1,-1)"><tspan
               id="tspan434"
               y="0"
               x="0 7.5599999 13.31 18.68 24.049999 29.799999 35.98 42.439999 46.740002 52.490002">Cassandra </tspan></text>
</g><g
           transform="translate(827,390)"
           id="g438"><text
             id="text442"
             style="font-variant:normal;font-size:10px;font-family:HiraKakuProN;-inkscape-font-specification:HiraKakuProN-W6;writing-mode:lr-tb;fill:#000000;fill-opacity:1;fill-rule:nonzero;stroke:none"
             transform="scale(1,-1)"><tspan
               id="tspan440"
               y="0"
               x="0 7.1199999 9.8199997 16.940001 24.059999 31.18">0.085 </tspan></text>
</g><g
           transform="translate(827,390)"
           id="g444"><text
             id="text448"
             style="font-variant:normal;font-size:8px;font-family:HiraKakuProN;-inkscape-font-specification:HiraKakuProN-W3;writing-mode:lr-tb;fill:#000000;fill-opacity:1;fill-rule:nonzero;stroke:none"
             transform="matrix(1,0,0,-1,34.51,0)"><tspan
               id="tspan446"
               y="0"
               x="0 5.1680002 7.072 10.208 14.832 19.832001 21.736">bitcoin</tspan></text>
</g></g></g><g
       id="g450"><g
         clip-path="url(#clipPath456)"
         id="g452"><path
           id="path458"
           style="fill:#ffffff;fill-opacity:1;fill-rule:nonzero;stroke:none"
           d="m 773.0562,466.3231 c 0,7.0413 5.7086,12.75 12.75,12.75 4.8306,0 9.0307,-2.6854 11.1939,-6.646 h 3.8069 v -1.9127 h 28.2927 l 3.2373,-4.196 -3.2373,-2.6028 -1.9452,-1.5978 -1.6997,1.5978 -1.3847,-0.005 -2.3666,-1.6349 -2.2925,1.6303 h -1.533 l -2.3573,-1.6303 -2.3018,1.6349 h -1.5144 l -2.3666,-1.6349 -2.3064,1.6395 h -1.357 l -0.3612,-0.0648 -2.9872,-1.7738 h -1.5191 v -1.658 h -3.8069 c -2.1632,-3.9603 -6.3634,-6.6459 -11.1939,-6.6459 -7.0414,3e-4 -12.75,5.7086 -12.75,12.75 z m 3.2466,0 c 0,-1.607 1.3016,-2.9085 2.9084,-2.9085 1.607,0 2.9085,1.3017 2.9085,2.9085 0,1.6068 -1.3017,2.9084 -2.9085,2.9084 -1.6068,0 -2.9084,-1.3016 -2.9084,-2.9084 z" /><g
           transform="rotate(-90,626.06465,-146.99155)"
           id="g460"><path
             id="path462"
             style="fill:none;stroke:#000000;stroke-width:1;stroke-linecap:butt;stroke-linejoin:miter;stroke-miterlimit:4;stroke-dasharray:none;stroke-opacity:1"
             d="M 12.75,0 C 5.708628,0 4.522764e-6,5.708629 0,12.74999 c 0,4.83065 2.685377,9.03073 6.64593,11.19388 v 3.80694 h 1.912731 v 28.29266 l 4.195969,3.23729 2.60279,-3.23729 1.59781,-1.94515 -1.59781,-1.69969 0.0046,-1.38476 1.63485,-2.3666 -1.63022,-2.2925 v -1.53296 l 1.63022,-2.35733 -1.63485,-2.30177 v -1.51443 l 1.63485,-2.3666 -1.63949,-2.30639 v -1.35698 l 0.06484,-0.36124 1.77379,-2.9872 v -1.51906 h 1.65801 V 23.94387 C 22.81431,21.78072 25.5,17.58049 25.49999,12.74999 25.4997,5.708627 19.79137,-4.522763e-6 12.75,0 Z m 0,3.246548 c 1.60695,0 2.90846,1.30166 2.90846,2.908462 0,1.606954 -1.30166,2.908462 -2.90846,2.908462 -1.60681,0 -2.908461,-1.301655 -2.908466,-2.908462 0,-1.606804 1.301656,-2.908464 2.908466,-2.908462 z" /></g><g
           transform="translate(746,486)"
           id="g464"><text
             id="text468"
             style="font-variant:normal;font-size:10px;font-family:HiraKakuProN;-inkscape-font-specification:HiraKakuProN-W3;writing-mode:lr-tb;fill:#99195e;fill-opacity:1;fill-rule:nonzero;stroke:none"
             transform="scale(1,-1)"><tspan
               id="tspan466"
               y="0"
               x="0 7.5599999 13.31 18.68 24.049999 29.799999 35.98 42.439999 46.740002 52.490002 54.439999 59.810001 63.139999 69.610001 75.790001 82.25 84.57 86.949997 92.730003 96.059998 101.81 107.69">Cassandra's public key</tspan></text>
</g><g
           transform="translate(841,434)"
           id="g470"><text
             id="text474"
             style="font-variant:normal;font-size:10px;font-family:HiraKakuProN;-inkscape-font-specification:HiraKakuProN-W3;writing-mode:lr-tb;fill:#000000;fill-opacity:1;fill-rule:nonzero;stroke:none"
             transform="scale(1,-1)"><tspan
               id="tspan472"
               y="0"
               x="0 7.9499998 14.13 18.049999 24.52 30.700001">Output</tspan></text>
</g><g
           transform="matrix(1,0,0,-1,782.6742,401.309)"
           id="g476"><path
             id="path478"
             style="fill:none;stroke:#000000;stroke-width:2;stroke-linecap:butt;stroke-linejoin:miter;stroke-miterlimit:4;stroke-dasharray:none;stroke-opacity:1"
             d="m 0,0 h 24.64 1" /></g><path
           id="path480"
           style="fill:#000000;fill-opacity:1;fill-rule:nonzero;stroke:none"
           d="m 807.3142,396.509 9.6,4.8 -9.6,4.8 z" /><path
           id="path482"
           style="fill:#ffffff;fill-opacity:1;fill-rule:nonzero;stroke:none"
           d="m 705.4509,425.0033 h 71.5137 v -47.3887 h -71.5137 z" /><g
           transform="matrix(1,0,0,-1,705.4509,425.0033)"
           id="g484"><path
             id="path486"
             style="fill:none;stroke:#000000;stroke-width:1;stroke-linecap:butt;stroke-linejoin:miter;stroke-miterlimit:4;stroke-dasharray:none;stroke-opacity:1"
             d="M 0,0 H 71.51367 V 47.38867 H 0 Z" /></g></g></g><g
       id="g488"><g
         clip-path="url(#clipPath494)"
         id="g490"><g
           transform="translate(731,405)"
           id="g496"><text
             id="text500"
             style="font-variant:normal;font-size:10px;font-family:HiraKakuProN;-inkscape-font-specification:HiraKakuProN-W3;writing-mode:lr-tb;fill:#017100;fill-opacity:1;fill-rule:nonzero;stroke:none"
             transform="scale(1,-1)"><tspan
               id="tspan498"
               y="0"
               x="0 7.1199999 13.37 19.83">Bob </tspan></text>
</g><g
           transform="translate(711,390)"
           id="g502"><text
             id="text506"
             style="font-variant:normal;font-size:10px;font-family:HiraKakuProN;-inkscape-font-specification:HiraKakuProN-W6;writing-mode:lr-tb;fill:#000000;fill-opacity:1;fill-rule:nonzero;stroke:none"
             transform="scale(1,-1)"><tspan
               id="tspan504"
               y="0"
               x="0 7.1199999 9.8199997 16.940001 24.059999 31.18">0.090 </tspan></text>
</g><g
           transform="translate(711,390)"
           id="g508"><text
             id="text512"
             style="font-variant:normal;font-size:8px;font-family:HiraKakuProN;-inkscape-font-specification:HiraKakuProN-W3;writing-mode:lr-tb;fill:#000000;fill-opacity:1;fill-rule:nonzero;stroke:none"
             transform="matrix(1,0,0,-1,34.51,0)"><tspan
               id="tspan510"
               y="0"
               x="0 5.1680002 7.072 10.208 14.832 19.832001 21.736">bitcoin</tspan></text>
</g></g></g><g
       id="g514"><g
         clip-path="url(#clipPath520)"
         id="g516"><g
           transform="translate(729,434)"
           id="g522"><text
             id="text526"
             style="font-variant:normal;font-size:10px;font-family:HiraKakuProN;-inkscape-font-specification:HiraKakuProN-W3;writing-mode:lr-tb;fill:#000000;fill-opacity:1;fill-rule:nonzero;stroke:none"
             transform="scale(1,-1)"><tspan
               id="tspan524"
               y="0"
               x="0 2.49 8.6700001 15.14 21.32">Input</tspan></text>
</g><g
           transform="translate(728,367)"
           id="g528"><text
             id="text532"
             style="font-variant:normal;font-size:7px;font-family:HiraKakuProN;-inkscape-font-specification:HiraKakuProN-W3;writing-mode:lr-tb;fill:#000000;fill-opacity:1;fill-rule:nonzero;stroke:none"
             transform="scale(1,-1)"><tspan
               id="tspan530"
               y="0"
               x="0 4.6339998 7.6440001 11.76 15.568 17.233999 21.608999 25.934999 29.694 32.025002 34.769001 38.521 40.187 44.709 46.389 48.720001">Previous txid:  </tspan></text>
</g><g
           transform="translate(713,356)"
           id="g534"><text
             id="text538"
             style="font-variant:normal;font-size:7px;font-family:HiraKakuProN;-inkscape-font-specification:HiraKakuProN-W6;writing-mode:lr-tb;fill:#000000;fill-opacity:1;fill-rule:nonzero;stroke:none"
             transform="scale(1,-1)"><tspan
               id="tspan536"
               y="0"
               x="0 4.375 9.3170004 12.656 17.115 21.573999 26.558001 31.542 36.484001 41.425999 46.41 51.394001 56.377998 61.362 66.346001 71.330002">cbfee76bb9199070</tspan></text>
</g><g
           transform="translate(764,328)"
           id="g540"><text
             id="text544"
             style="font-variant:normal;font-size:10px;font-family:HiraKakuProN;-inkscape-font-specification:HiraKakuProN-W3;writing-mode:lr-tb;fill:#000000;fill-opacity:1;fill-rule:nonzero;stroke:none"
             transform="scale(1,-1)"><tspan
               id="tspan542"
               y="0"
               x="0 7.1199999 13.37 19.83 22.23 27.6 30.93 36.299999 38.68 45.09 51.27 57.02 60.939999 67.120003 71.419998">Bobʼs signature</tspan></text>
</g><g
           transform="translate(742,272)"
           id="g546"><text
             id="text550"
             style="font-variant:normal;font-size:10px;font-family:HiraKakuProN;-inkscape-font-specification:HiraKakuProN-W3;writing-mode:lr-tb;fill:#99195e;fill-opacity:1;fill-rule:nonzero;stroke:none"
             transform="scale(1,-1)"><tspan
               id="tspan548"
               y="0"
               x="0 7.5599999 13.31 18.68 24.049999 29.799999 35.98 42.439999 46.740002 52.490002 54.439999 59.810001 63.139999 68.510002 74.389999 80.169998 84.470001 90.349998 94.269997 97.599998 103.35 109.23">Cassandra's secret key</tspan></text>
</g><path
           id="path552"
           style="fill:#ffffff;fill-opacity:1;fill-rule:nonzero;stroke:none"
           d="m 777.9011,257.4081 c 0,0.6315 0.5112,1.1427 1.1427,1.1427 h 3.2643 v 3.6072 c 0,0.8558 0.6945,1.5501 1.5502,1.5502 h 15.4421 c 0.8559,0 1.5502,-0.6945 1.5502,-1.5502 v -3.6072 h 3.001 v -2.7426 h 3.8208 v -1.7489 h 30.3526 v -0.005 l 3.473,-4.5014 -3.473,-2.7923 -2.0868,-1.7092 -1.8234,1.7092 h -1.4856 l -2.5389,-1.7589 -2.4594,1.7489 h -1.6446 l -2.529,-1.7489 -2.4644,1.7539 h -1.6346 l -2.5339,-1.7539 -2.4694,1.7539 -1.7439,0.005 -3.3091,-1.9675 h -1.6296 v -1.6844 h -3.8208 v -2.5538 h -3.001 v -3.6071 c 0,-0.8559 -0.6945,-1.5502 -1.5502,-1.5502 h -15.4421 c -0.8558,0 -1.5501,0.6943 -1.5502,1.5502 v 3.6071 h -3.2643 c -0.6315,0 -1.1427,0.5113 -1.1427,1.1428 z m 2.4594,-4.9288 v -5.8529 h 1.9476 v 5.8529 z" /><g
           transform="rotate(-90,520.80465,-257.09645)"
           id="g554"><path
             id="path556"
             style="fill:none;stroke:#000000;stroke-width:1;stroke-linecap:butt;stroke-linejoin:miter;stroke-miterlimit:4;stroke-dasharray:none;stroke-opacity:1"
             d="M 6.300065,0 C 5.668551,0 5.157304,0.511243 5.157309,1.142756 V 4.407065 H 1.550174 C 0.6943196,4.407065 4.852056e-6,5.10154 0,5.957239 V 21.39936 c 0,0.85585 0.6944748,1.55017 1.550174,1.55017 h 3.607135 v 3.00098 h 2.742615 v 3.82078 h 1.748914 v 30.3526 h 0.00497 l 4.501463,3.47299 2.7923,-3.47299 1.70917,-2.08677 -1.70917,-1.82344 V 54.7281 l 1.75885,-2.53891 -1.74891,-2.45941 V 48.0852 l 1.74891,-2.52897 -1.75388,-2.46437 v -1.63464 l 1.75388,-2.53394 -1.75388,-2.46935 -0.005,-1.74395 1.96753,-3.30902 v -1.62967 h 1.68433 v -3.82078 h 2.55381 v -3.00098 h 3.60713 c 0.85586,0 1.55018,-0.69448 1.55018,-1.55017 V 5.957239 c 0,-0.855854 -0.69434,-1.550172 -1.55018,-1.550174 h -3.60713 V 1.142756 C 23.15324,0.5112394 22.642,-1.213014e-6 22.01048,0 Z m 4.928755,2.459411 h 5.8529 v 1.947654 h -5.8529 z" /></g><g
           transform="translate(787,307)"
           id="g558"><text
             id="text562"
             style="font-style:italic;font-variant:normal;font-weight:normal;font-size:10px;font-family:Zapfino;-inkscape-font-specification:Zapfino;writing-mode:lr-tb;fill:#017100;fill-opacity:1;fill-rule:nonzero;stroke:none"
             transform="scale(1,-1)"><tspan
               id="tspan560"
               y="0"
               x="0 12.175 18.424999">Bob</tspan></text>
</g><g
           transform="matrix(1,0,0,-1,56.66589,304.7629)"
           id="g564"><path
             id="path566"
             style="fill:none;stroke:#000000;stroke-width:1;stroke-linecap:butt;stroke-linejoin:miter;stroke-miterlimit:4;stroke-dasharray:1, 1;stroke-dashoffset:0;stroke-opacity:1"
             d="M 0,52.2064 135.4084,2.083359 135.8787,1.909284" /></g><path
           id="path568"
           style="fill:#000000;fill-opacity:1;fill-rule:nonzero;stroke:none"
           d="m 193.1171,299.8666 4.5854,4.8963 -6.6683,0.7306 z" /><g
           transform="translate(683,285)"
           id="g570"><text
             id="text574"
             style="font-variant:normal;font-size:10px;font-family:HiraKakuProN;-inkscape-font-specification:HiraKakuProN-W3;writing-mode:lr-tb;fill:#000000;fill-opacity:1;fill-rule:nonzero;stroke:none"
             transform="scale(1,-1)"><tspan
               id="tspan572"
               y="0"
               x="0 5.3699999 7.75 14.16">sign</tspan></text>
</g><g
           transform="translate(98,285)"
           id="g576"><text
             id="text580"
             style="font-variant:normal;font-size:10px;font-family:HiraKakuProN;-inkscape-font-specification:HiraKakuProN-W3;writing-mode:lr-tb;fill:#000000;fill-opacity:1;fill-rule:nonzero;stroke:none"
             transform="scale(1,-1)"><tspan
               id="tspan578"
               y="0"
               x="0 5.3699999 7.75 14.16">sign</tspan></text>
</g><g
           transform="matrix(1,0,0,-1,247.5241,468.3065)"
           id="g582"><path
             id="path584"
             style="fill:none;stroke:#000000;stroke-width:1;stroke-linecap:butt;stroke-linejoin:miter;stroke-miterlimit:4;stroke-dasharray:1, 1;stroke-dashoffset:0;stroke-opacity:1"
             d="m 0,0 c 42.39237,0.01561009 83.64265,14.92671 106.6588,49.37202 21.426,32.06544 26.8183,52.71428 48.0057,74.31198 18.8214,19.186 45.6848,30.405 74.0422,31.0884 l 0.5,-0.001" /></g><path
           id="path586"
           style="fill:#000000;fill-opacity:1;fill-rule:nonzero;stroke:none"
           d="m 476.2373,310.534 5.9935,3.013 -6.0064,2.987 z" /><g
           transform="translate(378,330)"
           id="g588"><text
             id="text592"
             style="font-variant:normal;font-size:10px;font-family:HiraKakuProN;-inkscape-font-specification:HiraKakuProN-W3;writing-mode:lr-tb;fill:#000000;fill-opacity:1;fill-rule:nonzero;stroke:none"
             transform="scale(1,-1)"><tspan
               id="tspan590"
               y="0"
               x="0 5.4400001 11.32 15.62 18 22.17">verify</tspan></text>
</g><g
           transform="matrix(1,0,0,-1,-42.64226,466.8231)"
           id="g594"><path
             id="path596"
             style="fill:none;stroke:#000000;stroke-width:1;stroke-linecap:butt;stroke-linejoin:miter;stroke-miterlimit:4;stroke-dasharray:1, 1;stroke-dashoffset:0;stroke-opacity:1"
             d="m 0,0 c 43.1449,0.01535967 85.12743,14.68726 108.5522,48.57999 21.8063,31.55105 27.2943,51.86861 48.8578,73.11991 19.1791,18.9014 46.5631,29.9444 75.4631,30.5921 l 0.5,-0.001" /></g><path
           id="path598"
           style="fill:#000000;fill-opacity:1;fill-rule:nonzero;stroke:none"
           d="m 190.2384,311.5311 5.9924,3.0151 -6.0075,2.9848 z" /><g
           transform="translate(80,337)"
           id="g600"><text
             id="text604"
             style="font-variant:normal;font-size:10px;font-family:HiraKakuProN;-inkscape-font-specification:HiraKakuProN-W3;writing-mode:lr-tb;fill:#000000;fill-opacity:1;fill-rule:nonzero;stroke:none"
             transform="scale(1,-1)"><tspan
               id="tspan602"
               y="0"
               x="0 5.4400001 11.32 15.62 18 22.17">verify</tspan></text>
</g><g
           transform="matrix(1,0,0,-1,541.3577,466.8231)"
           id="g606"><path
             id="path608"
             style="fill:none;stroke:#000000;stroke-width:1;stroke-linecap:butt;stroke-linejoin:miter;stroke-miterlimit:4;stroke-dasharray:1, 1;stroke-dashoffset:0;stroke-opacity:1"
             d="m 0,0 c 43.1449,0.01535967 85.12743,14.68726 108.5522,48.57999 21.8063,31.55105 27.2943,51.86861 48.8578,73.11991 19.1791,18.9014 46.5631,29.9444 75.4631,30.5921 l 0.5,-0.001" /></g><path
           id="path610"
           style="fill:#000000;fill-opacity:1;fill-rule:nonzero;stroke:none"
           d="m 774.2384,311.5311 5.9924,3.0151 -6.0075,2.9848 z" /><g
           transform="translate(667,337)"
           id="g612"><text
             id="text616"
             style="font-variant:normal;font-size:10px;font-family:HiraKakuProN;-inkscape-font-specification:HiraKakuProN-W3;writing-mode:lr-tb;fill:#000000;fill-opacity:1;fill-rule:nonzero;stroke:none"
             transform="scale(1,-1)"><tspan
               id="tspan614"
               y="0"
               x="0 5.4400001 11.32 15.62 18 22.17">verify</tspan></text>
</g><path
           id="path618"
           style="fill:#ffffff;fill-opacity:1;fill-rule:nonzero;stroke:none"
           d="m 536.3162,439.3936 c -4.0948,0 -7.4247,-3.3276 -7.4247,-7.4224 v -6.1311 c -1.4863,-1.7242 -2.3851,-3.962 -2.3851,-6.4145 0,-5.4176 4.3921,-9.8098 9.8098,-9.8098 5.4177,0 9.8098,4.3922 9.8098,9.8098 0,2.4525 -0.8988,4.6903 -2.3851,6.4145 v 6.1311 c 0,4.0949 -3.3299,7.4224 -7.4247,7.4224 z m 0,-3.7228 c 2.0437,0 3.7089,-1.6652 3.7089,-3.7089 v -3.4557 c -1.1445,0.4682 -2.3935,0.7292 -3.7089,0.7292 -1.3154,0 -2.5644,-0.261 -3.7089,-0.7292 v 3.4557 c 0,2.0437 1.6652,3.7089 3.7089,3.7089 z m 0,-11.043 c 2.8761,0 5.2022,-2.3261 5.2022,-5.2022 0,-2.876 -2.3261,-5.2021 -5.2022,-5.2021 -2.8761,0 -5.2022,2.3261 -5.2022,5.2021 0,2.8761 2.3262,5.2022 5.2022,5.2022 z m 0,-0.8616 c -1.1107,0 -2.2204,-0.4252 -3.0679,-1.2727 -1.6949,-1.6949 -1.6949,-4.4408 0,-6.1357 1.6949,-1.695 4.4409,-1.695 6.1358,0 1.6949,1.6949 1.6949,4.4408 0,6.1357 -0.8475,0.8475 -1.9572,1.2727 -3.0679,1.2727 z" /><g
           transform="matrix(1,0,0,-1,526.5064,439.3936)"
           id="g620"><path
             id="path622"
             style="fill:none;stroke:#000000;stroke-width:2;stroke-linecap:butt;stroke-linejoin:miter;stroke-miterlimit:4;stroke-dasharray:none;stroke-opacity:1"
             d="M 9.809788,0 C 5.714944,0 2.3851,3.327527 2.385098,7.422369 V 13.55349 C 0.8987661,15.27763 2.267962e-6,17.51549 0,19.96794 c 0,5.41768 4.39211,9.80979 9.809788,9.80979 5.417682,0 9.809792,-4.39211 9.809792,-9.80979 0,-2.45245 -0.89877,-4.69031 -2.3851,-6.41445 V 7.422369 C 17.23448,3.327525 13.90463,1.700972e-6 9.809788,0 Z m 0,3.722796 c 2.043702,0 3.708862,1.665154 3.708862,3.708862 v 3.455722 c -1.14448,-0.4682 -2.39346,-0.72923 -3.708862,-0.72923 -1.315404,0 -2.56438,0.26104 -3.708862,0.72923 V 7.431658 c 0,-2.043706 1.665161,-3.708861 3.708862,-3.708862 z m 0,11.042984 c 2.876052,0 5.202152,2.32611 5.202162,5.20216 0,2.87605 -2.32611,5.20215 -5.202162,5.20216 -2.876052,0 -5.202156,-2.32611 -5.20216,-5.20216 0,-2.87606 2.32611,-5.20216 5.20216,-5.20216 z m 0,0.8616 c -1.110725,0 -2.220428,0.42522 -3.067881,1.27268 -1.694907,1.69491 -1.694914,4.44085 0,6.13576 1.694914,1.69491 4.440853,1.69491 6.135763,0 1.69491,-1.69492 1.69491,-4.44086 0,-6.13576 -0.84746,-0.84746 -1.95715,-1.27268 -3.067882,-1.27268 z" /></g><g
           transform="matrix(1,0,0,-1,516.5292,464.6089)"
           id="g624"><path
             id="path626"
             style="fill:none;stroke:#000000;stroke-width:1;stroke-linecap:butt;stroke-linejoin:miter;stroke-miterlimit:4;stroke-dasharray:1, 1;stroke-dashoffset:0;stroke-opacity:1"
             d="m 0,0 10.73769,21.76302 0.22207,0.4498" /></g><path
           id="path628"
           style="fill:#000000;fill-opacity:1;fill-rule:nonzero;stroke:none"
           d="m 524.5773,441.5171 5.3451,-4.0534 0.0357,6.7081 z" /><g
           transform="translate(502,442)"
           id="g630"><text
             id="text634"
             style="font-variant:normal;font-size:10px;font-family:HiraKakuProN;-inkscape-font-specification:HiraKakuProN-W3;writing-mode:lr-tb;fill:#000000;fill-opacity:1;fill-rule:nonzero;stroke:none"
             transform="scale(1,-1)"><tspan
               id="tspan632"
               y="0"
               x="0 2.3199999 8.5699997 14.35">lock</tspan></text>
</g><path
           id="path636"
           style="fill:#ffffff;fill-opacity:1;fill-rule:nonzero;stroke:none"
           d="m 823.8162,437.1137 c -4.0948,0 -7.4247,-3.3275 -7.4247,-7.4224 v -6.1311 c -1.4863,-1.7241 -2.3851,-3.962 -2.3851,-6.4144 0,-5.4177 4.3921,-9.8098 9.8098,-9.8098 5.4177,0 9.8098,4.3921 9.8098,9.8098 0,2.4524 -0.8988,4.6903 -2.3851,6.4144 v 6.1311 c 0,4.0949 -3.3299,7.4224 -7.4247,7.4224 z m 0,-3.7228 c 2.0437,0 3.7089,-1.6652 3.7089,-3.7089 v -3.4557 c -1.1445,0.4682 -2.3935,0.7292 -3.7089,0.7292 -1.3154,0 -2.5644,-0.261 -3.7089,-0.7292 v 3.4557 c 0,2.0437 1.6652,3.7089 3.7089,3.7089 z m 0,-11.043 c 2.876,0 5.2022,-2.3261 5.2022,-5.2021 0,-2.8761 -2.3262,-5.2022 -5.2022,-5.2022 -2.8761,0 -5.2022,2.3261 -5.2022,5.2022 0,2.876 2.3261,5.2021 5.2022,5.2021 z m 0,-0.8616 c -1.1107,0 -2.2204,-0.4252 -3.0679,-1.2727 -1.6949,-1.6949 -1.6949,-4.4408 0,-6.1357 1.6949,-1.6949 4.4409,-1.6949 6.1358,0 1.6949,1.6949 1.6949,4.4408 0,6.1357 -0.8475,0.8475 -1.9572,1.2727 -3.0679,1.2727 z" /><g
           transform="matrix(1,0,0,-1,814.0064,437.1137)"
           id="g638"><path
             id="path640"
             style="fill:none;stroke:#000000;stroke-width:2;stroke-linecap:butt;stroke-linejoin:miter;stroke-miterlimit:4;stroke-dasharray:none;stroke-opacity:1"
             d="M 9.809788,0 C 5.714944,0 2.3851,3.327527 2.385098,7.422369 V 13.55349 C 0.8987661,15.27763 2.267962e-6,17.51549 0,19.96794 c 0,5.41768 4.39211,9.80979 9.809788,9.80979 5.417682,0 9.809792,-4.39211 9.809792,-9.80979 0,-2.45245 -0.89877,-4.69031 -2.3851,-6.41445 V 7.422369 C 17.23448,3.327525 13.90463,1.700972e-6 9.809788,0 Z m 0,3.722796 c 2.043702,0 3.708862,1.665154 3.708862,3.708862 v 3.455722 c -1.14448,-0.4682 -2.39346,-0.72923 -3.708862,-0.72923 -1.315404,0 -2.56438,0.26104 -3.708862,0.72923 V 7.431658 c 0,-2.043706 1.665161,-3.708861 3.708862,-3.708862 z m 0,11.042984 c 2.876052,0 5.202152,2.32611 5.202162,5.20216 0,2.87605 -2.32611,5.20215 -5.202162,5.20216 -2.876052,0 -5.202156,-2.32611 -5.20216,-5.20216 0,-2.87606 2.32611,-5.20216 5.20216,-5.20216 z m 0,0.8616 c -1.110725,0 -2.220428,0.42522 -3.067881,1.27268 -1.694907,1.69491 -1.694914,4.44085 0,6.13576 1.694914,1.69491 4.440853,1.69491 6.135763,0 1.69491,-1.69492 1.69491,-4.44086 0,-6.13576 -0.84746,-0.84746 -1.95715,-1.27268 -3.067882,-1.27268 z" /></g><g
           transform="matrix(1,0,0,-1,804.4874,462.5839)"
           id="g642"><path
             id="path644"
             style="fill:none;stroke:#000000;stroke-width:1;stroke-linecap:butt;stroke-linejoin:miter;stroke-miterlimit:4;stroke-dasharray:1, 1;stroke-dashoffset:0;stroke-opacity:1"
             d="m 0,0 10.46403,21.84913 0.2168,0.45237" /></g><path
           id="path646"
           style="fill:#000000;fill-opacity:1;fill-rule:nonzero;stroke:none"
           d="m 812.2465,439.4376 5.2972,-4.1157 0.1143,6.7072 z" /><g
           transform="translate(790,439)"
           id="g648"><text
             id="text652"
             style="font-variant:normal;font-size:10px;font-family:HiraKakuProN;-inkscape-font-specification:HiraKakuProN-W3;writing-mode:lr-tb;fill:#000000;fill-opacity:1;fill-rule:nonzero;stroke:none"
             transform="scale(1,-1)"><tspan
               id="tspan650"
               y="0"
               x="0 2.3199999 8.5699997 14.35">lock</tspan></text>
</g><path
           id="path654"
           style="fill:#929292;fill-opacity:1;fill-rule:nonzero;stroke:none"
           d="m 287.5582,522.2709 c -0.9063,0 -2.1164,0.1519 -2.2734,1.4886 -0.1519,1.3418 0.8304,2.3848 2.1924,2.3848 1.3671,0 0.9722,-0.7342 4.162,-0.7342 1.1798,0 1.2456,-2.4455 0.0507,-2.4455 -2.8405,0 -2.4507,-0.6937 -4.1317,-0.6937 0,0 0,0 0,0 z m 99.6266,3.8734 c 0.3046,0 0.5756,-0.0213 0.8152,-0.0644 l 1.8799,-1.8799 c -0.1894,-1.0546 -0.7993,-1.5012 -1.8596,-1.5342 -1.0804,-0.0323 -1.6952,0.5497 -1.8985,1.5342 L 388,522.3218 c -0.2474,-0.0511 -0.5203,-0.0762 -0.8152,-0.0762 -1.4633,0 -1.3975,0.7341 -3.8532,0.7139 -1.3164,-0.0152 -1.0886,2.4456 -0.0151,2.4456 2.6025,0 2.2227,0.7392 3.8683,0.7392 0,0 0,0 0,0 z m -95.4166,-3.1848 c -0.9566,0 -0.9774,2.4608 0.1414,2.4608 1.1853,0 3.768,-0.4406 4.4459,-0.3899 0.6779,0.0506 2.5494,0.5164 3.1442,0.5164 0.5906,0 3.4519,-0.719 4.683,-0.5164 1.2227,0.2076 1.5721,0.0962 2.4205,0.0962 0.8442,0 2.1876,-0.1469 2.9903,-0.2025 0.8068,-0.0507 1.5263,0.5974 2.5785,0.4253 1.0522,-0.1772 1.622,0.0709 2.3457,0.0709 1.1645,0 1.0979,-2.4406 0.0125,-2.4406 -1.0481,0 -1.7634,-0.162 -2.6535,-0.1113 -0.8858,0.0506 -1.6511,0.3088 -2.4953,0.0506 -0.8443,-0.2532 -2.4788,0.0202 -3.4936,0.1772 -1.0147,0.157 -2.1377,0.0861 -2.9362,-0.0203 -1.6053,-0.1974 -5.4524,0.2583 -6.0014,0.0507 -0.5531,-0.2025 -2.3082,-0.005 -2.9362,-0.005 -0.6197,0 -0.9565,-0.162 -2.2458,-0.162 0,0 0,0 0,0 z m 45.5572,2.4608 c 1.0564,0 1.2477,-2.4456 0,-2.4456 -1.2477,0 -3.5476,0.2278 -4.2213,0.1772 -0.6779,-0.0557 -3.4936,-0.2025 -4.0841,-0.2025 -0.5906,0 -2.7075,0.3595 -3.9344,0.1519 -1.2269,-0.2026 -2.4247,0.2025 -3.2648,0.0911 -1.048,-0.1367 -1.6095,0 -2.4122,0.0506 -0.8027,0.0507 -2.0379,-0.4405 -2.7158,-0.2379 -0.6779,0.2076 -1.0605,-0.0304 -2.0088,-0.0304 -0.9524,0 -0.9482,2.4354 -0.054,2.4354 0.8983,0 1.6636,-0.0354 2.5494,-0.0911 0.89,-0.0506 1.9714,-0.0912 2.9321,-0.0912 0.8734,0 2.1793,0.2988 3.1941,0.1418 1.0147,-0.1519 2.487,-0.2177 3.0776,-0.243 0.7403,-0.0304 2.3165,0.0405 2.9944,-0.0962 0.8651,-0.1722 2.3665,0.081 2.9155,0.2886 0.5531,0.2076 0.9316,-0.081 2.1294,-0.0304 0.7111,0.0304 1.8424,0.1317 2.9029,0.1317 0,0 0,0 0,0 z m 0.3293,0 c 1.2243,0 3.2208,-0.3292 3.7089,-0.3292 0.4881,0 2.1245,0.1874 2.9007,0.1367 0.7722,-0.0556 1.0322,-0.2481 2.3365,-0.2987 1.6284,-0.0658 2.6967,0.1772 2.7727,0.2076 0.2321,0.0861 1.0203,0.3291 2.1165,0.2532 1.4644,-0.1013 1.9045,0.1316 2.5566,0.0304 1.1203,-0.2937 1.2283,-0.0254 2.0805,-0.0709 0.8602,-0.0507 1.3924,0.0557 2.0765,-0.076 0.7482,-0.1519 1.2923,0.1671 1.9805,0.1469 1.0923,0 0.9882,-2.4557 -0.036,-2.4557 -0.6201,0 -1.1763,0.2632 -1.8244,0.2632 -0.6522,0 -1.2203,-0.0506 -1.8725,-0.1519 -0.6521,-0.1063 -1.9805,0.0507 -3.0367,0 -1.0603,-0.0556 -2.8167,-0.1974 -4.037,-0.1417 -1.2243,0.0455 -1.9805,0.6228 -4.4811,0.243 -0.8042,-0.1215 -2.4085,-0.0152 -3.0607,-0.0152 -1.1443,0 -3.3488,-0.1823 -4.301,-0.1823 -1.1363,0 -1.1043,2.4406 0.12,2.4406 0,0 0,0 0,0 z m 45.3777,0 c 1.0564,0 1.2477,-2.4456 0,-2.4456 -1.2477,0 -3.5476,0.2278 -4.2214,0.1772 -0.6779,-0.0557 -3.4935,-0.2025 -4.0841,-0.2025 -0.5905,0 -2.7074,0.3595 -3.9343,0.1519 -1.2269,-0.2026 -2.4247,0.2025 -3.2648,0.0911 -1.0481,-0.1367 -1.6095,0 -2.4122,0.0506 -0.8027,0.0507 -2.0379,-0.4405 -2.7158,-0.2379 -0.6779,0.2076 -1.0606,-0.0304 -2.0088,-0.0304 -0.9524,0 -0.9482,2.4354 -0.0541,2.4354 0.8984,0 1.6636,-0.0354 2.5495,-0.0911 0.89,-0.0506 1.9713,-0.0912 2.932,-0.0912 0.8734,0 2.1793,0.2988 3.1941,0.1418 1.0148,-0.1519 2.4871,-0.2177 3.0777,-0.243 0.7402,-0.0304 2.3165,0.0405 2.9944,-0.0962 0.8651,-0.1722 2.3665,0.081 2.9154,0.2886 0.5532,0.2076 0.9316,-0.081 2.1294,-0.0304 0.7112,0.0304 1.8424,0.1317 2.903,0.1317 0,0 0,0 0,0 z m 3.0385,-1.8785 c 0,0.9063 0.1519,2.1164 1.4886,2.2734 1.3418,0.1519 2.3848,-0.8304 2.3848,-2.1924 0,-1.3671 -0.7342,-0.9722 -0.7342,-4.162 0,-1.1798 -2.4455,-1.2456 -2.4455,-0.0507 0,2.8405 -0.6937,2.4507 -0.6937,4.1317 0,0 0,0 0,0 z m 3.8734,-155.8266 c 0,-0.3046 -0.0213,-0.5756 -0.0644,-0.8152 L 388,368.7799 c 1.0546,-0.1894 1.5012,-0.7993 1.5342,-1.8596 0.0323,-1.0804 -0.5497,-1.6952 -1.5342,-1.8985 l -1.8782,1.8782 c -0.0511,0.2474 -0.0762,0.5203 -0.0762,0.8152 0,1.4633 0.7341,1.3975 0.7139,3.8532 -0.0152,1.3164 2.4456,1.0886 2.4456,0.0151 0,-2.6025 0.7392,-2.2227 0.7392,-3.8683 0,0 0,0 0,0 z m -0.724,151.4224 c 0,-1.318 -0.3292,-3.4673 -0.3292,-3.9927 0,-0.5255 0.1874,-2.2871 0.1367,-3.1227 -0.0556,-0.8313 -0.2481,-1.1113 -0.2987,-2.5154 -0.0658,-1.753 0.1772,-2.903 0.2076,-2.9848 0.0861,-0.2498 0.3291,-1.0983 0.2532,-2.2785 -0.1013,-1.5764 0.1316,-2.0502 0.0304,-2.7522 -0.2937,-1.206 -0.0254,-1.3223 -0.0709,-2.2398 -0.0507,-0.926 0.0557,-1.4988 -0.076,-2.2354 -0.1519,-0.8054 0.1671,-1.3912 0.1469,-2.132 0,-1.1758 -2.4557,-1.0638 -2.4557,0.0388 0,0.6676 0.2632,1.2663 0.2632,1.964 0,0.7021 -0.0506,1.3137 -0.1519,2.0158 -0.1063,0.702 0.0507,2.132 0,3.2691 -0.0556,1.1414 -0.1974,3.0322 -0.1417,4.3459 0.0455,1.318 0.6228,2.132 0.243,4.824 -0.1215,0.8657 -0.0152,2.5928 -0.0152,3.2949 0,1.2319 -0.1823,3.6051 -0.1823,4.6302 0,1.2232 2.4406,1.1887 2.4406,-0.1292 0,0 0,0 0,0 z m 0,-48.8502 c 0,-1.1372 -2.4456,-1.3432 -2.4456,0 0,1.3432 0.2278,3.8191 0.1772,4.5444 -0.0557,0.7298 -0.2025,3.7609 -0.2025,4.3966 0,0.6358 0.3595,2.9147 0.1519,4.2355 -0.2026,1.3207 0.2025,2.6102 0.0911,3.5146 -0.1367,1.1282 0,1.7327 0.0506,2.5968 0.0507,0.8641 -0.4405,2.1938 -0.2379,2.9236 0.2076,0.7298 -0.0304,1.1417 -0.0304,2.1625 0,1.0253 2.4354,1.0208 2.4354,0.0582 0,-0.9671 -0.0354,-1.7909 -0.0911,-2.7445 -0.0506,-0.9582 -0.0912,-2.1222 -0.0912,-3.1565 0,-0.9402 0.2988,-2.346 0.1418,-3.4385 -0.1519,-1.0924 -0.2177,-2.6774 -0.243,-3.3131 -0.0304,-0.797 0.0405,-2.4938 -0.0962,-3.2236 -0.1722,-0.9313 0.081,-2.5476 0.2886,-3.1386 0.2076,-0.5954 -0.081,-1.0029 -0.0304,-2.2923 0.0304,-0.7656 0.1317,-1.9834 0.1317,-3.1251 0,0 0,0 0,0 z m -2.4608,-0.1612 c 0,1.0298 2.4608,1.0522 2.4608,-0.1522 0,-1.276 -0.4406,-4.0564 -0.3899,-4.7861 0.0506,-0.7298 0.5164,-2.7446 0.5164,-3.3848 0,-0.6358 -0.719,-3.7161 -0.5164,-5.0414 0.2076,-1.3163 0.0962,-1.6924 0.0962,-2.6057 0,-0.9089 -0.1469,-2.355 -0.2025,-3.2191 -0.0507,-0.8686 0.5974,-1.6432 0.4253,-2.7759 -0.1772,-1.1327 0.0709,-1.7461 0.0709,-2.5252 0,-1.2536 -2.4406,-1.1819 -2.4406,-0.0134 0,1.1283 -0.162,1.8983 -0.1113,2.8565 0.0506,0.9536 0.3088,1.7774 0.0506,2.6863 -0.2532,0.9089 0.0202,2.6684 0.1772,3.7609 0.157,1.0924 0.0861,2.3013 -0.0203,3.1609 -0.1974,1.7282 0.2583,5.8696 0.0507,6.4606 -0.2025,0.5955 -0.005,2.4849 -0.005,3.1609 0,0.6671 -0.162,1.0298 -0.162,2.4177 0,0 0,0 0,0 z m 2.4608,-24.7956 c 0,-1.318 -0.3292,-3.4672 -0.3292,-3.9927 0,-0.5255 0.1874,-2.2871 0.1367,-3.1227 -0.0556,-0.8313 -0.2481,-1.1112 -0.2987,-2.5153 -0.0658,-1.753 0.1772,-2.903 0.2076,-2.9849 0.0861,-0.2498 0.3291,-1.0983 0.2532,-2.2785 -0.1013,-1.5764 0.1316,-2.0501 0.0304,-2.7522 -0.2937,-1.206 -0.0254,-1.3223 -0.0709,-2.2397 -0.0507,-0.926 0.0557,-1.4989 -0.076,-2.2354 -0.1519,-0.8054 0.1671,-1.3912 0.1469,-2.132 0,-1.1759 -2.4557,-1.0639 -2.4557,0.0387 0,0.6676 0.2632,1.2663 0.2632,1.9641 0,0.702 -0.0506,1.3136 -0.1519,2.0157 -0.1063,0.7021 0.0507,2.132 0,3.2691 -0.0556,1.1414 -0.1974,3.0322 -0.1417,4.3459 0.0455,1.318 0.6228,2.132 0.243,4.824 -0.1215,0.8657 -0.0152,2.5929 -0.0152,3.2949 0,1.2319 -0.1823,3.6051 -0.1823,4.6302 0,1.2232 2.4406,1.1888 2.4406,-0.1292 0,0 0,0 0,0 z m 0,-48.8502 c 0,-1.1372 -2.4456,-1.3431 -2.4456,0 0,1.3432 0.2278,3.8191 0.1772,4.5444 -0.0557,0.7298 -0.2025,3.7609 -0.2025,4.3967 0,0.6357 0.3595,2.9146 0.1519,4.2354 -0.2026,1.3208 0.2025,2.6102 0.0911,3.5146 -0.1367,1.1283 0,1.7327 0.0506,2.5968 0.0507,0.8641 -0.4405,2.1938 -0.2379,2.9236 0.2076,0.7298 -0.0304,1.1417 -0.0304,2.1625 0,1.0253 2.4354,1.0208 2.4354,0.0582 0,-0.967 -0.0354,-1.7909 -0.0911,-2.7445 -0.0506,-0.9581 -0.0912,-2.1222 -0.0912,-3.1564 0,-0.9403 0.2988,-2.3461 0.1418,-3.4385 -0.1519,-1.0925 -0.2177,-2.6774 -0.243,-3.3132 -0.0304,-0.7969 0.0405,-2.4938 -0.0962,-3.2236 -0.1722,-0.9312 0.081,-2.5475 0.2886,-3.1385 0.2076,-0.5955 -0.081,-1.0029 -0.0304,-2.2924 0.0304,-0.7656 0.1317,-1.9834 0.1317,-3.1251 0,0 0,0 0,0 z m 0,-0.3544 c 0,-1.318 -0.3292,-3.4673 -0.3292,-3.9928 0,-0.5254 0.1874,-2.287 0.1367,-3.1226 -0.0556,-0.8313 -0.2481,-1.1113 -0.2987,-2.5154 -0.0658,-1.753 0.1772,-2.903 0.2076,-2.9848 0.0861,-0.2498 0.3291,-1.0983 0.2532,-2.2785 -0.1013,-1.5764 0.1316,-2.0502 0.0304,-2.7522 -0.2937,-1.206 -0.0254,-1.3223 -0.0709,-2.2398 -0.0507,-0.926 0.0557,-1.4988 -0.076,-2.2354 -0.1519,-0.8054 0.1671,-1.3912 0.1469,-2.132 0,-1.1758 -2.4557,-1.0638 -2.4557,0.0388 0,0.6676 0.2632,1.2663 0.2632,1.964 0,0.7021 -0.0506,1.3137 -0.1519,2.0158 -0.1063,0.702 0.0507,2.132 0,3.2691 -0.0556,1.1414 -0.1974,3.0322 -0.1417,4.3459 0.0455,1.318 0.6228,2.132 0.243,4.824 -0.1215,0.8657 -0.0152,2.5928 -0.0152,3.2949 0,1.2318 -0.1823,3.6051 -0.1823,4.6302 0,1.2232 2.4406,1.1887 2.4406,-0.1292 0,0 0,0 0,0 z m -0.5621,-31.1551 c -0.9063,0 -2.1164,0.1519 -2.2734,1.4886 -0.1519,1.3418 0.8304,2.3848 2.1924,2.3848 1.3671,0 0.9722,-0.7342 4.162,-0.7342 1.1798,0 1.2456,-2.4455 0.0507,-2.4455 -2.8405,0 -2.4507,-0.6937 -4.1317,-0.6937 0,0 0,0 0,0 z m 26.4266,3.8734 c 1.6456,0 2.3089,-0.6228 2.3494,-1.924 0.0405,-1.3519 -0.881,-1.9747 -2.3494,-1.9747 -1.4633,0 -1.3975,0.7341 -3.8532,0.7139 -1.3164,-0.0152 -1.0886,2.4456 -0.0151,2.4456 2.6025,0 2.2227,0.7392 3.8683,0.7392 0,0 0,0 0,0 z m -4.1246,-0.724 c 0.842,0 0.9944,-2.4456 0,-2.4456 -0.9944,0 -2.8273,0.2278 -3.3643,0.1772 -0.5403,-0.0557 -2.7843,-0.2025 -3.255,-0.2025 -0.4707,0 -2.1578,0.3595 -3.1356,0.1519 -0.9779,-0.2026 -1.9325,0.2025 -2.602,0.0911 -0.8353,-0.1367 -1.2828,0 -1.9225,0.0506 -0.6397,0.0507 -1.6242,-0.4405 -2.1645,-0.2379 -0.5403,0.2076 -0.8452,-0.0304 -1.6009,-0.0304 -0.7591,0 -0.7558,2.4354 -0.0431,2.4354 0.7159,0 1.3258,-0.0354 2.0318,-0.0911 0.7094,-0.0506 1.5712,-0.0912 2.3369,-0.0912 0.696,0 1.7368,0.2988 2.5456,0.1418 0.8088,-0.1519 1.9822,-0.2177 2.4528,-0.243 0.59,-0.0304 1.8463,0.0405 2.3866,-0.0962 0.6894,-0.1722 1.886,0.081 2.3235,0.2886 0.4409,0.2076 0.7425,-0.081 1.6971,-0.0304 0.5668,0.0304 1.4684,0.1317 2.3136,0.1317 0,0 0,0 0,0 z" /><path
           id="path656"
           style="fill:#929292;fill-opacity:1;fill-rule:nonzero;stroke:none"
           d="m 585.5582,523.1709 c -0.9063,0 -2.1164,0.1519 -2.2734,1.4886 -0.1519,1.3418 0.8304,2.3848 2.1924,2.3848 1.3671,0 0.9722,-0.7342 4.162,-0.7342 1.1798,0 1.2456,-2.4455 0.0507,-2.4455 -2.8405,0 -2.4507,-0.6937 -4.1317,-0.6937 0,0 0,0 0,0 z m 98.9266,3.8734 c 0.3046,0 0.5756,-0.0213 0.8152,-0.0644 l 1.8799,-1.8799 c -0.1894,-1.0546 -0.7993,-1.5012 -1.8596,-1.5342 -1.0804,-0.0323 -1.6952,0.5497 -1.8985,1.5342 l 1.8782,-1.8782 c -0.2474,-0.0511 -0.5203,-0.0762 -0.8152,-0.0762 -1.4633,0 -1.3975,0.7341 -3.8532,0.7139 -1.3164,-0.0152 -1.0886,2.4456 -0.0151,2.4456 2.6025,0 2.2227,0.7392 3.8683,0.7392 0,0 0,0 0,0 z m -94.7167,-3.1848 c -0.9493,0 -0.9699,2.4608 0.1403,2.4608 1.1762,0 3.7392,-0.4406 4.4119,-0.3899 0.6727,0.0506 2.5299,0.5164 3.1201,0.5164 0.586,0 3.4255,-0.719 4.6471,-0.5164 1.2134,0.2076 1.5601,0.0962 2.402,0.0962 0.8378,0 2.1708,-0.1469 2.9674,-0.2025 0.8006,-0.0507 1.5146,0.5974 2.5588,0.4253 1.0441,-0.1772 1.6096,0.0709 2.3277,0.0709 1.1556,0 1.0895,-2.4406 0.0124,-2.4406 -1.0401,0 -1.7499,-0.162 -2.6331,-0.1113 -0.8791,0.0506 -1.6385,0.3088 -2.4763,0.0506 -0.8378,-0.2532 -2.4598,0.0202 -3.4668,0.1772 -1.007,0.157 -2.1213,0.0861 -2.9137,-0.0203 -1.5931,-0.1974 -5.4107,0.2583 -5.9554,0.0507 -0.5489,-0.2025 -2.2906,-0.005 -2.9138,-0.005 -0.6149,0 -0.9492,-0.162 -2.2286,-0.162 0,0 0,0 0,0 z m 45.2084,2.4608 c 1.0483,0 1.2381,-2.4456 0,-2.4456 -1.2382,0 -3.5205,0.2278 -4.1891,0.1772 -0.6727,-0.0557 -3.4667,-0.2025 -4.0528,-0.2025 -0.586,0 -2.6867,0.3595 -3.9042,0.1519 -1.2175,-0.2026 -2.4061,0.2025 -3.2398,0.0911 -1.04,-0.1367 -1.5972,0 -2.3937,0.0506 -0.7966,0.0507 -2.0223,-0.4405 -2.695,-0.2379 -0.6728,0.2076 -1.0525,-0.0304 -1.9934,-0.0304 -0.9451,0 -0.941,2.4354 -0.0537,2.4354 0.8915,0 1.6509,-0.0354 2.5299,-0.0911 0.8832,-0.0506 1.9563,-0.0912 2.9096,-0.0912 0.8667,0 2.1627,0.2988 3.1697,0.1418 1.007,-0.1519 2.468,-0.2177 3.054,-0.243 0.7347,-0.0304 2.2988,0.0405 2.9716,-0.0962 0.8584,-0.1722 2.3483,0.081 2.8931,0.2886 0.5489,0.2076 0.9244,-0.081 2.113,-0.0304 0.7058,0.0304 1.8283,0.1317 2.8808,0.1317 0,0 0,0 0,0 z m 0.3267,0 c 1.215,0 3.1961,-0.3292 3.6805,-0.3292 0.4844,0 2.1083,0.1874 2.8785,0.1367 0.7663,-0.0556 1.0243,-0.2481 2.3187,-0.2987 1.6159,-0.0658 2.676,0.1772 2.7514,0.2076 0.2303,0.0861 1.0124,0.3291 2.1003,0.2532 1.4531,-0.1013 1.8899,0.1316 2.537,0.0304 1.1117,-0.2937 1.2189,-0.0254 2.0646,-0.0709 0.8536,-0.0507 1.3817,0.0557 2.0606,-0.076 0.7425,-0.1519 1.2824,0.1671 1.9653,0.1469 1.0839,0 0.9807,-2.4557 -0.0357,-2.4557 -0.6154,0 -1.1673,0.2632 -1.8105,0.2632 -0.6471,0 -1.2109,-0.0506 -1.8581,-0.1519 -0.6472,-0.1063 -1.9653,0.0507 -3.0135,0 -1.0521,-0.0556 -2.7951,-0.1974 -4.006,-0.1417 -1.2149,0.0455 -1.9653,0.6228 -4.4468,0.243 -0.798,-0.1215 -2.3901,-0.0152 -3.0373,-0.0152 -1.1355,0 -3.3231,-0.1823 -4.2681,-0.1823 -1.1275,0 -1.0958,2.4406 0.1191,2.4406 0,0 0,0 0,0 z m 45.0302,0 c 1.0483,0 1.2382,-2.4456 0,-2.4456 -1.2381,0 -3.5204,0.2278 -4.189,0.1772 -0.6727,-0.0557 -3.4668,-0.2025 -4.0528,-0.2025 -0.5861,0 -2.6868,0.3595 -3.9043,0.1519 -1.2175,-0.2026 -2.4061,0.2025 -3.2397,0.0911 -1.0401,-0.1367 -1.5972,0 -2.3938,0.0506 -0.7965,0.0507 -2.0223,-0.4405 -2.695,-0.2379 -0.6727,0.2076 -1.0524,-0.0304 -1.9934,-0.0304 -0.9451,0 -0.941,2.4354 -0.0536,2.4354 0.8914,0 1.6508,-0.0354 2.5299,-0.0911 0.8832,-0.0506 1.9562,-0.0912 2.9096,-0.0912 0.8667,0 2.1626,0.2988 3.1696,0.1418 1.007,-0.1519 2.468,-0.2177 3.0541,-0.243 0.7346,-0.0304 2.2988,0.0405 2.9715,-0.0962 0.8585,-0.1722 2.3483,0.081 2.8931,0.2886 0.5489,0.2076 0.9245,-0.081 2.1131,-0.0304 0.7057,0.0304 1.8283,0.1317 2.8807,0.1317 0,0 0,0 0,0 z m 3.0375,-1.8785 c 0,0.9063 0.1519,2.1164 1.4886,2.2734 1.3418,0.1519 2.3848,-0.8304 2.3848,-2.1924 0,-1.3671 -0.7342,-0.9722 -0.7342,-4.162 0,-1.1798 -2.4455,-1.2456 -2.4455,-0.0507 0,2.8405 -0.6937,2.4507 -0.6937,4.1317 0,0 0,0 0,0 z m 3.8734,-158.7266 c 0,-0.3046 -0.0213,-0.5756 -0.0644,-0.8152 l -1.8799,1.8799 c 1.0546,-0.1894 1.5012,-0.7993 1.5342,-1.8596 0.0323,-1.0804 -0.5497,-1.6952 -1.5342,-1.8985 l -1.8782,1.8782 c -0.0511,0.2474 -0.0762,0.5203 -0.0762,0.8152 0,1.4633 0.7341,1.3975 0.7139,3.8532 -0.0152,1.3164 2.4456,1.0886 2.4456,0.0151 0,-2.6025 0.7392,-2.2227 0.7392,-3.8683 0,0 0,0 0,0 z m -0.724,154.3183 c 0,-1.3439 -0.3292,-3.5354 -0.3292,-4.0711 0,-0.5358 0.1874,-2.3321 0.1367,-3.1841 -0.0556,-0.8476 -0.2481,-1.133 -0.2987,-2.5647 -0.0658,-1.7875 0.1772,-2.9601 0.2076,-3.0435 0.0861,-0.2547 0.3291,-1.1199 0.2532,-2.3233 -0.1013,-1.6073 0.1316,-2.0904 0.0304,-2.8063 -0.2937,-1.2297 -0.0254,-1.3483 -0.0709,-2.2837 -0.0507,-0.9442 0.0557,-1.5283 -0.076,-2.2793 -0.1519,-0.8213 0.1671,-1.4185 0.1469,-2.1739 0,-1.199 -2.4557,-1.0848 -2.4557,0.0395 0,0.6807 0.2632,1.2912 0.2632,2.0026 0,0.7159 -0.0506,1.3395 -0.1519,2.0554 -0.1063,0.7158 0.0507,2.1739 0,3.3333 -0.0556,1.1638 -0.1974,3.0918 -0.1417,4.4313 0.0455,1.3439 0.6228,2.1739 0.243,4.9187 -0.1215,0.8828 -0.0152,2.6439 -0.0152,3.3597 0,1.2561 -0.1823,3.6759 -0.1823,4.7212 0,1.2472 2.4406,1.2121 2.4406,-0.1318 0,0 0,0 0,0 z m 0,-49.8099 c 0,-1.1595 -2.4456,-1.3695 -2.4456,0 0,1.3696 0.2278,3.8941 0.1772,4.6337 -0.0557,0.7441 -0.2025,3.8348 -0.2025,4.483 0,0.6483 0.3595,2.9719 0.1519,4.3187 -0.2026,1.3467 0.2025,2.6615 0.0911,3.5836 -0.1367,1.1505 0,1.7668 0.0506,2.6478 0.0507,0.8811 -0.4405,2.237 -0.2379,2.9811 0.2076,0.7441 -0.0304,1.1641 -0.0304,2.205 0,1.0454 2.4354,1.0408 2.4354,0.0593 0,-0.9861 -0.0354,-1.826 -0.0911,-2.7984 -0.0506,-0.977 -0.0912,-2.1639 -0.0912,-3.2185 0,-0.9587 0.2988,-2.3921 0.1418,-3.506 -0.1519,-1.1139 -0.2177,-2.73 -0.243,-3.3783 -0.0304,-0.8126 0.0405,-2.5428 -0.0962,-3.2869 -0.1722,-0.9496 0.081,-2.5976 0.2886,-3.2002 0.2076,-0.6072 -0.081,-1.0226 -0.0304,-2.3374 0.0304,-0.7806 0.1317,-2.0223 0.1317,-3.1865 0,0 0,0 0,0 z m -2.4608,-0.1643 c 0,1.05 2.4608,1.0728 2.4608,-0.1552 0,-1.3011 -0.4406,-4.1361 -0.3899,-4.8802 0.0506,-0.7441 0.5164,-2.7984 0.5164,-3.4513 0,-0.6482 -0.719,-3.7891 -0.5164,-5.1404 0.2076,-1.3421 0.0962,-1.7256 0.0962,-2.6569 0,-0.9267 -0.1469,-2.4013 -0.2025,-3.2824 -0.0507,-0.8856 0.5974,-1.6754 0.4253,-2.8304 -0.1772,-1.155 0.0709,-1.7804 0.0709,-2.5747 0,-1.2783 -2.4406,-1.2052 -2.4406,-0.0137 0,1.1504 -0.162,1.9356 -0.1113,2.9126 0.0506,0.9723 0.3088,1.8123 0.0506,2.7391 -0.2532,0.9267 0.0202,2.7208 0.1772,3.8347 0.157,1.1139 0.0861,2.3465 -0.0203,3.223 -0.1974,1.7622 0.2583,5.985 0.0507,6.5876 -0.2025,0.6072 -0.005,2.5337 -0.005,3.223 0,0.6802 -0.162,1.05 -0.162,2.4652 0,0 0,0 0,0 z m 2.4608,-25.2828 c 0,-1.3438 -0.3292,-3.5353 -0.3292,-4.0711 0,-0.5358 0.1874,-2.332 0.1367,-3.184 -0.0556,-0.8476 -0.2481,-1.1331 -0.2987,-2.5648 -0.0658,-1.7874 0.1772,-2.96 0.2076,-3.0435 0.0861,-0.2547 0.3291,-1.1199 0.2532,-2.3232 -0.1013,-1.6074 0.1316,-2.0905 0.0304,-2.8063 -0.2937,-1.2297 -0.0254,-1.3483 -0.0709,-2.2838 -0.0507,-0.9442 0.0557,-1.5283 -0.076,-2.2793 -0.1519,-0.8212 0.1671,-1.4185 0.1469,-2.1739 0,-1.1989 -2.4557,-1.0847 -2.4557,0.0395 0,0.6808 0.2632,1.2912 0.2632,2.0027 0,0.7158 -0.0506,1.3395 -0.1519,2.0553 -0.1063,0.7159 0.0507,2.1739 0,3.3333 -0.0556,1.1639 -0.1974,3.0918 -0.1417,4.4313 0.0455,1.3439 0.6228,2.1739 0.243,4.9188 -0.1215,0.8827 -0.0152,2.6438 -0.0152,3.3597 0,1.256 -0.1823,3.6759 -0.1823,4.7211 0,1.2472 2.4406,1.2121 2.4406,-0.1318 0,0 0,0 0,0 z m 0,-49.8098 c 0,-1.1596 -2.4456,-1.3696 -2.4456,0 0,1.3695 0.2278,3.8941 0.1772,4.6336 -0.0557,0.7442 -0.2025,3.8348 -0.2025,4.483 0,0.6483 0.3595,2.972 0.1519,4.3187 -0.2026,1.3467 0.2025,2.6615 0.0911,3.5837 -0.1367,1.1504 0,1.7667 0.0506,2.6478 0.0507,0.8811 -0.4405,2.2369 -0.2379,2.981 0.2076,0.7442 -0.0304,1.1642 -0.0304,2.205 0,1.0454 2.4354,1.0409 2.4354,0.0594 0,-0.9861 -0.0354,-1.8261 -0.0911,-2.7985 -0.0506,-0.9769 -0.0912,-2.1639 -0.0912,-3.2184 0,-0.9587 0.2988,-2.3922 0.1418,-3.5061 -0.1519,-1.1139 -0.2177,-2.73 -0.243,-3.3782 -0.0304,-0.8126 0.0405,-2.5428 -0.0962,-3.287 -0.1722,-0.9495 0.081,-2.5975 0.2886,-3.2001 0.2076,-0.6072 -0.081,-1.0226 -0.0304,-2.3374 0.0304,-0.7807 0.1317,-2.0224 0.1317,-3.1865 0,0 0,0 0,0 z m 0,-0.3615 c 0,-1.3438 -0.3292,-3.5353 -0.3292,-4.0711 0,-0.5358 0.1874,-2.332 0.1367,-3.184 -0.0556,-0.8476 -0.2481,-1.1331 -0.2987,-2.5648 -0.0658,-1.7875 0.1772,-2.9601 0.2076,-3.0435 0.0861,-0.2547 0.3291,-1.1199 0.2532,-2.3232 -0.1013,-1.6074 0.1316,-2.0905 0.0304,-2.8064 -0.2937,-1.2296 -0.0254,-1.3482 -0.0709,-2.2837 -0.0507,-0.9442 0.0557,-1.5283 -0.076,-2.2793 -0.1519,-0.8212 0.1671,-1.4185 0.1469,-2.1739 0,-1.1989 -2.4557,-1.0848 -2.4557,0.0395 0,0.6808 0.2632,1.2912 0.2632,2.0027 0,0.7158 -0.0506,1.3395 -0.1519,2.0553 -0.1063,0.7159 0.0507,2.1739 0,3.3333 -0.0556,1.1639 -0.1974,3.0918 -0.1417,4.4313 0.0455,1.3439 0.6228,2.1739 0.243,4.9188 -0.1215,0.8827 -0.0152,2.6438 -0.0152,3.3597 0,1.256 -0.1823,3.6758 -0.1823,4.7211 0,1.2472 2.4406,1.2121 2.4406,-0.1318 0,0 0,0 0,0 z m -0.5621,-31.6343 c -0.9063,0 -2.1164,0.1519 -2.2734,1.4886 -0.1519,1.3418 0.8304,2.3848 2.1924,2.3848 1.3671,0 0.9722,-0.7342 4.162,-0.7342 1.1798,0 1.2456,-2.4455 0.0507,-2.4455 -2.8405,0 -2.4507,-0.6937 -4.1317,-0.6937 0,0 0,0 0,0 z m 21.7266,3.8734 c 1.6456,0 2.3089,-0.6228 2.3494,-1.924 0.0405,-1.3519 -0.881,-1.9747 -2.3494,-1.9747 -1.4633,0 -1.3975,0.7341 -3.8532,0.7139 -1.3164,-0.0152 -1.0886,2.4456 -0.0151,2.4456 2.6025,0 2.2227,0.7392 3.8683,0.7392 0,0 0,0 0,0 z m -4.0963,-0.724 c 0.6246,0 0.7378,-2.4456 0,-2.4456 -0.7378,0 -2.0978,0.2278 -2.4962,0.1772 -0.4009,-0.0557 -2.0659,-0.2025 -2.4151,-0.2025 -0.3492,0 -1.601,0.3595 -2.3265,0.1519 -0.7255,-0.2026 -1.4338,0.2025 -1.9306,0.0911 -0.6197,-0.1367 -0.9517,0 -1.4264,0.0506 -0.4746,0.0507 -1.205,-0.4405 -1.6059,-0.2379 -0.4009,0.2076 -0.6271,-0.0304 -1.1878,-0.0304 -0.5632,0 -0.5608,2.4354 -0.032,2.4354 0.5312,0 0.9837,-0.0354 1.5076,-0.0911 0.5262,-0.0506 1.1657,-0.0912 1.7338,-0.0912 0.5164,0 1.2886,0.2988 1.8887,0.1418 0.6001,-0.1519 1.4707,-0.2177 1.8199,-0.243 0.4378,-0.0304 1.3698,0.0405 1.7707,-0.0962 0.5116,-0.1722 1.3994,0.081 1.724,0.2886 0.3271,0.2076 0.5509,-0.081 1.2592,-0.0304 0.4205,0.0304 1.0894,0.1317 1.7166,0.1317 0,0 0,0 0,0 z" /></g></g></g></svg>