<?xml version="1.0" encoding="UTF-8" standalone="no"?>
<svg
   xmlns:dc="http://purl.org/dc/elements/1.1/"
   xmlns:cc="http://creativecommons.org/ns#"
   xmlns:rdf="http://www.w3.org/1999/02/22-rdf-syntax-ns#"
   xmlns:svg="http://www.w3.org/2000/svg"
   xmlns="http://www.w3.org/2000/svg"
   viewBox="0 0 659.93817 303.59106"
   height="303.59106"
   width="659.93817"
   xml:space="preserve"
   id="svg2"
   version="1.1"><metadata
     id="metadata8"><rdf:RDF><cc:Work
         rdf:about=""><dc:format>image/svg+xml</dc:format><dc:type
           rdf:resource="http://purl.org/dc/dcmitype/StillImage" /></cc:Work></rdf:RDF></metadata><defs
     id="defs6"><clipPath
       id="clipPath14"
       clipPathUnits="userSpaceOnUse"><path
         id="path12"
         d="M 0,0 H 1024 V 768 H 0 Z" /></clipPath><clipPath
       id="clipPath24"
       clipPathUnits="userSpaceOnUse"><path
         id="path22"
         d="M 0,0 H 1024 V 768 H 0 Z" /></clipPath><clipPath
       id="clipPath64"
       clipPathUnits="userSpaceOnUse"><path
         id="path62"
         d="m 237.0051,428.3028 h 69.51367 v 45.38867 H 237.0051 Z" /></clipPath><clipPath
       id="clipPath90"
       clipPathUnits="userSpaceOnUse"><path
         id="path88"
         d="M 0,0 H 1024 V 768 H 0 Z" /></clipPath><clipPath
       id="clipPath116"
       clipPathUnits="userSpaceOnUse"><path
         id="path114"
         d="m 120.3558,428.3028 h 69.51367 v 45.38867 H 120.3558 Z" /></clipPath><clipPath
       id="clipPath148"
       clipPathUnits="userSpaceOnUse"><path
         id="path146"
         d="M 0,0 H 1024 V 768 H 0 Z" /></clipPath><clipPath
       id="clipPath190"
       clipPathUnits="userSpaceOnUse"><path
         id="path188"
         d="m 476.1662,428.3028 h 69.51367 v 45.38867 H 476.1662 Z" /></clipPath><clipPath
       id="clipPath216"
       clipPathUnits="userSpaceOnUse"><path
         id="path214"
         d="M 0,0 H 1024 V 768 H 0 Z" /></clipPath><clipPath
       id="clipPath242"
       clipPathUnits="userSpaceOnUse"><path
         id="path240"
         d="m 359.5169,428.3028 h 69.51367 v 45.38867 H 359.5169 Z" /></clipPath><clipPath
       id="clipPath268"
       clipPathUnits="userSpaceOnUse"><path
         id="path266"
         d="M 0,0 H 1024 V 768 H 0 Z" /></clipPath></defs><g
     clip-path="url(#clipPath14)"
     transform="matrix(1.3333333,0,0,-1.3333333,-116.25424,763.44827)"
     id="g10"><g
       id="g16" /><g
       id="g18"><g
         clip-path="url(#clipPath24)"
         id="g20"><path
           id="path26"
           style="fill:#ffffff;fill-opacity:1;fill-rule:nonzero;stroke:none"
           d="M 0,0 H 1024 V 768 H 0 Z" /><path
           id="path28"
           style="fill:#f4f4f4;fill-opacity:1;fill-rule:nonzero;stroke:none"
           d="M 72.74513,587.2632 H 601.8712 V 330.8031 H 72.74513 Z" /><path
           id="path30"
           style="fill:#ffffff;fill-opacity:1;fill-rule:nonzero;stroke:none"
           d="m 140.1247,539.105 h 147.1488 c 7.6079,0 11.4708,0 15.5741,-1.3004 4.4903,-1.6343 8.0274,-5.1715 9.6618,-9.6617 1.3004,-4.1033 1.3004,-7.9663 1.3004,-15.6921 V 400.7845 c 0,-7.6079 0,-11.4709 -1.3004,-15.5741 -1.6344,-4.4903 -5.1715,-8.0275 -9.6618,-9.6618 -4.1033,-1.3004 -7.9662,-1.3004 -15.6921,-1.3004 H 140.1247 c -7.6079,0 -11.4708,0 -15.5741,1.3004 -4.4903,1.6343 -8.0274,5.1715 -9.6618,9.6618 -1.3004,4.1032 -1.3004,7.9662 -1.3004,15.6921 v 111.6663 c 0,7.6078 0,11.4708 1.3004,15.5741 1.6344,4.4902 5.1715,8.0274 9.6618,9.6617 4.1033,1.3004 7.9662,1.3004 15.6921,1.3004 z" /><g
           transform="matrix(1,0,0,-1,113.5884,539.105)"
           id="g32"><path
             id="path34"
             style="fill:none;stroke:#000000;stroke-width:1.10000002;stroke-linecap:butt;stroke-linejoin:miter;stroke-miterlimit:4;stroke-dasharray:none;stroke-opacity:1"
             d="M 26.53629,0 H 173.685 c 7.6079,0 11.4709,0 15.5741,1.300396 4.4903,1.63433 8.0275,5.171499 9.6618,9.661784 1.3004,4.10328 1.3004,7.96621 1.3004,15.69209 V 138.3206 c 0,7.6079 0,11.4708 -1.3004,15.5741 -1.6343,4.4903 -5.1715,8.0274 -9.6618,9.6618 -4.1032,1.3004 -7.9662,1.3004 -15.692,1.3004 H 26.53629 c -7.6079,0 -11.47083,0 -15.57411,-1.3004 C 6.471895,161.9221 2.934726,158.385 1.300396,153.8947 0,149.7914 0,145.9285 0,138.2026 V 26.53629 C 0,18.92839 0,15.06546 1.300396,10.96218 2.934726,6.471895 6.471895,2.934726 10.96218,1.300396 15.06546,0 18.92839,0 26.65427,0 Z" /></g><g
           transform="matrix(1,0,0,-1,114.522,505.1996)"
           id="g36"><path
             id="path38"
             style="fill:none;stroke:#000000;stroke-width:1;stroke-linecap:butt;stroke-linejoin:miter;stroke-miterlimit:4;stroke-dasharray:none;stroke-opacity:1"
             d="M 0,0 H 198.3542" /></g><g
           transform="translate(180,518)"
           id="g40"><text
             id="text44"
             style="font-variant:normal;font-size:10px;font-family:HiraKakuProN;-inkscape-font-specification:HiraKakuProN-W3;writing-mode:lr-tb;fill:#000000;fill-opacity:1;fill-rule:nonzero;stroke:none"
             transform="scale(1,-1)"><tspan
               id="tspan42"
               y="0"
               x="0 3.9200001 9.2799997 11.66 18.120001 20.52">txid: </tspan></text>
</g><g
           transform="translate(180,518)"
           id="g46"><text
             id="text50"
             style="font-variant:normal;font-size:10px;font-family:HiraKakuProN;-inkscape-font-specification:HiraKakuProN-W6;writing-mode:lr-tb;fill:#000000;fill-opacity:1;fill-rule:nonzero;stroke:none"
             transform="matrix(1,0,0,-1,23.85,0)"><tspan
               id="tspan48"
               y="0"
               x="0 6.1700001 12.34 18.51 24.68 30.85 37.02">???????</tspan></text>
</g><path
           id="path52"
           style="fill:#ffffff;fill-opacity:1;fill-rule:nonzero;stroke:none"
           d="m 236.0051,474.6915 h 71.5137 v -47.3887 h -71.5137 z" /><g
           transform="matrix(1,0,0,-1,236.0051,474.6915)"
           id="g54"><path
             id="path56"
             style="fill:none;stroke:#000000;stroke-width:1;stroke-linecap:butt;stroke-linejoin:miter;stroke-miterlimit:4;stroke-dasharray:none;stroke-opacity:1"
             d="M 0,0 H 71.51367 V 47.38867 H 0 Z" /></g></g></g><g
       id="g58"><g
         clip-path="url(#clipPath64)"
         id="g60"><g
           transform="translate(268,455)"
           id="g66"><text
             id="text70"
             style="font-variant:normal;font-size:10px;font-family:HiraKakuProN;-inkscape-font-specification:HiraKakuProN-W3;writing-mode:lr-tb;fill:#ee220c;fill-opacity:1;fill-rule:nonzero;stroke:none"
             transform="scale(1,-1)"><tspan
               id="tspan68"
               y="0"
               x="0 7.5">A </tspan></text>
</g><g
           transform="translate(250,440)"
           id="g72"><text
             id="text76"
             style="font-variant:normal;font-size:10px;font-family:HiraKakuProN;-inkscape-font-specification:HiraKakuProN-W6;writing-mode:lr-tb;fill:#000000;fill-opacity:1;fill-rule:nonzero;stroke:none"
             transform="scale(1,-1)"><tspan
               id="tspan74"
               y="0"
               x="0 7.1199999 14.24">10 </tspan></text>
</g><g
           transform="translate(250,440)"
           id="g78"><text
             id="text82"
             style="font-variant:normal;font-size:8px;font-family:HiraKakuProN;-inkscape-font-specification:HiraKakuProN-W3;writing-mode:lr-tb;fill:#000000;fill-opacity:1;fill-rule:nonzero;stroke:none"
             transform="matrix(1,0,0,-1,17.57,0)"><tspan
               id="tspan80"
               y="0"
               x="0 5.1680002 7.072 10.208 14.832 19.832001 21.736">bitcoin</tspan></text>
</g></g></g><g
       id="g84"><g
         clip-path="url(#clipPath90)"
         id="g86"><g
           transform="translate(254,484)"
           id="g92"><text
             id="text96"
             style="font-variant:normal;font-size:10px;font-family:HiraKakuProN;-inkscape-font-specification:HiraKakuProN-W3;writing-mode:lr-tb;fill:#000000;fill-opacity:1;fill-rule:nonzero;stroke:none"
             transform="scale(1,-1)"><tspan
               id="tspan94"
               y="0"
               x="0 7.9499998 14.13 18.049999 24.52 30.700001">Output</tspan></text>
</g><g
           transform="matrix(1,0,0,-1,196.5791,450.9971)"
           id="g98"><path
             id="path100"
             style="fill:none;stroke:#000000;stroke-width:2;stroke-linecap:butt;stroke-linejoin:miter;stroke-miterlimit:4;stroke-dasharray:none;stroke-opacity:1"
             d="m 0,0 h 24.64 1" /></g><path
           id="path102"
           style="fill:#000000;fill-opacity:1;fill-rule:nonzero;stroke:none"
           d="m 221.2191,446.1971 9.6,4.8 -9.6,4.8 z" /><path
           id="path104"
           style="fill:#ffffff;fill-opacity:1;fill-rule:nonzero;stroke:none"
           d="m 119.3558,474.6915 h 71.5137 v -47.3887 h -71.5137 z" /><g
           transform="matrix(1,0,0,-1,119.3558,474.6915)"
           id="g106"><path
             id="path108"
             style="fill:none;stroke:#000000;stroke-width:1;stroke-linecap:butt;stroke-linejoin:miter;stroke-miterlimit:4;stroke-dasharray:none;stroke-opacity:1"
             d="M 0,0 H 71.51367 V 47.38867 H 0 Z" /></g></g></g><g
       id="g110"><g
         clip-path="url(#clipPath116)"
         id="g112"><g
           transform="translate(144,455)"
           id="g118"><text
             id="text122"
             style="font-variant:normal;font-size:10px;font-family:HiraKakuProN;-inkscape-font-specification:HiraKakuProN-W3;writing-mode:lr-tb;fill:#000000;fill-opacity:1;fill-rule:nonzero;stroke:none"
             transform="scale(1,-1)"><tspan
               id="tspan120"
               y="0"
               x="0 5.71 11.42 17.129999 22.84">???? </tspan></text>
</g><g
           transform="translate(132,440)"
           id="g124"><text
             id="text128"
             style="font-variant:normal;font-size:10px;font-family:HiraKakuProN;-inkscape-font-specification:HiraKakuProN-W3;writing-mode:lr-tb;fill:#000000;fill-opacity:1;fill-rule:nonzero;stroke:none"
             transform="scale(1,-1)"><tspan
               id="tspan126"
               y="0"
               x="0 5.71 11.42">???</tspan></text>
</g><g
           transform="translate(132,440)"
           id="g130"><text
             id="text134"
             style="font-variant:normal;font-size:10px;font-family:HiraKakuProN;-inkscape-font-specification:HiraKakuProN-W6;writing-mode:lr-tb;fill:#000000;fill-opacity:1;fill-rule:nonzero;stroke:none"
             transform="matrix(1,0,0,-1,17.13,0)"><tspan
               id="tspan132"
               y="0"
               x="0"> </tspan></text>
</g><g
           transform="translate(132,440)"
           id="g136"><text
             id="text140"
             style="font-variant:normal;font-size:8px;font-family:HiraKakuProN;-inkscape-font-specification:HiraKakuProN-W3;writing-mode:lr-tb;fill:#000000;fill-opacity:1;fill-rule:nonzero;stroke:none"
             transform="matrix(1,0,0,-1,20.46,0)"><tspan
               id="tspan138"
               y="0"
               x="0 5.1680002 7.072 10.208 14.832 19.832001 21.736">bitcoin</tspan></text>
</g></g></g><g
       id="g142"><g
         clip-path="url(#clipPath148)"
         id="g144"><g
           transform="translate(142,484)"
           id="g150"><text
             id="text154"
             style="font-variant:normal;font-size:10px;font-family:HiraKakuProN;-inkscape-font-specification:HiraKakuProN-W3;writing-mode:lr-tb;fill:#000000;fill-opacity:1;fill-rule:nonzero;stroke:none"
             transform="scale(1,-1)"><tspan
               id="tspan152"
               y="0"
               x="0 2.49 8.6700001 15.14 21.32">Input</tspan></text>
</g><path
           id="path156"
           style="fill:#ffffff;fill-opacity:1;fill-rule:nonzero;stroke:none"
           d="m 379.2858,539.105 h 147.1488 c 7.6079,0 11.4708,0 15.5741,-1.3004 4.4903,-1.6343 8.0274,-5.1715 9.6618,-9.6617 1.3004,-4.1033 1.3004,-7.9663 1.3004,-15.6921 V 400.7845 c 0,-7.6079 0,-11.4709 -1.3004,-15.5741 -1.6344,-4.4903 -5.1715,-8.0275 -9.6618,-9.6618 -4.1033,-1.3004 -7.9662,-1.3004 -15.6921,-1.3004 H 379.2858 c -7.6079,0 -11.4708,0 -15.5741,1.3004 -4.4903,1.6343 -8.0274,5.1715 -9.6618,9.6618 -1.3004,4.1032 -1.3004,7.9662 -1.3004,15.6921 v 111.6663 c 0,7.6078 0,11.4708 1.3004,15.5741 1.6344,4.4902 5.1715,8.0274 9.6618,9.6617 4.1033,1.3004 7.9662,1.3004 15.6921,1.3004 z" /><g
           transform="matrix(1,0,0,-1,352.7495,539.105)"
           id="g158"><path
             id="path160"
             style="fill:none;stroke:#000000;stroke-width:1.10000002;stroke-linecap:butt;stroke-linejoin:miter;stroke-miterlimit:4;stroke-dasharray:none;stroke-opacity:1"
             d="M 26.53629,0 H 173.685 c 7.6079,0 11.4709,0 15.5741,1.300396 4.4903,1.63433 8.0275,5.171499 9.6618,9.661784 1.3004,4.10328 1.3004,7.96621 1.3004,15.69209 V 138.3206 c 0,7.6079 0,11.4708 -1.3004,15.5741 -1.6343,4.4903 -5.1715,8.0274 -9.6618,9.6618 -4.1032,1.3004 -7.9662,1.3004 -15.692,1.3004 H 26.53629 c -7.6079,0 -11.47083,0 -15.57411,-1.3004 C 6.471895,161.9221 2.934726,158.385 1.300396,153.8947 0,149.7914 0,145.9285 0,138.2026 V 26.53629 C 0,18.92839 0,15.06546 1.300396,10.96218 2.934726,6.471895 6.471895,2.934726 10.96218,1.300396 15.06546,0 18.92839,0 26.65427,0 Z" /></g><g
           transform="matrix(1,0,0,-1,353.6831,505.1996)"
           id="g162"><path
             id="path164"
             style="fill:none;stroke:#000000;stroke-width:1;stroke-linecap:butt;stroke-linejoin:miter;stroke-miterlimit:4;stroke-dasharray:none;stroke-opacity:1"
             d="M 0,0 H 198.3542" /></g><g
           transform="translate(384,516)"
           id="g166"><text
             id="text170"
             style="font-variant:normal;font-size:10px;font-family:HiraKakuProN;-inkscape-font-specification:HiraKakuProN-W3;writing-mode:lr-tb;fill:#000000;fill-opacity:1;fill-rule:nonzero;stroke:none"
             transform="scale(1,-1)"><tspan
               id="tspan168"
               y="0"
               x="0 3.9200001 9.2799997 11.66 18.120001 20.52">txid: </tspan></text>
</g><g
           transform="translate(384,516)"
           id="g172"><text
             id="text176"
             style="font-variant:normal;font-size:10px;font-family:HiraKakuProN;-inkscape-font-specification:HiraKakuProN-W6;writing-mode:lr-tb;fill:#000000;fill-opacity:1;fill-rule:nonzero;stroke:none"
             transform="matrix(1,0,0,-1,23.85,0)"><tspan
               id="tspan174"
               y="0"
               x="0 6.25 13.31 18.08 24.450001 30.82 37.939999 45.060001 52.119999 59.18 66.300003 73.419998 80.540001 87.660004 94.779999 101.9">cbfee76bb9199070</tspan></text>
</g><path
           id="path178"
           style="fill:#ffffff;fill-opacity:1;fill-rule:nonzero;stroke:none"
           d="m 475.1662,474.6914 h 71.5137 v -47.3886 h -71.5137 z" /><g
           transform="matrix(1,0,0,-1,475.1662,474.6914)"
           id="g180"><path
             id="path182"
             style="fill:none;stroke:#000000;stroke-width:1;stroke-linecap:butt;stroke-linejoin:miter;stroke-miterlimit:4;stroke-dasharray:none;stroke-opacity:1"
             d="M 0,0 H 71.51367 V 47.38867 H 0 Z" /></g></g></g><g
       id="g184"><g
         clip-path="url(#clipPath190)"
         id="g186"><g
           transform="translate(507,455)"
           id="g192"><text
             id="text196"
             style="font-variant:normal;font-size:10px;font-family:HiraKakuProN;-inkscape-font-specification:HiraKakuProN-W3;writing-mode:lr-tb;fill:#017100;fill-opacity:1;fill-rule:nonzero;stroke:none"
             transform="scale(1,-1)"><tspan
               id="tspan194"
               y="0"
               x="0 7.1199999">B </tspan></text>
</g><g
           transform="translate(484,440)"
           id="g198"><text
             id="text202"
             style="font-variant:normal;font-size:10px;font-family:HiraKakuProN;-inkscape-font-specification:HiraKakuProN-W6;writing-mode:lr-tb;fill:#000000;fill-opacity:1;fill-rule:nonzero;stroke:none"
             transform="scale(1,-1)"><tspan
               id="tspan200"
               y="0"
               x="0 7.1199999 9.8199997 16.940001 24.059999">9.95 </tspan></text>
</g><g
           transform="translate(484,440)"
           id="g204"><text
             id="text208"
             style="font-variant:normal;font-size:8px;font-family:HiraKakuProN;-inkscape-font-specification:HiraKakuProN-W3;writing-mode:lr-tb;fill:#000000;fill-opacity:1;fill-rule:nonzero;stroke:none"
             transform="matrix(1,0,0,-1,27.39,0)"><tspan
               id="tspan206"
               y="0"
               x="0 5.1680002 7.072 10.208 14.832 19.832001 21.736">bitcoin</tspan></text>
</g></g></g><g
       id="g210"><g
         clip-path="url(#clipPath216)"
         id="g212"><g
           transform="translate(494,484)"
           id="g218"><text
             id="text222"
             style="font-variant:normal;font-size:10px;font-family:HiraKakuProN;-inkscape-font-specification:HiraKakuProN-W3;writing-mode:lr-tb;fill:#000000;fill-opacity:1;fill-rule:nonzero;stroke:none"
             transform="scale(1,-1)"><tspan
               id="tspan220"
               y="0"
               x="0 7.9499998 14.13 18.049999 24.52 30.700001">Output</tspan></text>
</g><g
           transform="matrix(1,0,0,-1,435.7402,450.9971)"
           id="g224"><path
             id="path226"
             style="fill:none;stroke:#000000;stroke-width:2;stroke-linecap:butt;stroke-linejoin:miter;stroke-miterlimit:4;stroke-dasharray:none;stroke-opacity:1"
             d="m 0,0 h 24.64 1" /></g><path
           id="path228"
           style="fill:#000000;fill-opacity:1;fill-rule:nonzero;stroke:none"
           d="m 460.3802,446.1971 9.6,4.8 -9.6,4.8 z" /><path
           id="path230"
           style="fill:#ffffff;fill-opacity:1;fill-rule:nonzero;stroke:none"
           d="m 358.5169,474.6914 h 71.5137 v -47.3886 h -71.5137 z" /><g
           transform="matrix(1,0,0,-1,358.5169,474.6914)"
           id="g232"><path
             id="path234"
             style="fill:none;stroke:#000000;stroke-width:1;stroke-linecap:butt;stroke-linejoin:miter;stroke-miterlimit:4;stroke-dasharray:none;stroke-opacity:1"
             d="M 0,0 H 71.51367 V 47.38867 H 0 Z" /></g></g></g><g
       id="g236"><g
         clip-path="url(#clipPath242)"
         id="g238"><g
           transform="translate(391,455)"
           id="g244"><text
             id="text248"
             style="font-variant:normal;font-size:10px;font-family:HiraKakuProN;-inkscape-font-specification:HiraKakuProN-W3;writing-mode:lr-tb;fill:#ee220c;fill-opacity:1;fill-rule:nonzero;stroke:none"
             transform="scale(1,-1)"><tspan
               id="tspan246"
               y="0"
               x="0 7.5">A </tspan></text>
</g><g
           transform="translate(372,440)"
           id="g250"><text
             id="text254"
             style="font-variant:normal;font-size:10px;font-family:HiraKakuProN;-inkscape-font-specification:HiraKakuProN-W6;writing-mode:lr-tb;fill:#000000;fill-opacity:1;fill-rule:nonzero;stroke:none"
             transform="scale(1,-1)"><tspan
               id="tspan252"
               y="0"
               x="0 7.1199999 14.24">10 </tspan></text>
</g><g
           transform="translate(372,440)"
           id="g256"><text
             id="text260"
             style="font-variant:normal;font-size:8px;font-family:HiraKakuProN;-inkscape-font-specification:HiraKakuProN-W3;writing-mode:lr-tb;fill:#000000;fill-opacity:1;fill-rule:nonzero;stroke:none"
             transform="matrix(1,0,0,-1,17.57,0)"><tspan
               id="tspan258"
               y="0"
               x="0 5.1680002 7.072 10.208 14.832 19.832001 21.736">bitcoin</tspan></text>
</g></g></g><g
       id="g262"><g
         clip-path="url(#clipPath268)"
         id="g264"><g
           transform="translate(382,484)"
           id="g270"><text
             id="text274"
             style="font-variant:normal;font-size:10px;font-family:HiraKakuProN;-inkscape-font-specification:HiraKakuProN-W3;writing-mode:lr-tb;fill:#000000;fill-opacity:1;fill-rule:nonzero;stroke:none"
             transform="scale(1,-1)"><tspan
               id="tspan272"
               y="0"
               x="0 2.49 8.6700001 15.14 21.32">Input</tspan></text>
</g><g
           transform="translate(377,414)"
           id="g276"><text
             id="text280"
             style="font-variant:normal;font-size:7px;font-family:HiraKakuProN;-inkscape-font-specification:HiraKakuProN-W3;writing-mode:lr-tb;fill:#000000;fill-opacity:1;fill-rule:nonzero;stroke:none"
             transform="scale(1,-1)"><tspan
               id="tspan278"
               y="0"
               x="0 4.6339998 7.6440001 11.76 15.568 17.233999 21.608999 25.934999 29.694 32.025002 34.769001 38.521 40.187 44.709 46.389 48.720001">Previous txid:  </tspan></text>
</g><g
           transform="translate(385,403)"
           id="g282"><text
             id="text286"
             style="font-variant:normal;font-size:7px;font-family:HiraKakuProN;-inkscape-font-specification:HiraKakuProN-W6;writing-mode:lr-tb;fill:#000000;fill-opacity:1;fill-rule:nonzero;stroke:none"
             transform="scale(1,-1)"><tspan
               id="tspan284"
               y="0"
               x="0 4.3189998 8.6379995 12.957 17.275999 21.594999 25.914">???????</tspan></text>
</g><path
           id="path288"
           style="fill:#929292;fill-opacity:1;fill-rule:nonzero;stroke:none"
           d="m 287.4582,519.8709 c -0.9063,0 -2.1164,0.1519 -2.2734,1.4886 -0.1519,1.3418 0.8304,2.3848 2.1924,2.3848 1.3671,0 0.9722,-0.7342 4.162,-0.7342 1.1798,0 1.2456,-2.4455 0.0507,-2.4455 -2.8405,0 -2.4507,-0.6937 -4.1317,-0.6937 0,0 0,0 0,0 z m 41.7266,3.8734 c 0.3046,0 0.5756,-0.0213 0.8152,-0.0644 l 1.8799,-1.8799 c -0.1894,-1.0546 -0.7993,-1.5012 -1.8596,-1.5342 -1.0804,-0.0323 -1.6952,0.5497 -1.8985,1.5342 L 330,519.9218 c -0.2474,-0.0511 -0.5203,-0.0762 -0.8152,-0.0762 -1.4633,0 -1.3975,0.7341 -3.8532,0.7139 -1.3164,-0.0152 -1.0886,2.4456 -0.0151,2.4456 2.6025,0 2.2227,0.7392 3.8683,0.7392 0,0 0,0 0,0 z m -37.52,-3.1848 c -0.7013,0 -0.7166,2.4608 0.1037,2.4608 0.8691,0 2.7629,-0.4406 3.2599,-0.3899 0.4971,0.0506 1.8694,0.5164 2.3055,0.5164 0.433,0 2.531,-0.719 3.4337,-0.5164 0.8965,0.2076 1.1527,0.0962 1.7748,0.0962 0.619,0 1.604,-0.1469 2.1926,-0.2025 0.5916,-0.0507 1.1191,0.5974 1.8907,0.4253 0.7715,-0.1772 1.1893,0.0709 1.7199,0.0709 0.8538,0 0.805,-2.4406 0.009,-2.4406 -0.7685,0 -1.293,-0.162 -1.9456,-0.1113 -0.6495,0.0506 -1.2106,0.3088 -1.8297,0.0506 -0.619,-0.2532 -1.8175,0.0202 -2.5615,0.1772 -0.7441,0.157 -1.5675,0.0861 -2.153,-0.0203 -1.1771,-0.1974 -3.9979,0.2583 -4.4004,0.0507 -0.4056,-0.2025 -1.6925,-0.005 -2.1529,-0.005 -0.4544,0 -0.7014,-0.162 -1.6468,-0.162 0,0 0,0 0,0 z m 33.4042,2.4608 c 0.7746,0 0.9148,-2.4456 0,-2.4456 -0.9149,0 -2.6012,0.2278 -3.0952,0.1772 -0.4971,-0.0557 -2.5616,-0.2025 -2.9946,-0.2025 -0.4331,0 -1.9853,0.3595 -2.8849,0.1519 -0.8996,-0.2026 -1.7778,0.2025 -2.3938,0.0911 -0.7685,-0.1367 -1.1802,0 -1.7687,0.0506 -0.5886,0.0507 -1.4943,-0.4405 -1.9913,-0.2379 -0.4971,0.2076 -0.7777,-0.0304 -1.473,-0.0304 -0.6983,0 -0.6952,2.4354 -0.0396,2.4354 0.6587,0 1.2198,-0.0354 1.8693,-0.0911 0.6526,-0.0506 1.4455,-0.0912 2.1499,-0.0912 0.6404,0 1.598,0.2988 2.342,0.1418 0.7441,-0.1519 1.8236,-0.2177 2.2567,-0.243 0.5428,-0.0304 1.6985,0.0405 2.1956,-0.0962 0.6343,-0.1722 1.7352,0.081 2.1377,0.2886 0.4056,0.2076 0.6831,-0.081 1.5613,-0.0304 0.5215,0.0304 1.351,0.1317 2.1286,0.1317 0,0 0,0 0,0 z m 3.0019,-1.8785 c 0,0.9063 0.1519,2.1164 1.4886,2.2734 1.3418,0.1519 2.3848,-0.8304 2.3848,-2.1924 0,-1.3671 -0.7342,-0.9722 -0.7342,-4.162 0,-1.1798 -2.4455,-1.2456 -2.4455,-0.0507 0,2.8405 -0.6937,2.4507 -0.6937,4.1317 0,0 0,0 0,0 z m 3.8734,-109.2266 c 0,-0.3046 -0.0213,-0.5756 -0.0644,-0.8152 L 330,412.9799 c 1.0546,-0.1894 1.5012,-0.7993 1.5342,-1.8596 0.0323,-1.0804 -0.5497,-1.6952 -1.5342,-1.8985 l -1.8782,1.8782 c -0.0511,0.2474 -0.0762,0.5203 -0.0762,0.8152 0,1.4633 0.7341,1.3975 0.7139,3.8532 -0.0152,1.3164 2.4456,1.0886 2.4456,0.0151 0,-2.6025 0.7392,-2.2227 0.7392,-3.8683 0,0 0,0 0,0 z m -0.724,104.8169 c 0,-1.3529 -0.3292,-3.559 -0.3292,-4.0984 0,-0.5394 0.1874,-2.3476 0.1367,-3.2053 -0.0556,-0.8533 -0.2481,-1.1407 -0.2987,-2.582 -0.0658,-1.7994 0.1772,-2.9798 0.2076,-3.0638 0.0861,-0.2564 0.3291,-1.1274 0.2532,-2.3388 -0.1013,-1.6181 0.1316,-2.1044 0.0304,-2.8251 -0.2937,-1.2379 -0.0254,-1.3573 -0.0709,-2.299 -0.0507,-0.9505 0.0557,-1.5385 -0.076,-2.2945 -0.1519,-0.8268 0.1671,-1.428 0.1469,-2.1885 0,-1.2069 -2.4557,-1.092 -2.4557,0.0398 0,0.6853 0.2632,1.2998 0.2632,2.016 0,0.7207 -0.0506,1.3485 -0.1519,2.0691 -0.1063,0.7207 0.0507,2.1885 0,3.3557 -0.0556,1.1716 -0.1974,3.1124 -0.1417,4.4609 0.0455,1.3529 0.6228,2.1884 0.243,4.9516 -0.1215,0.8887 -0.0152,2.6616 -0.0152,3.3822 0,1.2645 -0.1823,3.7005 -0.1823,4.7527 0,1.2556 2.4406,1.2203 2.4406,-0.1326 0,0 0,0 0,0 z m 0,-50.1431 c 0,-1.1673 -2.4456,-1.3787 -2.4456,0 0,1.3787 0.2278,3.9201 0.1772,4.6647 -0.0557,0.7491 -0.2025,3.8604 -0.2025,4.513 0,0.6525 0.3595,2.9918 0.1519,4.3475 -0.2026,1.3557 0.2025,2.6793 0.0911,3.6076 -0.1367,1.1582 0,1.7786 0.0506,2.6656 0.0507,0.8869 -0.4405,2.2519 -0.2379,3.001 0.2076,0.7491 -0.0304,1.1719 -0.0304,2.2197 0,1.0524 2.4354,1.0478 2.4354,0.0597 0,-0.9926 -0.0354,-1.8382 -0.0911,-2.8171 -0.0506,-0.9835 -0.0912,-2.1784 -0.0912,-3.24 0,-0.9651 0.2988,-2.4082 0.1418,-3.5295 -0.1519,-1.1214 -0.2177,-2.7483 -0.243,-3.4009 -0.0304,-0.818 0.0405,-2.5598 -0.0962,-3.3089 -0.1722,-0.9559 0.081,-2.6149 0.2886,-3.2216 0.2076,-0.6112 -0.081,-1.0294 -0.0304,-2.353 0.0304,-0.7859 0.1317,-2.0359 0.1317,-3.2078 0,0 0,0 0,0 z m 0,-0.3639 c 0,-1.3528 -0.3292,-3.559 -0.3292,-4.0984 0,-0.5393 0.1874,-2.3476 0.1367,-3.2053 -0.0556,-0.8533 -0.2481,-1.1406 -0.2987,-2.5819 -0.0658,-1.7994 0.1772,-2.9799 0.2076,-3.0639 0.0861,-0.2564 0.3291,-1.1273 0.2532,-2.3387 -0.1013,-1.6182 0.1316,-2.1045 0.0304,-2.8251 -0.2937,-1.2379 -0.0254,-1.3573 -0.0709,-2.299 -0.0507,-0.9506 0.0557,-1.5386 -0.076,-2.2946 -0.1519,-0.8267 0.1671,-1.428 0.1469,-2.1884 0,-1.207 -2.4557,-1.0921 -2.4557,0.0397 0,0.6853 0.2632,1.2999 0.2632,2.0161 0,0.7206 -0.0506,1.3484 -0.1519,2.0691 -0.1063,0.7206 0.0507,2.1884 0,3.3556 -0.0556,1.1716 -0.1974,3.1125 -0.1417,4.4609 0.0455,1.3529 0.6228,2.1885 0.243,4.9517 -0.1215,0.8886 -0.0152,2.6615 -0.0152,3.3821 0,1.2645 -0.1823,3.7005 -0.1823,4.7528 0,1.2556 2.4406,1.2202 2.4406,-0.1327 0,0 0,0 0,0 z m 0,-50.1431 c 0,-1.1673 -2.4456,-1.3787 -2.4456,0 0,1.3788 0.2278,3.9202 0.1772,4.6647 -0.0557,0.7491 -0.2025,3.8604 -0.2025,4.513 0,0.6526 0.3595,2.9918 0.1519,4.3475 -0.2026,1.3558 0.2025,2.6793 0.0911,3.6077 -0.1367,1.1581 0,1.7785 0.0506,2.6655 0.0507,0.887 -0.4405,2.2519 -0.2379,3.001 0.2076,0.7491 -0.0304,1.1719 -0.0304,2.2197 0,1.0525 2.4354,1.0479 2.4354,0.0598 0,-0.9927 -0.0354,-1.8383 -0.0911,-2.8172 -0.0506,-0.9835 -0.0912,-2.1784 -0.0912,-3.24 0,-0.9651 0.2988,-2.4081 0.1418,-3.5295 -0.1519,-1.1213 -0.2177,-2.7482 -0.243,-3.4008 -0.0304,-0.8181 0.0405,-2.5598 -0.0962,-3.3089 -0.1722,-0.956 0.081,-2.615 0.2886,-3.2216 0.2076,-0.6113 -0.081,-1.0295 -0.0304,-2.353 0.0304,-0.7859 0.1317,-2.036 0.1317,-3.2079 0,0 0,0 0,0 z m -0.5621,-6.9111 c -0.9063,0 -2.1164,0.1519 -2.2734,1.4886 -0.1519,1.3418 0.8304,2.3848 2.1924,2.3848 1.3671,0 0.9722,-0.7342 4.162,-0.7342 1.1798,0 1.2456,-2.4455 0.0507,-2.4455 -2.8405,0 -2.4507,-0.6937 -4.1317,-0.6937 0,0 0,0 0,0 z m 38.9266,3.8734 c 1.6456,0 2.3089,-0.6228 2.3494,-1.924 0.0405,-1.3519 -0.881,-1.9747 -2.3494,-1.9747 -1.4633,0 -1.3975,0.7341 -3.8532,0.7139 -1.3164,-0.0152 -1.0886,2.4456 -0.0151,2.4456 2.6025,0 2.2227,0.7392 3.8683,0.7392 0,0 0,0 0,0 z m -34.7207,-3.1848 c -0.6428,0 -0.6568,2.4608 0.095,2.4608 0.7965,0 2.532,-0.4406 2.9876,-0.3899 0.4555,0.0506 1.7131,0.5164 2.1128,0.5164 0.3968,0 2.3196,-0.719 3.1468,-0.5164 0.8217,0.2076 1.0564,0.0962 1.6265,0.0962 0.5674,0 1.4701,-0.1469 2.0094,-0.2025 0.5422,-0.0507 1.0257,0.5974 1.7328,0.4253 0.707,-0.1772 1.0899,0.0709 1.5762,0.0709 0.7825,0 0.7378,-2.4406 0.008,-2.4406 -0.7043,0 -1.185,-0.162 -1.7831,-0.1113 -0.5952,0.0506 -1.1095,0.3088 -1.6768,0.0506 -0.5673,-0.2532 -1.6656,0.0202 -2.3476,0.1772 -0.6819,0.157 -1.4364,0.0861 -1.973,-0.0203 -1.0788,-0.1974 -3.6639,0.2583 -4.0328,0.0507 -0.3717,-0.2025 -1.5511,-0.005 -1.9731,-0.005 -0.4164,0 -0.6428,-0.162 -1.5091,-0.162 0,0 0,0 0,0 z m 15.4776,2.4608 c 0.8227,0 2.1643,-0.3292 2.4923,-0.3292 0.328,0 1.4276,0.1874 1.9492,0.1367 0.5189,-0.0556 0.6936,-0.2481 1.5701,-0.2987 1.0942,-0.0658 1.8121,0.1772 1.8632,0.2076 0.1559,0.0861 0.6855,0.3291 1.4222,0.2532 0.984,-0.1013 1.2797,0.1316 1.718,0.0304 0.7528,-0.2937 0.8254,-0.0254 1.398,-0.0709 0.5781,-0.0507 0.9356,0.0557 1.3954,-0.076 0.5027,-0.1519 0.8684,0.1671 1.3308,0.1469 0.734,0 0.6641,-2.4557 -0.0242,-2.4557 -0.4167,0 -0.7904,0.2632 -1.226,0.2632 -0.4382,0 -0.82,-0.0506 -1.2582,-0.1519 -0.4382,-0.1063 -1.3308,0.0507 -2.0406,0 -0.7125,-0.0556 -1.8928,-0.1974 -2.7128,-0.1417 -0.8227,0.0455 -1.3308,0.6228 -3.0111,0.243 -0.5404,-0.1215 -1.6185,-0.0152 -2.0568,-0.0152 -0.7689,0 -2.2503,-0.1823 -2.8901,-0.1823 -0.7636,0 -0.7421,2.4406 0.0806,2.4406 0,0 0,0 0,0 z" /><g
           transform="translate(123,546)"
           id="g290"><text
             id="text294"
             style="font-variant:normal;font-size:12px;font-family:HiraMaruPro;-inkscape-font-specification:HiraMaruPro-W4;writing-mode:lr-tb;fill:#000000;fill-opacity:1;fill-rule:nonzero;stroke:none"
             transform="scale(1,-1)"><tspan
               id="tspan292"
               y="0"
               x="0 8.1120005 15.324 18.132 24.552 28.548 33.383999 38.568001 45.444 52.644001 59.063999 65.940002 72.587997 77.424004 80.232002 87.468002 94.667999 98.664001 106.164 113.4 120.288 126.708 130.70399 137.90401 145.14 149.976 153.972 160.86 167.16 169.968 176.388">This transaction does not exist</tspan></text>
</g></g></g></g></svg>