<?xml version="1.0" encoding="UTF-8" standalone="no"?>
<svg
   xmlns:dc="http://purl.org/dc/elements/1.1/"
   xmlns:cc="http://creativecommons.org/ns#"
   xmlns:rdf="http://www.w3.org/1999/02/22-rdf-syntax-ns#"
   xmlns:svg="http://www.w3.org/2000/svg"
   xmlns="http://www.w3.org/2000/svg"
   viewBox="0 0 1184.5771 509.4696"
   height="509.4696"
   width="1184.5771"
   xml:space="preserve"
   id="svg2"
   version="1.1"><metadata
     id="metadata8"><rdf:RDF><cc:Work
         rdf:about=""><dc:format>image/svg+xml</dc:format><dc:type
           rdf:resource="http://purl.org/dc/dcmitype/StillImage" /></cc:Work></rdf:RDF></metadata><defs
     id="defs6"><clipPath
       id="clipPath14"
       clipPathUnits="userSpaceOnUse"><path
         id="path12"
         d="M 0,0 H 1024 V 768 H 0 Z" /></clipPath><clipPath
       id="clipPath24"
       clipPathUnits="userSpaceOnUse"><path
         id="path22"
         d="M 0,0 H 1024 V 768 H 0 Z" /></clipPath><clipPath
       id="clipPath64"
       clipPathUnits="userSpaceOnUse"><path
         id="path62"
         d="m 237.1002,379.6593 h 69.51367 v 45.38867 H 237.1002 Z" /></clipPath><clipPath
       id="clipPath90"
       clipPathUnits="userSpaceOnUse"><path
         id="path88"
         d="M 0,0 H 1024 V 768 H 0 Z" /></clipPath><clipPath
       id="clipPath128"
       clipPathUnits="userSpaceOnUse"><path
         id="path126"
         d="m 120.4509,379.6593 h 69.51367 v 45.38867 H 120.4509 Z" /></clipPath><clipPath
       id="clipPath154"
       clipPathUnits="userSpaceOnUse"><path
         id="path152"
         d="M 0,0 H 1024 V 768 H 0 Z" /></clipPath><clipPath
       id="clipPath244"
       clipPathUnits="userSpaceOnUse"><path
         id="path242"
         d="m 535.1002,380.6146 h 69.51367 v 45.38867 H 535.1002 Z" /></clipPath><clipPath
       id="clipPath270"
       clipPathUnits="userSpaceOnUse"><path
         id="path268"
         d="M 0,0 H 1024 V 768 H 0 Z" /></clipPath><clipPath
       id="clipPath308"
       clipPathUnits="userSpaceOnUse"><path
         id="path306"
         d="m 418.4509,380.6146 h 69.51367 v 45.38867 H 418.4509 Z" /></clipPath><clipPath
       id="clipPath334"
       clipPathUnits="userSpaceOnUse"><path
         id="path332"
         d="M 0,0 H 1024 V 768 H 0 Z" /></clipPath><clipPath
       id="clipPath436"
       clipPathUnits="userSpaceOnUse"><path
         id="path434"
         d="m 823.1002,378.6146 h 70.67184 v 45.38867 H 823.1002 Z" /></clipPath><clipPath
       id="clipPath462"
       clipPathUnits="userSpaceOnUse"><path
         id="path460"
         d="M 0,0 H 1024 V 768 H 0 Z" /></clipPath><clipPath
       id="clipPath500"
       clipPathUnits="userSpaceOnUse"><path
         id="path498"
         d="m 706.4509,378.6146 h 69.51367 v 45.38867 H 706.4509 Z" /></clipPath><clipPath
       id="clipPath526"
       clipPathUnits="userSpaceOnUse"><path
         id="path524"
         d="M 0,0 H 1024 V 768 H 0 Z" /></clipPath></defs><g
     clip-path="url(#clipPath14)"
     transform="matrix(1.3333333,0,0,-1.3333333,-79.092653,782.39307)"
     id="g10"><g
       id="g16" /><g
       id="g18"><g
         clip-path="url(#clipPath24)"
         id="g20"><path
           id="path26"
           style="fill:#ffffff;fill-opacity:1;fill-rule:nonzero;stroke:none"
           d="M 0,0 H 1024 V 768 H 0 Z" /><path
           id="path28"
           style="fill:#f4f4f4;fill-opacity:1;fill-rule:nonzero;stroke:none"
           d="M 58.1198,587.2632 H 965.8802 V 201.715 H 58.1198 Z" /><g
           transform="translate(394,285)"
           id="g30"><text
             id="text34"
             style="font-variant:normal;font-size:10px;font-family:HiraKakuProN;-inkscape-font-specification:HiraKakuProN-W3;writing-mode:lr-tb;fill:#000000;fill-opacity:1;fill-rule:nonzero;stroke:none"
             transform="scale(1,-1)"><tspan
               id="tspan32"
               y="0"
               x="0 5.3699999 7.75 14.16">sign</tspan></text>
</g><path
           id="path36"
           style="fill:#ffffff;fill-opacity:1;fill-rule:nonzero;stroke:none"
           d="m 140.2198,541.4616 h 147.1488 c 7.6079,0 11.4708,0 15.5741,-1.3004 4.4903,-1.6343 8.0275,-5.1715 9.6618,-9.6618 1.3004,-4.1033 1.3004,-7.9662 1.3004,-15.6921 V 323.0747 c 0,-7.6079 0,-11.4708 -1.3004,-15.5741 -1.6343,-4.4903 -5.1715,-8.0275 -9.6618,-9.6618 -4.1033,-1.3004 -7.9662,-1.3004 -15.6921,-1.3004 H 140.2198 c -7.6079,0 -11.4708,0 -15.5741,1.3004 -4.4903,1.6343 -8.0274,5.1715 -9.6618,9.6618 -1.3004,4.1033 -1.3004,7.9662 -1.3004,15.6921 v 191.7326 c 0,7.6079 0,11.4708 1.3004,15.5741 1.6344,4.4903 5.1715,8.0275 9.6618,9.6618 4.1033,1.3004 7.9662,1.3004 15.6921,1.3004 z" /><g
           transform="matrix(1,0,0,-1,113.6835,541.4616)"
           id="g38"><path
             id="path40"
             style="fill:none;stroke:#000000;stroke-width:1.10000002;stroke-linecap:butt;stroke-linejoin:miter;stroke-miterlimit:4;stroke-dasharray:none;stroke-opacity:1"
             d="M 26.53629,0 H 173.685 c 7.6079,0 11.4709,0 15.5741,1.300396 4.4903,1.63433 8.0275,5.171499 9.6618,9.661784 1.3004,4.10328 1.3004,7.96621 1.3004,15.69209 V 218.3869 c 0,7.6079 0,11.4708 -1.3004,15.5741 -1.6343,4.4903 -5.1715,8.0275 -9.6618,9.6618 -4.1032,1.3004 -7.9662,1.3004 -15.692,1.3004 H 26.53629 c -7.6079,0 -11.47083,0 -15.57411,-1.3004 C 6.471895,241.9885 2.934726,238.4513 1.300396,233.961 0,229.8577 0,225.9948 0,218.2689 V 26.53629 C 0,18.92839 0,15.06546 1.300396,10.96218 2.934726,6.471895 6.471895,2.934726 10.96218,1.300396 15.06546,0 18.92839,0 26.65427,0 Z" /></g><g
           transform="matrix(1,0,0,-1,114.6171,507.5561)"
           id="g42"><path
             id="path44"
             style="fill:none;stroke:#000000;stroke-width:1;stroke-linecap:butt;stroke-linejoin:miter;stroke-miterlimit:4;stroke-dasharray:none;stroke-opacity:1"
             d="M 0,0 H 198.3542" /></g><g
           transform="translate(151,520)"
           id="g46"><text
             id="text50"
             style="font-variant:normal;font-size:10px;font-family:HiraKakuProN;-inkscape-font-specification:HiraKakuProN-W3;writing-mode:lr-tb;fill:#000000;fill-opacity:1;fill-rule:nonzero;stroke:none"
             transform="scale(1,-1)"><tspan
               id="tspan48"
               y="0"
               x="0 3.9200001 9.2799997 11.66 18.120001 20.52 23.85 30.42 36.990002 43.560001 50.130001 56.009998 62.580002 69.150002 74.93 80.709999 86.459999 93.029999 99.599998 106.17 112.74 119.31">txid: 2775e37cca287977</tspan></text>
</g><path
           id="path52"
           style="fill:#ffffff;fill-opacity:1;fill-rule:nonzero;stroke:none"
           d="m 236.1002,426.048 h 71.5137 v -47.3887 h -71.5137 z" /><g
           transform="matrix(1,0,0,-1,236.1002,426.048)"
           id="g54"><path
             id="path56"
             style="fill:none;stroke:#000000;stroke-width:1;stroke-linecap:butt;stroke-linejoin:miter;stroke-miterlimit:4;stroke-dasharray:none;stroke-opacity:1"
             d="M 0,0 H 71.51367 V 47.38867 H 0 Z" /></g></g></g><g
       id="g58"><g
         clip-path="url(#clipPath64)"
         id="g60"><g
           transform="translate(260,406)"
           id="g66"><text
             id="text70"
             style="font-variant:normal;font-size:10px;font-family:HiraKakuProN;-inkscape-font-specification:HiraKakuProN-W3;writing-mode:lr-tb;fill:#ee220c;fill-opacity:1;fill-rule:nonzero;stroke:none"
             transform="scale(1,-1)"><tspan
               id="tspan68"
               y="0"
               x="0 7.5 9.8199997 12.2 17.98 23.860001">Alice </tspan></text>
</g><g
           transform="translate(241,391)"
           id="g72"><text
             id="text76"
             style="font-variant:normal;font-size:10px;font-family:HiraKakuProN;-inkscape-font-specification:HiraKakuProN-W6;writing-mode:lr-tb;fill:#000000;fill-opacity:1;fill-rule:nonzero;stroke:none"
             transform="scale(1,-1)"><tspan
               id="tspan74"
               y="0"
               x="0 7.1199999 9.8199997 16.940001 24.059999 31.18">0.095 </tspan></text>
</g><g
           transform="translate(241,391)"
           id="g78"><text
             id="text82"
             style="font-variant:normal;font-size:8px;font-family:HiraKakuProN;-inkscape-font-specification:HiraKakuProN-W3;writing-mode:lr-tb;fill:#000000;fill-opacity:1;fill-rule:nonzero;stroke:none"
             transform="matrix(1,0,0,-1,34.51,0)"><tspan
               id="tspan80"
               y="0"
               x="0 5.1680002 7.072 10.208 14.832 19.832001 21.736">bitcoin</tspan></text>
</g></g></g><g
       id="g84"><g
         clip-path="url(#clipPath90)"
         id="g86"><path
           id="path92"
           style="fill:#ffffff;fill-opacity:1;fill-rule:nonzero;stroke:none"
           d="m 187.0562,467.3678 c 0,7.0414 5.7086,12.75 12.75,12.75 4.8306,0 9.0307,-2.6854 11.1939,-6.6459 h 3.8069 v -1.9128 h 28.2927 l 3.2373,-4.1959 -3.2373,-2.6028 -1.9452,-1.5978 -1.6997,1.5978 -1.3847,-0.005 -2.3666,-1.6348 -2.2925,1.6302 h -1.533 l -2.3573,-1.6302 -2.3018,1.6348 h -1.5144 l -2.3666,-1.6348 -2.3064,1.6395 h -1.357 l -0.3612,-0.0649 -2.9872,-1.7738 h -1.5191 v -1.658 h -3.8069 c -2.1632,-3.9602 -6.3634,-6.6459 -11.1939,-6.6459 -7.0414,3e-4 -12.75,5.7086 -12.75,12.75 z m 3.2466,0 c 0,-1.607 1.3016,-2.9085 2.9084,-2.9085 1.607,0 2.9085,1.3017 2.9085,2.9085 0,1.6068 -1.3017,2.9085 -2.9085,2.9085 -1.6068,0 -2.9084,-1.3017 -2.9084,-2.9085 z" /><g
           transform="rotate(-90,333.587,146.5308)"
           id="g94"><path
             id="path96"
             style="fill:none;stroke:#000000;stroke-width:1;stroke-linecap:butt;stroke-linejoin:miter;stroke-miterlimit:4;stroke-dasharray:none;stroke-opacity:1"
             d="M 12.75,0 C 5.708628,0 4.522764e-6,5.708629 0,12.74999 c 0,4.83065 2.685377,9.03073 6.64593,11.19388 v 3.80694 h 1.912731 v 28.29266 l 4.195969,3.23729 2.60279,-3.23729 1.59781,-1.94515 -1.59781,-1.69969 0.0046,-1.38476 1.63485,-2.3666 -1.63022,-2.2925 v -1.53296 l 1.63022,-2.35733 -1.63485,-2.30177 v -1.51443 l 1.63485,-2.3666 -1.63949,-2.30639 v -1.35698 l 0.06484,-0.36124 1.77379,-2.9872 v -1.51906 h 1.65801 V 23.94387 C 22.81431,21.78072 25.5,17.58049 25.49999,12.74999 25.4997,5.708627 19.79137,-4.522763e-6 12.75,0 Z m 0,3.246548 c 1.60695,0 2.90846,1.30166 2.90846,2.908462 0,1.606954 -1.30166,2.908462 -2.90846,2.908462 -1.60681,0 -2.908461,-1.301655 -2.908466,-2.908462 0,-1.606804 1.301656,-2.908464 2.908466,-2.908462 z" /></g><g
           transform="translate(174,487)"
           id="g98"><text
             id="text102"
             style="font-variant:normal;font-size:10px;font-family:HiraKakuProN;-inkscape-font-specification:HiraKakuProN-W3;writing-mode:lr-tb;fill:#ee220c;fill-opacity:1;fill-rule:nonzero;stroke:none"
             transform="scale(1,-1)"><tspan
               id="tspan100"
               y="0"
               x="0 7.5 9.8199997 12.2 17.98 23.860001 25.809999 31.18 34.509998 40.98 47.16 53.619999 55.939999 58.32 64.099998 67.43 73.18 79.059998">Alice's public key</tspan></text>
</g><g
           transform="translate(255,435)"
           id="g104"><text
             id="text108"
             style="font-variant:normal;font-size:10px;font-family:HiraKakuProN;-inkscape-font-specification:HiraKakuProN-W3;writing-mode:lr-tb;fill:#000000;fill-opacity:1;fill-rule:nonzero;stroke:none"
             transform="scale(1,-1)"><tspan
               id="tspan106"
               y="0"
               x="0 7.9499998 14.13 18.049999 24.52 30.700001">Output</tspan></text>
</g><g
           transform="matrix(1,0,0,-1,196.6742,402.3537)"
           id="g110"><path
             id="path112"
             style="fill:none;stroke:#000000;stroke-width:2;stroke-linecap:butt;stroke-linejoin:miter;stroke-miterlimit:4;stroke-dasharray:none;stroke-opacity:1"
             d="m 0,0 h 24.64 1" /></g><path
           id="path114"
           style="fill:#000000;fill-opacity:1;fill-rule:nonzero;stroke:none"
           d="m 221.3142,397.5537 9.6,4.8 -9.6,4.8 z" /><path
           id="path116"
           style="fill:#ffffff;fill-opacity:1;fill-rule:nonzero;stroke:none"
           d="m 119.4509,426.048 h 71.5137 v -47.3887 h -71.5137 z" /><g
           transform="matrix(1,0,0,-1,119.4509,426.048)"
           id="g118"><path
             id="path120"
             style="fill:none;stroke:#000000;stroke-width:1;stroke-linecap:butt;stroke-linejoin:miter;stroke-miterlimit:4;stroke-dasharray:none;stroke-opacity:1"
             d="M 0,0 H 71.51367 V 47.38867 H 0 Z" /></g></g></g><g
       id="g122"><g
         clip-path="url(#clipPath128)"
         id="g124"><g
           transform="translate(143,406)"
           id="g130"><text
             id="text134"
             style="font-variant:normal;font-size:10px;font-family:HiraKakuProN;-inkscape-font-specification:HiraKakuProN-W3;writing-mode:lr-tb;fill:#000000;fill-opacity:1;fill-rule:nonzero;stroke:none"
             transform="scale(1,-1)"><tspan
               id="tspan132"
               y="0"
               x="0 6.6900001 12.44 18.219999 23.969999">Zack </tspan></text>
</g><g
           transform="translate(132,391)"
           id="g136"><text
             id="text140"
             style="font-variant:normal;font-size:10px;font-family:HiraKakuProN;-inkscape-font-specification:HiraKakuProN-W6;writing-mode:lr-tb;fill:#000000;fill-opacity:1;fill-rule:nonzero;stroke:none"
             transform="scale(1,-1)"><tspan
               id="tspan138"
               y="0"
               x="0 7.1199999 9.8199997 16.940001">0.1 </tspan></text>
</g><g
           transform="translate(132,391)"
           id="g142"><text
             id="text146"
             style="font-variant:normal;font-size:8px;font-family:HiraKakuProN;-inkscape-font-specification:HiraKakuProN-W3;writing-mode:lr-tb;fill:#000000;fill-opacity:1;fill-rule:nonzero;stroke:none"
             transform="matrix(1,0,0,-1,20.27,0)"><tspan
               id="tspan144"
               y="0"
               x="0 5.1680002 7.072 10.208 14.832 19.832001 21.736">bitcoin</tspan></text>
</g></g></g><g
       id="g148"><g
         clip-path="url(#clipPath154)"
         id="g150"><g
           transform="translate(143,435)"
           id="g156"><text
             id="text160"
             style="font-variant:normal;font-size:10px;font-family:HiraKakuProN;-inkscape-font-specification:HiraKakuProN-W3;writing-mode:lr-tb;fill:#000000;fill-opacity:1;fill-rule:nonzero;stroke:none"
             transform="scale(1,-1)"><tspan
               id="tspan158"
               y="0"
               x="0 2.49 8.6700001 15.14 21.32">Input</tspan></text>
</g><g
           transform="translate(132,368)"
           id="g162"><text
             id="text166"
             style="font-variant:normal;font-size:7px;font-family:HiraKakuProN;-inkscape-font-specification:HiraKakuProN-W3;writing-mode:lr-tb;fill:#000000;fill-opacity:1;fill-rule:nonzero;stroke:none"
             transform="scale(1,-1)"><tspan
               id="tspan164"
               y="0"
               x="0 4.6339998 7.6440001 11.76 15.568 17.233999 21.608999 25.934999 29.694 32.025002 34.769001 38.521 40.187 44.709 46.389 48.720001">Previous txid:  </tspan></text>
</g><g
           transform="translate(120,357)"
           id="g168"><text
             id="text172"
             style="font-variant:normal;font-size:7px;font-family:HiraKakuProN;-inkscape-font-specification:HiraKakuProN-W3;writing-mode:lr-tb;fill:#000000;fill-opacity:1;fill-rule:nonzero;stroke:none"
             transform="scale(1,-1)"><tspan
               id="tspan170"
               y="0"
               x="0 4.5219998 9.1210003 13.72 18.242001 22.841 27.440001 31.465 35.490002 40.089001 44.134998 48.657001 53.256001 57.280998 61.880001 66.507004">d53d10aa9cb7a748</tspan></text>
</g><g
           transform="translate(176,329)"
           id="g174"><text
             id="text178"
             style="font-variant:normal;font-size:10px;font-family:HiraKakuProN;-inkscape-font-specification:HiraKakuProN-W3;writing-mode:lr-tb;fill:#000000;fill-opacity:1;fill-rule:nonzero;stroke:none"
             transform="scale(1,-1)"><tspan
               id="tspan176"
               y="0"
               x="0 6.6900001 12.44 18.219999 23.969999 26.370001 31.74 35.07 40.439999 42.82 49.23 55.41 61.16 65.080002 71.260002 75.559998">Zackʼs signature</tspan></text>
</g><g
           transform="translate(202,310)"
           id="g180"><text
             id="text184"
             style="font-style:italic;font-variant:normal;font-weight:normal;font-size:10px;font-family:Zapfino;-inkscape-font-specification:Zapfino;writing-mode:lr-tb;fill:#000000;fill-opacity:1;fill-rule:nonzero;stroke:none"
             transform="scale(1,-1)"><tspan
               id="tspan182"
               y="0"
               x="0 9.875 17 22.35">Zack</tspan></text>
</g><g
           transform="translate(174,271)"
           id="g186"><text
             id="text190"
             style="font-variant:normal;font-size:10px;font-family:HiraKakuProN;-inkscape-font-specification:HiraKakuProN-W3;writing-mode:lr-tb;fill:#ee220c;fill-opacity:1;fill-rule:nonzero;stroke:none"
             transform="scale(1,-1)"><tspan
               id="tspan188"
               y="0"
               x="0 7.5 9.8199997 12.2 17.98 23.860001 25.809999 31.18 34.509998 39.880001 45.759998 51.540001 55.84 61.720001 65.639999 68.970001 74.720001 80.599998">Alice's secret key</tspan></text>
</g><path
           id="path192"
           style="fill:#ffffff;fill-opacity:1;fill-rule:nonzero;stroke:none"
           d="m 192.8982,257.4081 c 0,0.6315 0.5112,1.1427 1.1427,1.1427 h 3.2643 v 3.6072 c 0,0.8558 0.6945,1.5501 1.5502,1.5502 h 15.4421 c 0.8559,0 1.5502,-0.6945 1.5502,-1.5502 v -3.6072 h 3.001 v -2.7426 h 3.8207 v -1.7489 h 30.3526 v -0.005 l 3.473,-4.5014 -3.473,-2.7923 -2.0867,-1.7092 -1.8235,1.7092 h -1.4855 l -2.539,-1.7589 -2.4594,1.7489 h -1.6445 l -2.529,-1.7489 -2.4644,1.7539 h -1.6346 l -2.534,-1.7539 -2.4693,1.7539 -1.744,0.005 -3.309,-1.9675 h -1.6297 v -1.6844 h -3.8207 v -2.5538 h -3.001 v -3.6071 c 0,-0.8559 -0.6945,-1.5502 -1.5502,-1.5502 h -15.4421 c -0.8559,0 -1.5502,0.6943 -1.5502,1.5502 v 3.6071 h -3.2643 c -0.6315,0 -1.1427,0.5113 -1.1427,1.1428 z m 2.4594,-4.9288 v -5.8529 h 1.9476 v 5.8529 z" /><g
           transform="rotate(-90,228.3032,35.405)"
           id="g194"><path
             id="path196"
             style="fill:none;stroke:#000000;stroke-width:1;stroke-linecap:butt;stroke-linejoin:miter;stroke-miterlimit:4;stroke-dasharray:none;stroke-opacity:1"
             d="M 6.300065,0 C 5.668551,0 5.157304,0.511243 5.157309,1.142756 V 4.407065 H 1.550174 C 0.6943196,4.407065 4.852056e-6,5.10154 0,5.957239 V 21.39936 c 0,0.85585 0.6944748,1.55017 1.550174,1.55017 h 3.607135 v 3.00098 h 2.742615 v 3.82078 h 1.748914 v 30.3526 h 0.00497 l 4.501463,3.47299 2.7923,-3.47299 1.70917,-2.08677 -1.70917,-1.82344 V 54.7281 l 1.75885,-2.53891 -1.74891,-2.45941 V 48.0852 l 1.74891,-2.52897 -1.75388,-2.46437 v -1.63464 l 1.75388,-2.53394 -1.75388,-2.46935 -0.005,-1.74395 1.96753,-3.30902 v -1.62967 h 1.68433 v -3.82078 h 2.55381 v -3.00098 h 3.60713 c 0.85586,0 1.55018,-0.69448 1.55018,-1.55017 V 5.957239 c 0,-0.855854 -0.69434,-1.550172 -1.55018,-1.550174 h -3.60713 V 1.142756 C 23.15324,0.5112394 22.642,-1.213014e-6 22.01048,0 Z m 4.928755,2.459411 h 5.8529 v 1.947654 h -5.8529 z" /></g><path
           id="path198"
           style="fill:#ffffff;fill-opacity:1;fill-rule:nonzero;stroke:none"
           d="m 312.6522,554.6309 c -8.3885,0 -15.2099,-6.8166 -15.2099,-15.2051 v -12.5599 c -3.0448,-3.532 -4.886,-8.1164 -4.886,-13.1403 0,-11.0984 8.9975,-20.0959 20.0959,-20.0959 11.0984,0 20.0958,8.9975 20.0958,20.0959 0,5.0239 -1.8411,9.6083 -4.886,13.1403 v 12.5599 c 0,8.3885 -6.8213,15.2051 -15.2098,15.2051 z m 0,-7.6263 c 4.1866,0 7.5978,-3.4112 7.5978,-7.5978 v -7.0792 c -2.3445,0.9591 -4.9031,1.4938 -7.5978,1.4938 -2.6947,0 -5.2533,-0.5347 -7.5978,-1.4938 v 7.0792 c 0,4.1866 3.4112,7.5978 7.5978,7.5978 z m 0,-22.6221 c 5.8917,0 10.6569,-4.7652 10.6569,-10.6569 0,-5.8918 -4.7652,-10.6569 -10.6569,-10.6569 -5.8918,0 -10.6569,4.7651 -10.6569,10.6569 0,5.8917 4.7652,10.6569 10.6569,10.6569 z m 0,-1.7651 c -2.2754,0 -4.5487,-0.871 -6.2847,-2.6071 -3.4721,-3.4721 -3.4721,-9.0973 0,-12.5694 3.4721,-3.4721 9.0973,-3.4721 12.5694,0 3.4721,3.4721 3.4721,9.0973 0,12.5694 -1.7361,1.736 -4.0093,2.6071 -6.2847,2.6071 z" /><g
           transform="matrix(1,0,0,-1,292.5563,554.6309)"
           id="g200"><path
             id="path202"
             style="fill:none;stroke:#000000;stroke-width:2;stroke-linecap:butt;stroke-linejoin:miter;stroke-miterlimit:4;stroke-dasharray:none;stroke-opacity:1"
             d="M 20.09585,0 C 11.70736,0 4.885999,6.816608 4.885994,15.2051 V 27.76501 C 1.841168,31.29701 4.646036e-6,35.88137 0,40.90534 0,52.00373 8.997462,61.0012 20.09585,61.00119 c 11.09839,0 20.09585,-8.99746 20.09585,-20.09585 0,-5.02397 -1.84115,-9.60833 -4.88599,-13.14033 V 15.2051 C 35.30571,6.816603 28.48434,3.484527e-6 20.09585,0 Z m 0,7.626338 c 4.18664,0 7.5978,3.411152 7.59779,7.597792 v 7.07922 c -2.34451,-0.95912 -4.90312,-1.49386 -7.59779,-1.49387 -2.69467,0 -5.25326,0.53475 -7.59779,1.49387 v -7.07922 c 0,-4.18664 3.41117,-7.59779 7.59779,-7.597792 z m 0,22.622102 c 5.89174,0 10.65688,4.76516 10.65689,10.6569 0,5.89174 -4.76515,10.65688 -10.65689,10.65689 -5.89174,0 -10.65688,-4.76516 -10.656889,-10.65689 0,-5.89174 4.765159,-10.65689 10.656889,-10.6569 z m 0,1.76505 c -2.27538,0 -4.54866,0.87108 -6.28471,2.60713 -3.4721,3.47212 -3.47212,9.09732 0,12.56943 3.47212,3.47211 9.09732,3.4721 12.56942,0 3.47212,-3.47212 3.47211,-9.09732 0,-12.56943 -1.73605,-1.73605 -4.00932,-2.60713 -6.28471,-2.60713 z" /></g><g
           transform="matrix(1,0,0,-1,244.3191,498.5549)"
           id="g204"><path
             id="path206"
             style="fill:none;stroke:#000000;stroke-width:1;stroke-linecap:butt;stroke-linejoin:miter;stroke-miterlimit:4;stroke-dasharray:1, 1;stroke-dashoffset:0;stroke-opacity:1"
             d="M 49.86287,3.947208 49.51468,4.306045 C 37.52586,15.66337 21.02101,23.47761 0,27.74889" /></g><path
           id="path208"
           style="fill:#000000;fill-opacity:1;fill-rule:nonzero;stroke:none"
           d="m 295.9868,492.1597 2.0253,6.3952 -6.3313,-2.2169 z" /><g
           transform="translate(290,480)"
           id="g210"><text
             id="text214"
             style="font-variant:normal;font-size:10px;font-family:HiraKakuProN;-inkscape-font-specification:HiraKakuProN-W3;writing-mode:lr-tb;fill:#000000;fill-opacity:1;fill-rule:nonzero;stroke:none"
             transform="scale(1,-1)"><tspan
               id="tspan212"
               y="0"
               x="0 2.3199999 8.5699997 14.35">lock</tspan></text>
</g><path
           id="path216"
           style="fill:#ffffff;fill-opacity:1;fill-rule:nonzero;stroke:none"
           d="m 438.2198,542.4169 h 147.1488 c 7.6079,0 11.4708,0 15.5741,-1.3004 4.4903,-1.6344 8.0274,-5.1715 9.6618,-9.6618 1.3004,-4.1033 1.3004,-7.9662 1.3004,-15.6921 V 324.03 c 0,-7.6079 0,-11.4709 -1.3004,-15.5741 -1.6344,-4.4903 -5.1715,-8.0275 -9.6618,-9.6618 -4.1033,-1.3004 -7.9662,-1.3004 -15.6921,-1.3004 H 438.2198 c -7.6079,0 -11.4708,0 -15.5741,1.3004 -4.4903,1.6343 -8.0274,5.1715 -9.6618,9.6618 -1.3004,4.1032 -1.3004,7.9662 -1.3004,15.6921 v 191.7326 c 0,7.6079 0,11.4708 1.3004,15.5741 1.6344,4.4903 5.1715,8.0274 9.6618,9.6618 4.1033,1.3004 7.9662,1.3004 15.6921,1.3004 z" /><g
           transform="matrix(1,0,0,-1,411.6835,542.4169)"
           id="g218"><path
             id="path220"
             style="fill:none;stroke:#000000;stroke-width:1.10000002;stroke-linecap:butt;stroke-linejoin:miter;stroke-miterlimit:4;stroke-dasharray:none;stroke-opacity:1"
             d="M 26.53629,0 H 173.685 c 7.6079,0 11.4709,0 15.5741,1.300396 4.4903,1.63433 8.0275,5.171499 9.6618,9.661784 1.3004,4.10328 1.3004,7.96621 1.3004,15.69209 V 218.3869 c 0,7.6079 0,11.4708 -1.3004,15.5741 -1.6343,4.4903 -5.1715,8.0275 -9.6618,9.6618 -4.1032,1.3004 -7.9662,1.3004 -15.692,1.3004 H 26.53629 c -7.6079,0 -11.47083,0 -15.57411,-1.3004 C 6.471895,241.9885 2.934726,238.4513 1.300396,233.961 0,229.8577 0,225.9948 0,218.2689 V 26.53629 C 0,18.92839 0,15.06546 1.300396,10.96218 2.934726,6.471895 6.471895,2.934726 10.96218,1.300396 15.06546,0 18.92839,0 26.65427,0 Z" /></g><g
           transform="matrix(1,0,0,-1,412.6171,508.5114)"
           id="g222"><path
             id="path224"
             style="fill:none;stroke:#000000;stroke-width:1;stroke-linecap:butt;stroke-linejoin:miter;stroke-miterlimit:4;stroke-dasharray:none;stroke-opacity:1"
             d="M 0,0 H 198.3542" /></g><g
           transform="translate(450,521)"
           id="g226"><text
             id="text230"
             style="font-variant:normal;font-size:10px;font-family:HiraKakuProN;-inkscape-font-specification:HiraKakuProN-W3;writing-mode:lr-tb;fill:#000000;fill-opacity:1;fill-rule:nonzero;stroke:none"
             transform="scale(1,-1)"><tspan
               id="tspan228"
               y="0"
               x="0 3.9200001 9.2799997 11.66 18.120001 20.52 23.85 29.629999 36.09 40.259998 46.139999 52.02 58.59 65.160004 71.620003 78.080002 84.650002 91.220001 97.790001 104.36 110.93 117.5">txid: cbfee76bb9199070</tspan></text>
</g><path
           id="path232"
           style="fill:#ffffff;fill-opacity:1;fill-rule:nonzero;stroke:none"
           d="m 534.1002,427.0033 h 71.5137 v -47.3887 h -71.5137 z" /><g
           transform="matrix(1,0,0,-1,534.1002,427.0033)"
           id="g234"><path
             id="path236"
             style="fill:none;stroke:#000000;stroke-width:1;stroke-linecap:butt;stroke-linejoin:miter;stroke-miterlimit:4;stroke-dasharray:none;stroke-opacity:1"
             d="M 0,0 H 71.51367 V 47.38867 H 0 Z" /></g></g></g><g
       id="g238"><g
         clip-path="url(#clipPath244)"
         id="g240"><g
           transform="translate(560,407)"
           id="g246"><text
             id="text250"
             style="font-variant:normal;font-size:10px;font-family:HiraKakuProN;-inkscape-font-specification:HiraKakuProN-W3;writing-mode:lr-tb;fill:#017100;fill-opacity:1;fill-rule:nonzero;stroke:none"
             transform="scale(1,-1)"><tspan
               id="tspan248"
               y="0"
               x="0 7.1199999 13.37 19.83">Bob </tspan></text>
</g><g
           transform="translate(539,392)"
           id="g252"><text
             id="text256"
             style="font-variant:normal;font-size:10px;font-family:HiraKakuProN;-inkscape-font-specification:HiraKakuProN-W6;writing-mode:lr-tb;fill:#000000;fill-opacity:1;fill-rule:nonzero;stroke:none"
             transform="scale(1,-1)"><tspan
               id="tspan254"
               y="0"
               x="0 7.1199999 9.8199997 16.940001 24.059999 31.18">0.090 </tspan></text>
</g><g
           transform="translate(539,392)"
           id="g258"><text
             id="text262"
             style="font-variant:normal;font-size:8px;font-family:HiraKakuProN;-inkscape-font-specification:HiraKakuProN-W3;writing-mode:lr-tb;fill:#000000;fill-opacity:1;fill-rule:nonzero;stroke:none"
             transform="matrix(1,0,0,-1,34.51,0)"><tspan
               id="tspan260"
               y="0"
               x="0 5.1680002 7.072 10.208 14.832 19.832001 21.736">bitcoin</tspan></text>
</g></g></g><g
       id="g264"><g
         clip-path="url(#clipPath270)"
         id="g266"><path
           id="path272"
           style="fill:#ffffff;fill-opacity:1;fill-rule:nonzero;stroke:none"
           d="m 485.0562,468.3231 c 0,7.0414 5.7086,12.75 12.75,12.75 4.8306,0 9.0307,-2.6854 11.1939,-6.6459 h 3.8069 v -1.9128 h 28.2927 l 3.2373,-4.1959 -3.2373,-2.6028 -1.9452,-1.5978 -1.6997,1.5978 -1.3847,-0.005 -2.3666,-1.6348 -2.2925,1.6302 h -1.533 l -2.3573,-1.6302 -2.3018,1.6348 h -1.5144 l -2.3666,-1.6348 -2.3064,1.6395 h -1.357 l -0.3612,-0.0649 -2.9872,-1.7738 h -1.5191 v -1.658 h -3.8069 c -2.1632,-3.9602 -6.3634,-6.6459 -11.1939,-6.6459 -7.0414,3e-4 -12.75,5.7086 -12.75,12.75 z m 3.2466,0 c 0,-1.607 1.3016,-2.9085 2.9084,-2.9085 1.607,0 2.9085,1.3017 2.9085,2.9085 0,1.6068 -1.3017,2.9084 -2.9085,2.9085 -1.6068,0 -2.9084,-1.3017 -2.9084,-2.9085 z" /><g
           transform="rotate(-90,483.06465,-1.99155)"
           id="g274"><path
             id="path276"
             style="fill:none;stroke:#000000;stroke-width:1;stroke-linecap:butt;stroke-linejoin:miter;stroke-miterlimit:4;stroke-dasharray:none;stroke-opacity:1"
             d="M 12.75,0 C 5.708628,0 4.522764e-6,5.708629 0,12.74999 c 0,4.83065 2.685377,9.03073 6.64593,11.19388 v 3.80694 h 1.912731 v 28.29266 l 4.195969,3.23729 2.60279,-3.23729 1.59781,-1.94515 -1.59781,-1.69969 0.0046,-1.38476 1.63485,-2.3666 -1.63022,-2.2925 v -1.53296 l 1.63022,-2.35733 -1.63485,-2.30177 v -1.51443 l 1.63485,-2.3666 -1.63949,-2.30639 v -1.35698 l 0.06484,-0.36124 1.77379,-2.9872 v -1.51906 h 1.65801 V 23.94387 C 22.81431,21.78072 25.5,17.58049 25.49999,12.74999 25.4997,5.708627 19.79137,-4.522763e-6 12.75,0 Z m 0,3.246548 c 1.60695,0 2.90846,1.30166 2.90846,2.908462 0,1.606954 -1.30166,2.908462 -2.90846,2.908462 -1.60681,0 -2.908461,-1.301655 -2.908466,-2.908462 0,-1.606804 1.301656,-2.908464 2.908466,-2.908462 z" /></g><g
           transform="translate(475,488)"
           id="g278"><text
             id="text282"
             style="font-variant:normal;font-size:10px;font-family:HiraKakuProN;-inkscape-font-specification:HiraKakuProN-W3;writing-mode:lr-tb;fill:#017100;fill-opacity:1;fill-rule:nonzero;stroke:none"
             transform="scale(1,-1)"><tspan
               id="tspan280"
               y="0"
               x="0 7.1199999 13.37 19.83 21.780001 27.15 30.48 36.950001 43.130001 49.59 51.91 54.290001 60.07 63.400002 69.150002 75.029999">Bob's public key</tspan></text>
</g><g
           transform="translate(553,436)"
           id="g284"><text
             id="text288"
             style="font-variant:normal;font-size:10px;font-family:HiraKakuProN;-inkscape-font-specification:HiraKakuProN-W3;writing-mode:lr-tb;fill:#000000;fill-opacity:1;fill-rule:nonzero;stroke:none"
             transform="scale(1,-1)"><tspan
               id="tspan286"
               y="0"
               x="0 7.9499998 14.13 18.049999 24.52 30.700001">Output</tspan></text>
</g><g
           transform="matrix(1,0,0,-1,494.6742,403.309)"
           id="g290"><path
             id="path292"
             style="fill:none;stroke:#000000;stroke-width:2;stroke-linecap:butt;stroke-linejoin:miter;stroke-miterlimit:4;stroke-dasharray:none;stroke-opacity:1"
             d="m 0,0 h 24.64 1" /></g><path
           id="path294"
           style="fill:#000000;fill-opacity:1;fill-rule:nonzero;stroke:none"
           d="m 519.3142,398.509 9.6,4.8 -9.6,4.8 z" /><path
           id="path296"
           style="fill:#ffffff;fill-opacity:1;fill-rule:nonzero;stroke:none"
           d="m 417.4509,427.0033 h 71.5137 v -47.3887 h -71.5137 z" /><g
           transform="matrix(1,0,0,-1,417.4509,427.0033)"
           id="g298"><path
             id="path300"
             style="fill:none;stroke:#000000;stroke-width:1;stroke-linecap:butt;stroke-linejoin:miter;stroke-miterlimit:4;stroke-dasharray:none;stroke-opacity:1"
             d="M 0,0 H 71.51367 V 47.38867 H 0 Z" /></g></g></g><g
       id="g302"><g
         clip-path="url(#clipPath308)"
         id="g304"><g
           transform="translate(441,407)"
           id="g310"><text
             id="text314"
             style="font-variant:normal;font-size:10px;font-family:HiraKakuProN;-inkscape-font-specification:HiraKakuProN-W3;writing-mode:lr-tb;fill:#ee220c;fill-opacity:1;fill-rule:nonzero;stroke:none"
             transform="scale(1,-1)"><tspan
               id="tspan312"
               y="0"
               x="0 7.5 9.8199997 12.2 17.98 23.860001">Alice </tspan></text>
</g><g
           transform="translate(423,392)"
           id="g316"><text
             id="text320"
             style="font-variant:normal;font-size:10px;font-family:HiraKakuProN;-inkscape-font-specification:HiraKakuProN-W6;writing-mode:lr-tb;fill:#000000;fill-opacity:1;fill-rule:nonzero;stroke:none"
             transform="scale(1,-1)"><tspan
               id="tspan318"
               y="0"
               x="0 7.1199999 9.8199997 16.940001 24.059999 31.18">0.095 </tspan></text>
</g><g
           transform="translate(423,392)"
           id="g322"><text
             id="text326"
             style="font-variant:normal;font-size:8px;font-family:HiraKakuProN;-inkscape-font-specification:HiraKakuProN-W3;writing-mode:lr-tb;fill:#000000;fill-opacity:1;fill-rule:nonzero;stroke:none"
             transform="matrix(1,0,0,-1,34.51,0)"><tspan
               id="tspan324"
               y="0"
               x="0 5.1680002 7.072 10.208 14.832 19.832001 21.736">bitcoin</tspan></text>
</g></g></g><g
       id="g328"><g
         clip-path="url(#clipPath334)"
         id="g330"><g
           transform="translate(441,436)"
           id="g336"><text
             id="text340"
             style="font-variant:normal;font-size:10px;font-family:HiraKakuProN;-inkscape-font-specification:HiraKakuProN-W3;writing-mode:lr-tb;fill:#000000;fill-opacity:1;fill-rule:nonzero;stroke:none"
             transform="scale(1,-1)"><tspan
               id="tspan338"
               y="0"
               x="0 2.49 8.6700001 15.14 21.32">Input</tspan></text>
</g><g
           transform="translate(430,369)"
           id="g342"><text
             id="text346"
             style="font-variant:normal;font-size:7px;font-family:HiraKakuProN;-inkscape-font-specification:HiraKakuProN-W3;writing-mode:lr-tb;fill:#000000;fill-opacity:1;fill-rule:nonzero;stroke:none"
             transform="scale(1,-1)"><tspan
               id="tspan344"
               y="0"
               x="0 4.6339998 7.6440001 11.76 15.568 17.233999 21.608999 25.934999 29.694 32.025002 34.769001 38.521 40.187 44.709 46.389 48.720001">Previous txid:  </tspan></text>
</g><g
           transform="translate(417,358)"
           id="g348"><text
             id="text352"
             style="font-variant:normal;font-size:7px;font-family:HiraKakuProN;-inkscape-font-specification:HiraKakuProN-W3;writing-mode:lr-tb;fill:#000000;fill-opacity:1;fill-rule:nonzero;stroke:none"
             transform="scale(1,-1)"><tspan
               id="tspan350"
               y="0"
               x="0 4.599 9.198 13.797 18.396 22.511999 27.111 31.709999 35.756001 39.801998 43.827 48.425999 53.025002 57.624001 62.223 66.821999">2775e37cca287977</tspan></text>
</g><g
           transform="translate(474,330)"
           id="g354"><text
             id="text358"
             style="font-variant:normal;font-size:10px;font-family:HiraKakuProN;-inkscape-font-specification:HiraKakuProN-W3;writing-mode:lr-tb;fill:#000000;fill-opacity:1;fill-rule:nonzero;stroke:none"
             transform="scale(1,-1)"><tspan
               id="tspan356"
               y="0"
               x="0 7.5 9.8199997 12.2 17.98 23.860001 26.26 31.629999 34.959999 40.330002 42.709999 49.119999 55.299999 61.049999 64.970001 71.150002 75.449997">Aliceʼs signature</tspan></text>
</g><g
           transform="translate(474,272)"
           id="g360"><text
             id="text364"
             style="font-variant:normal;font-size:10px;font-family:HiraKakuProN;-inkscape-font-specification:HiraKakuProN-W3;writing-mode:lr-tb;fill:#017100;fill-opacity:1;fill-rule:nonzero;stroke:none"
             transform="scale(1,-1)"><tspan
               id="tspan362"
               y="0"
               x="0 7.1199999 13.37 19.83 21.780001 27.15 30.48 35.849998 41.73 47.509998 51.810001 57.689999 61.610001 64.940002 70.690002 76.57">Bob's secret key</tspan></text>
</g><path
           id="path366"
           style="fill:#ffffff;fill-opacity:1;fill-rule:nonzero;stroke:none"
           d="m 490.8982,258.3634 c 0,0.6315 0.5112,1.1427 1.1427,1.1427 h 3.2643 v 3.6072 c 0,0.8558 0.6945,1.5501 1.5502,1.5501 h 15.4421 c 0.8559,0 1.5502,-0.6944 1.5502,-1.5501 v -3.6072 h 3.001 v -2.7426 h 3.8207 v -1.7489 h 30.3526 v -0.005 l 3.473,-4.5014 -3.473,-2.7923 -2.0867,-1.7092 -1.8235,1.7092 h -1.4855 l -2.539,-1.7589 -2.4594,1.7489 h -1.6445 l -2.529,-1.7489 -2.4644,1.7539 h -1.6346 l -2.534,-1.7539 -2.4693,1.7539 -1.744,0.005 -3.309,-1.9676 h -1.6297 v -1.6843 h -3.8207 v -2.5538 h -3.001 v -3.6071 c 0,-0.8559 -0.6945,-1.5502 -1.5502,-1.5502 h -15.4421 c -0.8559,0 -1.5502,0.6943 -1.5502,1.5502 v 3.6071 h -3.2643 c -0.6315,0 -1.1427,0.5112 -1.1427,1.1428 z m 2.4594,-4.9288 v -5.8529 h 1.9476 v 5.8529 z" /><g
           transform="rotate(-90,377.7808,-113.1174)"
           id="g368"><path
             id="path370"
             style="fill:none;stroke:#000000;stroke-width:1;stroke-linecap:butt;stroke-linejoin:miter;stroke-miterlimit:4;stroke-dasharray:none;stroke-opacity:1"
             d="M 6.300065,0 C 5.668551,0 5.157304,0.511243 5.157309,1.142756 V 4.407065 H 1.550174 C 0.6943196,4.407065 4.852056e-6,5.10154 0,5.957239 V 21.39936 c 0,0.85585 0.6944748,1.55017 1.550174,1.55017 h 3.607135 v 3.00098 h 2.742615 v 3.82078 h 1.748914 v 30.3526 h 0.00497 l 4.501463,3.47299 2.7923,-3.47299 1.70917,-2.08677 -1.70917,-1.82344 V 54.7281 l 1.75885,-2.53891 -1.74891,-2.45941 V 48.0852 l 1.74891,-2.52897 -1.75388,-2.46437 v -1.63464 l 1.75388,-2.53394 -1.75388,-2.46935 -0.005,-1.74395 1.96753,-3.30902 v -1.62967 h 1.68433 v -3.82078 h 2.55381 v -3.00098 h 3.60713 c 0.85586,0 1.55018,-0.69448 1.55018,-1.55017 V 5.957239 c 0,-0.855854 -0.69434,-1.550172 -1.55018,-1.550174 h -3.60713 V 1.142756 C 23.15324,0.5112394 22.642,-1.213014e-6 22.01048,0 Z m 4.928755,2.459411 h 5.8529 v 1.947654 h -5.8529 z" /></g><path
           id="path372"
           style="fill:#ffffff;fill-opacity:1;fill-rule:nonzero;stroke:none"
           d="m 610.6522,555.5862 c -8.3885,0 -15.2099,-6.8166 -15.2099,-15.2051 v -12.5599 c -3.0448,-3.532 -4.886,-8.1164 -4.886,-13.1403 0,-11.0984 8.9975,-20.0959 20.0959,-20.0959 11.0984,0 20.0958,8.9975 20.0958,20.0959 0,5.0239 -1.8411,9.6083 -4.886,13.1403 v 12.5599 c 0,8.3885 -6.8213,15.2051 -15.2098,15.2051 z m 0,-7.6263 c 4.1866,0 7.5978,-3.4112 7.5978,-7.5978 v -7.0792 c -2.3445,0.9591 -4.9031,1.4938 -7.5978,1.4938 -2.6947,0 -5.2533,-0.5347 -7.5978,-1.4938 v 7.0792 c 0,4.1866 3.4112,7.5978 7.5978,7.5978 z m 0,-22.6221 c 5.8917,0 10.6569,-4.7652 10.6569,-10.6569 0,-5.8918 -4.7652,-10.6569 -10.6569,-10.6569 -5.8918,0 -10.6569,4.7651 -10.6569,10.6569 0,5.8917 4.7652,10.6569 10.6569,10.6569 z m 0,-1.7651 c -2.2754,0 -4.5487,-0.8711 -6.2847,-2.6071 -3.4721,-3.4721 -3.4721,-9.0973 0,-12.5694 3.4721,-3.4722 9.0973,-3.4721 12.5694,0 3.4721,3.4721 3.4721,9.0973 0,12.5694 -1.7361,1.736 -4.0093,2.6071 -6.2847,2.6071 z" /><g
           transform="matrix(1,0,0,-1,590.5563,555.5862)"
           id="g374"><path
             id="path376"
             style="fill:none;stroke:#000000;stroke-width:2;stroke-linecap:butt;stroke-linejoin:miter;stroke-miterlimit:4;stroke-dasharray:none;stroke-opacity:1"
             d="M 20.09585,0 C 11.70736,0 4.885999,6.816608 4.885994,15.2051 V 27.76501 C 1.841168,31.29701 4.646036e-6,35.88137 0,40.90534 0,52.00373 8.997462,61.0012 20.09585,61.00119 c 11.09839,0 20.09585,-8.99746 20.09585,-20.09585 0,-5.02397 -1.84115,-9.60833 -4.88599,-13.14033 V 15.2051 C 35.30571,6.816603 28.48434,3.484527e-6 20.09585,0 Z m 0,7.626338 c 4.18664,0 7.5978,3.411152 7.59779,7.597792 v 7.07922 c -2.34451,-0.95912 -4.90312,-1.49386 -7.59779,-1.49387 -2.69467,0 -5.25326,0.53475 -7.59779,1.49387 v -7.07922 c 0,-4.18664 3.41117,-7.59779 7.59779,-7.597792 z m 0,22.622102 c 5.89174,0 10.65688,4.76516 10.65689,10.6569 0,5.89174 -4.76515,10.65688 -10.65689,10.65689 -5.89174,0 -10.65688,-4.76516 -10.656889,-10.65689 0,-5.89174 4.765159,-10.65689 10.656889,-10.6569 z m 0,1.76505 c -2.27538,0 -4.54866,0.87108 -6.28471,2.60713 -3.4721,3.47212 -3.47212,9.09732 0,12.56943 3.47212,3.47211 9.09732,3.4721 12.56942,0 3.47212,-3.47212 3.47211,-9.09732 0,-12.56943 -1.73605,-1.73605 -4.00932,-2.60713 -6.28471,-2.60713 z" /></g><g
           transform="matrix(1,0,0,-1,542.3191,499.5102)"
           id="g378"><path
             id="path380"
             style="fill:none;stroke:#000000;stroke-width:1;stroke-linecap:butt;stroke-linejoin:miter;stroke-miterlimit:4;stroke-dasharray:1, 1;stroke-dashoffset:0;stroke-opacity:1"
             d="M 49.86287,3.947208 49.51468,4.306045 C 37.52586,15.66337 21.02101,23.47761 0,27.74889" /></g><path
           id="path382"
           style="fill:#000000;fill-opacity:1;fill-rule:nonzero;stroke:none"
           d="m 593.9868,493.115 2.0253,6.3952 -6.3313,-2.2169 z" /><g
           transform="translate(589,479)"
           id="g384"><text
             id="text388"
             style="font-variant:normal;font-size:10px;font-family:HiraKakuProN;-inkscape-font-specification:HiraKakuProN-W3;writing-mode:lr-tb;fill:#000000;fill-opacity:1;fill-rule:nonzero;stroke:none"
             transform="scale(1,-1)"><tspan
               id="tspan386"
               y="0"
               x="0 2.3199999 8.5699997 14.35">lock</tspan></text>
</g><g
           transform="translate(495,307)"
           id="g390"><text
             id="text394"
             style="font-style:italic;font-variant:normal;font-weight:normal;font-size:10px;font-family:Zapfino;-inkscape-font-specification:Zapfino;writing-mode:lr-tb;fill:#ee220c;fill-opacity:1;fill-rule:nonzero;stroke:none"
             transform="scale(1,-1)"><tspan
               id="tspan392"
               y="0"
               x="0 12.975 18.049999 22.575001 27.924999">Alice</tspan></text>
</g><g
           transform="matrix(1,0,0,-1,254.1367,302.6396)"
           id="g396"><path
             id="path398"
             style="fill:none;stroke:#000000;stroke-width:1;stroke-linecap:butt;stroke-linejoin:miter;stroke-miterlimit:4;stroke-dasharray:1, 1;stroke-dashoffset:0;stroke-opacity:1"
             d="M 0,55.6257 C 44.25615,54.08722 121.0146,36.14686 230.2753,1.804613 l 0.4781,-0.150758" /></g><path
           id="path400"
           style="fill:#000000;fill-opacity:1;fill-rule:nonzero;stroke:none"
           d="m 485.3154,297.9743 4.8202,4.6653 -6.6244,1.057 z" /><path
           id="path402"
           style="fill:#ffffff;fill-opacity:1;fill-rule:nonzero;stroke:none"
           d="m 726.2198,540.4169 h 147.1488 c 7.6079,0 11.4708,0 15.5741,-1.3004 4.4903,-1.6344 8.0274,-5.1715 9.6618,-9.6618 1.3004,-4.1033 1.3004,-7.9662 1.3004,-15.6921 V 322.03 c 0,-7.6079 0,-11.4709 -1.3004,-15.5741 -1.6344,-4.4903 -5.1715,-8.0275 -9.6618,-9.6618 -4.1033,-1.3004 -7.9662,-1.3004 -15.6921,-1.3004 H 726.2198 c -7.6079,0 -11.4708,0 -15.5741,1.3004 -4.4903,1.6343 -8.0274,5.1715 -9.6618,9.6618 -1.3004,4.1032 -1.3004,7.9662 -1.3004,15.6921 v 191.7326 c 0,7.6079 0,11.4708 1.3004,15.5741 1.6344,4.4903 5.1715,8.0274 9.6618,9.6618 4.1033,1.3004 7.9662,1.3004 15.6921,1.3004 z" /><g
           transform="matrix(1,0,0,-1,699.6835,540.4169)"
           id="g404"><path
             id="path406"
             style="fill:none;stroke:#000000;stroke-width:1.10000002;stroke-linecap:butt;stroke-linejoin:miter;stroke-miterlimit:4;stroke-dasharray:none;stroke-opacity:1"
             d="M 26.53629,0 H 173.685 c 7.6079,0 11.4709,0 15.5741,1.300396 4.4903,1.63433 8.0275,5.171499 9.6618,9.661784 1.3004,4.10328 1.3004,7.96621 1.3004,15.69209 V 218.3869 c 0,7.6079 0,11.4708 -1.3004,15.5741 -1.6343,4.4903 -5.1715,8.0275 -9.6618,9.6618 -4.1032,1.3004 -7.9662,1.3004 -15.692,1.3004 H 26.53629 c -7.6079,0 -11.47083,0 -15.57411,-1.3004 C 6.471895,241.9885 2.934726,238.4513 1.300396,233.961 0,229.8577 0,225.9948 0,218.2689 V 26.53629 C 0,18.92839 0,15.06546 1.300396,10.96218 2.934726,6.471895 6.471895,2.934726 10.96218,1.300396 15.06546,0 18.92839,0 26.65427,0 Z" /></g><g
           transform="matrix(1,0,0,-1,552.0649,303.8206)"
           id="g408"><path
             id="path410"
             style="fill:none;stroke:#000000;stroke-width:1;stroke-linecap:butt;stroke-linejoin:miter;stroke-miterlimit:4;stroke-dasharray:1, 1;stroke-dashoffset:0;stroke-opacity:1"
             d="M 0,55.90956 C 43.44655,54.29891 118.4861,36.27884 225.1187,1.849349 l 0.4771,-0.154544" /></g><path
           id="path412"
           style="fill:#000000;fill-opacity:1;fill-rule:nonzero;stroke:none"
           d="m 778.1095,299.1177 4.7836,4.7029 -6.6325,1.0051 z" /><g
           transform="matrix(1,0,0,-1,700.6171,506.5114)"
           id="g414"><path
             id="path416"
             style="fill:none;stroke:#000000;stroke-width:1;stroke-linecap:butt;stroke-linejoin:miter;stroke-miterlimit:4;stroke-dasharray:none;stroke-opacity:1"
             d="M 0,0 H 198.3542" /></g><g
           transform="translate(737,519)"
           id="g418"><text
             id="text422"
             style="font-variant:normal;font-size:10px;font-family:HiraKakuProN;-inkscape-font-specification:HiraKakuProN-W3;writing-mode:lr-tb;fill:#000000;fill-opacity:1;fill-rule:nonzero;stroke:none"
             transform="scale(1,-1)"><tspan
               id="tspan420"
               y="0"
               x="0 3.9200001 9.2799997 11.66 18.120001 20.52 23.85 30.42 36.880001 43.450001 50.02 54.189999 60.07 66.639999 73.209999 79.669998 86.279999 92.059998 98.629997 105.2 111.77 118.23">txid: 8d19fe37b4c521d3</tspan></text>
</g><path
           id="path424"
           style="fill:#ffffff;fill-opacity:1;fill-rule:nonzero;stroke:none"
           d="m 822.1002,425.0033 h 71.5137 v -47.3887 h -71.5137 z" /><g
           transform="matrix(1,0,0,-1,822.1002,425.0033)"
           id="g426"><path
             id="path428"
             style="fill:none;stroke:#000000;stroke-width:1;stroke-linecap:butt;stroke-linejoin:miter;stroke-miterlimit:4;stroke-dasharray:none;stroke-opacity:1"
             d="M 0,0 H 71.51367 V 47.38867 H 0 Z" /></g></g></g><g
       id="g430"><g
         clip-path="url(#clipPath436)"
         id="g432"><g
           transform="translate(832,405)"
           id="g438"><text
             id="text442"
             style="font-variant:normal;font-size:10px;font-family:HiraKakuProN;-inkscape-font-specification:HiraKakuProN-W3;writing-mode:lr-tb;fill:#99195e;fill-opacity:1;fill-rule:nonzero;stroke:none"
             transform="scale(1,-1)"><tspan
               id="tspan440"
               y="0"
               x="0 7.5599999 13.31 18.68 24.049999 29.799999 35.98 42.439999 46.740002 52.490002">Cassandra </tspan></text>
</g><g
           transform="translate(827,390)"
           id="g444"><text
             id="text448"
             style="font-variant:normal;font-size:10px;font-family:HiraKakuProN;-inkscape-font-specification:HiraKakuProN-W6;writing-mode:lr-tb;fill:#000000;fill-opacity:1;fill-rule:nonzero;stroke:none"
             transform="scale(1,-1)"><tspan
               id="tspan446"
               y="0"
               x="0 7.1199999 9.8199997 16.940001 24.059999 31.18">0.085 </tspan></text>
</g><g
           transform="translate(827,390)"
           id="g450"><text
             id="text454"
             style="font-variant:normal;font-size:8px;font-family:HiraKakuProN;-inkscape-font-specification:HiraKakuProN-W3;writing-mode:lr-tb;fill:#000000;fill-opacity:1;fill-rule:nonzero;stroke:none"
             transform="matrix(1,0,0,-1,34.51,0)"><tspan
               id="tspan452"
               y="0"
               x="0 5.1680002 7.072 10.208 14.832 19.832001 21.736">bitcoin</tspan></text>
</g></g></g><g
       id="g456"><g
         clip-path="url(#clipPath462)"
         id="g458"><path
           id="path464"
           style="fill:#ffffff;fill-opacity:1;fill-rule:nonzero;stroke:none"
           d="m 773.0562,466.3231 c 0,7.0413 5.7086,12.75 12.75,12.75 4.8306,0 9.0307,-2.6854 11.1939,-6.646 h 3.8069 v -1.9127 h 28.2927 l 3.2373,-4.196 -3.2373,-2.6028 -1.9452,-1.5978 -1.6997,1.5978 -1.3847,-0.005 -2.3666,-1.6349 -2.2925,1.6303 h -1.533 l -2.3573,-1.6303 -2.3018,1.6349 h -1.5144 l -2.3666,-1.6349 -2.3064,1.6395 h -1.357 l -0.3612,-0.0648 -2.9872,-1.7738 h -1.5191 v -1.658 h -3.8069 c -2.1632,-3.9603 -6.3634,-6.6459 -11.1939,-6.6459 -7.0414,3e-4 -12.75,5.7086 -12.75,12.75 z m 3.2466,0 c 0,-1.607 1.3016,-2.9085 2.9084,-2.9085 1.607,0 2.9085,1.3017 2.9085,2.9085 0,1.6068 -1.3017,2.9084 -2.9085,2.9084 -1.6068,0 -2.9084,-1.3016 -2.9084,-2.9084 z" /><g
           transform="rotate(-90,626.06465,-146.99155)"
           id="g466"><path
             id="path468"
             style="fill:none;stroke:#000000;stroke-width:1;stroke-linecap:butt;stroke-linejoin:miter;stroke-miterlimit:4;stroke-dasharray:none;stroke-opacity:1"
             d="M 12.75,0 C 5.708628,0 4.522764e-6,5.708629 0,12.74999 c 0,4.83065 2.685377,9.03073 6.64593,11.19388 v 3.80694 h 1.912731 v 28.29266 l 4.195969,3.23729 2.60279,-3.23729 1.59781,-1.94515 -1.59781,-1.69969 0.0046,-1.38476 1.63485,-2.3666 -1.63022,-2.2925 v -1.53296 l 1.63022,-2.35733 -1.63485,-2.30177 v -1.51443 l 1.63485,-2.3666 -1.63949,-2.30639 v -1.35698 l 0.06484,-0.36124 1.77379,-2.9872 v -1.51906 h 1.65801 V 23.94387 C 22.81431,21.78072 25.5,17.58049 25.49999,12.74999 25.4997,5.708627 19.79137,-4.522763e-6 12.75,0 Z m 0,3.246548 c 1.60695,0 2.90846,1.30166 2.90846,2.908462 0,1.606954 -1.30166,2.908462 -2.90846,2.908462 -1.60681,0 -2.908461,-1.301655 -2.908466,-2.908462 0,-1.606804 1.301656,-2.908464 2.908466,-2.908462 z" /></g><g
           transform="translate(746,486)"
           id="g470"><text
             id="text474"
             style="font-variant:normal;font-size:10px;font-family:HiraKakuProN;-inkscape-font-specification:HiraKakuProN-W3;writing-mode:lr-tb;fill:#99195e;fill-opacity:1;fill-rule:nonzero;stroke:none"
             transform="scale(1,-1)"><tspan
               id="tspan472"
               y="0"
               x="0 7.5599999 13.31 18.68 24.049999 29.799999 35.98 42.439999 46.740002 52.490002 54.439999 59.810001 63.139999 69.610001 75.790001 82.25 84.57 86.949997 92.730003 96.059998 101.81 107.69">Cassandra's public key</tspan></text>
</g><g
           transform="translate(841,434)"
           id="g476"><text
             id="text480"
             style="font-variant:normal;font-size:10px;font-family:HiraKakuProN;-inkscape-font-specification:HiraKakuProN-W3;writing-mode:lr-tb;fill:#000000;fill-opacity:1;fill-rule:nonzero;stroke:none"
             transform="scale(1,-1)"><tspan
               id="tspan478"
               y="0"
               x="0 7.9499998 14.13 18.049999 24.52 30.700001">Output</tspan></text>
</g><g
           transform="matrix(1,0,0,-1,782.6742,401.309)"
           id="g482"><path
             id="path484"
             style="fill:none;stroke:#000000;stroke-width:2;stroke-linecap:butt;stroke-linejoin:miter;stroke-miterlimit:4;stroke-dasharray:none;stroke-opacity:1"
             d="m 0,0 h 24.64 1" /></g><path
           id="path486"
           style="fill:#000000;fill-opacity:1;fill-rule:nonzero;stroke:none"
           d="m 807.3142,396.509 9.6,4.8 -9.6,4.8 z" /><path
           id="path488"
           style="fill:#ffffff;fill-opacity:1;fill-rule:nonzero;stroke:none"
           d="m 705.4509,425.0033 h 71.5137 v -47.3887 h -71.5137 z" /><g
           transform="matrix(1,0,0,-1,705.4509,425.0033)"
           id="g490"><path
             id="path492"
             style="fill:none;stroke:#000000;stroke-width:1;stroke-linecap:butt;stroke-linejoin:miter;stroke-miterlimit:4;stroke-dasharray:none;stroke-opacity:1"
             d="M 0,0 H 71.51367 V 47.38867 H 0 Z" /></g></g></g><g
       id="g494"><g
         clip-path="url(#clipPath500)"
         id="g496"><g
           transform="translate(731,405)"
           id="g502"><text
             id="text506"
             style="font-variant:normal;font-size:10px;font-family:HiraKakuProN;-inkscape-font-specification:HiraKakuProN-W3;writing-mode:lr-tb;fill:#017100;fill-opacity:1;fill-rule:nonzero;stroke:none"
             transform="scale(1,-1)"><tspan
               id="tspan504"
               y="0"
               x="0 7.1199999 13.37 19.83">Bob </tspan></text>
</g><g
           transform="translate(711,390)"
           id="g508"><text
             id="text512"
             style="font-variant:normal;font-size:10px;font-family:HiraKakuProN;-inkscape-font-specification:HiraKakuProN-W6;writing-mode:lr-tb;fill:#000000;fill-opacity:1;fill-rule:nonzero;stroke:none"
             transform="scale(1,-1)"><tspan
               id="tspan510"
               y="0"
               x="0 7.1199999 9.8199997 16.940001 24.059999 31.18">0.090 </tspan></text>
</g><g
           transform="translate(711,390)"
           id="g514"><text
             id="text518"
             style="font-variant:normal;font-size:8px;font-family:HiraKakuProN;-inkscape-font-specification:HiraKakuProN-W3;writing-mode:lr-tb;fill:#000000;fill-opacity:1;fill-rule:nonzero;stroke:none"
             transform="matrix(1,0,0,-1,34.51,0)"><tspan
               id="tspan516"
               y="0"
               x="0 5.1680002 7.072 10.208 14.832 19.832001 21.736">bitcoin</tspan></text>
</g></g></g><g
       id="g520"><g
         clip-path="url(#clipPath526)"
         id="g522"><g
           transform="translate(729,434)"
           id="g528"><text
             id="text532"
             style="font-variant:normal;font-size:10px;font-family:HiraKakuProN;-inkscape-font-specification:HiraKakuProN-W3;writing-mode:lr-tb;fill:#000000;fill-opacity:1;fill-rule:nonzero;stroke:none"
             transform="scale(1,-1)"><tspan
               id="tspan530"
               y="0"
               x="0 2.49 8.6700001 15.14 21.32">Input</tspan></text>
</g><g
           transform="translate(718,367)"
           id="g534"><text
             id="text538"
             style="font-variant:normal;font-size:7px;font-family:HiraKakuProN;-inkscape-font-specification:HiraKakuProN-W3;writing-mode:lr-tb;fill:#000000;fill-opacity:1;fill-rule:nonzero;stroke:none"
             transform="scale(1,-1)"><tspan
               id="tspan536"
               y="0"
               x="0 4.6339998 7.6440001 11.76 15.568 17.233999 21.608999 25.934999 29.694 32.025002 34.769001 38.521 40.187 44.709 46.389 48.720001">Previous txid:  </tspan></text>
</g><g
           transform="translate(706,356)"
           id="g540"><text
             id="text544"
             style="font-variant:normal;font-size:7px;font-family:HiraKakuProN;-inkscape-font-specification:HiraKakuProN-W3;writing-mode:lr-tb;fill:#000000;fill-opacity:1;fill-rule:nonzero;stroke:none"
             transform="scale(1,-1)"><tspan
               id="tspan542"
               y="0"
               x="0 4.046 8.5679998 11.487 15.603 19.719 24.318001 28.917 33.438999 37.960999 42.560001 47.159 51.757999 56.356998 60.956001 65.555">cbfee76bb9199070</tspan></text>
</g><g
           transform="translate(764,328)"
           id="g546"><text
             id="text550"
             style="font-variant:normal;font-size:10px;font-family:HiraKakuProN;-inkscape-font-specification:HiraKakuProN-W3;writing-mode:lr-tb;fill:#000000;fill-opacity:1;fill-rule:nonzero;stroke:none"
             transform="scale(1,-1)"><tspan
               id="tspan548"
               y="0"
               x="0 7.1199999 13.37 19.83 22.23 27.6 30.93 36.299999 38.68 45.09 51.27 57.02 60.939999 67.120003 71.419998">Bobʼs signature</tspan></text>
</g><g
           transform="translate(745,270)"
           id="g552"><text
             id="text556"
             style="font-variant:normal;font-size:10px;font-family:HiraKakuProN;-inkscape-font-specification:HiraKakuProN-W3;writing-mode:lr-tb;fill:#99195e;fill-opacity:1;fill-rule:nonzero;stroke:none"
             transform="scale(1,-1)"><tspan
               id="tspan554"
               y="0"
               x="0 7.5599999 13.31 18.68 24.049999 29.799999 35.98 42.439999 46.740002 52.490002 54.439999 59.810001 63.139999 68.510002 74.389999 80.169998 84.470001 90.349998 94.269997 97.599998 103.35 109.23">Cassandra's secret key</tspan></text>
</g><path
           id="path558"
           style="fill:#ffffff;fill-opacity:1;fill-rule:nonzero;stroke:none"
           d="m 777.9011,257.4081 c 0,0.6315 0.5112,1.1427 1.1427,1.1427 h 3.2643 v 3.6072 c 0,0.8558 0.6945,1.5501 1.5502,1.5502 h 15.4421 c 0.8559,0 1.5502,-0.6945 1.5502,-1.5502 v -3.6072 h 3.001 v -2.7426 h 3.8208 v -1.7489 h 30.3526 v -0.005 l 3.473,-4.5014 -3.473,-2.7923 -2.0868,-1.7092 -1.8234,1.7092 h -1.4856 l -2.5389,-1.7589 -2.4594,1.7489 h -1.6446 l -2.529,-1.7489 -2.4644,1.7539 h -1.6346 l -2.5339,-1.7539 -2.4694,1.7539 -1.7439,0.005 -3.3091,-1.9675 h -1.6296 v -1.6844 h -3.8208 v -2.5538 h -3.001 v -3.6071 c 0,-0.8559 -0.6945,-1.5502 -1.5502,-1.5502 h -15.4421 c -0.8558,0 -1.5501,0.6943 -1.5502,1.5502 v 3.6071 h -3.2643 c -0.6315,0 -1.1427,0.5113 -1.1427,1.1428 z m 2.4594,-4.9288 v -5.8529 h 1.9476 v 5.8529 z" /><g
           transform="rotate(-90,520.80465,-257.09645)"
           id="g560"><path
             id="path562"
             style="fill:none;stroke:#000000;stroke-width:1;stroke-linecap:butt;stroke-linejoin:miter;stroke-miterlimit:4;stroke-dasharray:none;stroke-opacity:1"
             d="M 6.300065,0 C 5.668551,0 5.157304,0.511243 5.157309,1.142756 V 4.407065 H 1.550174 C 0.6943196,4.407065 4.852056e-6,5.10154 0,5.957239 V 21.39936 c 0,0.85585 0.6944748,1.55017 1.550174,1.55017 h 3.607135 v 3.00098 h 2.742615 v 3.82078 h 1.748914 v 30.3526 h 0.00497 l 4.501463,3.47299 2.7923,-3.47299 1.70917,-2.08677 -1.70917,-1.82344 V 54.7281 l 1.75885,-2.53891 -1.74891,-2.45941 V 48.0852 l 1.74891,-2.52897 -1.75388,-2.46437 v -1.63464 l 1.75388,-2.53394 -1.75388,-2.46935 -0.005,-1.74395 1.96753,-3.30902 v -1.62967 h 1.68433 v -3.82078 h 2.55381 v -3.00098 h 3.60713 c 0.85586,0 1.55018,-0.69448 1.55018,-1.55017 V 5.957239 c 0,-0.855854 -0.69434,-1.550172 -1.55018,-1.550174 h -3.60713 V 1.142756 C 23.15324,0.5112394 22.642,-1.213014e-6 22.01048,0 Z m 4.928755,2.459411 h 5.8529 v 1.947654 h -5.8529 z" /></g><path
           id="path564"
           style="fill:#ffffff;fill-opacity:1;fill-rule:nonzero;stroke:none"
           d="m 898.6522,553.5862 c -8.3885,0 -15.2099,-6.8166 -15.2099,-15.2051 v -12.5599 c -3.0448,-3.532 -4.886,-8.1164 -4.886,-13.1403 0,-11.0984 8.9975,-20.0959 20.0959,-20.0959 11.0984,0 20.0958,8.9975 20.0958,20.0959 0,5.0239 -1.8411,9.6083 -4.886,13.1403 v 12.5599 c 0,8.3885 -6.8213,15.2051 -15.2098,15.2051 z m 0,-7.6263 c 4.1866,0 7.5978,-3.4112 7.5978,-7.5978 v -7.0792 c -2.3445,0.9591 -4.9031,1.4938 -7.5978,1.4938 -2.6947,0 -5.2533,-0.5347 -7.5978,-1.4938 v 7.0792 c 0,4.1866 3.4112,7.5978 7.5978,7.5978 z m 0,-22.6221 c 5.8917,0 10.6569,-4.7652 10.6569,-10.6569 0,-5.8918 -4.7652,-10.6569 -10.6569,-10.6569 -5.8918,0 -10.6569,4.7651 -10.6569,10.6569 0,5.8917 4.7652,10.6569 10.6569,10.6569 z m 0,-1.7651 c -2.2754,0 -4.5487,-0.8711 -6.2847,-2.6071 -3.4721,-3.4721 -3.4721,-9.0973 0,-12.5694 3.4721,-3.4722 9.0973,-3.4721 12.5694,0 3.4721,3.4721 3.4721,9.0973 0,12.5694 -1.7361,1.736 -4.0093,2.6071 -6.2847,2.6071 z" /><g
           transform="matrix(1,0,0,-1,878.5563,553.5862)"
           id="g566"><path
             id="path568"
             style="fill:none;stroke:#000000;stroke-width:2;stroke-linecap:butt;stroke-linejoin:miter;stroke-miterlimit:4;stroke-dasharray:none;stroke-opacity:1"
             d="M 20.09585,0 C 11.70736,0 4.885999,6.816608 4.885994,15.2051 V 27.76501 C 1.841168,31.29701 4.646036e-6,35.88137 0,40.90534 0,52.00373 8.997462,61.0012 20.09585,61.00119 c 11.09839,0 20.09585,-8.99746 20.09585,-20.09585 0,-5.02397 -1.84115,-9.60833 -4.88599,-13.14033 V 15.2051 C 35.30571,6.816603 28.48434,3.484527e-6 20.09585,0 Z m 0,7.626338 c 4.18664,0 7.5978,3.411152 7.59779,7.597792 v 7.07922 c -2.34451,-0.95912 -4.90312,-1.49386 -7.59779,-1.49387 -2.69467,0 -5.25326,0.53475 -7.59779,1.49387 v -7.07922 c 0,-4.18664 3.41117,-7.59779 7.59779,-7.597792 z m 0,22.622102 c 5.89174,0 10.65688,4.76516 10.65689,10.6569 0,5.89174 -4.76515,10.65688 -10.65689,10.65689 -5.89174,0 -10.65688,-4.76516 -10.656889,-10.65689 0,-5.89174 4.765159,-10.65689 10.656889,-10.6569 z m 0,1.76505 c -2.27538,0 -4.54866,0.87108 -6.28471,2.60713 -3.4721,3.47212 -3.47212,9.09732 0,12.56943 3.47212,3.47211 9.09732,3.4721 12.56942,0 3.47212,-3.47212 3.47211,-9.09732 0,-12.56943 -1.73605,-1.73605 -4.00932,-2.60713 -6.28471,-2.60713 z" /></g><g
           transform="matrix(1,0,0,-1,830.3191,497.5102)"
           id="g570"><path
             id="path572"
             style="fill:none;stroke:#000000;stroke-width:1;stroke-linecap:butt;stroke-linejoin:miter;stroke-miterlimit:4;stroke-dasharray:1, 1;stroke-dashoffset:0;stroke-opacity:1"
             d="M 49.86288,3.947209 49.51469,4.306046 C 37.52587,15.66338 21.02102,23.47762 0,27.74891" /></g><path
           id="path574"
           style="fill:#000000;fill-opacity:1;fill-rule:nonzero;stroke:none"
           d="m 881.9868,491.115 2.0253,6.3952 -6.3313,-2.2169 z" /><g
           transform="translate(873,475)"
           id="g576"><text
             id="text580"
             style="font-variant:normal;font-size:10px;font-family:HiraKakuProN;-inkscape-font-specification:HiraKakuProN-W3;writing-mode:lr-tb;fill:#000000;fill-opacity:1;fill-rule:nonzero;stroke:none"
             transform="scale(1,-1)"><tspan
               id="tspan578"
               y="0"
               x="0 2.3199999 8.5699997 14.35">lock</tspan></text>
</g><g
           transform="translate(787,307)"
           id="g582"><text
             id="text586"
             style="font-style:italic;font-variant:normal;font-weight:normal;font-size:10px;font-family:Zapfino;-inkscape-font-specification:Zapfino;writing-mode:lr-tb;fill:#017100;fill-opacity:1;fill-rule:nonzero;stroke:none"
             transform="scale(1,-1)"><tspan
               id="tspan584"
               y="0"
               x="0 12.175 18.424999">Bob</tspan></text>
</g><g
           transform="matrix(1,0,0,-1,56.66589,304.7629)"
           id="g588"><path
             id="path590"
             style="fill:none;stroke:#000000;stroke-width:1;stroke-linecap:butt;stroke-linejoin:miter;stroke-miterlimit:4;stroke-dasharray:1, 1;stroke-dashoffset:0;stroke-opacity:1"
             d="M 0,52.2064 135.4084,2.083359 135.8787,1.909284" /></g><path
           id="path592"
           style="fill:#000000;fill-opacity:1;fill-rule:nonzero;stroke:none"
           d="m 193.1171,299.8666 4.5854,4.8963 -6.6683,0.7306 z" /><g
           transform="translate(683,285)"
           id="g594"><text
             id="text598"
             style="font-variant:normal;font-size:10px;font-family:HiraKakuProN;-inkscape-font-specification:HiraKakuProN-W3;writing-mode:lr-tb;fill:#000000;fill-opacity:1;fill-rule:nonzero;stroke:none"
             transform="scale(1,-1)"><tspan
               id="tspan596"
               y="0"
               x="0 5.3699999 7.75 14.16">sign</tspan></text>
</g><g
           transform="translate(98,285)"
           id="g600"><text
             id="text604"
             style="font-variant:normal;font-size:10px;font-family:HiraKakuProN;-inkscape-font-specification:HiraKakuProN-W3;writing-mode:lr-tb;fill:#000000;fill-opacity:1;fill-rule:nonzero;stroke:none"
             transform="scale(1,-1)"><tspan
               id="tspan602"
               y="0"
               x="0 5.3699999 7.75 14.16">sign</tspan></text>
</g><g
           transform="matrix(1,0,0,-1,243.3577,465.8231)"
           id="g606"><path
             id="path608"
             style="fill:none;stroke:#000000;stroke-width:1;stroke-linecap:butt;stroke-linejoin:miter;stroke-miterlimit:4;stroke-dasharray:1, 1;stroke-dashoffset:0;stroke-opacity:1"
             d="m 0,0 c 43.1449,0.01535967 85.12743,14.68726 108.5522,48.57999 21.8063,31.55105 27.2943,51.86861 48.8578,73.11991 19.1791,18.9014 46.5631,29.9444 75.4631,30.5921 l 0.5,-0.001" /></g><path
           id="path610"
           style="fill:#000000;fill-opacity:1;fill-rule:nonzero;stroke:none"
           d="m 476.2384,310.5311 5.9924,3.0151 -6.0075,2.9848 z" /><g
           transform="translate(378,330)"
           id="g612"><text
             id="text616"
             style="font-variant:normal;font-size:10px;font-family:HiraKakuProN;-inkscape-font-specification:HiraKakuProN-W3;writing-mode:lr-tb;fill:#000000;fill-opacity:1;fill-rule:nonzero;stroke:none"
             transform="scale(1,-1)"><tspan
               id="tspan614"
               y="0"
               x="0 5.4400001 11.32 15.62 18 22.17">verify</tspan></text>
</g><g
           transform="matrix(1,0,0,-1,-42.64226,466.8231)"
           id="g618"><path
             id="path620"
             style="fill:none;stroke:#000000;stroke-width:1;stroke-linecap:butt;stroke-linejoin:miter;stroke-miterlimit:4;stroke-dasharray:1, 1;stroke-dashoffset:0;stroke-opacity:1"
             d="m 0,0 c 43.1449,0.01535967 85.12743,14.68726 108.5522,48.57999 21.8063,31.55105 27.2943,51.86861 48.8578,73.11991 19.1791,18.9014 46.5631,29.9444 75.4631,30.5921 l 0.5,-0.001" /></g><path
           id="path622"
           style="fill:#000000;fill-opacity:1;fill-rule:nonzero;stroke:none"
           d="m 190.2384,311.5311 5.9924,3.0151 -6.0075,2.9848 z" /><g
           transform="translate(80,337)"
           id="g624"><text
             id="text628"
             style="font-variant:normal;font-size:10px;font-family:HiraKakuProN;-inkscape-font-specification:HiraKakuProN-W3;writing-mode:lr-tb;fill:#000000;fill-opacity:1;fill-rule:nonzero;stroke:none"
             transform="scale(1,-1)"><tspan
               id="tspan626"
               y="0"
               x="0 5.4400001 11.32 15.62 18 22.17">verify</tspan></text>
</g><g
           transform="matrix(1,0,0,-1,541.3577,466.8231)"
           id="g630"><path
             id="path632"
             style="fill:none;stroke:#000000;stroke-width:1;stroke-linecap:butt;stroke-linejoin:miter;stroke-miterlimit:4;stroke-dasharray:1, 1;stroke-dashoffset:0;stroke-opacity:1"
             d="m 0,0 c 43.1449,0.01535967 85.12743,14.68726 108.5522,48.57999 21.8063,31.55105 27.2943,51.86861 48.8578,73.11991 19.1791,18.9014 46.5631,29.9444 75.4631,30.5921 l 0.5,-0.001" /></g><path
           id="path634"
           style="fill:#000000;fill-opacity:1;fill-rule:nonzero;stroke:none"
           d="m 774.2384,311.5311 5.9924,3.0151 -6.0075,2.9848 z" /><g
           transform="translate(667,337)"
           id="g636"><text
             id="text640"
             style="font-variant:normal;font-size:10px;font-family:HiraKakuProN;-inkscape-font-specification:HiraKakuProN-W3;writing-mode:lr-tb;fill:#000000;fill-opacity:1;fill-rule:nonzero;stroke:none"
             transform="scale(1,-1)"><tspan
               id="tspan638"
               y="0"
               x="0 5.4400001 11.32 15.62 18 22.17">verify</tspan></text>
</g></g></g></g></svg>