<?xml version="1.0" encoding="UTF-8" standalone="no"?>
<svg
   xmlns:dc="http://purl.org/dc/elements/1.1/"
   xmlns:cc="http://creativecommons.org/ns#"
   xmlns:rdf="http://www.w3.org/1999/02/22-rdf-syntax-ns#"
   xmlns:svg="http://www.w3.org/2000/svg"
   xmlns="http://www.w3.org/2000/svg"
   viewBox="0 0 1007.0524 367.63254"
   height="367.63254"
   width="1007.0524"
   xml:space="preserve"
   id="svg2"
   version="1.1"><metadata
     id="metadata8"><rdf:RDF><cc:Work
         rdf:about=""><dc:format>image/svg+xml</dc:format><dc:type
           rdf:resource="http://purl.org/dc/dcmitype/StillImage" /></cc:Work></rdf:RDF></metadata><defs
     id="defs6"><clipPath
       id="clipPath14"
       clipPathUnits="userSpaceOnUse"><path
         id="path12"
         d="M 0,0 H 1024 V 768 H 0 Z" /></clipPath><clipPath
       id="clipPath24"
       clipPathUnits="userSpaceOnUse"><path
         id="path22"
         d="M 0,0 H 1024 V 768 H 0 Z" /></clipPath><clipPath
       id="clipPath64"
       clipPathUnits="userSpaceOnUse"><path
         id="path62"
         d="m 226.1943,368.078 h 69.51367 v 45.38867 H 226.1943 Z" /></clipPath><clipPath
       id="clipPath90"
       clipPathUnits="userSpaceOnUse"><path
         id="path88"
         d="M 0,0 H 1024 V 768 H 0 Z" /></clipPath><clipPath
       id="clipPath116"
       clipPathUnits="userSpaceOnUse"><path
         id="path114"
         d="m 109.545,368.078 h 69.51367 v 45.38867 H 109.545 Z" /></clipPath><clipPath
       id="clipPath142"
       clipPathUnits="userSpaceOnUse"><path
         id="path140"
         d="M 0,0 H 1024 V 768 H 0 Z" /></clipPath><clipPath
       id="clipPath196"
       clipPathUnits="userSpaceOnUse"><path
         id="path194"
         d="m 465.2603,365.7215 h 69.51367 v 45.38867 H 465.2603 Z" /></clipPath><clipPath
       id="clipPath222"
       clipPathUnits="userSpaceOnUse"><path
         id="path220"
         d="M 0,0 H 1024 V 768 H 0 Z" /></clipPath><clipPath
       id="clipPath248"
       clipPathUnits="userSpaceOnUse"><path
         id="path246"
         d="m 348.611,365.7215 h 69.51367 v 45.38867 H 348.611 Z" /></clipPath><clipPath
       id="clipPath274"
       clipPathUnits="userSpaceOnUse"><path
         id="path272"
         d="M 0,0 H 1024 V 768 H 0 Z" /></clipPath><clipPath
       id="clipPath328"
       clipPathUnits="userSpaceOnUse"><path
         id="path326"
         d="m 710.0936,368.078 h 69.51367 v 45.38867 H 710.0936 Z" /></clipPath><clipPath
       id="clipPath354"
       clipPathUnits="userSpaceOnUse"><path
         id="path352"
         d="M 0,0 H 1024 V 768 H 0 Z" /></clipPath><clipPath
       id="clipPath380"
       clipPathUnits="userSpaceOnUse"><path
         id="path378"
         d="m 593.4443,368.078 h 69.51367 v 45.38867 H 593.4443 Z" /></clipPath><clipPath
       id="clipPath406"
       clipPathUnits="userSpaceOnUse"><path
         id="path404"
         d="M 0,0 H 1024 V 768 H 0 Z" /></clipPath></defs><g
     clip-path="url(#clipPath14)"
     transform="matrix(1.3333333,0,0,-1.3333333,-89.58236,687.5788)"
     id="g10"><g
       id="g16" /><g
       id="g18"><g
         clip-path="url(#clipPath24)"
         id="g20"><path
           id="path26"
           style="fill:#ffffff;fill-opacity:1;fill-rule:nonzero;stroke:none"
           d="M 0,0 H 1024 V 768 H 0 Z" /><path
           id="path28"
           style="fill:#f4f4f4;fill-opacity:1;fill-rule:nonzero;stroke:none"
           d="M 47.21386,524.6819 H 831.6724 V 227.7604 H 47.21386 Z" /><path
           id="path30"
           style="fill:#ffffff;fill-opacity:1;fill-rule:nonzero;stroke:none"
           d="m 129.3139,478.8803 h 147.1488 c 7.6079,0 11.4708,0 15.5741,-1.3004 4.4903,-1.6343 8.0274,-5.1715 9.6618,-9.6618 1.3003,-4.1033 1.3003,-7.9662 1.3003,-15.6921 V 300.0983 c 0,-7.6079 0,-11.4708 -1.3003,-15.5741 -1.6344,-4.4903 -5.1715,-8.0275 -9.6618,-9.6618 -4.1033,-1.3004 -7.9662,-1.3004 -15.6921,-1.3004 H 129.3139 c -7.6079,0 -11.4708,0 -15.5741,1.3004 -4.4903,1.6343 -8.0275,5.1715 -9.6618,9.6618 -1.3004,4.1033 -1.3004,7.9662 -1.3004,15.6921 V 452.344 c 0,7.6079 0,11.4708 1.3004,15.5741 1.6343,4.4903 5.1715,8.0275 9.6618,9.6618 4.1033,1.3004 7.9662,1.3004 15.6921,1.3004 z" /><g
           transform="matrix(1,0,0,-1,102.7776,478.8803)"
           id="g32"><path
             id="path34"
             style="fill:none;stroke:#000000;stroke-width:1.10000002;stroke-linecap:butt;stroke-linejoin:miter;stroke-miterlimit:4;stroke-dasharray:none;stroke-opacity:1"
             d="M 26.53629,0 H 173.685 c 7.6079,0 11.4709,0 15.5741,1.300396 4.4903,1.63433 8.0275,5.171499 9.6618,9.661784 1.3004,4.10328 1.3004,7.96621 1.3004,15.69209 V 178.782 c 0,7.6079 0,11.4708 -1.3004,15.5741 -1.6343,4.4903 -5.1715,8.0274 -9.6618,9.6618 -4.1032,1.3004 -7.9662,1.3004 -15.692,1.3004 H 26.53629 c -7.6079,0 -11.47083,0 -15.57411,-1.3004 C 6.471895,202.3835 2.934726,198.8464 1.300396,194.3561 0,190.2528 0,186.3899 0,178.664 V 26.53629 C 0,18.92839 0,15.06546 1.300396,10.96218 2.934726,6.471895 6.471895,2.934726 10.96218,1.300396 15.06546,0 18.92839,0 26.65427,0 Z" /></g><g
           transform="matrix(1,0,0,-1,103.7112,444.9748)"
           id="g36"><path
             id="path38"
             style="fill:none;stroke:#000000;stroke-width:1;stroke-linecap:butt;stroke-linejoin:miter;stroke-miterlimit:4;stroke-dasharray:none;stroke-opacity:1"
             d="M 0,0 H 198.3542" /></g><g
           transform="translate(136,458)"
           id="g40"><text
             id="text44"
             style="font-variant:normal;font-size:10px;font-family:HiraKakuProN;-inkscape-font-specification:HiraKakuProN-W3;writing-mode:lr-tb;fill:#000000;fill-opacity:1;fill-rule:nonzero;stroke:none"
             transform="scale(1,-1)"><tspan
               id="tspan42"
               y="0"
               x="0 3.9200001 9.2799997 11.66 18.120001 20.52">txid: </tspan></text>
</g><g
           transform="translate(136,458)"
           id="g46"><text
             id="text50"
             style="font-variant:normal;font-size:10px;font-family:HiraKakuProN;-inkscape-font-specification:HiraKakuProN-W6;writing-mode:lr-tb;fill:#000000;fill-opacity:1;fill-rule:nonzero;stroke:none"
             transform="matrix(1,0,0,-1,23.85,0)"><tspan
               id="tspan48"
               y="0"
               x="0 7.0599999 14.18 20.52 27.639999 33.889999 41.009998 48.07 55.130001 61.5 68.620003 75.739998 82.809998 89.93 97.050003 104.12">b8a5c5bbe16d70da</tspan></text>
</g><path
           id="path52"
           style="fill:#ffffff;fill-opacity:1;fill-rule:nonzero;stroke:none"
           d="M 225.1943,414.4667 H 296.708 V 367.078 h -71.5137 z" /><g
           transform="matrix(1,0,0,-1,225.1943,414.4667)"
           id="g54"><path
             id="path56"
             style="fill:none;stroke:#000000;stroke-width:1;stroke-linecap:butt;stroke-linejoin:miter;stroke-miterlimit:4;stroke-dasharray:none;stroke-opacity:1"
             d="M 0,0 H 71.51367 V 47.38867 H 0 Z" /></g></g></g><g
       id="g58"><g
         clip-path="url(#clipPath64)"
         id="g60"><g
           transform="translate(258,395)"
           id="g66"><text
             id="text70"
             style="font-variant:normal;font-size:10px;font-family:HiraKakuProN;-inkscape-font-specification:HiraKakuProN-W3;writing-mode:lr-tb;fill:#000000;fill-opacity:1;fill-rule:nonzero;stroke:none"
             transform="scale(1,-1)"><tspan
               id="tspan68"
               y="0"
               x="0 6.6900001">Z </tspan></text>
</g><g
           transform="translate(231,380)"
           id="g72"><text
             id="text76"
             style="font-variant:normal;font-size:9px;font-family:HiraKakuProN;-inkscape-font-specification:HiraKakuProN-W6;writing-mode:lr-tb;fill:#000000;fill-opacity:1;fill-rule:nonzero;stroke:none"
             transform="scale(1,-1)"><tspan
               id="tspan74"
               y="0"
               x="0 6.408 12.816 15.246 21.653999 28.062 34.470001">10.005 </tspan></text>
</g><g
           transform="translate(231,380)"
           id="g78"><text
             id="text82"
             style="font-variant:normal;font-size:7px;font-family:HiraKakuProN;-inkscape-font-specification:HiraKakuProN-W3;writing-mode:lr-tb;fill:#000000;fill-opacity:1;fill-rule:nonzero;stroke:none"
             transform="matrix(1,0,0,-1,37.467,0)"><tspan
               id="tspan80"
               y="0"
               x="0 4.5219998 6.1880002 8.9320002 12.978 17.353001 19.018999">bitcoin</tspan></text>
</g></g></g><g
       id="g84"><g
         clip-path="url(#clipPath90)"
         id="g86"><g
           transform="translate(244,424)"
           id="g92"><text
             id="text96"
             style="font-variant:normal;font-size:10px;font-family:HiraKakuProN;-inkscape-font-specification:HiraKakuProN-W3;writing-mode:lr-tb;fill:#000000;fill-opacity:1;fill-rule:nonzero;stroke:none"
             transform="scale(1,-1)"><tspan
               id="tspan94"
               y="0"
               x="0 7.9499998 14.13 18.049999 24.52 30.700001">Output</tspan></text>
</g><g
           transform="matrix(1,0,0,-1,185.7683,390.7724)"
           id="g98"><path
             id="path100"
             style="fill:none;stroke:#000000;stroke-width:2;stroke-linecap:butt;stroke-linejoin:miter;stroke-miterlimit:4;stroke-dasharray:none;stroke-opacity:1"
             d="m 0,0 h 24.64 1" /></g><path
           id="path102"
           style="fill:#000000;fill-opacity:1;fill-rule:nonzero;stroke:none"
           d="m 210.4083,385.9724 9.6,4.8 -9.6,4.8 z" /><path
           id="path104"
           style="fill:#ffffff;fill-opacity:1;fill-rule:nonzero;stroke:none"
           d="m 108.545,414.4667 h 71.5137 V 367.078 H 108.545 Z" /><g
           transform="matrix(1,0,0,-1,108.545,414.4667)"
           id="g106"><path
             id="path108"
             style="fill:none;stroke:#000000;stroke-width:1;stroke-linecap:butt;stroke-linejoin:miter;stroke-miterlimit:4;stroke-dasharray:none;stroke-opacity:1"
             d="M 0,0 H 71.51367 V 47.38867 H 0 Z" /></g></g></g><g
       id="g110"><g
         clip-path="url(#clipPath116)"
         id="g112"><g
           transform="translate(141,395)"
           id="g118"><text
             id="text122"
             style="font-variant:normal;font-size:10px;font-family:HiraKakuProN;-inkscape-font-specification:HiraKakuProN-W3;writing-mode:lr-tb;fill:#000000;fill-opacity:1;fill-rule:nonzero;stroke:none"
             transform="scale(1,-1)"><tspan
               id="tspan120"
               y="0"
               x="0 6.8800001">Y </tspan></text>
</g><g
           transform="translate(114,380)"
           id="g124"><text
             id="text128"
             style="font-variant:normal;font-size:10px;font-family:HiraKakuProN;-inkscape-font-specification:HiraKakuProN-W6;writing-mode:lr-tb;fill:#000000;fill-opacity:1;fill-rule:nonzero;stroke:none"
             transform="scale(1,-1)"><tspan
               id="tspan126"
               y="0"
               x="0 7.1199999 14.24 16.940001 24.059999 31.18">10.01 </tspan></text>
</g><g
           transform="translate(114,380)"
           id="g130"><text
             id="text134"
             style="font-variant:normal;font-size:8px;font-family:HiraKakuProN;-inkscape-font-specification:HiraKakuProN-W3;writing-mode:lr-tb;fill:#000000;fill-opacity:1;fill-rule:nonzero;stroke:none"
             transform="matrix(1,0,0,-1,34.51,0)"><tspan
               id="tspan132"
               y="0"
               x="0 5.1680002 7.072 10.208 14.832 19.832001 21.736">bitcoin</tspan></text>
</g></g></g><g
       id="g136"><g
         clip-path="url(#clipPath142)"
         id="g138"><g
           transform="translate(132,424)"
           id="g144"><text
             id="text148"
             style="font-variant:normal;font-size:10px;font-family:HiraKakuProN;-inkscape-font-specification:HiraKakuProN-W3;writing-mode:lr-tb;fill:#000000;fill-opacity:1;fill-rule:nonzero;stroke:none"
             transform="scale(1,-1)"><tspan
               id="tspan146"
               y="0"
               x="0 2.49 8.6700001 15.14 21.32">Input</tspan></text>
</g><g
           transform="translate(127,356)"
           id="g150"><text
             id="text154"
             style="font-variant:normal;font-size:7px;font-family:HiraKakuProN;-inkscape-font-specification:HiraKakuProN-W3;writing-mode:lr-tb;fill:#000000;fill-opacity:1;fill-rule:nonzero;stroke:none"
             transform="scale(1,-1)"><tspan
               id="tspan152"
               y="0"
               x="0 4.6339998 7.6440001 11.76 15.568 17.233999 21.608999 25.934999 29.694 32.025002 34.769001 38.521 40.187 44.709 46.389 48.720001">Previous txid:  </tspan></text>
</g><g
           transform="translate(115,345)"
           id="g156"><text
             id="text160"
             style="font-variant:normal;font-size:7px;font-family:HiraKakuProN;-inkscape-font-specification:HiraKakuProN-W3;writing-mode:lr-tb;fill:#000000;fill-opacity:1;fill-rule:nonzero;stroke:none"
             transform="scale(1,-1)"><tspan
               id="tspan158"
               y="0"
               x="0 4.5219998 9.1210003 13.72 18.242001 22.841 27.440001 31.465 35.490002 40.089001 44.134998 48.657001 53.256001 57.280998 61.880001 66.507004">d53d10aa9cb7a748</tspan></text>
</g><path
           id="path162"
           style="fill:#ffffff;fill-opacity:1;fill-rule:nonzero;stroke:none"
           d="m 368.3799,476.5237 h 147.1487 c 7.6079,0 11.4709,0 15.5741,-1.3004 4.4903,-1.6343 8.0275,-5.1715 9.6618,-9.6617 1.3004,-4.1033 1.3004,-7.9663 1.3004,-15.6921 V 297.7418 c 0,-7.6079 0,-11.4709 -1.3004,-15.5741 -1.6343,-4.4903 -5.1715,-8.0275 -9.6618,-9.6618 -4.1032,-1.3004 -7.9662,-1.3004 -15.692,-1.3004 H 368.3799 c -7.6079,0 -11.4708,0 -15.5741,1.3004 -4.4903,1.6343 -8.0275,5.1715 -9.6618,9.6618 -1.3004,4.1032 -1.3004,7.9662 -1.3004,15.692 v 152.1278 c 0,7.6078 0,11.4708 1.3004,15.5741 1.6343,4.4902 5.1715,8.0274 9.6618,9.6617 4.1033,1.3004 7.9662,1.3004 15.6921,1.3004 z" /><g
           transform="matrix(1,0,0,-1,341.8436,476.5237)"
           id="g164"><path
             id="path166"
             style="fill:none;stroke:#000000;stroke-width:1.10000002;stroke-linecap:butt;stroke-linejoin:miter;stroke-miterlimit:4;stroke-dasharray:none;stroke-opacity:1"
             d="M 26.53629,0 H 173.685 c 7.6079,0 11.4709,0 15.5741,1.300396 4.4903,1.63433 8.0275,5.171499 9.6618,9.661784 1.3004,4.10328 1.3004,7.96621 1.3004,15.69209 V 178.782 c 0,7.6079 0,11.4708 -1.3004,15.5741 -1.6343,4.4903 -5.1715,8.0274 -9.6618,9.6618 -4.1032,1.3004 -7.9662,1.3004 -15.692,1.3004 H 26.53629 c -7.6079,0 -11.47083,0 -15.57411,-1.3004 C 6.471895,202.3835 2.934726,198.8464 1.300396,194.3561 0,190.2528 0,186.3899 0,178.664 V 26.53629 C 0,18.92839 0,15.06546 1.300396,10.96218 2.934726,6.471895 6.471895,2.934726 10.96218,1.300396 15.06546,0 18.92839,0 26.65427,0 Z" /></g><g
           transform="matrix(1,0,0,-1,342.7772,442.6183)"
           id="g168"><path
             id="path170"
             style="fill:none;stroke:#000000;stroke-width:1;stroke-linecap:butt;stroke-linejoin:miter;stroke-miterlimit:4;stroke-dasharray:none;stroke-opacity:1"
             d="M 0,0 H 198.3542" /></g><g
           transform="translate(371,453)"
           id="g172"><text
             id="text176"
             style="font-variant:normal;font-size:10px;font-family:HiraKakuProN;-inkscape-font-specification:HiraKakuProN-W3;writing-mode:lr-tb;fill:#000000;fill-opacity:1;fill-rule:nonzero;stroke:none"
             transform="scale(1,-1)"><tspan
               id="tspan174"
               y="0"
               x="0 3.9200001 9.2799997 11.66 18.120001 20.52">txid: </tspan></text>
</g><g
           transform="translate(371,453)"
           id="g178"><text
             id="text182"
             style="font-variant:normal;font-size:10px;font-family:HiraKakuProN;-inkscape-font-specification:HiraKakuProN-W6;writing-mode:lr-tb;fill:#000000;fill-opacity:1;fill-rule:nonzero;stroke:none"
             transform="matrix(1,0,0,-1,23.85,0)"><tspan
               id="tspan180"
               y="0"
               x="0 7.1199999 14.24 21.360001 28.48 35.599998 42.720001 49.84 56.18 63.299999 69.669998 76.730003 83.849998 90.970001 98.040001 105.16">9260861a6eb75d71</tspan></text>
</g><path
           id="path184"
           style="fill:#ffffff;fill-opacity:1;fill-rule:nonzero;stroke:none"
           d="M 464.2603,412.1101 H 535.774 V 364.7215 H 464.2603 Z" /><g
           transform="matrix(1,0,0,-1,464.2603,412.1101)"
           id="g186"><path
             id="path188"
             style="fill:none;stroke:#000000;stroke-width:1;stroke-linecap:butt;stroke-linejoin:miter;stroke-miterlimit:4;stroke-dasharray:none;stroke-opacity:1"
             d="M 0,0 H 71.51367 V 47.38867 H 0 Z" /></g></g></g><g
       id="g190"><g
         clip-path="url(#clipPath196)"
         id="g192"><g
           transform="translate(496,392)"
           id="g198"><text
             id="text202"
             style="font-variant:normal;font-size:10px;font-family:HiraKakuProN;-inkscape-font-specification:HiraKakuProN-W3;writing-mode:lr-tb;fill:#ee220c;fill-opacity:1;fill-rule:nonzero;stroke:none"
             transform="scale(1,-1)"><tspan
               id="tspan200"
               y="0"
               x="0 7.5">A </tspan></text>
</g><g
           transform="translate(478,377)"
           id="g204"><text
             id="text208"
             style="font-variant:normal;font-size:10px;font-family:HiraKakuProN;-inkscape-font-specification:HiraKakuProN-W6;writing-mode:lr-tb;fill:#000000;fill-opacity:1;fill-rule:nonzero;stroke:none"
             transform="scale(1,-1)"><tspan
               id="tspan206"
               y="0"
               x="0 7.1199999 14.24">10 </tspan></text>
</g><g
           transform="translate(478,377)"
           id="g210"><text
             id="text214"
             style="font-variant:normal;font-size:8px;font-family:HiraKakuProN;-inkscape-font-specification:HiraKakuProN-W3;writing-mode:lr-tb;fill:#000000;fill-opacity:1;fill-rule:nonzero;stroke:none"
             transform="matrix(1,0,0,-1,17.57,0)"><tspan
               id="tspan212"
               y="0"
               x="0 5.1680002 7.072 10.208 14.832 19.832001 21.736">bitcoin</tspan></text>
</g></g></g><g
       id="g216"><g
         clip-path="url(#clipPath222)"
         id="g218"><g
           transform="translate(483,421)"
           id="g224"><text
             id="text228"
             style="font-variant:normal;font-size:10px;font-family:HiraKakuProN;-inkscape-font-specification:HiraKakuProN-W3;writing-mode:lr-tb;fill:#000000;fill-opacity:1;fill-rule:nonzero;stroke:none"
             transform="scale(1,-1)"><tspan
               id="tspan226"
               y="0"
               x="0 7.9499998 14.13 18.049999 24.52 30.700001">Output</tspan></text>
</g><g
           transform="matrix(1,0,0,-1,424.8343,388.4158)"
           id="g230"><path
             id="path232"
             style="fill:none;stroke:#000000;stroke-width:2;stroke-linecap:butt;stroke-linejoin:miter;stroke-miterlimit:4;stroke-dasharray:none;stroke-opacity:1"
             d="m 0,0 h 24.64 1" /></g><path
           id="path234"
           style="fill:#000000;fill-opacity:1;fill-rule:nonzero;stroke:none"
           d="m 449.4743,383.6158 9.6,4.8 -9.6,4.8 z" /><path
           id="path236"
           style="fill:#ffffff;fill-opacity:1;fill-rule:nonzero;stroke:none"
           d="m 347.611,412.1101 h 71.5136 V 364.7215 H 347.611 Z" /><g
           transform="matrix(1,0,0,-1,347.611,412.1101)"
           id="g238"><path
             id="path240"
             style="fill:none;stroke:#000000;stroke-width:1;stroke-linecap:butt;stroke-linejoin:miter;stroke-miterlimit:4;stroke-dasharray:none;stroke-opacity:1"
             d="M 0,0 H 71.51367 V 47.38867 H 0 Z" /></g></g></g><g
       id="g242"><g
         clip-path="url(#clipPath248)"
         id="g244"><g
           transform="translate(380,392)"
           id="g250"><text
             id="text254"
             style="font-variant:normal;font-size:10px;font-family:HiraKakuProN;-inkscape-font-specification:HiraKakuProN-W3;writing-mode:lr-tb;fill:#000000;fill-opacity:1;fill-rule:nonzero;stroke:none"
             transform="scale(1,-1)"><tspan
               id="tspan252"
               y="0"
               x="0 6.6900001">Z </tspan></text>
</g><g
           transform="translate(353,378)"
           id="g256"><text
             id="text260"
             style="font-variant:normal;font-size:9px;font-family:HiraKakuProN;-inkscape-font-specification:HiraKakuProN-W6;writing-mode:lr-tb;fill:#000000;fill-opacity:1;fill-rule:nonzero;stroke:none"
             transform="scale(1,-1)"><tspan
               id="tspan258"
               y="0"
               x="0 6.408 12.816 15.246 21.653999 28.062 34.470001">10.005 </tspan></text>
</g><g
           transform="translate(353,378)"
           id="g262"><text
             id="text266"
             style="font-variant:normal;font-size:7px;font-family:HiraKakuProN;-inkscape-font-specification:HiraKakuProN-W3;writing-mode:lr-tb;fill:#000000;fill-opacity:1;fill-rule:nonzero;stroke:none"
             transform="matrix(1,0,0,-1,37.467,0)"><tspan
               id="tspan264"
               y="0"
               x="0 4.5219998 6.1880002 8.9320002 12.978 17.353001 19.018999">bitcoin</tspan></text>
</g></g></g><g
       id="g268"><g
         clip-path="url(#clipPath274)"
         id="g270"><g
           transform="translate(371,421)"
           id="g276"><text
             id="text280"
             style="font-variant:normal;font-size:10px;font-family:HiraKakuProN;-inkscape-font-specification:HiraKakuProN-W3;writing-mode:lr-tb;fill:#000000;fill-opacity:1;fill-rule:nonzero;stroke:none"
             transform="scale(1,-1)"><tspan
               id="tspan278"
               y="0"
               x="0 2.49 8.6700001 15.14 21.32">Input</tspan></text>
</g><g
           transform="translate(366,353)"
           id="g282"><text
             id="text286"
             style="font-variant:normal;font-size:7px;font-family:HiraKakuProN;-inkscape-font-specification:HiraKakuProN-W3;writing-mode:lr-tb;fill:#000000;fill-opacity:1;fill-rule:nonzero;stroke:none"
             transform="scale(1,-1)"><tspan
               id="tspan284"
               y="0"
               x="0 4.6339998 7.6440001 11.76 15.568 17.233999 21.608999 25.934999 29.694 32.025002 34.769001 38.521 40.187 44.709 46.389 48.720001">Previous txid:  </tspan></text>
</g><g
           transform="translate(351,342)"
           id="g288"><text
             id="text292"
             style="font-variant:normal;font-size:7px;font-family:HiraKakuProN;-inkscape-font-specification:HiraKakuProN-W6;writing-mode:lr-tb;fill:#000000;fill-opacity:1;fill-rule:nonzero;stroke:none"
             transform="scale(1,-1)"><tspan
               id="tspan290"
               y="0"
               x="0 4.9419999 9.9259996 14.364 19.348 23.723 28.707001 33.648998 38.591 43.049999 48.034 53.018002 57.966999 62.951 67.934998 72.884003">b8a5c5bbe16d70da</tspan></text>
</g><path
           id="path294"
           style="fill:#ffffff;fill-opacity:1;fill-rule:nonzero;stroke:none"
           d="M 613.2133,478.8803 H 760.362 c 7.6079,0 11.4709,0 15.5742,-1.3004 4.4902,-1.6343 8.0274,-5.1715 9.6617,-9.6618 1.3004,-4.1033 1.3004,-7.9662 1.3004,-15.6921 V 300.0983 c 0,-7.6079 0,-11.4708 -1.3004,-15.5741 -1.6343,-4.4903 -5.1715,-8.0275 -9.6617,-9.6618 -4.1033,-1.3004 -7.9663,-1.3004 -15.6921,-1.3004 H 613.2133 c -7.6079,0 -11.4708,0 -15.5741,1.3004 -4.4903,1.6343 -8.0275,5.1715 -9.6618,9.6618 -1.3004,4.1033 -1.3004,7.9662 -1.3004,15.6921 V 452.344 c 0,7.6079 0,11.4708 1.3004,15.5741 1.6343,4.4903 5.1715,8.0275 9.6618,9.6618 4.1033,1.3004 7.9662,1.3004 15.6921,1.3004 z" /><g
           transform="matrix(1,0,0,-1,586.677,478.8803)"
           id="g296"><path
             id="path298"
             style="fill:none;stroke:#000000;stroke-width:1.10000002;stroke-linecap:butt;stroke-linejoin:miter;stroke-miterlimit:4;stroke-dasharray:none;stroke-opacity:1"
             d="M 26.53629,0 H 173.685 c 7.6079,0 11.4709,0 15.5741,1.300396 4.4903,1.63433 8.0275,5.171499 9.6618,9.661784 1.3004,4.10328 1.3004,7.96621 1.3004,15.69209 V 178.782 c 0,7.6079 0,11.4708 -1.3004,15.5741 -1.6343,4.4903 -5.1715,8.0274 -9.6618,9.6618 -4.1032,1.3004 -7.9662,1.3004 -15.692,1.3004 H 26.53629 c -7.6079,0 -11.47083,0 -15.57411,-1.3004 C 6.471895,202.3835 2.934726,198.8464 1.300396,194.3561 0,190.2528 0,186.3899 0,178.664 V 26.53629 C 0,18.92839 0,15.06546 1.300396,10.96218 2.934726,6.471895 6.471895,2.934726 10.96218,1.300396 15.06546,0 18.92839,0 26.65427,0 Z" /></g><g
           transform="matrix(1,0,0,-1,587.6105,444.9748)"
           id="g300"><path
             id="path302"
             style="fill:none;stroke:#000000;stroke-width:1;stroke-linecap:butt;stroke-linejoin:miter;stroke-miterlimit:4;stroke-dasharray:none;stroke-opacity:1"
             d="M 0,0 H 198.3542" /></g><g
           transform="translate(620,458)"
           id="g304"><text
             id="text308"
             style="font-variant:normal;font-size:10px;font-family:HiraKakuProN;-inkscape-font-specification:HiraKakuProN-W3;writing-mode:lr-tb;fill:#000000;fill-opacity:1;fill-rule:nonzero;stroke:none"
             transform="scale(1,-1)"><tspan
               id="tspan306"
               y="0"
               x="0 3.9200001 9.2799997 11.66 18.120001 20.52">txid: </tspan></text>
</g><g
           transform="translate(620,458)"
           id="g310"><text
             id="text314"
             style="font-variant:normal;font-size:10px;font-family:HiraKakuProN;-inkscape-font-specification:HiraKakuProN-W6;writing-mode:lr-tb;fill:#000000;fill-opacity:1;fill-rule:nonzero;stroke:none"
             transform="matrix(1,0,0,-1,23.85,0)"><tspan
               id="tspan312"
               y="0"
               x="0 6.25 13.31 18.08 24.450001 30.82 37.939999 45.060001 52.119999 59.18 66.300003 73.419998 80.540001 87.660004 94.779999 101.9">cbfee76bb9199070</tspan></text>
</g><path
           id="path316"
           style="fill:#ffffff;fill-opacity:1;fill-rule:nonzero;stroke:none"
           d="m 709.0936,414.4667 h 71.5137 V 367.078 h -71.5137 z" /><g
           transform="matrix(1,0,0,-1,709.0936,414.4667)"
           id="g318"><path
             id="path320"
             style="fill:none;stroke:#000000;stroke-width:1;stroke-linecap:butt;stroke-linejoin:miter;stroke-miterlimit:4;stroke-dasharray:none;stroke-opacity:1"
             d="M 0,0 H 71.51367 V 47.38867 H 0 Z" /></g></g></g><g
       id="g322"><g
         clip-path="url(#clipPath328)"
         id="g324"><g
           transform="translate(741,395)"
           id="g330"><text
             id="text334"
             style="font-variant:normal;font-size:10px;font-family:HiraKakuProN;-inkscape-font-specification:HiraKakuProN-W3;writing-mode:lr-tb;fill:#017100;fill-opacity:1;fill-rule:nonzero;stroke:none"
             transform="scale(1,-1)"><tspan
               id="tspan332"
               y="0"
               x="0 7.1199999">B </tspan></text>
</g><g
           transform="translate(718,380)"
           id="g336"><text
             id="text340"
             style="font-variant:normal;font-size:10px;font-family:HiraKakuProN;-inkscape-font-specification:HiraKakuProN-W6;writing-mode:lr-tb;fill:#000000;fill-opacity:1;fill-rule:nonzero;stroke:none"
             transform="scale(1,-1)"><tspan
               id="tspan338"
               y="0"
               x="0 7.1199999 9.8199997 16.940001 24.059999">9.95 </tspan></text>
</g><g
           transform="translate(718,380)"
           id="g342"><text
             id="text346"
             style="font-variant:normal;font-size:8px;font-family:HiraKakuProN;-inkscape-font-specification:HiraKakuProN-W3;writing-mode:lr-tb;fill:#000000;fill-opacity:1;fill-rule:nonzero;stroke:none"
             transform="matrix(1,0,0,-1,27.39,0)"><tspan
               id="tspan344"
               y="0"
               x="0 5.1680002 7.072 10.208 14.832 19.832001 21.736">bitcoin</tspan></text>
</g></g></g><g
       id="g348"><g
         clip-path="url(#clipPath354)"
         id="g350"><g
           transform="translate(728,424)"
           id="g356"><text
             id="text360"
             style="font-variant:normal;font-size:10px;font-family:HiraKakuProN;-inkscape-font-specification:HiraKakuProN-W3;writing-mode:lr-tb;fill:#000000;fill-opacity:1;fill-rule:nonzero;stroke:none"
             transform="scale(1,-1)"><tspan
               id="tspan358"
               y="0"
               x="0 7.9499998 14.13 18.049999 24.52 30.700001">Output</tspan></text>
</g><g
           transform="matrix(1,0,0,-1,669.6677,390.7724)"
           id="g362"><path
             id="path364"
             style="fill:none;stroke:#000000;stroke-width:2;stroke-linecap:butt;stroke-linejoin:miter;stroke-miterlimit:4;stroke-dasharray:none;stroke-opacity:1"
             d="m 0,0 h 24.64 1" /></g><path
           id="path366"
           style="fill:#000000;fill-opacity:1;fill-rule:nonzero;stroke:none"
           d="m 694.3077,385.9724 9.6,4.8 -9.6,4.8 z" /><path
           id="path368"
           style="fill:#ffffff;fill-opacity:1;fill-rule:nonzero;stroke:none"
           d="M 592.4443,414.4667 H 663.958 V 367.078 h -71.5137 z" /><g
           transform="matrix(1,0,0,-1,592.4443,414.4667)"
           id="g370"><path
             id="path372"
             style="fill:none;stroke:#000000;stroke-width:1;stroke-linecap:butt;stroke-linejoin:miter;stroke-miterlimit:4;stroke-dasharray:none;stroke-opacity:1"
             d="M 0,0 H 71.51367 V 47.38867 H 0 Z" /></g></g></g><g
       id="g374"><g
         clip-path="url(#clipPath380)"
         id="g376"><g
           transform="translate(624,395)"
           id="g382"><text
             id="text386"
             style="font-variant:normal;font-size:10px;font-family:HiraKakuProN;-inkscape-font-specification:HiraKakuProN-W3;writing-mode:lr-tb;fill:#ee220c;fill-opacity:1;fill-rule:nonzero;stroke:none"
             transform="scale(1,-1)"><tspan
               id="tspan384"
               y="0"
               x="0 7.5">A </tspan></text>
</g><g
           transform="translate(606,380)"
           id="g388"><text
             id="text392"
             style="font-variant:normal;font-size:10px;font-family:HiraKakuProN;-inkscape-font-specification:HiraKakuProN-W6;writing-mode:lr-tb;fill:#000000;fill-opacity:1;fill-rule:nonzero;stroke:none"
             transform="scale(1,-1)"><tspan
               id="tspan390"
               y="0"
               x="0 7.1199999 14.24">10 </tspan></text>
</g><g
           transform="translate(606,380)"
           id="g394"><text
             id="text398"
             style="font-variant:normal;font-size:8px;font-family:HiraKakuProN;-inkscape-font-specification:HiraKakuProN-W3;writing-mode:lr-tb;fill:#000000;fill-opacity:1;fill-rule:nonzero;stroke:none"
             transform="matrix(1,0,0,-1,17.57,0)"><tspan
               id="tspan396"
               y="0"
               x="0 5.1680002 7.072 10.208 14.832 19.832001 21.736">bitcoin</tspan></text>
</g></g></g><g
       id="g400"><g
         clip-path="url(#clipPath406)"
         id="g402"><g
           transform="translate(616,424)"
           id="g408"><text
             id="text412"
             style="font-variant:normal;font-size:10px;font-family:HiraKakuProN;-inkscape-font-specification:HiraKakuProN-W3;writing-mode:lr-tb;fill:#000000;fill-opacity:1;fill-rule:nonzero;stroke:none"
             transform="scale(1,-1)"><tspan
               id="tspan410"
               y="0"
               x="0 2.49 8.6700001 15.14 21.32">Input</tspan></text>
</g><g
           transform="translate(611,356)"
           id="g414"><text
             id="text418"
             style="font-variant:normal;font-size:7px;font-family:HiraKakuProN;-inkscape-font-specification:HiraKakuProN-W3;writing-mode:lr-tb;fill:#000000;fill-opacity:1;fill-rule:nonzero;stroke:none"
             transform="scale(1,-1)"><tspan
               id="tspan416"
               y="0"
               x="0 4.6339998 7.6440001 11.76 15.568 17.233999 21.608999 25.934999 29.694 32.025002 34.769001 38.521 40.187 44.709 46.389 48.720001">Previous txid:  </tspan></text>
</g><g
           transform="translate(595,345)"
           id="g420"><text
             id="text424"
             style="font-variant:normal;font-size:7px;font-family:HiraKakuProN;-inkscape-font-specification:HiraKakuProN-W6;writing-mode:lr-tb;fill:#000000;fill-opacity:1;fill-rule:nonzero;stroke:none"
             transform="scale(1,-1)"><tspan
               id="tspan422"
               y="0"
               x="0 4.9840002 9.9680004 14.952 19.936001 24.92 29.903999 34.888 39.326 44.310001 48.769001 53.710999 58.695 63.679001 68.627998 73.612">9260861a6eb75d71</tspan></text>
</g><path
           id="path426"
           style="fill:#929292;fill-opacity:1;fill-rule:nonzero;stroke:none"
           d="m 276.6582,459.6709 c -0.9063,0 -2.1164,0.1519 -2.2734,1.4886 -0.1519,1.3418 0.8304,2.3848 2.1924,2.3848 1.3671,0 0.9722,-0.7342 4.162,-0.7342 1.1798,0 1.2456,-2.4455 0.0507,-2.4455 -2.8405,0 -2.4507,-0.6937 -4.1317,-0.6937 0,0 0,0 0,0 z m 41.7266,3.8734 c 0.3046,0 0.5756,-0.0213 0.8152,-0.0644 l 1.8799,-1.8799 c -0.1894,-1.0546 -0.7993,-1.5012 -1.8596,-1.5342 -1.0804,-0.0323 -1.6952,0.5497 -1.8985,1.5342 l 1.8782,-1.8782 c -0.2474,-0.0511 -0.5203,-0.0762 -0.8152,-0.0762 -1.4633,0 -1.3975,0.7341 -3.8532,0.7139 -1.3164,-0.0152 -1.0886,2.4456 -0.0151,2.4456 2.6025,0 2.2227,0.7392 3.8683,0.7392 0,0 0,0 0,0 z m -37.52,-3.1848 c -0.7013,0 -0.7166,2.4608 0.1037,2.4608 0.8691,0 2.7629,-0.4406 3.2599,-0.3899 0.4971,0.0506 1.8694,0.5164 2.3055,0.5164 0.433,0 2.531,-0.719 3.4337,-0.5164 0.8965,0.2076 1.1527,0.0962 1.7748,0.0962 0.619,0 1.604,-0.1469 2.1926,-0.2025 0.5916,-0.0507 1.1191,0.5974 1.8907,0.4253 0.7715,-0.1772 1.1893,0.0709 1.7199,0.0709 0.8538,0 0.805,-2.4406 0.009,-2.4406 -0.7685,0 -1.293,-0.162 -1.9456,-0.1113 -0.6495,0.0506 -1.2106,0.3088 -1.8297,0.0506 -0.619,-0.2532 -1.8175,0.0202 -2.5615,0.1772 -0.7441,0.157 -1.5675,0.0861 -2.153,-0.0203 -1.1771,-0.1974 -3.9979,0.2583 -4.4004,0.0507 -0.4056,-0.2025 -1.6925,-0.005 -2.1529,-0.005 -0.4544,0 -0.7014,-0.162 -1.6468,-0.162 0,0 0,0 0,0 z m 33.4042,2.4608 c 0.7746,0 0.9148,-2.4456 0,-2.4456 -0.9149,0 -2.6012,0.2278 -3.0952,0.1772 -0.4971,-0.0557 -2.5616,-0.2025 -2.9946,-0.2025 -0.4331,0 -1.9853,0.3595 -2.8849,0.1519 -0.8996,-0.2026 -1.7778,0.2025 -2.3938,0.0911 -0.7685,-0.1367 -1.1802,0 -1.7687,0.0506 -0.5886,0.0507 -1.4943,-0.4405 -1.9913,-0.2379 -0.4971,0.2076 -0.7777,-0.0304 -1.473,-0.0304 -0.6983,0 -0.6952,2.4354 -0.0396,2.4354 0.6587,0 1.2198,-0.0354 1.8693,-0.0911 0.6526,-0.0506 1.4455,-0.0912 2.1499,-0.0912 0.6404,0 1.598,0.2988 2.342,0.1418 0.7441,-0.1519 1.8236,-0.2177 2.2567,-0.243 0.5428,-0.0304 1.6985,0.0405 2.1956,-0.0962 0.6343,-0.1722 1.7352,0.081 2.1377,0.2886 0.4056,0.2076 0.6831,-0.081 1.5613,-0.0304 0.5215,0.0304 1.351,0.1317 2.1286,0.1317 0,0 0,0 0,0 z m 3.0019,-1.8785 c 0,0.9063 0.1519,2.1164 1.4886,2.2734 1.3418,0.1519 2.3848,-0.8304 2.3848,-2.1924 0,-1.3671 -0.7342,-0.9722 -0.7342,-4.162 0,-1.1798 -2.4455,-1.2456 -2.4455,-0.0507 0,2.8405 -0.6937,2.4507 -0.6937,4.1317 0,0 0,0 0,0 z m 3.8734,-109.2266 c 0,-0.3046 -0.0213,-0.5756 -0.0644,-0.8152 l -1.8799,1.8799 c 1.0546,-0.1894 1.5012,-0.7993 1.5342,-1.8596 0.0323,-1.0804 -0.5497,-1.6952 -1.5342,-1.8985 l -1.8782,1.8782 c -0.0511,0.2474 -0.0762,0.5203 -0.0762,0.8152 0,1.4633 0.7341,1.3975 0.7139,3.8532 -0.0152,1.3164 2.4456,1.0886 2.4456,0.0151 0,-2.6025 0.7392,-2.2227 0.7392,-3.8683 0,0 0,0 0,0 z m -0.724,104.8169 c 0,-1.3529 -0.3292,-3.559 -0.3292,-4.0984 0,-0.5394 0.1874,-2.3476 0.1367,-3.2053 -0.0556,-0.8533 -0.2481,-1.1407 -0.2987,-2.582 -0.0658,-1.7994 0.1772,-2.9798 0.2076,-3.0638 0.0861,-0.2564 0.3291,-1.1274 0.2532,-2.3388 -0.1013,-1.6181 0.1316,-2.1044 0.0304,-2.8251 -0.2937,-1.2379 -0.0254,-1.3573 -0.0709,-2.299 -0.0507,-0.9505 0.0557,-1.5385 -0.076,-2.2945 -0.1519,-0.8268 0.1671,-1.428 0.1469,-2.1885 0,-1.2069 -2.4557,-1.092 -2.4557,0.0398 0,0.6853 0.2632,1.2998 0.2632,2.016 0,0.7207 -0.0506,1.3485 -0.1519,2.0691 -0.1063,0.7207 0.0507,2.1885 0,3.3557 -0.0556,1.1716 -0.1974,3.1124 -0.1417,4.4609 0.0455,1.3529 0.6228,2.1884 0.243,4.9516 -0.1215,0.8887 -0.0152,2.6616 -0.0152,3.3822 0,1.2645 -0.1823,3.7005 -0.1823,4.7527 0,1.2556 2.4406,1.2203 2.4406,-0.1326 0,0 0,0 0,0 z m 0,-50.1431 c 0,-1.1673 -2.4456,-1.3787 -2.4456,0 0,1.3787 0.2278,3.9201 0.1772,4.6647 -0.0557,0.7491 -0.2025,3.8604 -0.2025,4.513 0,0.6525 0.3595,2.9918 0.1519,4.3475 -0.2026,1.3557 0.2025,2.6793 0.0911,3.6076 -0.1367,1.1582 0,1.7786 0.0506,2.6656 0.0507,0.8869 -0.4405,2.2519 -0.2379,3.001 0.2076,0.7491 -0.0304,1.1719 -0.0304,2.2197 0,1.0524 2.4354,1.0478 2.4354,0.0597 0,-0.9926 -0.0354,-1.8382 -0.0911,-2.8171 -0.0506,-0.9835 -0.0912,-2.1784 -0.0912,-3.24 0,-0.9651 0.2988,-2.4082 0.1418,-3.5295 -0.1519,-1.1214 -0.2177,-2.7483 -0.243,-3.4009 -0.0304,-0.818 0.0405,-2.5598 -0.0962,-3.3089 -0.1722,-0.9559 0.081,-2.6149 0.2886,-3.2216 0.2076,-0.6112 -0.081,-1.0294 -0.0304,-2.353 0.0304,-0.7859 0.1317,-2.0359 0.1317,-3.2078 0,0 0,0 0,0 z m 0,-0.3639 c 0,-1.3528 -0.3292,-3.559 -0.3292,-4.0984 0,-0.5393 0.1874,-2.3476 0.1367,-3.2053 -0.0556,-0.8533 -0.2481,-1.1406 -0.2987,-2.5819 -0.0658,-1.7994 0.1772,-2.9799 0.2076,-3.0639 0.0861,-0.2564 0.3291,-1.1273 0.2532,-2.3387 -0.1013,-1.6182 0.1316,-2.1045 0.0304,-2.8251 -0.2937,-1.2379 -0.0254,-1.3573 -0.0709,-2.299 -0.0507,-0.9506 0.0557,-1.5386 -0.076,-2.2946 -0.1519,-0.8267 0.1671,-1.428 0.1469,-2.1884 0,-1.207 -2.4557,-1.0921 -2.4557,0.0397 0,0.6853 0.2632,1.2999 0.2632,2.0161 0,0.7206 -0.0506,1.3484 -0.1519,2.0691 -0.1063,0.7206 0.0507,2.1884 0,3.3556 -0.0556,1.1716 -0.1974,3.1125 -0.1417,4.4609 0.0455,1.3529 0.6228,2.1885 0.243,4.9517 -0.1215,0.8886 -0.0152,2.6615 -0.0152,3.3821 0,1.2645 -0.1823,3.7005 -0.1823,4.7528 0,1.2556 2.4406,1.2202 2.4406,-0.1327 0,0 0,0 0,0 z m 0,-50.1431 c 0,-1.1673 -2.4456,-1.3787 -2.4456,0 0,1.3788 0.2278,3.9202 0.1772,4.6647 -0.0557,0.7491 -0.2025,3.8604 -0.2025,4.513 0,0.6526 0.3595,2.9918 0.1519,4.3475 -0.2026,1.3558 0.2025,2.6793 0.0911,3.6077 -0.1367,1.1581 0,1.7785 0.0506,2.6655 0.0507,0.887 -0.4405,2.2519 -0.2379,3.001 0.2076,0.7491 -0.0304,1.1719 -0.0304,2.2197 0,1.0525 2.4354,1.0479 2.4354,0.0598 0,-0.9927 -0.0354,-1.8383 -0.0911,-2.8172 -0.0506,-0.9835 -0.0912,-2.1784 -0.0912,-3.24 0,-0.9651 0.2988,-2.4081 0.1418,-3.5295 -0.1519,-1.1213 -0.2177,-2.7482 -0.243,-3.4008 -0.0304,-0.8181 0.0405,-2.5598 -0.0962,-3.3089 -0.1722,-0.956 0.081,-2.615 0.2886,-3.2216 0.2076,-0.6113 -0.081,-1.0295 -0.0304,-2.353 0.0304,-0.7859 0.1317,-2.036 0.1317,-3.2079 0,0 0,0 0,0 z m -0.5621,-6.9111 c -0.9063,0 -2.1164,0.1519 -2.2734,1.4886 -0.1519,1.3418 0.8304,2.3848 2.1924,2.3848 1.3671,0 0.9722,-0.7342 4.162,-0.7342 1.1798,0 1.2456,-2.4455 0.0507,-2.4455 -2.8405,0 -2.4507,-0.6937 -4.1317,-0.6937 0,0 0,0 0,0 z m 25.8266,3.8734 c 1.6456,0 2.3089,-0.6228 2.3494,-1.924 0.0405,-1.3519 -0.881,-1.9747 -2.3494,-1.9747 -1.4633,0 -1.3975,0.7341 -3.8532,0.7139 -1.3164,-0.0152 -1.0886,2.4456 -0.0151,2.4456 2.6025,0 2.2227,0.7392 3.8683,0.7392 0,0 0,0 0,0 z m -21.6195,-3.1848 c -0.7372,0 -0.7533,2.4608 0.109,2.4608 0.9135,0 2.9041,-0.4406 3.4266,-0.3899 0.5225,0.0506 1.965,0.5164 2.4233,0.5164 0.4552,0 2.6606,-0.719 3.6094,-0.5164 0.9424,0.2076 1.2116,0.0962 1.8655,0.0962 0.6507,0 1.6861,-0.1469 2.3048,-0.2025 0.6218,-0.0507 1.1764,0.5974 1.9873,0.4253 0.811,-0.1772 1.2502,0.0709 1.8079,0.0709 0.8975,0 0.8462,-2.4406 0.01,-2.4406 -0.8078,0 -1.3591,-0.162 -2.0451,-0.1113 -0.6827,0.0506 -1.2725,0.3088 -1.9232,0.0506 -0.6507,-0.2532 -1.9105,0.0202 -2.6926,0.1772 -0.7821,0.157 -1.6476,0.0861 -2.263,-0.0203 -1.2373,-0.1974 -4.2024,0.2583 -4.6255,0.0507 -0.4263,-0.2025 -1.779,-0.005 -2.263,-0.005 -0.4777,0 -0.7373,-0.162 -1.731,-0.162 0,0 0,0 0,0 z" /><path
           id="path428"
           style="fill:#929292;fill-opacity:1;fill-rule:nonzero;stroke:none"
           d="m 31.55823,458.4709 c -0.90633,0 -2.11646,0.1519 -2.27342,1.4886 -0.1519,1.3418 0.83038,2.3848 2.19241,2.3848 1.36708,0 0.97215,-0.7342 4.16202,-0.7342 1.17975,0 1.24557,-2.4455 0.05063,-2.4455 -2.8405,0 -2.45063,-0.6937 -4.13164,-0.6937 0,0 0,0 0,0 z m 45.72658,3.8734 c 0.30463,0 0.5756,-0.0213 0.81519,-0.0644 L 79.97992,460.4 c -0.18945,-1.0546 -0.7993,-1.5012 -1.85967,-1.5342 -1.08038,-0.0323 -1.6951,0.5497 -1.89845,1.5342 L 78.1,458.5218 c -0.24743,-0.0511 -0.52028,-0.0762 -0.81519,-0.0762 -1.46329,0 -1.39747,0.7341 -3.85316,0.7139 -1.31646,-0.0152 -1.08861,2.4456 -0.01519,2.4456 2.60253,0 2.22278,0.7392 3.86835,0.7392 0,0 0,0 0,0 z m -41.51887,-3.1848 c -0.7851,0 -0.80217,2.4608 0.11605,2.4608 0.97284,0 3.0926,-0.4406 3.64899,-0.3899 0.5564,0.0506 2.09245,0.5164 2.58058,0.5164 0.48471,0 2.83317,-0.719 3.84355,-0.5164 1.00356,0.2076 1.29029,0.0962 1.98664,0.0962 0.69293,0 1.79548,-0.1469 2.45428,-0.2025 0.66221,-0.0507 1.25274,0.5974 2.11634,0.4253 0.86361,-0.1772 1.33125,0.0709 1.92519,0.0709 0.95577,0 0.90116,-2.4406 0.01024,-2.4406 -0.86019,0 -1.4473,-0.162 -2.17778,-0.1113 -0.72707,0.0506 -1.35515,0.3088 -2.04808,0.0506 -0.69293,-0.2532 -2.03442,0.0202 -2.86731,0.1772 -0.83288,0.157 -1.75452,0.0861 -2.4099,-0.0203 -1.3176,-0.1974 -4.47505,0.2583 -4.92562,0.0507 -0.45399,-0.2025 -1.89447,-0.005 -2.40991,-0.005 -0.5086,0 -0.78509,-0.162 -1.84326,-0.162 0,0 0,0 0,0 z m 37.39104,2.4608 c 0.86701,0 1.02403,-2.4456 0,-2.4456 -1.02404,0 -2.91169,0.2278 -3.46467,0.1772 -0.55639,-0.0557 -2.8673,-0.2025 -3.35201,-0.2025 -0.48471,0 -2.22217,0.3595 -3.22914,0.1519 -1.00697,-0.2026 -1.99004,0.2025 -2.67956,0.0911 -0.86019,-0.1367 -1.32101,0 -1.97981,0.0506 -0.6588,0.0507 -1.67259,-0.4405 -2.22899,-0.2379 -0.55639,0.2076 -0.87043,-0.0304 -1.6487,-0.0304 -0.78168,0 -0.77827,2.4354 -0.04437,2.4354 0.7373,0 1.36538,-0.0354 2.09245,-0.0911 0.73048,-0.0506 1.61798,-0.0912 2.40649,-0.0912 0.71682,0 1.78865,0.2988 2.62153,0.1418 0.83289,-0.1519 2.04125,-0.2177 2.52596,-0.243 0.6076,-0.0304 1.9013,0.0405 2.45769,-0.0962 0.71,-0.1722 1.94226,0.081 2.39284,0.2886 0.45399,0.2076 0.76461,-0.081 1.74769,-0.0304 0.5837,0.0304 1.51216,0.1317 2.3826,0.1317 0,0 0,0 0,0 z m 3.01391,-1.8785 c 0,0.9063 0.15189,2.1164 1.4886,2.2734 1.34178,0.1519 2.38481,-0.8304 2.38481,-2.1924 0,-1.3671 -0.73417,-0.9722 -0.73417,-4.162 0,-1.1798 -2.44557,-1.2456 -2.44557,-0.0507 0,2.8405 -0.69367,2.4507 -0.69367,4.1317 0,0 0,0 0,0 z M 80.0443,354.1152 c 0,-0.3046 -0.02134,-0.5756 -0.06438,-0.8152 L 78.1,355.1799 c 1.05462,-0.1894 1.50117,-0.7993 1.53418,-1.8596 0.03237,-1.0804 -0.54966,-1.6952 -1.53418,-1.8985 L 76.2218,353.3 c -0.05111,0.2474 -0.07623,0.5203 -0.07623,0.8152 0,1.4633 0.73418,1.3975 0.71392,3.8532 -0.01519,1.3164 2.44557,1.0886 2.44557,0.0151 0,-2.6025 0.73924,-2.2227 0.73924,-3.8683 0,0 0,0 0,0 z m -0.72405,101.2245 c 0,-1.3047 -0.32911,-3.4322 -0.32911,-3.9524 0,-0.5201 0.18734,-2.2639 0.13671,-3.0911 -0.0557,-0.8228 -0.2481,-1.1 -0.29874,-2.4899 -0.06582,-1.7352 0.17722,-2.8736 0.2076,-2.9546 0.08607,-0.2473 0.32911,-1.0872 0.25316,-2.2555 -0.10126,-1.5604 0.13165,-2.0294 0.03038,-2.7244 -0.29367,-1.1938 -0.02531,-1.3089 -0.07088,-2.217 -0.05064,-0.9167 0.05569,-1.4837 -0.07595,-2.2128 -0.1519,-0.7973 0.16709,-1.3771 0.14683,-2.1105 0,-1.1639 -2.45569,-1.0531 -2.45569,0.0384 0,0.6608 0.26329,1.2535 0.26329,1.9442 0,0.6949 -0.05063,1.3004 -0.1519,1.9953 -0.10633,0.695 0.05063,2.1105 0,3.2361 -0.0557,1.1298 -0.19747,3.0015 -0.14177,4.3019 0.04557,1.3047 0.62278,2.1105 0.24304,4.7752 -0.12152,0.857 -0.01519,2.5667 -0.01519,3.2616 0,1.2194 -0.18228,3.5686 -0.18228,4.5834 0,1.2108 2.4405,1.1767 2.4405,-0.1279 0,0 0,0 0,0 z m 0,-48.3561 c 0,-1.1257 -2.44557,-1.3296 -2.44557,0 0,1.3296 0.22785,3.7804 0.17722,4.4984 -0.0557,0.7224 -0.20253,3.7228 -0.20253,4.3522 0,0.6293 0.35949,2.8852 0.1519,4.1926 -0.20254,1.3074 0.20253,2.5838 0.09114,3.479 -0.13671,1.1169 0,1.7152 0.05063,2.5706 0.05063,0.8553 -0.44051,2.1716 -0.23798,2.894 0.2076,0.7224 -0.03038,1.1302 -0.03038,2.1406 0,1.015 2.43545,1.0105 2.43545,0.0577 0,-0.9573 -0.03545,-1.7728 -0.09114,-2.7168 -0.05064,-0.9484 -0.09114,-2.1007 -0.09114,-3.1245 0,-0.9307 0.29873,-2.3224 0.14177,-3.4038 -0.1519,-1.0813 -0.21772,-2.6502 -0.24304,-3.2796 -0.03038,-0.7889 0.04051,-2.4686 -0.0962,-3.191 -0.17215,-0.9218 0.08101,-2.5217 0.28861,-3.1068 0.20759,-0.5894 -0.08102,-0.9927 -0.03038,-2.2691 0.03038,-0.7579 0.13164,-1.9634 0.13164,-3.0935 0,0 0,0 0,0 z m 0,-0.3509 c 0,-1.3047 -0.32911,-3.4322 -0.32911,-3.9523 0,-0.5202 0.18734,-2.264 0.13671,-3.0911 -0.0557,-0.8229 -0.2481,-1.1 -0.29874,-2.4899 -0.06582,-1.7353 0.17722,-2.8737 0.2076,-2.9547 0.08607,-0.2473 0.32911,-1.0872 0.25316,-2.2554 -0.10126,-1.5605 0.13165,-2.0295 0.03038,-2.7244 -0.29367,-1.1938 -0.02531,-1.3089 -0.07088,-2.2171 -0.05064,-0.9167 0.05569,-1.4837 -0.07595,-2.2128 -0.1519,-0.7973 0.16709,-1.3771 0.14683,-2.1104 0,-1.164 -2.45569,-1.0531 -2.45569,0.0383 0,0.6609 0.26329,1.2535 0.26329,1.9442 0,0.695 -0.05063,1.3004 -0.1519,1.9954 -0.10633,0.6949 0.05063,2.1104 0,3.236 -0.0557,1.1299 -0.19747,3.0016 -0.14177,4.3019 0.04557,1.3047 0.62278,2.1105 0.24304,4.7752 -0.12152,0.857 -0.01519,2.5667 -0.01519,3.2617 0,1.2193 -0.18228,3.5686 -0.18228,4.5833 0,1.2108 2.4405,1.1767 2.4405,-0.1279 0,0 0,0 0,0 z m 0,-48.3561 c 0,-1.1257 -2.44557,-1.3295 -2.44557,0 0,1.3296 0.22785,3.7805 0.17722,4.4984 -0.0557,0.7225 -0.20253,3.7229 -0.20253,4.3522 0,0.6293 0.35949,2.8852 0.1519,4.1926 -0.20254,1.3074 0.20253,2.5838 0.09114,3.4791 -0.13671,1.1168 0,1.7151 0.05063,2.5705 0.05063,0.8554 -0.44051,2.1717 -0.23798,2.8941 0.2076,0.7224 -0.03038,1.1301 -0.03038,2.1406 0,1.0149 2.43545,1.0105 2.43545,0.0576 0,-0.9573 -0.03545,-1.7728 -0.09114,-2.7168 -0.05064,-0.9484 -0.09114,-2.1007 -0.09114,-3.1245 0,-0.9307 0.29873,-2.3223 0.14177,-3.4037 -0.1519,-1.0814 -0.21772,-2.6503 -0.24304,-3.2796 -0.03038,-0.7889 0.04051,-2.4686 -0.0962,-3.191 -0.17215,-0.9219 0.08101,-2.5218 0.28861,-3.1068 0.20759,-0.5895 -0.08102,-0.9928 -0.03038,-2.2692 0.03038,-0.7578 0.13164,-1.9633 0.13164,-3.0935 0,0 0,0 0,0 z m -0.56202,-6.9057 c -0.90633,0 -2.11646,0.1519 -2.27342,1.4886 -0.1519,1.3418 0.83038,2.3848 2.19241,2.3848 1.36708,0 0.97215,-0.7342 4.16202,-0.7342 1.17975,0 1.24557,-2.4455 0.05063,-2.4455 -2.8405,0 -2.45063,-0.6937 -4.13164,-0.6937 0,0 0,0 0,0 z m 30.92657,3.8734 c 1.6456,0 2.3089,-0.6228 2.3494,-1.924 0.0405,-1.3519 -0.881,-1.9747 -2.3494,-1.9747 -1.4633,0 -1.3975,0.7341 -3.8532,0.7139 -1.3164,-0.0152 -1.0886,2.4456 -0.0151,2.4456 2.6025,0 2.2227,0.7392 3.8683,0.7392 0,0 0,0 0,0 z m -26.7167,-3.1848 c -0.95072,0 -0.97139,2.4608 0.14054,2.4608 1.17806,0 3.74501,-0.4406 4.41878,-0.3899 0.67377,0.0506 2.53387,0.5164 3.12497,0.5164 0.58696,0 3.43086,-0.719 4.65439,-0.5164 1.21527,0.2076 1.56249,0.0962 2.40573,0.0962 0.83912,0 2.17426,-0.1469 2.97199,-0.2025 0.802,-0.0507 1.5171,0.5974 2.5629,0.4253 1.0457,-0.1772 1.612,0.0709 2.3313,0.0709 1.1574,0 1.0912,-2.4406 0.0124,-2.4406 -1.0417,0 -1.7526,-0.162 -2.6372,-0.1113 -0.8805,0.0506 -1.6411,0.3088 -2.4802,0.0506 -0.83908,-0.2532 -2.46357,0.0202 -3.47216,0.1772 -1.00859,0.157 -2.12465,0.0861 -2.91829,-0.0203 -1.59556,-0.1974 -5.4191,0.2583 -5.96473,0.0507 -0.54977,-0.2025 -2.29413,-0.005 -2.9183,-0.005 -0.6159,0 -0.95072,-0.162 -2.23212,-0.162 0,0 0,0 0,0 z" /><path
           id="path430"
           style="fill:#929292;fill-opacity:1;fill-rule:nonzero;stroke:none"
           d="m 513.2582,454.9709 c -0.9063,0 -2.1164,0.1519 -2.2734,1.4886 -0.1519,1.3418 0.8304,2.3848 2.1924,2.3848 1.3671,0 0.9722,-0.7342 4.162,-0.7342 1.1798,0 1.2456,-2.4455 0.0507,-2.4455 -2.8405,0 -2.4507,-0.6937 -4.1317,-0.6937 0,0 0,0 0,0 z m 51.0266,3.8734 c 0.3046,0 0.5756,-0.0213 0.8152,-0.0644 l 1.8799,-1.8799 c -0.1894,-1.0546 -0.7993,-1.5012 -1.8596,-1.5342 -1.0804,-0.0323 -1.6952,0.5497 -1.8985,1.5342 l 1.8782,-1.8782 c -0.2474,-0.0511 -0.5203,-0.0762 -0.8152,-0.0762 -1.4633,0 -1.3975,0.7341 -3.8532,0.7139 -1.3164,-0.0152 -1.0886,2.4456 -0.0151,2.4456 2.6025,0 2.2227,0.7392 3.8683,0.7392 0,0 0,0 0,0 z m -46.8174,-3.1848 c -0.896,0 -0.9155,2.4608 0.1324,2.4608 1.1103,0 3.5296,-0.4406 4.1646,-0.3899 0.635,0.0506 2.388,0.5164 2.9451,0.5164 0.5532,0 3.2335,-0.719 4.3866,-0.5164 1.1453,0.2076 1.4726,0.0962 2.2673,0.0962 0.7908,0 2.0492,-0.1469 2.801,-0.2025 0.7558,-0.0507 1.4298,0.5974 2.4154,0.4253 0.9856,-0.1772 1.5193,0.0709 2.1972,0.0709 1.0908,0 1.0284,-2.4406 0.0116,-2.4406 -0.9817,0 -1.6517,-0.162 -2.4854,-0.1113 -0.8298,0.0506 -1.5466,0.3088 -2.3375,0.0506 -0.7908,-0.2532 -2.3218,0.0202 -3.2724,0.1772 -0.9505,0.157 -2.0024,0.0861 -2.7503,-0.0203 -1.5038,-0.1974 -5.1073,0.2583 -5.6216,0.0507 -0.5181,-0.2025 -2.1621,-0.005 -2.7503,-0.005 -0.5805,0 -0.896,-0.162 -2.1037,-0.162 0,0 0,0 0,0 z m 42.6737,2.4608 c 0.9895,0 1.1687,-2.4456 0,-2.4456 -1.1688,0 -3.3231,0.2278 -3.9542,0.1772 -0.635,-0.0557 -3.2724,-0.2025 -3.8256,-0.2025 -0.5532,0 -2.5361,0.3595 -3.6853,0.1519 -1.1493,-0.2026 -2.2712,0.2025 -3.0582,0.0911 -0.9817,-0.1367 -1.5076,0 -2.2595,0.0506 -0.7519,0.0507 -1.9089,-0.4405 -2.5439,-0.2379 -0.635,0.2076 -0.9934,-0.0304 -1.8816,-0.0304 -0.8921,0 -0.8882,2.4354 -0.0507,2.4354 0.8415,0 1.5583,-0.0354 2.3881,-0.0911 0.8337,-0.0506 1.8466,-0.0912 2.7465,-0.0912 0.8181,0 2.0413,0.2988 2.9919,0.1418 0.9506,-0.1519 2.3296,-0.2177 2.8828,-0.243 0.6935,-0.0304 2.1699,0.0405 2.8049,-0.0962 0.8104,-0.1722 2.2167,0.081 2.7309,0.2886 0.5182,0.2076 0.8727,-0.081 1.9947,-0.0304 0.6661,0.0304 1.7258,0.1317 2.7192,0.1317 0,0 0,0 0,0 z m 3.0298,-1.8785 c 0,0.9063 0.1519,2.1164 1.4886,2.2734 1.3418,0.1519 2.3848,-0.8304 2.3848,-2.1924 0,-1.3671 -0.7342,-0.9722 -0.7342,-4.162 0,-1.1798 -2.4455,-1.2456 -2.4455,-0.0507 0,2.8405 -0.6937,2.4507 -0.6937,4.1317 0,0 0,0 0,0 z m 3.8734,-102.1266 c 0,-0.3046 -0.0213,-0.5756 -0.0644,-0.8152 l -1.8799,1.8799 c 1.0546,-0.1894 1.5012,-0.7993 1.5342,-1.8596 0.0323,-1.0804 -0.5497,-1.6952 -1.5342,-1.8985 l -1.8782,1.8782 c -0.0511,0.2474 -0.0762,0.5203 -0.0762,0.8152 0,1.4633 0.7341,1.3975 0.7139,3.8532 -0.0152,1.3164 2.4456,1.0886 2.4456,0.0151 0,-2.6025 0.7392,-2.2227 0.7392,-3.8683 0,0 0,0 0,0 z m -0.724,97.7318 c 0,-1.2578 -0.3292,-3.3088 -0.3292,-3.8103 0,-0.5015 0.1874,-2.1826 0.1367,-2.98 -0.0556,-0.7933 -0.2481,-1.0605 -0.2987,-2.4005 -0.0658,-1.6729 0.1772,-2.7704 0.2076,-2.8485 0.0861,-0.2384 0.3291,-1.0481 0.2532,-2.1744 -0.1013,-1.5044 0.1316,-1.9565 0.0304,-2.6265 -0.2937,-1.1509 -0.0254,-1.2619 -0.0709,-2.1374 -0.0507,-0.8837 0.0557,-1.4304 -0.076,-2.1333 -0.1519,-0.7686 0.1671,-1.3276 0.1469,-2.0346 0,-1.1222 -2.4557,-1.0153 -2.4557,0.037 0,0.6371 0.2632,1.2084 0.2632,1.8743 0,0.67 -0.0506,1.2537 -0.1519,1.9236 -0.1063,0.67 0.0507,2.0347 0,3.1198 -0.0556,1.0893 -0.1974,2.8937 -0.1417,4.1474 0.0455,1.2578 0.6228,2.0346 0.243,4.6036 -0.1215,0.8262 -0.0152,2.4745 -0.0152,3.1445 0,1.1755 -0.1823,3.4403 -0.1823,4.4186 0,1.1674 2.4406,1.1345 2.4406,-0.1233 0,0 0,0 0,0 z m 0,-46.6187 c 0,-1.0852 -2.4456,-1.2818 -2.4456,0 0,1.2819 0.2278,3.6447 0.1772,4.3368 -0.0557,0.6965 -0.2025,3.5891 -0.2025,4.1958 0,0.6067 0.3595,2.7815 0.1519,4.042 -0.2026,1.2604 0.2025,2.491 0.0911,3.3541 -0.1367,1.0767 0,1.6535 0.0506,2.4781 0.0507,0.8247 -0.4405,2.0937 -0.2379,2.7901 0.2076,0.6965 -0.0304,1.0895 -0.0304,2.0637 0,0.9785 2.4354,0.9742 2.4354,0.0556 0,-0.9229 -0.0354,-1.7091 -0.0911,-2.6192 -0.0506,-0.9144 -0.0912,-2.0253 -0.0912,-3.0123 0,-0.8972 0.2988,-2.2389 0.1418,-3.2814 -0.1519,-1.0425 -0.2177,-2.5551 -0.243,-3.1618 -0.0304,-0.7605 0.0405,-2.3799 -0.0962,-3.0763 -0.1722,-0.8888 0.081,-2.4312 0.2886,-2.9952 0.2076,-0.5683 -0.081,-0.9571 -0.0304,-2.1876 0.0304,-0.7306 0.1317,-1.8928 0.1317,-2.9824 0,0 0,0 0,0 z m 0,-0.3383 c 0,-1.2577 -0.3292,-3.3088 -0.3292,-3.8103 0,-0.5014 0.1874,-2.1826 0.1367,-2.98 -0.0556,-0.7933 -0.2481,-1.0605 -0.2987,-2.4005 -0.0658,-1.6729 0.1772,-2.7704 0.2076,-2.8485 0.0861,-0.2384 0.3291,-1.0481 0.2532,-2.1743 -0.1013,-1.5044 0.1316,-1.9566 0.0304,-2.6266 -0.2937,-1.1509 -0.0254,-1.2619 -0.0709,-2.1374 -0.0507,-0.8837 0.0557,-1.4304 -0.076,-2.1333 -0.1519,-0.7686 0.1671,-1.3276 0.1469,-2.0346 0,-1.1221 -2.4557,-1.0153 -2.4557,0.037 0,0.6371 0.2632,1.2084 0.2632,1.8743 0,0.67 -0.0506,1.2537 -0.1519,1.9237 -0.1063,0.67 0.0507,2.0346 0,3.1198 -0.0556,1.0892 -0.1974,2.8937 -0.1417,4.1473 0.0455,1.2578 0.6228,2.0347 0.243,4.6037 -0.1215,0.8261 -0.0152,2.4744 -0.0152,3.1444 0,1.1756 -0.1823,3.4404 -0.1823,4.4187 0,1.1673 2.4406,1.1344 2.4406,-0.1234 0,0 0,0 0,0 z m 0,-46.6186 c 0,-1.0853 -2.4456,-1.2818 -2.4456,0 0,1.2818 0.2278,3.6446 0.1772,4.3368 -0.0557,0.6964 -0.2025,3.589 -0.2025,4.1958 0,0.6067 0.3595,2.7815 0.1519,4.0419 -0.2026,1.2605 0.2025,2.491 0.0911,3.3541 -0.1367,1.0767 0,1.6535 0.0506,2.4782 0.0507,0.8246 -0.4405,2.0936 -0.2379,2.79 0.2076,0.6965 -0.0304,1.0896 -0.0304,2.0638 0,0.9784 2.4354,0.9741 2.4354,0.0555 0,-0.9229 -0.0354,-1.7091 -0.0911,-2.6192 -0.0506,-0.9143 -0.0912,-2.0252 -0.0912,-3.0122 0,-0.8973 0.2988,-2.2389 0.1418,-3.2815 -0.1519,-1.0425 -0.2177,-2.555 -0.243,-3.1618 -0.0304,-0.7605 0.0405,-2.3798 -0.0962,-3.0763 -0.1722,-0.8887 0.081,-2.4312 0.2886,-2.9952 0.2076,-0.5682 -0.081,-0.957 -0.0304,-2.1876 0.0304,-0.7306 0.1317,-1.8928 0.1317,-2.9823 0,0 0,0 0,0 z m -0.5621,-6.9005 c -0.9063,0 -2.1164,0.1519 -2.2734,1.4886 -0.1519,1.3418 0.8304,2.3848 2.1924,2.3848 1.3671,0 0.9722,-0.7342 4.162,-0.7342 1.1798,0 1.2456,-2.4455 0.0507,-2.4455 -2.8405,0 -2.4507,-0.6937 -4.1317,-0.6937 0,0 0,0 0,0 z m 24.1266,3.8734 c 1.6456,0 2.3089,-0.6228 2.3494,-1.924 0.0405,-1.3519 -0.881,-1.9747 -2.3494,-1.9747 -1.4633,0 -1.3975,0.7341 -3.8532,0.7139 -1.3164,-0.0152 -1.0886,2.4456 -0.0151,2.4456 2.6025,0 2.2227,0.7392 3.8683,0.7392 0,0 0,0 0,0 z m -19.9204,-3.1848 c -0.6661,0 -0.6806,2.4608 0.0985,2.4608 0.8253,0 2.6238,-0.4406 3.0959,-0.3899 0.472,0.0506 1.7752,0.5164 2.1894,0.5164 0.4112,0 2.4037,-0.719 3.261,-0.5164 0.8514,0.2076 1.0947,0.0962 1.6855,0.0962 0.5879,0 1.5233,-0.1469 2.0823,-0.2025 0.5618,-0.0507 1.0628,0.5974 1.7955,0.4253 0.7327,-0.1772 1.1295,0.0709 1.6334,0.0709 0.8109,0 0.7646,-2.4406 0.009,-2.4406 -0.7298,0 -1.2279,-0.162 -1.8477,-0.1113 -0.6169,0.0506 -1.1497,0.3088 -1.7376,0.0506 -0.5879,-0.2532 -1.7261,0.0202 -2.4327,0.1772 -0.7067,0.157 -1.4886,0.0861 -2.0447,-0.0203 -1.1179,-0.1974 -3.7967,0.2583 -4.179,0.0507 -0.3852,-0.2025 -1.6073,-0.005 -2.0446,-0.005 -0.4316,0 -0.6661,-0.162 -1.5639,-0.162 0,0 0,0 0,0 z" /><g
           transform="translate(173,308)"
           id="g432"><text
             id="text436"
             style="font-variant:normal;font-size:10px;font-family:HiraKakuProN;-inkscape-font-specification:HiraKakuProN-W3;writing-mode:lr-tb;fill:#000000;fill-opacity:1;fill-rule:nonzero;stroke:none"
             transform="scale(1,-1)"><tspan
               id="tspan434"
               y="0"
               x="0 6.8800001 10.21 15.58 17.959999 24.370001 30.549999 36.299999 40.220001 46.400002 50.700001">Y signature</tspan></text>
</g><g
           transform="translate(196,289)"
           id="g438"><text
             id="text442"
             style="font-style:italic;font-variant:normal;font-weight:normal;font-size:10px;font-family:Zapfino;-inkscape-font-specification:Zapfino;writing-mode:lr-tb;fill:#000000;fill-opacity:1;fill-rule:nonzero;stroke:none"
             transform="scale(1,-1)"><tspan
               id="tspan440"
               y="0"
               x="0">Y</tspan></text>
</g><g
           transform="translate(417,307)"
           id="g444"><text
             id="text448"
             style="font-variant:normal;font-size:10px;font-family:HiraKakuProN;-inkscape-font-specification:HiraKakuProN-W3;writing-mode:lr-tb;fill:#000000;fill-opacity:1;fill-rule:nonzero;stroke:none"
             transform="scale(1,-1)"><tspan
               id="tspan446"
               y="0"
               x="0 6.6900001 10.02 15.39 17.77 24.18 30.360001 36.110001 40.029999 46.209999 50.509998">Z signature</tspan></text>
</g><g
           transform="translate(427,284)"
           id="g450"><text
             id="text454"
             style="font-variant:normal;font-size:16px;font-family:HiraMaruPro;-inkscape-font-specification:HiraMaruPro-W4;writing-mode:lr-tb;fill:#ee220c;fill-opacity:1;fill-rule:nonzero;stroke:none"
             transform="scale(1,-1)"><tspan
               id="tspan452"
               y="0"
               x="0 9.2639999 18.528">???</tspan></text>
</g><g
           transform="translate(658,307)"
           id="g456"><text
             id="text460"
             style="font-variant:normal;font-size:10px;font-family:HiraKakuProN;-inkscape-font-specification:HiraKakuProN-W3;writing-mode:lr-tb;fill:#000000;fill-opacity:1;fill-rule:nonzero;stroke:none"
             transform="scale(1,-1)"><tspan
               id="tspan458"
               y="0"
               x="0 7.5 10.83 16.200001 18.58 24.99 31.17 36.919998 40.84 47.02 51.32">A signature</tspan></text>
</g><g
           transform="translate(677,287)"
           id="g462"><text
             id="text466"
             style="font-style:italic;font-variant:normal;font-weight:normal;font-size:10px;font-family:Zapfino;-inkscape-font-specification:Zapfino;writing-mode:lr-tb;fill:#ee220c;fill-opacity:1;fill-rule:nonzero;stroke:none"
             transform="scale(1,-1)"><tspan
               id="tspan464"
               y="0"
               x="0">A</tspan></text>
</g><path
           id="path468"
           style="fill:#000000;fill-opacity:1;fill-rule:nonzero;stroke:none"
           d="m 359.3572,472.3331 c -0.3803,-0.007 -3.7351,0.2018 -5.9833,-1.9597 -2.7218,-2.6151 -2.4016,-5.5171 -2.4016,-7.0714 0,-1.381 -0.055,-2.0014 0.2919,-2.8687 0.1667,-0.4136 0.1146,-0.8872 -0.1189,-1.2675 -0.6938,-1.1741 -0.5475,-2.1085 0.1731,-2.829 l 1.2404,-0.8673 c 0.2135,-0.1467 0.4736,-0.2271 0.7338,-0.2272 0.3736,0 0.8818,0 0.8819,0 0.4736,0 0.8255,-0.3869 0.8255,-0.9673 v -1.1279 c 0,-0.04 0.0205,-0.0666 0.0605,-0.0667 0.0133,0 0.02,-4e-4 0.0334,0.006 0,0 4e-4,4e-4 -0.006,-0.006 0.0534,0.0267 0.1067,0.048 0.1668,0.048 0.1134,0 0.2264,-0.0605 0.3064,-0.1939 0.0267,-0.0467 0.0872,-0.0542 0.1272,-0.0209 0.0934,0.0734 0.2073,0.1209 0.3273,0.121 0.1668,0 0.319,-0.0939 0.419,-0.2273 0,0 0.002,0.007 0.008,0 0.0267,-0.0267 0.0651,-0.0267 0.0917,0 0.1068,0.1068 0.2405,0.1792 0.394,0.1793 0.1601,0 0.2999,-0.0721 0.4066,-0.1855 0.0333,-0.0334 0.0938,-0.0334 0.1271,0 0.1068,0.1134 0.2468,0.1854 0.4003,0.1855 0.1534,0 0.2937,-0.0721 0.4003,-0.1855 0.0333,-0.0334 0.0938,-0.0401 0.1271,0 0.1135,0.1267 0.2726,0.2002 0.4462,0.2001 0.1868,0 0.3536,-0.0934 0.467,-0.2335 0,0 0.002,0.007 0.008,0 0.0267,-0.0267 0.0651,-0.0267 0.0917,0 0,0 0.002,0 0.008,0 0.1134,0.1401 0.2801,0.2272 0.467,0.2272 0.1734,0 0.3326,-0.08 0.4461,-0.2001 0.0333,-0.0333 0.0938,-0.0333 0.1272,0 0.1067,0.1134 0.2467,0.1854 0.4002,0.1856 0.1535,0 0.2937,-0.0722 0.4003,-0.1856 0.0334,-0.0333 0.0938,-0.0333 0.1272,0 0.1067,0.1134 0.2463,0.1854 0.4065,0.1856 0.1534,0 0.2873,-0.0659 0.394,-0.1793 0,0 -4e-4,0.007 0.006,0 0.0267,-0.0267 0.0672,-0.0268 0.0938,0 0.1001,0.1401 0.2522,0.2334 0.419,0.2335 0.1201,0 0.234,-0.0476 0.3273,-0.121 0.0401,-0.0333 0.1005,-0.0258 0.1272,0.0209 0.0801,0.1401 0.1997,0.1938 0.3065,0.1939 0.0733,0 0.1337,-0.0205 0.1938,-0.0605 0.007,-0.007 0.02,-0.006 0.0334,-0.006 0.0334,0.007 0.0538,0.0266 0.0605,0.0667 v 1.1466 c 0,0.5737 0.3585,0.9673 0.8255,0.9673 0,0 0.5083,0 0.8819,0 0.2601,0 0.5137,0.0805 0.7338,0.2272 l 1.2404,0.8673 c 0.7339,0.7205 0.8798,1.6549 0.1793,2.829 -0.2268,0.3869 -0.2856,0.8539 -0.1188,1.2675 0.3469,0.8606 0.2939,1.4811 0.2939,2.8687 0,1.5544 0.3202,4.4563 -2.4016,7.0714 -2.2482,2.1615 -5.6051,1.9531 -5.9853,1.9597 0,0 -0.005,0 -0.0188,0 -0.0133,0 -0.0208,0 -0.0208,0 z m -4.3759,-9.9255 c 0,0 1.2604,0 1.3071,0 0.954,0 1.7346,-0.7739 1.7345,-1.7345 -0.007,-0.7472 -0.4611,-1.3076 -1.1216,-1.6345 l -1.0736,-0.4878 c -0.2869,-0.1067 -0.5463,-0.1855 -0.8464,-0.1855 -1.1141,0 -2.0222,0.906 -2.0222,2.0201 0,1.1141 0.9081,2.0222 2.0222,2.0222 z m 7.5176,-0.006 c 0.0467,0 1.307,0 1.3071,0 1.1141,0 2.0222,-0.9081 2.0222,-2.0222 -0.0133,-1.1141 -0.9142,-2.0138 -2.0284,-2.0138 -0.3002,0 -0.5863,0.0654 -0.8464,0.1855 l -1.0737,0.4878 c -0.6538,0.3203 -1.1154,0.8877 -1.1153,1.6282 0,0.954 0.7738,1.7345 1.7345,1.7345 z m -3.5149,-3.6358 c 0.1801,0 0.2859,-0.3277 0.3461,-0.6546 0.0133,-0.0734 0.12,-0.0733 0.1334,0 0.06,0.3269 0.1681,0.6547 0.3481,0.6546 0.5137,0 2.0673,-4.0902 0.5129,-4.0902 -0.447,0 -0.68,0.2943 -0.8068,0.5879 -0.0467,0.1134 -0.2013,0.1133 -0.2481,0 -0.1201,-0.2936 -0.3599,-0.588 -0.8068,-0.5879 -1.5544,0 8e-4,4.0902 0.5212,4.0902 z m -5.2181,-3.8839 c -0.387,0.007 -0.7005,-0.3073 -0.7005,-0.6942 v -3.1146 c 0,-0.934 0.3948,-1.8208 1.082,-2.4412 l 1.7407,-1.6011 c 0.8606,-0.7872 1.6087,-1.1946 2.5893,-1.1946 h 0.9256 0.008 0.9256 c 0.9807,0 1.7286,0.414 2.5893,1.1946 l 1.7407,1.6011 c 0.6872,0.6271 1.0821,1.514 1.082,2.4412 v 3.123 c -0.02,0.3802 -0.3344,0.6925 -0.7213,0.6858 l -0.3461,-0.006 v -1.6678 c 0,-0.4803 -0.2818,-0.9014 -0.7755,-1.155 0,-0.007 -0.006,-0.006 -0.006,-0.0125 v -0.7004 c 0,-0.5538 -0.2201,-0.7464 -0.4336,-0.7464 -0.0534,0 -0.0993,0.0134 -0.1459,0.0334 -0.0334,0.0133 -0.0742,-1e-4 -0.0876,-0.0334 -0.08,-0.2535 -0.2805,-0.442 -0.5274,-0.442 -0.1001,0 -0.1931,0.0342 -0.2731,0.0876 -0.0334,0.02 -0.0726,1e-4 -0.0792,-0.0333 -0.0801,-0.2602 -0.2943,-0.4546 -0.5546,-0.4545 -0.1401,0 -0.273,0.0608 -0.3732,0.1542 -0.0333,0.0334 -0.1004,0.0276 -0.1271,-0.0125 -0.1068,-0.1334 -0.2606,-0.2209 -0.4274,-0.2209 -0.1534,0 -0.2937,0.0742 -0.4003,0.1876 -0.0333,0.0333 -0.0917,0.04 -0.1251,0 -0.1134,-0.1268 -0.2747,-0.2002 -0.4482,-0.2002 -0.1801,0 -0.3388,0.0797 -0.4524,0.2064 -0.0333,0.0334 -0.0938,0.0334 -0.1271,0 -0.1135,-0.1267 -0.2743,-0.2064 -0.4545,-0.2064 -0.1735,0 -0.3327,0.0801 -0.4462,0.2002 -0.0333,0.0333 -0.0938,0.0333 -0.1271,0 -0.1068,-0.1134 -0.2468,-0.1876 -0.4003,-0.1876 -0.1735,0 -0.3272,0.0875 -0.4274,0.2209 -0.0333,0.0401 -0.0938,0.0458 -0.1271,0.0125 -0.1001,-0.0933 -0.2331,-0.1543 -0.3732,-0.1542 -0.2602,0 -0.4791,0.1943 -0.5525,0.4545 -0.007,0.0333 -0.0479,0.0533 -0.0813,0.0333 -0.08,-0.0534 -0.1729,-0.0876 -0.2731,-0.0876 -0.2468,0 -0.454,0.1885 -0.5274,0.442 -0.0134,0.0334 -0.0521,0.0467 -0.0855,0.0334 -0.0467,-0.02 -0.0946,-0.0334 -0.148,-0.0334 -0.2068,0 -0.4336,0.1926 -0.4336,0.7464 v 0.6733 c 0,0.0334 -0.0192,0.0613 -0.0459,0.0813 -0.447,0.2535 -0.7005,0.6597 -0.7005,1.1133 v 1.6678 l -0.3481,0.006 z m 1.5156,-2.0409 c -0.0867,0 -0.1543,-0.1068 -0.1543,-0.2335 v -0.4065 c 0,-0.0467 0.0271,-0.0796 0.0605,-0.1064 0.0467,-0.0266 0.1138,-0.0605 0.1938,-0.0938 0.0334,-0.0133 0.073,0.0189 0.073,0.0521 v 0.0542 0.2544 h 0.006 c 0,0.3335 -0.0926,0.4795 -0.1793,0.4795 z m 8.2181,0 c -0.1535,0 -0.1793,-0.2594 -0.1793,-0.4795 v -0.3086 c 0,-0.0333 0.0271,-0.0521 0.0604,-0.0521 0,-0.007 0.006,10e-5 0.0125,0 0.0801,0.0334 0.1405,0.0672 0.1939,0.0938 0.0401,0.0201 0.0667,0.0659 0.0667,0.1126 v 0.4003 c 0,0.1334 -0.0675,0.2335 -0.1542,0.2335 z m -0.7797,-0.0876 c -0.1601,0 -0.294,-0.1722 -0.294,-0.3857 v -0.567 c 0,-0.0267 0.0134,-0.0534 0.0334,-0.0667 0.02,-0.0134 0.0463,-0.0271 0.0729,-0.0271 0.1468,0.04 0.2939,0.0804 0.4274,0.1271 0.0334,0.0134 0.0605,0.0459 0.0605,0.0793 l -0.006,0.4482 c 0,0.2135 -0.1338,0.3919 -0.2939,0.3919 z m -6.6587,-0.006 c -0.1601,0 -0.294,-0.1722 -0.294,-0.3857 v -0.442 c 0,-0.04 0.0205,-0.0725 0.0605,-0.0792 0.1334,-0.0467 0.2739,-0.0871 0.4274,-0.1272 0.0266,-0.007 0.0529,10e-4 0.0729,0.0146 0.02,0.02 0.0334,0.0401 0.0334,0.0667 v 0.5671 h -0.006 c 0,0.2135 -0.1338,0.3856 -0.2939,0.3857 z m 3.8422,-0.0271 c -0.1802,0 -0.3323,-0.1518 -0.3524,-0.3586 v -0.8548 c -0.007,-0.0533 0.0326,-0.0938 0.0793,-0.0938 0.1868,0 0.3748,-4e-4 0.5483,0.006 0.0467,0 0.0854,0.0408 0.0854,0.0875 v 0.8068 c 0,0.2202 -0.1605,0.4066 -0.3606,0.4066 z m -1.0257,-0.006 c -0.2002,0 -0.3607,-0.1797 -0.3607,-0.4065 v -0.0334 -0.7734 c 0,-0.0467 0.0392,-0.0875 0.0792,-0.0876 0.1735,-0.007 0.3615,-0.006 0.5483,-0.006 0.0467,0 0.0854,0.0408 0.0855,0.0875 v 0.8589 c -0.02,0.2069 -0.1723,0.3607 -0.3523,0.3607 z m -0.9757,-0.0125 c -0.1734,0 -0.3126,-0.1743 -0.3127,-0.3878 v -0.7463 c 0,-0.0467 0.0325,-0.0808 0.0792,-0.0876 0.1401,-0.02 0.2943,-0.033 0.4545,-0.0396 0.0267,0 0.0467,0.007 0.0667,0.0271 0.02,0.02 0.0272,0.0406 0.0271,0.0605 v 0.8005 c -0.007,0.2068 -0.148,0.3731 -0.3148,0.3732 z m 3.9027,0 c -0.1735,0 -0.319,-0.1743 -0.319,-0.3878 v -0.6942 c 0,-0.0267 0.0133,-0.0467 0.0334,-0.0667 0.0133,-0.02 0.04,-0.0317 0.0667,-0.025 0.1667,0.02 0.3264,0.0459 0.4732,0.0792 0.04,0.007 0.0667,0.0409 0.0667,0.0876 v 0.6191 c 0,0.2135 -0.1476,0.3878 -0.321,0.3878 z m -4.8221,-0.006 c -0.1734,0 -0.321,-0.1742 -0.321,-0.3877 v -0.6129 c 0,-0.0401 0.0267,-0.0809 0.0667,-0.0876 0.1401,-0.0267 0.2935,-0.0526 0.467,-0.0792 0.0267,0 0.053,0.005 0.0729,0.0187 0.0201,0.0201 0.0335,0.0402 0.0334,0.0668 v 0.6942 c 0,0.2135 -0.1455,0.3877 -0.319,0.3877 z m 3.8964,0 c -0.1667,0 -0.3081,-0.1684 -0.3148,-0.3752 v -0.7922 c 0,-0.0267 0.007,-0.0471 0.0271,-0.0605 0.0201,-0.02 0.0401,-0.0271 0.0668,-0.0271 0.1601,0.007 0.3144,0.02 0.4544,0.0334 0.0467,0.007 0.0792,0.0408 0.0792,0.0875 v 0.7464 c 0,0.2135 -0.1392,0.3877 -0.3127,0.3877 z m 2.6935,-0.9277 -0.0125,-0.006 c -0.0467,-0.02 -0.1009,-0.0467 -0.1542,-0.0667 -0.0467,-0.02 -0.0792,-0.0676 -0.0793,-0.121 v -0.4669 h -0.006 c 0,-0.1268 0.08,-0.2335 0.1668,-0.2335 0.0667,0 0.1601,0.1409 0.1667,0.4544 v 0.0188 0.3669 c 0,0.0401 -0.0479,0.0676 -0.0813,0.0542 z m -8.3577,-0.0271 c -0.0334,0.02 -0.0813,-0.0141 -0.0813,-0.0542 v -0.3919 c 0,-0.2869 0.0938,-0.4275 0.1605,-0.4274 0.0934,0 0.1668,0.1134 0.1668,0.2335 v 0.4607 c 0,0.0467 -0.0263,0.0929 -0.073,0.1064 -0.06,0.0266 -0.1138,0.0467 -0.1605,0.0667 l -0.0125,0.006 z m 0.6275,-0.2272 c -0.02,0 -0.0342,-0.005 -0.0542,-0.0188 -0.02,-0.0133 -0.0334,-0.0399 -0.0334,-0.0667 v -0.6087 c 0,-0.2135 0.1339,-0.3919 0.294,-0.392 0.2668,0 0.2939,0.2723 0.2939,0.3857 v 0.4941 c 0,0.04 -0.0267,0.0742 -0.0667,0.0876 -0.1334,0.0333 -0.2752,0.0725 -0.4086,0.1125 -0.007,0 -0.0183,0.006 -0.025,0.006 z m 7.084,-0.006 c -0.007,0 -0.0205,5e-4 -0.0271,-0.006 -0.1335,-0.04 -0.2727,-0.0813 -0.4128,-0.1147 -0.04,-0.007 -0.0667,-0.0454 -0.0667,-0.0855 v -0.4878 h 0.006 c 0,-0.2135 0.1339,-0.3856 0.294,-0.3857 0.1601,0 0.2939,0.1722 0.2939,0.3857 v 0.6067 c 0,0.0267 -0.0133,0.0534 -0.0333,0.0667 -0.0134,0.0133 -0.0342,0.0208 -0.0542,0.0208 z m -6.198,-0.2064 c -0.02,0 -0.0389,-0.007 -0.0521,-0.0208 -0.02,-0.0133 -0.0334,-0.0399 -0.0334,-0.0667 v -0.8006 h 0.006 c 0,-0.2134 0.1455,-0.3855 0.3189,-0.3856 0.1735,0 0.3211,0.1722 0.3211,0.3856 v 0.7276 c 0,0.04 -0.0325,0.0809 -0.0792,0.0876 -0.1601,0.02 -0.3136,0.0463 -0.467,0.0729 -0.007,0 -0.0146,0 -0.0146,0 z m 5.2973,0 c -0.1534,-0.0266 -0.3068,-0.0529 -0.4669,-0.0729 -0.0467,-0.007 -0.0792,-0.0409 -0.0793,-0.0876 v -0.7276 h 0.006 c 0,-0.2134 0.1455,-0.3856 0.319,-0.3856 0.1734,0 0.321,0.1722 0.321,0.3856 v 0.8006 c 0,0.0267 -0.0133,0.0534 -0.0333,0.0667 -0.0134,0.0133 -0.0342,0.0208 -0.0542,0.0208 -0.007,0 -0.0125,0 -0.0126,0 z m -4.3487,-0.1271 c -0.0201,0 -0.041,-0.008 -0.0542,-0.0209 -0.0201,-0.0133 -0.0273,-0.0399 -0.0271,-0.0667 v -0.7463 h -0.006 c 0,-0.2135 0.1393,-0.3877 0.3127,-0.3878 0.1735,0 0.3148,0.1743 0.3148,0.3878 v 0.713 c 0,0.0467 -0.0409,0.0807 -0.0876,0.0875 -0.1534,0.007 -0.2994,0.02 -0.4461,0.0334 0,0 -0.006,0 -0.006,0 z m 3.4273,0 c -0.1401,-0.0134 -0.2927,-0.0267 -0.4461,-0.0334 -0.0467,0 -0.0876,-0.0408 -0.0876,-0.0875 v -0.713 h -0.006 c 0,-0.2135 0.1414,-0.3878 0.3148,-0.3878 0.1735,0 0.3127,0.1743 0.3127,0.3878 v 0.7463 c 0,0.0267 -0.0137,0.0467 -0.0271,0.0667 -0.0133,0.0134 -0.032,0.0209 -0.0521,0.0209 0,0 -0.008,0 -0.008,0 z m -0.9256,-0.0459 c -0.1668,0 -0.4016,-0.008 -0.5483,-0.008 -0.0467,0 -0.0855,-0.0388 -0.0855,-0.0855 v -0.7005 c 0.007,-0.2201 0.1651,-0.394 0.3586,-0.394 0.2001,0 0.3606,0.1797 0.3606,0.4065 v 0.6943 c 0,0.0266 -0.007,0.0471 -0.0271,0.0604 -0.0133,0.0134 -0.0383,0.0271 -0.0583,0.0271 z m -1.5761,-0.008 c -0.0267,0 -0.0451,-0.005 -0.0584,-0.025 -0.02,-0.0134 -0.0272,-0.0404 -0.0271,-0.0605 v -0.6942 c 0,-0.2202 0.1605,-0.4066 0.3607,-0.4065 0.1934,0 0.3519,0.1805 0.3586,0.394 v 0.7004 c 0,0.0467 -0.0388,0.0854 -0.0855,0.0855 -0.1468,0 -0.3882,0.006 -0.5483,0.006 z" /><g
           transform="translate(362,482)"
           id="g470"><text
             id="text474"
             style="font-variant:normal;font-size:12px;font-family:HiraMaruPro;-inkscape-font-specification:HiraMaruPro-W4;writing-mode:lr-tb;fill:#000000;fill-opacity:1;fill-rule:nonzero;stroke:none"
             transform="scale(1,-1)"><tspan
               id="tspan472"
               y="0"
               x="0 8.1120005 15.324 18.132 24.552 28.548 33.383999 38.568001 45.444 52.644001 59.063999 65.940002 72.587997 77.424004 80.232002 87.468002 94.667999 98.664001 101.472 107.892 111.888 116.688 123.924 129.108 136.524 143.412 148.59599">This transaction is forgery</tspan></text>
</g><g
           transform="translate(122,482)"
           id="g476"><text
             id="text480"
             style="font-variant:normal;font-size:12px;font-family:HiraMaruPro;-inkscape-font-specification:HiraMaruPro-W4;writing-mode:lr-tb;fill:#000000;fill-opacity:1;fill-rule:nonzero;stroke:none"
             transform="scale(1,-1)"><tspan
               id="tspan478"
               y="0"
               x="0 8.1120005 15.324 18.132 24.552 28.548 31.356001 37.776001 41.771999 48.647999 55.848 59.844002 66.720001 73.367996 78.204002 85.367996 92.244003 95.040001 99.036003 103.872 109.056 115.932 123.132 129.552 136.42799 143.076 147.912 150.72 157.95599">This is an actual transaction</tspan></text>
</g></g></g></g></svg>